<?xml version="1.0" encoding="utf-8"?>
<!-- Generator: Adobe Illustrator 25.3.1, SVG Export Plug-In . SVG Version: 6.00 Build 0)  -->
<svg version="1.1" id="Layer_1" xmlns="http://www.w3.org/2000/svg" xmlns:xlink="http://www.w3.org/1999/xlink" x="0px" y="0px"
	 viewBox="0 0 24 24" style="enable-background:new 0 0 24 24;" xml:space="preserve">
<style type="text/css">
	.st0{fill-rule:evenodd;clip-rule:evenodd;fill:#005897;}
	.st1{fill-rule:evenodd;clip-rule:evenodd;fill:#5D5E5E;}
	.st2{fill-rule:evenodd;clip-rule:evenodd;fill:#005897;stroke:#005897;stroke-width:0.25;stroke-miterlimit:10;}
	.st3{fill:#005897;}
	.st4{fill:#005897;stroke:#005897;stroke-width:0.25;stroke-miterlimit:10;}
	.st5{fill:#FBFBFB;}
	.st6{fill:#F6FAFD;}
	.st7{fill:#010201;}
	.st8{fill:#38ADE1;}
	.st9{fill:#005897;stroke:#FFFFFF;stroke-width:0.1;stroke-miterlimit:10;}
	.st10{fill:#005897;stroke:#005897;stroke-width:0.1;stroke-miterlimit:10;}
	.st11{fill:#005897;stroke:#005897;stroke-width:0.12;stroke-miterlimit:10;}
	.st12{fill:#174884;}
	.st13{fill:#9CBDD4;}
	.st14{fill:#FFFFFF;}
</style>
<g>
	<path class="st4" d="M2.41,5.37c0.25,0.14,0.24,0.31,0.05,0.48c-0.2,0.18-0.21,0.4-0.21,0.64c0.01,0.82,0.01,1.63,0.02,2.45
		c-0.01,0.21-0.08,0.44,0.1,0.62c0.08,0.46-0.31,0.83-0.21,1.32c0.14,0.68,0.16,1.38,0.23,2.08c0.02,0.17,0.04,0.34,0.06,0.52
		c-0.08,1.23-0.02,2.47-0.03,3.7c0,0.14,0.02,0.25,0.17,0.34c0.46,0.27,0.58,0.73,0.63,1.22c-0.01,0.06-0.01,0.11,0.08,0.09
		c0.03,0,0.07,0,0.1,0c0.42-0.04,0.12-0.26,0.11-0.41c0-0.16,0-0.33-0.01-0.49c0.02-0.07,0.04-0.14,0.05-0.2
		c0.14-0.46,0.34-0.88,0.88-0.98c0,0,0.05,0.01,0.05,0.01l0.05-0.01c0.66,0.12,0.81,0.64,0.95,1.18c0,0.07,0,0.14,0.01,0.21
		c0,0.07,0,0.14,0,0.2c0.02,0.03,0.04,0.09,0.06,0.09c0.06,0.02,0.12,0,0.13-0.09l0,0c0.08-0.65,0.11-1.3-0.01-1.95
		c-0.69-0.11-1.37-0.06-2.06-0.02c-0.08-0.01-0.09,0.03-0.07,0.1c-0.12,0.25,0.17,0.77-0.21,0.75c-0.29-0.01-0.12-0.53-0.14-0.82
		c-0.08-1.06,0.3-1.87,1.3-2.32c0.16-0.07,0.18-0.18,0.18-0.33c0-0.14,0-0.3,0.2-0.29c0.19,0.01,0.19,0.17,0.18,0.31
		C5,14.01,5.1,14.11,5.31,14.12c0.46,0.5,1.05,0.57,1.68,0.5c0.34-0.04,0.49,0.09,0.43,0.43c-0.09,0.52,0.13,0.63,0.62,0.6
		c0.7-0.05,0.71-0.02,0.71-0.71c0-0.22,0-0.45,0-0.67c0-0.22,0.01-0.39-0.23-0.56c-0.31-0.2-0.29-0.54,0.01-0.78
		c0.14-0.11,0.23-0.2,0.24-0.39c0.07-0.91,0.37-1.73,0.91-2.46c0.57-0.63,1.26-1.09,2.07-1.36c0.06,0.01,0.09-0.01,0.07-0.08
		c0-0.21,0-0.41,0-0.62c0.03-0.07,0-0.09-0.07-0.08c-0.3-0.44-0.29-0.8,0.03-0.94c0.09-0.04,0.2-0.06,0.28,0.02
		c0.08,0.08,0.04,0.16-0.01,0.23c-0.07,0.09-0.29,0.13-0.13,0.3c0.15,0.15,0.23-0.05,0.34-0.1c0.05-0.02,0.12,0.01,0.19,0.01
		c0,0,0,0.03,0,0.03l0.03,0.01c0.03,0.36-0.48,0.51-0.33,0.95c0.06,0.18,0.09,0.3,0.27,0.35c0.61,0.19,1.11,0.57,1.6,0.96
		c0.07,0.07,0.14,0.14,0.21,0.21c0.54,0.67,0.85,1.44,1.02,2.27c0.08,0.2-0.18,0.52,0.21,0.62c0.26,0.28,0.39,0.61,0.02,0.87
		c-0.22,0.15-0.23,0.3-0.23,0.5c0,0.22,0,0.44,0,0.67c0,0.74,0,0.72,0.76,0.75c0.42,0.01,0.66-0.07,0.57-0.55
		c-0.07-0.38,0.09-0.54,0.48-0.48c0.12,0.02,0.24-0.01,0.36-0.01c0.75,0.04,1.3-0.31,1.57-1c0.06-0.15,0.17-0.13,0.29-0.12
		c0.01,0.39,0.21,0.62,0.57,0.79c0.39,0.19,0.64,0.55,0.83,0.95c0.24,0.52,0.14,1.08,0.16,1.62c0.01,0.18,0.04,0.44-0.21,0.45
		c-0.26,0.01-0.24-0.26-0.21-0.43c0.08-0.44-0.1-0.58-0.51-0.51c-0.13,0.02-0.27,0.02-0.41,0.03c-0.36-0.06-0.71-0.05-1.07,0
		l-0.05-0.01l-0.03,0.04c-0.13,0.67-0.11,1.33,0,2c0.03,0.01,0.07,0.02,0.1,0.02c0.07,0.02,0.1-0.01,0.08-0.08
		c0.02-0.68,0.09-1.33,0.86-1.6c0.1,0,0.19,0.01,0.29,0.01c0.58,0.2,0.86,0.9,0.76,1.67c-0.02,0.15-0.14,0.36,0.09,0.42
		c0.27,0.07,0.13-0.2,0.19-0.31c0.19-0.33,0.18-0.8,0.56-0.98c0.28-0.14,0.3-0.32,0.29-0.57c-0.03-1.99-0.01-3.98,0.21-5.96
		c0.06-0.34,0.19-0.68-0.12-0.97c-0.02-0.08-0.07-0.18-0.05-0.25c0.27-0.96,0.09-1.94,0.12-2.91c0-0.24,0-0.48,0-0.72
		c-0.11-0.31-0.68-0.65,0.08-0.89c0.04-0.01,0.04-0.19,0.04-0.29c-0.02-0.34-0.03-0.68-0.08-1.02c-0.07-0.5-0.08-0.98,0.42-1.29
		c0.14-0.31,0.04-0.63,0.05-0.95c0.07-0.15-0.09-0.45,0.2-0.44c0.28,0.01,0.16,0.29,0.17,0.46c0.01,0.47-0.11,0.97,0.42,1.27
		c0.14,0.08,0.11,0.23,0.1,0.37c-0.03,0.43-0.04,0.86-0.07,1.29C23.03,5,22.93,5.32,23.38,5.46c0.21,0.07,0.11,0.26-0.02,0.37
		c-0.23,0.19-0.24,0.43-0.24,0.7c0.01,0.84-0.03,1.69,0.01,2.53c0.2,4.36,0.15,8.73,0.17,13.09c0,0.46-0.12,0.57-0.57,0.57
		c-7.17-0.01-14.33-0.01-21.5,0.01c-0.46,0-0.57-0.12-0.57-0.58c0.02-2.85-0.01-5.71,0.02-8.56c0.01-0.96,0.14-1.92,0.21-2.87
		c0.01-0.09,0.04-0.18,0.02-0.26C0.61,9.14,1,7.8,0.87,6.47C0.84,6.23,0.83,6.01,0.63,5.83c-0.23-0.2-0.16-0.36,0.1-0.45
		C0.95,5.3,0.99,5.17,0.96,4.95C0.92,4.57,0.93,4.19,0.89,3.81C0.84,3.39,0.86,3.05,1.24,2.73c0.34-0.28,0.08-0.78,0.14-1.18
		C1.4,1.43,1.39,1.29,1.55,1.28C1.71,1.27,1.73,1.4,1.76,1.52c0,0.14,0,0.28,0,0.41C1.69,2.35,1.69,2.74,2.13,2.99
		C2.29,3.08,2.26,3.25,2.25,3.4C2.22,3.91,2.19,4.42,2.17,4.92C2.12,5.14,2.12,5.33,2.41,5.37z M1.9,5.96
		c0.06-0.1,0.13-0.19,0.19-0.29c-0.23-0.13-0.44-0.34-0.75-0.2C1.12,5.58,0.89,5.66,1.18,5.96c0.07,0.08,0.04,0.26,0.04,0.4
		c0,0.81,0,1.62,0,2.42c0,0.56,0.07,0.6,0.62,0.36C1.95,9.09,1.91,9,1.91,8.92C1.91,7.93,1.91,6.95,1.9,5.96z M11.22,22.33
		c0.52,0,1.03,0,1.55,0c0.07,0.01,0.09-0.01,0.07-0.08c0-0.77,0-1.53,0-2.3c-0.09-0.63-0.52-1.22-0.86-1.2
		c-0.37,0.02-0.83,0.67-0.84,1.23c-0.01,0.44,0.01,0.89,0.02,1.33c0,0.31,0,0.62,0,0.93C11.13,22.32,11.15,22.35,11.22,22.33z
		 M21.97,18.64c0,1.1,0,2.2,0,3.3c-0.06,0.27-0.04,0.44,0.34,0.43c0.67-0.02,0.67,0.01,0.67-0.69c0-0.12-0.01-0.24-0.02-0.36
		c0-1.11,0-2.21,0-3.32c0-0.23,0-0.47,0-0.7c0.03-1.24,0.06-2.48-0.01-3.72c0.02-0.05,0.01-0.07-0.05-0.04
		c-0.28-0.07-0.56-0.04-0.83-0.02c-0.07-0.03-0.09,0-0.07,0.06c0,1.41-0.01,2.82-0.01,4.23C21.96,18.09,21.96,18.37,21.97,18.64z
		 M2.03,21.73c0-1.1,0-2.2,0-3.3c0-0.28,0-0.55,0-0.83c0.03-1.34,0.05-2.68-0.01-4.02c0.01-0.06-0.01-0.09-0.07-0.06
		c-0.28-0.03-0.56-0.05-0.83,0.01c-0.05-0.02-0.07,0-0.05,0.05C1,15.14,1.02,16.69,1.04,18.25c0,0.24,0,0.48,0,0.71
		c0,1.1,0,2.19-0.01,3.29c-0.02,0.07,0,0.1,0.07,0.08c0.14,0,0.28,0,0.41,0.01C2.13,22.5,2.08,22.12,2.03,21.73z M7.06,20.8
		c0-1.06,0-2.13,0.01-3.19c0.01-0.77,0-1.55,0.03-2.32c0.02-0.51-0.35-0.3-0.57-0.33c-0.23-0.02-0.48-0.09-0.46,0.33
		c0.03,0.98,0.02,1.96,0.03,2.94c-0.01,1.09-0.01,2.18-0.02,3.27c0,0.91,0,0.91,0.93,0.84c0.07,0.01,0.09-0.01,0.07-0.08
		c0-0.45,0-0.89-0.01-1.34C7.06,20.87,7.06,20.84,7.06,20.8z M16.92,22.25c-0.02,0.07,0,0.09,0.07,0.08c0.19,0.01,0.38,0,0.56,0.03
		c0.29,0.04,0.37-0.07,0.37-0.36c-0.01-2.23-0.01-4.47,0-6.7c0-0.34-0.15-0.38-0.4-0.32c-0.23,0.06-0.63-0.23-0.63,0.32
		C16.92,17.61,16.92,19.93,16.92,22.25z M13.61,9.95c-0.31-0.36-0.72-0.57-1.14-0.75c-0.21-0.09-0.43-0.18-0.69-0.11
		c-1.46,0.42-2.65,1.96-2.66,3.47c0,0.21,0.05,0.28,0.25,0.28c0.75-0.03,1.55,0.17,2.18-0.44c0.3-0.19,0.62-0.19,0.89,0.03
		c0.65,0.54,1.41,0.39,2.15,0.41c0.25,0.01,0.32-0.07,0.3-0.33C14.79,11.49,14.38,10.63,13.61,9.95z M16.54,16.88
		c0.01-0.05,0-0.07-0.05-0.04c-0.38-0.07-0.76-0.04-1.14-0.01c-0.21,0-0.41,0-0.62,0c-1.13,0-2.27,0-3.4,0c-0.24,0-0.47,0-0.71,0
		c-1.04-0.01-2.08-0.08-3.12,0.04l-0.03-0.02l0.01,0.03c-0.12,1.79-0.04,3.58-0.04,5.37c-0.03,0.07,0,0.1,0.07,0.08
		c1.07,0,2.13,0,3.2,0c0.07,0.02,0.1-0.01,0.07-0.08c0.01-0.79,0.01-1.57,0.02-2.36c0.01-0.61,0.46-1.28,0.98-1.44
		c0.55-0.17,0.83,0.27,1.15,0.59c0.01,0.01,0.03,0.02,0.04,0.03c0,0.08,0.02,0.16,0.11,0.19c0.23,0.87,0.1,1.75,0.11,2.63
		c0,0.42,0.12,0.55,0.52,0.45c0.24,0,0.48,0,0.72,0c0.69,0,1.38,0,2.06-0.01c0.07,0.02,0.1-0.01,0.07-0.08
		C16.57,20.46,16.6,18.67,16.54,16.88z M18.27,20.55C18.27,20.55,18.27,20.55,18.27,20.55c0,0.48,0,0.96,0.01,1.44
		c0,0.15-0.09,0.36,0.21,0.37c0.34,0.01,0.23-0.22,0.24-0.39c0.01-0.6-0.04-1.2,0.23-1.77c0.06-0.13,0.07-0.33,0.26-0.34
		c0.22-0.01,0.24,0.21,0.3,0.36c0.27,0.58,0.24,1.2,0.24,1.82c0,0.14-0.07,0.33,0.2,0.32c0.26-0.01,0.18-0.21,0.18-0.34
		c0-0.48,0.04-0.95,0.27-1.39c0.18-0.33,0.33-0.3,0.5,0c0.25,0.44,0.26,0.91,0.25,1.4c-0.01,0.17-0.04,0.35,0.24,0.34
		c0.26-0.01,0.2-0.19,0.2-0.33c0-0.77,0-1.55,0-2.32c0-0.21-0.02-0.33-0.28-0.38c-0.91-0.15-1.82-0.32-2.72-0.51
		c-0.3-0.06-0.31,0.05-0.31,0.28C18.27,19.58,18.27,20.07,18.27,20.55z M5.69,20.57c0.01,0,0.02,0,0.02,0c0-0.48-0.01-0.96,0-1.44
		c0.01-0.26-0.02-0.37-0.33-0.3c-0.9,0.19-1.8,0.35-2.7,0.5c-0.27,0.04-0.27,0.19-0.27,0.39c0.01,0.75,0,1.51,0.01,2.26
		c0,0.15-0.11,0.36,0.19,0.37c0.33,0.01,0.24-0.23,0.23-0.39c-0.01-0.47,0.01-0.92,0.25-1.34c0.16-0.28,0.31-0.34,0.49,0
		c0.21,0.41,0.26,0.84,0.28,1.29c0.01,0.15-0.15,0.43,0.17,0.44c0.37,0.01,0.19-0.31,0.19-0.46c-0.01-0.55,0.07-1.09,0.19-1.63
		c0.04-0.18,0.08-0.37,0.31-0.39c0.25-0.02,0.24,0.19,0.31,0.33c0.28,0.58,0.21,1.2,0.22,1.82c0,0.14-0.06,0.32,0.19,0.33
		c0.29,0.02,0.23-0.18,0.23-0.34C5.69,21.54,5.69,21.06,5.69,20.57z M14.12,15.35c0.02-1-1.08-2.46-2.01-2.71
		c-0.11-0.03-0.2-0.01-0.29,0.03c-1.05,0.5-1.73,1.31-1.93,2.48c-0.03,0.16-0.22,0.46,0.2,0.5c0.34,0.03,0.38-0.12,0.39-0.42
		c0.01-0.46,0.39-0.71,0.81-0.55c0.4,0.15,0.83,0.03,1.22,0.03c0.78,0,0.85-0.09,0.99,0.68c0.05,0.26,0.2,0.22,0.37,0.23
		C14.1,15.64,14.16,15.53,14.12,15.35z M11.99,16.47c1.39,0,2.78,0,4.17,0c0.18,0,0.43,0.1,0.42-0.27c-0.01-0.33-0.24-0.23-0.4-0.23
		c-2.78,0-5.57,0-8.35,0c-0.18,0-0.43-0.11-0.42,0.26c0.01,0.33,0.24,0.23,0.4,0.23C9.2,16.47,10.6,16.47,11.99,16.47z M19.37,15.97
		c0.07,0,0.14,0.01,0.21,0c0.3-0.03,0.78,0.13,0.85-0.08c0.12-0.36-0.15-0.74-0.43-1.04c-0.08-0.09-0.18-0.15-0.27-0.23
		c-0.38-0.35-0.76-0.28-1.14,0.01c-0.23,0.18-0.44,0.93-0.26,1.21c0.18,0.29,0.53,0.06,0.79,0.12
		C19.2,15.98,19.29,15.97,19.37,15.97z M3.5,15.97c0.52,0,1.02-0.04,1.51,0.01c0.54,0.06,0.68-0.12,0.67-0.66
		c-0.01-0.39-0.15-0.61-0.44-0.8c-0.34-0.23-0.64-0.17-0.96,0.07C3.82,14.94,3.57,15.38,3.5,15.97z M23,5.7
		c-0.19-0.1-0.32-0.15-0.44-0.23c-0.24-0.15-0.4,0.1-0.6,0.13c-0.08,0.01-0.1,0.12-0.01,0.19c0.24,0.17,0.17,0.42,0.17,0.66
		c0,0.82,0.01,1.64-0.01,2.46c0,0.27,0.13,0.3,0.35,0.3c0.23,0,0.33-0.04,0.33-0.31c-0.02-0.87,0.01-1.75-0.02-2.62
		C22.75,6.04,22.75,5.84,23,5.7z M1.25,10.98C1.2,11.61,1.15,12.2,1.1,12.8c-0.01,0.12-0.14,0.31,0.05,0.35
		c0.26,0.05,0.55,0.05,0.81-0.01c0.15-0.03,0.06-0.24,0.05-0.37c-0.06-0.59-0.12-1.18-0.2-1.85C1.63,11.27,1.44,11.1,1.25,10.98z
		 M22.18,10.95c-0.07,0.66-0.14,1.27-0.2,1.87c-0.01,0.11-0.09,0.29,0.05,0.32c0.26,0.04,0.54,0.05,0.81,0.01
		c0.16-0.02,0.07-0.19,0.06-0.3c-0.05-0.61-0.1-1.22-0.16-1.94C22.56,11.23,22.37,11.18,22.18,10.95z M20.11,18.18
		c0-0.63-0.27-1.1-0.61-1.09c-0.31,0.01-0.61,0.51-0.62,1.02c-0.01,0.38,0.4,0.65,0.99,0.6C20.25,18.69,20.01,18.33,20.11,18.18z
		 M5.1,18.25c0-0.69-0.3-1.18-0.65-1.16c-0.33,0.02-0.61,0.47-0.57,1.02c0.02,0.2-0.16,0.64,0.26,0.57
		C4.49,18.62,5.09,18.82,5.1,18.25z M1.23,3.84c0.02,0.25,0.06,0.59,0.08,0.93c0.01,0.16,0.01,0.26,0.25,0.27
		c0.27,0,0.27-0.12,0.27-0.3c0.01-0.32-0.01-0.66,0.05-0.97c0.08-0.35,0.01-0.72-0.31-0.74C1.25,3.01,1.17,3.38,1.23,3.7
		C1.23,3.72,1.23,3.73,1.23,3.84z M22.77,3.82c0-0.1-0.01-0.19,0-0.28c0.05-0.3-0.15-0.54-0.35-0.52c-0.22,0.02-0.39,0.27-0.34,0.59
		C22.15,4,22.15,4.4,22.16,4.79c0.01,0.21,0.08,0.24,0.28,0.24c0.18,0,0.23-0.04,0.24-0.21C22.7,4.48,22.74,4.14,22.77,3.82z
		 M9.97,13.88c-0.15-0.01-0.25-0.02-0.35-0.03C9.18,13.77,9,13.93,9.06,14.4c0.04,0.3,0,0.62,0.01,0.93c0,0.13-0.05,0.28,0.16,0.31
		c0.23,0.03,0.25-0.11,0.27-0.28C9.56,14.85,9.69,14.37,9.97,13.88z M14.06,13.91c0.23,0.48,0.38,0.98,0.44,1.51
		c0.01,0.13,0.04,0.23,0.21,0.22c0.2,0,0.22-0.12,0.21-0.27c0-0.26,0-0.51,0-0.77C14.92,13.78,14.92,13.78,14.06,13.91z
		 M22.43,10.56c0.15-0.33,0.63-0.56,0.37-0.95c-0.1-0.15-0.6-0.15-0.7-0.01C21.82,9.99,22.34,10.22,22.43,10.56z M1.57,10.56
		c0.07-0.35,0.62-0.56,0.33-0.93C1.77,9.46,1.25,9.46,1.16,9.63C0.97,10,1.38,10.25,1.57,10.56z M13.56,13.18
		c0.08,0.21,0.17,0.31,0.35,0.3c0.39-0.01,0.78,0,1.17,0c0.1,0,0.23,0.01,0.24-0.13c0.01-0.16-0.12-0.17-0.25-0.17
		C14.58,13.18,14.09,13.18,13.56,13.18z M10.42,13.18c-0.49,0-0.95,0-1.42,0c-0.13,0-0.32-0.03-0.33,0.15
		c-0.01,0.2,0.18,0.15,0.31,0.16c0.34,0.01,0.69-0.01,1.03,0.01C10.2,13.49,10.34,13.44,10.42,13.18z M4.75,20.51
		c-0.24,0.59-0.11,1.14-0.14,1.68c-0.01,0.09,0.03,0.16,0.14,0.16c0.14,0,0.17-0.08,0.17-0.19C4.9,21.64,5.02,21.1,4.75,20.51z
		 M19.22,20.52c-0.23,0.57-0.14,1.12-0.16,1.65c-0.01,0.12,0.04,0.19,0.18,0.18c0.12-0.01,0.14-0.08,0.13-0.17
		C19.34,21.65,19.47,21.09,19.22,20.52z M2.41,17.85c0,0.36,0,0.63,0,0.9c0,0.1-0.05,0.27,0.15,0.24c0.14-0.02,0.33-0.02,0.29-0.25
		C2.82,18.43,2.76,18.13,2.41,17.85z M3.35,20.99c-0.24,0.4-0.15,0.8-0.17,1.18c-0.01,0.12,0.03,0.19,0.17,0.19
		c0.12,0,0.14-0.08,0.13-0.17C3.46,21.81,3.58,21.41,3.35,20.99z M20.64,21c-0.24,0.41-0.12,0.84-0.14,1.25
		c0,0.11,0.1,0.11,0.19,0.1c0.12-0.01,0.12-0.1,0.11-0.19C20.79,21.78,20.88,21.39,20.64,21z M21.57,17.82
		c-0.32,0.31-0.4,0.6-0.44,0.9c-0.03,0.22,0.12,0.24,0.28,0.27c0.22,0.03,0.15-0.14,0.16-0.23C21.58,18.48,21.57,18.21,21.57,17.82z
		 M13.18,15.39c0-0.22-0.06-0.37-0.29-0.36c-0.24,0.01-0.24,0.19-0.26,0.37c-0.02,0.23,0.13,0.23,0.3,0.24
		C13.15,15.65,13.21,15.56,13.18,15.39z M11.07,15.03c-0.19,0.01-0.25,0.14-0.26,0.34c-0.01,0.18,0.03,0.28,0.25,0.28
		c0.19-0.01,0.34-0.02,0.32-0.27C11.35,15.2,11.33,15.03,11.07,15.03z M11.99,15.03c-0.24,0.01-0.25,0.17-0.26,0.36
		c-0.01,0.21,0.07,0.26,0.27,0.26c0.2,0,0.28-0.07,0.27-0.27C12.25,15.18,12.23,15.03,11.99,15.03z"/>
	<path class="st4" d="M8.98,18.92c0.18-0.02,0.34,0.03,0.49,0.14c0.42,0.75,0.31,1.57,0.32,2.38c0,0.22-0.1,0.28-0.31,0.3
		c-1.05,0.09-1.06,0.1-1.04-0.95c0.01-0.38-0.13-0.78,0.1-1.15c0.1-0.03,0.07-0.1,0.06-0.17C8.65,19.24,8.74,19.03,8.98,18.92z
		 M9.11,19.17c-0.26,0.73-0.4,1.35-0.34,2.01c0.02,0.27,0.21,0.21,0.37,0.22c0.16,0.01,0.3,0,0.32-0.23
		C9.51,20.51,9.37,19.89,9.11,19.17z"/>
	<path class="st4" d="M14.73,21.75c-0.16-0.01-0.32-0.02-0.48-0.04c-0.04-0.79-0.17-1.59,0.16-2.36c0.1-0.24,0.2-0.45,0.49-0.43
		c0.29,0.01,0.36,0.24,0.47,0.47c0.3,0.62,0.15,1.26,0.2,1.9c0.03,0.38-0.13,0.49-0.48,0.45C14.97,21.73,14.85,21.75,14.73,21.75z
		 M14.86,19.14c-0.21,0.76-0.4,1.37-0.33,2.03c0.03,0.27,0.21,0.22,0.37,0.22c0.16,0,0.29,0,0.31-0.23
		C15.27,20.51,15.16,19.89,14.86,19.14z"/>
</g>
</svg>
