<?xml version="1.0" encoding="utf-8"?>
<!-- Generator: Adobe Illustrator 25.3.1, SVG Export Plug-In . SVG Version: 6.00 Build 0)  -->
<svg version="1.1" id="Layer_1" xmlns="http://www.w3.org/2000/svg" xmlns:xlink="http://www.w3.org/1999/xlink" x="0px" y="0px"
	 viewBox="0 0 24 24" style="enable-background:new 0 0 24 24;" xml:space="preserve">
<style type="text/css">
	.st0{fill-rule:evenodd;clip-rule:evenodd;fill:#005897;}
	.st1{fill-rule:evenodd;clip-rule:evenodd;fill:#5D5E5E;}
	.st2{fill-rule:evenodd;clip-rule:evenodd;fill:#005897;stroke:#005897;stroke-width:0.25;stroke-miterlimit:10;}
	.st3{fill:#005897;}
	.st4{fill:#005897;stroke:#005897;stroke-width:0.25;stroke-miterlimit:10;}
	.st5{fill:#FBFBFB;}
	.st6{fill:#F6FAFD;}
	.st7{fill:#010201;}
	.st8{fill:#38ADE1;}
	.st9{fill:#005897;stroke:#FFFFFF;stroke-width:0.1;stroke-miterlimit:10;}
	.st10{fill:#005897;stroke:#005897;stroke-width:0.1;stroke-miterlimit:10;}
	.st11{fill:#005897;stroke:#005897;stroke-width:0.12;stroke-miterlimit:10;}
	.st12{fill:#174884;}
	.st13{fill:#9CBDD4;}
	.st14{fill:#FFFFFF;}
</style>
<g>
	<path class="st3" d="M6.9,13.96c0-1.08,0-2.16,0-3.24c0-0.25-0.2-0.22-0.36-0.21c-0.31,0.02-0.35-0.15-0.35-0.41
		c0-0.27,0.06-0.42,0.36-0.38C6.8,9.76,6.91,9.67,6.91,9.4c0-0.27-0.06-0.42-0.37-0.38C6.23,9.06,6.19,8.9,6.18,8.63
		C6.17,8.32,6.31,8.25,6.57,8.29c0.28,0.04,0.33-0.1,0.34-0.34c0.01-0.26-0.08-0.37-0.34-0.33C6.22,7.66,6.2,7.46,6.19,7.19
		c-0.01-0.3,0.08-0.45,0.4-0.4C6.87,6.83,6.91,6.66,6.9,6.43C6.87,5.68,7.11,5.08,7.83,4.75c0.15-0.07,0.19-0.2,0.18-0.36
		C8.01,4.11,8.03,3.84,8.01,3.57C7.99,3.28,8.06,3.14,8.4,3.14c0.35,0,0.39,0.18,0.38,0.45c-0.01,0.15,0.02,0.3-0.01,0.44
		C8.69,4.45,8.84,4.74,9.21,4.95c0.55,0.31,0.66,0.83,0.61,1.4c-0.03,0.31,0.03,0.5,0.4,0.44c0.33-0.05,0.34,0.17,0.35,0.41
		c0,0.24-0.02,0.45-0.35,0.41C9.99,7.59,9.81,7.6,9.82,7.94c0,0.31,0.13,0.38,0.39,0.35c0.3-0.04,0.37,0.11,0.37,0.38
		c0,0.26-0.08,0.38-0.34,0.36C9.99,9,9.82,9.03,9.82,9.36c-0.01,0.36,0.17,0.39,0.44,0.36c0.3-0.03,0.32,0.15,0.32,0.38
		c0,0.23-0.04,0.43-0.31,0.4c-0.45-0.05-0.45,0.22-0.44,0.54c0.02,0.42,0,0.84,0,1.26c0,0.17-0.02,0.35,0.22,0.35
		c0.2,0,0.46,0.1,0.53-0.22c0.11-0.53,0.41-0.92,0.9-1.14c0.21-0.09,0.17-0.26,0.16-0.42c-0.03-0.31,0.09-0.43,0.4-0.42
		c0.33,0,0.42,0.16,0.38,0.45c-0.03,0.22,0.04,0.35,0.26,0.47c0.4,0.22,0.73,0.53,0.76,1.04c0.02,0.31,0.26,0.23,0.45,0.25
		c0.25,0.03,0.31-0.12,0.31-0.34c0-0.47-0.01-0.95,0-1.42c0.01-0.27-0.08-0.42-0.37-0.39c-0.31,0.02-0.39-0.14-0.4-0.44
		c0-0.33,0.17-0.36,0.41-0.34c0.26,0.03,0.36-0.08,0.35-0.34c-0.01-0.24-0.07-0.39-0.34-0.36c-0.28,0.03-0.43-0.04-0.43-0.38
		c0-0.37,0.2-0.37,0.45-0.35c0.29,0.03,0.31-0.14,0.32-0.37c0.01-0.24-0.08-0.34-0.31-0.31c-0.32,0.04-0.46-0.07-0.45-0.42
		c0.01-0.31,0.12-0.44,0.42-0.4c0.31,0.04,0.36-0.14,0.35-0.4c-0.05-0.74,0.2-1.32,0.91-1.65c0.19-0.09,0.2-0.23,0.2-0.4
		c-0.01-0.27,0.01-0.55,0-0.82c-0.01-0.28,0.09-0.37,0.38-0.37c0.3,0,0.39,0.11,0.36,0.39c-0.01,0.14,0.02,0.29-0.01,0.44
		c-0.07,0.45,0.06,0.78,0.49,1c0.53,0.28,0.57,0.8,0.56,1.32c-0.01,0.31,0.01,0.55,0.42,0.5c0.33-0.04,0.34,0.17,0.34,0.41
		c0,0.24,0,0.45-0.34,0.41c-0.23-0.02-0.43-0.02-0.42,0.32c0,0.31,0.14,0.39,0.4,0.35c0.3-0.04,0.37,0.1,0.37,0.37
		c0,0.25-0.06,0.39-0.33,0.36C17.27,9,17.1,9.04,17.09,9.36c-0.01,0.36,0.19,0.39,0.45,0.36c0.25-0.02,0.32,0.1,0.31,0.32
		c-0.01,0.23,0.02,0.48-0.31,0.45c-0.44-0.04-0.45,0.22-0.45,0.54c0.01,0.8,0,1.61,0.01,2.41c0,0.17-0.07,0.37,0.16,0.52
		c0.31-0.61,0.81-1.02,1.45-1.25c0.22-0.08,0.28-0.2,0.26-0.4c-0.03-0.28,0.03-0.42,0.38-0.42c0.33,0.01,0.37,0.17,0.32,0.4
		c-0.07,0.32,0.16,0.41,0.37,0.49c0.85,0.31,1.31,0.91,1.44,1.79c0.03,0.19,0.1,0.31,0.31,0.27c0.47-0.09,0.48,0.19,0.48,0.54
		c-0.01,2.06,0.01,4.12-0.02,6.18c-0.01,0.44,0.12,0.59,0.54,0.53c0.18-0.03,0.37,0.01,0.55-0.01c0.3-0.04,0.33,0.13,0.32,0.36
		c-0.01,0.22,0.05,0.47-0.31,0.42c-0.07-0.01-0.15,0-0.22,0c-7.39,0-14.78,0-22.16,0c-0.24,0-0.58,0.14-0.58-0.34
		c0-0.31,0.05-0.45,0.42-0.45c1.06,0,1.06-0.02,1.06-1.1c0-1.9,0.01-3.79-0.01-5.69c0-0.31,0.05-0.5,0.41-0.44
		c0.21,0.03,0.31-0.03,0.35-0.28c0.11-0.83,0.55-1.42,1.35-1.73c0.27-0.1,0.53-0.23,0.45-0.62c-0.06-0.29,0.15-0.3,0.38-0.31
		c0.25-0.01,0.38,0.07,0.36,0.34c-0.02,0.23-0.01,0.4,0.28,0.5c0.63,0.22,1.11,0.63,1.38,1.28C6.82,14,6.86,13.98,6.9,13.96z
		 M9.82,17.71c0,1.3,0,2.59,0,3.89c0,0.24-0.09,0.5,0.34,0.51c0.44,0.01,0.4-0.23,0.4-0.52c0-1.5,0-2.99,0-4.49
		c0-1.04,0.33-1.94,1.08-2.69c0.3-0.31,0.51-0.27,0.76,0.01c0.65,0.7,1.05,1.49,1.04,2.48c-0.02,1.61,0.01,3.21-0.01,4.82
		c0,0.33,0.13,0.39,0.42,0.39c0.31,0.01,0.36-0.14,0.35-0.4c-0.01-2.63-0.01-5.25,0-7.88c0-0.39-0.14-0.49-0.51-0.49
		c-1.13,0.02-2.26,0.02-3.39,0c-0.38-0.01-0.5,0.1-0.5,0.49C9.84,15.12,9.82,16.42,9.82,17.71z M17.08,18.81
		c0,0.95,0.01,1.9-0.01,2.84c-0.01,0.32,0.06,0.45,0.42,0.45c0.36,0,0.36-0.18,0.36-0.44c-0.01-0.98-0.01-1.97,0-2.95
		c0-0.82,0.71-1.63,1.43-1.65c0.73-0.02,1.46,0.81,1.46,1.66c0,1,0.01,2,0,3.01c0,0.29,0.1,0.38,0.38,0.38
		c0.28,0,0.38-0.07,0.38-0.37c-0.01-1.93-0.01-3.86,0-5.79c0-0.31-0.1-0.41-0.41-0.41c-1.18,0.02-2.37,0.02-3.55,0
		c-0.38-0.01-0.46,0.15-0.45,0.49C17.09,16.95,17.08,17.88,17.08,18.81z M2.58,18.81c0,0.97,0.01,1.93,0,2.9
		c0,0.25,0.01,0.4,0.34,0.4c0.31,0,0.35-0.12,0.35-0.39c-0.01-1.04,0.02-2.08-0.01-3.12c-0.02-0.79,0.86-1.49,1.51-1.54
		c0.65-0.05,1.44,0.84,1.45,1.55c0.01,1.02,0.01,2.04,0,3.06c0,0.27,0.01,0.43,0.36,0.43c0.38,0,0.34-0.22,0.34-0.45
		c0-1.86-0.01-3.72,0.01-5.58c0-0.39-0.08-0.54-0.51-0.53c-1.11,0.03-2.22,0.03-3.34,0c-0.37-0.01-0.51,0.08-0.49,0.47
		C2.6,16.95,2.58,17.88,2.58,18.81z M9.13,18.88c0-0.8,0-1.6,0-2.4c0-0.93,0-0.9-0.91-0.93c-0.48-0.02-0.57,0.15-0.57,0.59
		c0.02,1.64,0.01,3.28,0.01,4.92c0,1.1,0,1.09,1.11,1.05c0.28-0.01,0.37-0.09,0.37-0.38C9.12,20.77,9.13,19.83,9.13,18.88z
		 M16.38,18.85c0-0.8,0-1.61,0-2.41c0-0.89,0-0.86-0.88-0.9c-0.47-0.02-0.58,0.14-0.58,0.59c0.02,1.64,0.01,3.28,0.01,4.93
		c0,1.07,0,1.06,1.07,1.04c0.32,0,0.39-0.1,0.39-0.4C16.37,20.75,16.38,19.8,16.38,18.85z M12.75,19.26c0-0.78,0-1.56,0-2.35
		c0-0.54-0.2-1.02-0.48-1.47c-0.16-0.27-0.28-0.39-0.51,0c-0.32,0.53-0.46,1.09-0.47,1.7c-0.01,1.31,0,2.62,0,3.93
		c0,1.06,0,1.04,1.06,1.04c0.36,0,0.41-0.13,0.41-0.44C12.74,20.86,12.75,20.06,12.75,19.26z M4.02,20.17
		C4.02,20.17,4.02,20.17,4.02,20.17c0,0.31,0,0.62,0,0.93c0,1.03,0,1.02,1.06,1c0.33,0,0.44-0.1,0.43-0.43
		c-0.02-0.95-0.01-1.9-0.01-2.85c0-0.47-0.38-0.98-0.74-1c-0.34-0.02-0.74,0.51-0.75,0.98C4.02,19.26,4.02,19.71,4.02,20.17z
		 M20,20.17c0-0.45,0-0.91,0-1.36c0-0.46-0.38-0.99-0.71-0.98c-0.32,0.01-0.7,0.55-0.7,1.01c0,0.75,0,1.49,0,2.24
		c0,1.08,0,1.07,1.08,1.02c0.27-0.01,0.34-0.09,0.33-0.35C19.99,21.23,20,20.7,20,20.17z M4.67,14.85c0.38,0,0.76-0.03,1.14,0.01
		c0.45,0.04,0.43-0.2,0.32-0.49c-0.2-0.53-0.83-0.99-1.37-1c-0.54-0.01-1.13,0.41-1.37,0.97c-0.17,0.38-0.12,0.57,0.36,0.52
		C4.05,14.82,4.36,14.84,4.67,14.85z M19.29,14.85c0.36,0,0.73-0.01,1.09,0c0.27,0.01,0.34-0.05,0.3-0.34
		c-0.11-0.72-0.83-1.11-1.39-1.14c-0.64-0.03-1.34,0.6-1.42,1.2c-0.03,0.23,0.07,0.28,0.27,0.28
		C18.53,14.84,18.91,14.84,19.29,14.85z M9.14,11.61c0-1.24,0-1.24-1.1-1.15c-0.02,0-0.04,0-0.05,0c-0.22,0-0.34,0.1-0.34,0.33
		c0,0.51,0.01,1.02,0,1.53c-0.01,0.27,0.12,0.33,0.37,0.34C9.14,12.72,9.14,12.73,9.14,11.61z M16.38,11.59c0-1.19,0-1.19-1.05-1.11
		c-0.02,0-0.04,0-0.05,0c-0.25,0-0.36,0.11-0.35,0.37c0.01,0.49,0.01,0.98,0,1.47c0,0.18,0.03,0.3,0.25,0.34
		c0.99,0.18,1.2,0.03,1.2-0.95C16.38,11.66,16.38,11.63,16.38,11.59z M8.37,14.85c0.84-0.01,0.77,0.13,0.76-0.62
		c0-0.97,0.13-0.88-0.69-0.87c-0.83,0-0.8-0.18-0.8,0.77C7.65,14.85,7.65,14.85,8.37,14.85z M16.38,14.22
		c-0.01-0.97,0.09-0.85-0.62-0.86c-0.83-0.01-0.83,0-0.83,0.68c0.01,1-0.06,0.74,0.8,0.82C16.37,14.92,16.47,14.64,16.38,14.22z
		 M8.33,6.79c0.81,0,0.81,0,0.81-0.45c0-0.59-0.32-0.99-0.77-0.98C7.92,5.37,7.69,5.74,7.64,6.33C7.59,7.01,8.07,6.74,8.33,6.79z
		 M15.63,6.79c0.37-0.03,0.83,0.18,0.76-0.5c-0.06-0.54-0.33-0.94-0.75-0.92c-0.43,0.02-0.68,0.4-0.71,0.99
		C14.88,7.05,15.4,6.69,15.63,6.79z M8.34,8.29c0.13,0,0.22,0,0.31,0c0.24-0.01,0.5,0.08,0.49-0.35c0-0.45-0.29-0.31-0.51-0.32
		c-0.23-0.01-0.47,0-0.7-0.01C7.71,7.6,7.66,7.7,7.66,7.9C7.62,8.57,8.14,8.16,8.34,8.29z M8.35,9.73c0.13,0,0.22,0,0.31,0
		c0.25,0,0.5,0.05,0.49-0.36C9.14,8.95,8.9,9.01,8.65,9.01c-0.23,0-0.47,0-0.7,0c-0.2,0-0.28,0.09-0.3,0.29
		C7.59,9.98,8.12,9.63,8.35,9.73z M15.6,8.29c0.19,0,0.34-0.01,0.48,0c0.31,0.04,0.29-0.16,0.3-0.37c0.01-0.23-0.06-0.33-0.3-0.31
		c-0.29,0.02-0.58,0.01-0.87,0c-0.2-0.01-0.28,0.07-0.29,0.28C14.89,8.55,15.39,8.18,15.6,8.29z M15.6,9.72c0.12,0,0.19,0,0.26,0
		c0.25-0.01,0.55,0.11,0.53-0.37c-0.01-0.44-0.28-0.33-0.51-0.34c-0.22-0.01-0.44,0-0.65,0c-0.2,0-0.28,0.09-0.3,0.29
		C14.87,9.97,15.38,9.63,15.6,9.72z M11.93,11.92c-0.27,0.03-0.58,0.24-0.57,0.58c0.02,0.32,0.38,0.11,0.59,0.15
		c0.19,0.03,0.4,0,0.59,0c0.22,0,0.26-0.14,0.16-0.28C12.53,12.15,12.35,11.91,11.93,11.92z"/>
	<path class="st3" d="M18.56,16.64c-0.02,0.23-0.13,0.34-0.35,0.34c-0.21,0-0.36-0.1-0.35-0.31c0-0.19,0.1-0.35,0.31-0.37
		C18.42,16.27,18.5,16.46,18.56,16.64z"/>
	<path class="st3" d="M20.73,16.64c-0.01,0.23-0.13,0.35-0.35,0.34c-0.19-0.01-0.38-0.09-0.37-0.31c0.01-0.22,0.16-0.36,0.38-0.37
		C20.64,16.28,20.68,16.48,20.73,16.64z"/>
	<path class="st3" d="M5.86,17c-0.24-0.01-0.37-0.1-0.36-0.33c0.01-0.23,0.09-0.4,0.35-0.38c0.23,0.02,0.35,0.16,0.35,0.4
		C6.2,16.93,6,16.95,5.86,17z"/>
	<path class="st3" d="M3.6,16.99c-0.15-0.04-0.36-0.11-0.32-0.36c0.03-0.19,0.16-0.36,0.4-0.35c0.25,0.01,0.34,0.2,0.33,0.4
		C4,16.88,3.85,17,3.6,16.99z"/>
</g>
</svg>
