<?xml version="1.0" encoding="utf-8"?>
<!-- Generator: Adobe Illustrator 25.3.1, SVG Export Plug-In . SVG Version: 6.00 Build 0)  -->
<svg version="1.1" id="Layer_1" xmlns="http://www.w3.org/2000/svg" xmlns:xlink="http://www.w3.org/1999/xlink" x="0px" y="0px"
	 viewBox="0 0 24 24" style="enable-background:new 0 0 24 24;" xml:space="preserve">
<style type="text/css">
	.st0{fill-rule:evenodd;clip-rule:evenodd;fill:#005897;}
	.st1{fill-rule:evenodd;clip-rule:evenodd;fill:#5D5E5E;}
	.st2{fill-rule:evenodd;clip-rule:evenodd;fill:#005897;stroke:#005897;stroke-width:0.25;stroke-miterlimit:10;}
	.st3{fill:#005897;}
	.st4{fill:#005897;stroke:#005897;stroke-width:0.25;stroke-miterlimit:10;}
	.st5{fill:#FBFBFB;}
	.st6{fill:#F6FAFD;}
	.st7{fill:#010201;}
	.st8{fill:#38ADE1;}
	.st9{fill:#005897;stroke:#FFFFFF;stroke-width:0.1;stroke-miterlimit:10;}
	.st10{fill:#005897;stroke:#005897;stroke-width:0.1;stroke-miterlimit:10;}
	.st11{fill:#005897;stroke:#005897;stroke-width:0.12;stroke-miterlimit:10;}
	.st12{fill:#174884;}
	.st13{fill:#9CBDD4;}
	.st14{fill:#FFFFFF;}
</style>
<g>
	<path class="st3" d="M9.34,22.79c0.13,0,0.22,0,0.32,0c0.04,0,0.08,0,0.12-0.01c-0.62,0-1.56,0-0.82,0.01
		C9.08,22.77,9.23,22.79,9.34,22.79z"/>
	<path class="st3" d="M14.94,5.3c-0.01-1.48-0.89-2.65-2.42-3.03C12,2.14,11.7,1.97,11.84,1.38c0.03-0.11,0.02-0.24,0-0.36
		c-0.02-0.18,0.08-0.44-0.2-0.46c-0.28-0.02-0.25,0.24-0.25,0.43c0,0.12-0.02,0.25,0,0.36c0.11,0.59-0.12,0.81-0.71,0.94
		c-1.46,0.34-2.34,1.55-2.37,3C8.29,5.87,8.46,6.15,9.07,6.14c0.28,0,0.58,0.08,0.85,0.32C9.46,6.73,9.3,7.43,9.62,7.67
		c0.54,0.41,0.86,0.96,0.86,1.63c-0.01,1.64-0.07,3.29-0.1,4.93c-0.05,2.64-0.1,5.27-0.11,7.91c0,0.47-0.15,0.6-0.49,0.63
		c0.47,0,0.73,0-0.12,0.01c-0.04,0-0.06,0.01-0.1,0.01c-0.28,0-0.46,0-0.6-0.01c-0.12,0.02-0.2,0.08-0.21,0.24
		c0,0.36,0.37,0.17,0.58,0.22c0.07,0.02,0.14,0,0.22,0c2.01,0,2.68,0,2.74,0c-0.1,0-1.11,0-1.21,0c0.06,0,0.73,0,2.74,0
		c0.15,0,0.29,0.01,0.44,0c0.15-0.01,0.31-0.03,0.3-0.23c-0.01-0.13-0.13-0.2-0.26-0.21c-0.09-0.01-0.19-0.01-0.28-0.01
		c-0.11,0-0.22,0-0.37,0c-0.06,0-0.09-0.01-0.14-0.01c-1.01,0-0.63,0-0.06-0.01c-0.36-0.04-0.47-0.2-0.47-0.66
		c-0.04-4.33-0.13-8.66-0.17-12.99c-0.01-0.51,0.58-0.85,0.55-1.4c0.44,0,0.44-0.28,0.48-0.63c0.04-0.39-0.28-0.47-0.46-0.67
		c0.27-0.25,0.56-0.31,0.85-0.31C14.81,6.13,14.94,5.83,14.94,5.3z M9.44,3.54c0.58-0.64,1.33-0.93,2.16-0.97
		c0.88,0.03,1.62,0.32,2.2,0.97c0.11,0.12,0.28,0.25,0.11,0.43c-0.14,0.15-0.31,0.13-0.46,0c-0.3-0.26-0.59-0.27-0.9-0.01
		c-0.17,0.15-0.36,0.11-0.53-0.03c-0.29-0.24-0.56-0.23-0.84,0.01c-0.11,0.1-0.27,0.17-0.4,0.07c-0.37-0.3-0.71-0.34-1.09-0.01
		C9.59,4.12,9.43,4.07,9.32,3.96C9.14,3.76,9.34,3.65,9.44,3.54z M8.92,4.48c0.1-0.16,0.21-0.06,0.3,0c0.26,0.19,0.5,0.16,0.73-0.03
		c0.2-0.16,0.39-0.18,0.59-0.01c0.26,0.21,0.52,0.25,0.78,0.02c0.23-0.2,0.44-0.16,0.65,0.02c0.25,0.2,0.49,0.17,0.72-0.01
		c0.19-0.15,0.38-0.2,0.59-0.02c0.25,0.21,0.52,0.25,0.79,0.04c0.12-0.09,0.24-0.08,0.29,0.06c0.08,0.24-0.12,0.21-0.25,0.21
		c-0.82,0-1.65,0-2.47,0c0,0,0,0,0,0.01c-0.82,0-1.65,0-2.47,0c-0.11,0-0.25,0.03-0.29-0.13C8.87,4.58,8.89,4.52,8.92,4.48z
		 M11.9,22.8c-1.18-0.04-1.17,0-1.15-1.24c0.07-3.91,0.13-7.83,0.19-11.74c0.02-1.28,0.01-1.28,1.32-1.09
		c0.14,0.07,0.09,0.17,0.03,0.26c0.04,2,0.09,4.01,0.12,6.01c0.04,2.37,0.07,4.74,0.13,7.1C12.55,22.6,12.49,22.82,11.9,22.8z
		 M12.45,8.18c-0.55,0-1.11,0-1.66,0c-0.16,0-0.28-0.04-0.27-0.24c0.01-0.19,0.15-0.22,0.3-0.22c0.29,0,0.58,0,0.87,0c0,0,0,0,0,0
		c0.24,0,0.48,0,0.72,0c0.17,0,0.36,0,0.35,0.24C12.75,8.15,12.61,8.18,12.45,8.18z M13.29,7.2c-1.11,0-2.21,0-3.32,0
		c0-0.03,0-0.07,0-0.1c1.11,0,2.22,0,3.33,0C13.3,7.13,13.29,7.16,13.29,7.2z M10.35,6.67V6.09h2.49v0.58H10.35z M13.47,5.44
		c-0.17-0.22-0.56,0.4-0.8-0.07c-0.51,0.42-1.18-0.19-1.68,0.26c-0.21-0.56-0.74,0.24-0.97-0.22C9.72,5.71,9.32,5.28,9.02,5.54
		C8.94,5.61,8.85,5.66,8.8,5.55c-0.05-0.1-0.07-0.26,0.05-0.31C8.97,5.19,9.13,5.2,9.28,5.2c1.57,0,3.14,0,4.72,0
		c0.18,0,0.47-0.14,0.49,0.27c-0.02,0.03-0.06,0.08-0.1,0.13C14.19,5.04,13.76,5.82,13.47,5.44z"/>
	<path class="st3" d="M13.71,22.79c0.1,0,0.2,0.01,0.3,0.01c1.06-0.01,0.12-0.01-0.57-0.01c0.02,0,0.04,0,0.06,0.01
		C13.58,22.79,13.63,22.79,13.71,22.79z"/>
</g>
</svg>
