<?xml version="1.0" encoding="utf-8"?>
<!-- Generator: Adobe Illustrator 16.0.0, SVG Export Plug-In . SVG Version: 6.00 Build 0)  -->
<!DOCTYPE svg PUBLIC "-//W3C//DTD SVG 1.1//EN" "http://www.w3.org/Graphics/SVG/1.1/DTD/svg11.dtd">
<svg version="1.1" id="Layer_1" xmlns="http://www.w3.org/2000/svg" xmlns:xlink="http://www.w3.org/1999/xlink" x="0px" y="0px"
	 width="24px" height="24px" viewBox="29.5 29.5 24 24" enable-background="new 29.5 29.5 24 24" xml:space="preserve">
<path id="Path_788" fill="#005897" d="M38.224,53.497c-0.944,0-1.711-0.766-1.711-1.709c0-0.402,0.14-0.789,0.396-1.098l7.662-9.168
	l-7.391-9.185c-0.596-0.733-0.484-1.811,0.249-2.406c0.002-0.002,0.005-0.004,0.007-0.006c0.709-0.624,1.79-0.555,2.414,0.154
	c0.029,0.033,0.057,0.067,0.083,0.103l8.264,10.263c0.519,0.631,0.519,1.541,0,2.171l-8.552,10.262
	C39.296,53.298,38.769,53.528,38.224,53.497z"/>
</svg>
