<?xml version="1.0" encoding="utf-8"?>
<!-- Generator: Adobe Illustrator 25.3.1, SVG Export Plug-In . SVG Version: 6.00 Build 0)  -->
<svg version="1.1" id="Layer_1" xmlns="http://www.w3.org/2000/svg" xmlns:xlink="http://www.w3.org/1999/xlink" x="0px" y="0px"
	 viewBox="0 0 24 24" style="enable-background:new 0 0 24 24;" xml:space="preserve">
<style type="text/css">
	.st0{fill-rule:evenodd;clip-rule:evenodd;fill:#005897;}
	.st1{fill-rule:evenodd;clip-rule:evenodd;fill:#5D5E5E;}
	.st2{fill-rule:evenodd;clip-rule:evenodd;fill:#005897;stroke:#005897;stroke-width:0.25;stroke-miterlimit:10;}
	.st3{fill:#005897;}
	.st4{fill:#005897;stroke:#005897;stroke-width:0.25;stroke-miterlimit:10;}
	.st5{fill:#FBFBFB;}
	.st6{fill:#F6FAFD;}
	.st7{fill:#010201;}
	.st8{fill:#38ADE1;}
	.st9{fill:#005897;stroke:#FFFFFF;stroke-width:0.1;stroke-miterlimit:10;}
	.st10{fill:#005897;stroke:#005897;stroke-width:0.1;stroke-miterlimit:10;}
	.st11{fill:#005897;stroke:#005897;stroke-width:0.12;stroke-miterlimit:10;}
	.st12{fill:#174884;}
	.st13{fill:#9CBDD4;}
	.st14{fill:#FFFFFF;}
</style>
<g>
	<path class="st3" d="M12.01,21.58c-3.8,0-7.6,0-11.39,0c-0.31,0-0.6,0.06-0.59-0.43c0.01-0.48,0.31-0.42,0.61-0.42
		c1.64,0,3.27,0,4.91,0c0.25,0,0.51,0.08,0.51-0.36c-0.01-0.46-0.3-0.34-0.53-0.34c-1.67-0.01-3.35-0.01-5.02,0
		c-0.3,0-0.49-0.01-0.48-0.41c0.01-0.41,0.25-0.34,0.49-0.34c1.65,0,3.31-0.01,4.96,0.01c0.41,0,0.58-0.07,0.57-0.54
		c-0.04-1.41-0.03-2.82,0-4.23c0.01-0.38-0.11-0.48-0.47-0.47c-1.17,0.02-2.33,0-3.5,0.01c-0.31,0-0.54,0-0.54-0.43
		c0-0.42,0.24-0.38,0.51-0.38c1.17,0.01,2.33-0.01,3.5,0.01c0.38,0.01,0.53-0.06,0.51-0.48c-0.04-0.56,0.01-1.13-0.02-1.69
		c-0.02-0.38,0.14-0.66,0.38-0.89c0.16-0.15,0.36-0.23,0.36-0.51c0-0.23,0.2-0.19,0.34-0.17c0.15,0.01,0.35-0.11,0.43,0.14
		C7.57,9.75,7.56,9.9,7.61,9.93c0.87,0.52,0.67,1.37,0.68,2.15c0,0.27,0.01,0.47,0.38,0.46c0.35,0,0.4-0.16,0.39-0.45
		c-0.02-0.49-0.01-0.98,0-1.47c0-0.18-0.04-0.42,0.26-0.38c0.38,0.05,0.45-0.11,0.46-0.46c0.02-0.66,0.67-1.45,1.35-1.59
		c0.48-0.1,0.55-0.33,0.52-0.74c-0.02-0.26-0.1-0.58,0.37-0.59c0.49-0.01,0.46,0.3,0.42,0.6c-0.06,0.46,0.12,0.6,0.56,0.76
		c0.72,0.26,1.26,0.8,1.28,1.65c0.01,0.28,0.06,0.43,0.37,0.38c0.31-0.05,0.39,0.13,0.38,0.4c-0.01,0.45,0,0.9,0,1.35
		c0,0.28-0.06,0.57,0.4,0.55c0.47-0.01,0.37-0.32,0.38-0.59c0.01-0.28,0.01-0.56,0-0.85c-0.02-0.44,0.09-0.83,0.52-1.02
		c0.18-0.08,0.19-0.22,0.19-0.36c-0.01-0.19,0.11-0.23,0.25-0.2c0.16,0.03,0.43-0.14,0.47,0.14c0.04,0.29,0.24,0.39,0.43,0.54
		c0.28,0.23,0.37,0.55,0.37,0.9c0,0.58,0.02,1.17-0.01,1.75c-0.01,0.32,0.09,0.41,0.41,0.41c1.22-0.02,2.44,0,3.67-0.01
		c0.26,0,0.48-0.01,0.48,0.36c0,0.36-0.17,0.44-0.48,0.44c-1.18-0.01-2.37,0.01-3.55-0.01c-0.39-0.01-0.52,0.11-0.52,0.51
		c0.02,1.41,0.02,2.82,0,4.23c-0.01,0.4,0.12,0.51,0.51,0.5c1.67-0.02,3.35-0.01,5.02-0.01c0.26,0,0.45-0.03,0.46,0.36
		c0.01,0.41-0.19,0.4-0.48,0.39c-1.67-0.01-3.35,0-5.02,0c-0.23,0-0.48-0.08-0.5,0.33c-0.01,0.43,0.25,0.38,0.51,0.38
		c1.65,0,3.31,0.01,4.96,0c0.32,0,0.52,0.01,0.52,0.43c0,0.43-0.21,0.43-0.52,0.43C19.68,21.58,15.84,21.58,12.01,21.58z
		 M6.95,15.55c-0.29,0.24-0.29,0.47,0,0.71c0.36,0.07,0.57,0.01,0.56-0.44C7.49,15.33,7.16,15.58,6.95,15.55z M7.39,13.29
		c-0.15,0-0.3,0-0.44,0c-0.26,0.34-0.26,1.14,0,1.49c0.47,0.12,0.65-0.06,0.6-0.53C7.52,14,7.52,13.74,7.51,13.48
		C7.54,13.37,7.56,13.28,7.39,13.29z M12.02,20.03c-1.58,0-3.15,0-4.73,0c-0.28,0-0.52-0.02-0.51,0.39
		c0.01,0.41,0.29,0.32,0.51,0.32c3.17,0,6.35,0,9.52,0.01c0.25,0,0.47,0.04,0.47-0.35c0-0.39-0.21-0.36-0.47-0.36
		C15.21,20.03,13.61,20.03,12.02,20.03z M12.03,19.3c1.11,0,2.22-0.01,3.32,0c0.3,0,0.49-0.03,0.49-0.42c0-0.4-0.25-0.34-0.49-0.34
		c-2.2,0-4.4,0-6.59,0c-0.24,0-0.49-0.06-0.49,0.34c0,0.38,0.18,0.42,0.49,0.42C9.85,19.29,10.94,19.3,12.03,19.3z M14.3,15.52
		c0-0.56,0.01-1.13,0-1.69c0-0.26,0.11-0.57-0.38-0.58c-0.52-0.01-0.4,0.33-0.4,0.6c-0.01,1.13,0,2.25,0,3.38
		c0,0.27-0.07,0.59,0.38,0.6c0.49,0.01,0.4-0.34,0.41-0.63C14.3,16.64,14.3,16.08,14.3,15.52z M9.78,15.45c0,0.64,0.01,1.28,0,1.91
		c0,0.28,0.04,0.47,0.39,0.47c0.31,0,0.38-0.17,0.38-0.42c0-1.26,0-2.52,0-3.77c0-0.29-0.1-0.38-0.4-0.38
		c-0.31,0-0.38,0.11-0.38,0.4C9.79,14.25,9.78,14.85,9.78,15.45z M12.01,10.24c0.32,0,0.64,0,0.95,0c0.52,0,0.73-0.27,0.48-0.71
		C13.14,8.97,12.6,8.78,12,8.8c-0.64,0.01-1.22,0.36-1.39,0.83c-0.15,0.43-0.02,0.61,0.45,0.61C11.38,10.24,11.7,10.24,12.01,10.24z
		 M12.13,16.3c-0.51-0.03-0.94-0.12-0.87,0.63c0.08,0.9,0.02,0.9,0.71,0.9c0.94-0.01,0.8,0.1,0.85-0.84
		C12.86,16.39,12.69,16.14,12.13,16.3z M11.99,12.54c1.13-0.02,0.99,0.18,1-0.95c0-0.04,0-0.08,0-0.11c0-0.2,0.05-0.42-0.28-0.43
		c-0.31,0-0.27,0.2-0.25,0.38c0.04,0.35-0.17,0.34-0.42,0.35c-0.25,0.01-0.41-0.04-0.37-0.33c0.04-0.29-0.06-0.43-0.37-0.38
		c-0.1,0.02-0.18,0.05-0.18,0.17c0.01,0.41-0.08,0.86,0.07,1.22C11.28,12.69,11.74,12.49,11.99,12.54z M7.56,18.2
		c0-0.26,0-0.53,0-0.79c0-0.26-0.06-0.42-0.38-0.42c-0.34,0-0.42,0.15-0.42,0.45c0.01,0.49,0.02,0.98,0,1.47
		c-0.01,0.29,0.1,0.4,0.39,0.41c0.33,0.01,0.43-0.13,0.41-0.43C7.54,18.65,7.56,18.42,7.56,18.2z M16.54,18.12
		c0,0.28,0.02,0.56,0,0.84c-0.02,0.29,0.12,0.34,0.37,0.35c0.25,0,0.38-0.05,0.38-0.34c-0.01-0.52-0.01-1.05,0-1.57
		c0-0.25-0.04-0.41-0.37-0.41c-0.31,0-0.39,0.13-0.37,0.4C16.55,17.63,16.54,17.88,16.54,18.12z M12.1,13.26
		c-0.11,0-0.22,0.01-0.33,0c-0.29-0.02-0.5-0.01-0.5,0.39c0.01,0.38,0.21,0.42,0.5,0.42c0.26-0.01,0.52,0,0.78-0.02
		c0.3-0.03,0.24-0.26,0.26-0.46c0.01-0.24-0.08-0.34-0.32-0.32C12.36,13.27,12.23,13.26,12.1,13.26z M15.83,17.06
		c0-0.09,0-0.15,0-0.2c0.01-0.3,0.07-0.58-0.42-0.58c-0.48,0.01-0.37,0.3-0.38,0.56c-0.01,0.21,0,0.41,0,0.62
		c-0.01,0.39,0.26,0.44,0.53,0.37C16.03,17.7,15.75,17.29,15.83,17.06z M17.26,14.11c0-0.26,0-0.45,0-0.63
		c-0.01-0.26-0.2-0.22-0.36-0.21c-0.16,0-0.36-0.06-0.36,0.21c0,0.37,0,0.74,0,1.12c0,0.17,0.1,0.2,0.25,0.22
		C17.53,14.9,17.19,14.34,17.26,14.11z M9.07,17.06c0-0.1,0-0.16,0-0.21c0-0.29,0.09-0.59-0.41-0.57c-0.48,0.01-0.37,0.31-0.38,0.57
		c-0.01,0.2,0,0.41,0,0.61c0,0.38,0.26,0.43,0.53,0.36C9.3,17.7,8.97,17.28,9.07,17.06z M12.13,14.81c-0.19,0-0.34,0.01-0.49,0
		c-0.27-0.03-0.36,0.09-0.35,0.36c0,0.27,0.1,0.37,0.36,0.35c0.28-0.02,0.56-0.01,0.85,0c0.19,0,0.3-0.04,0.32-0.28
		C12.87,14.57,12.36,14.9,12.13,14.81z M9.78,11.79c0,0.13,0.01,0.26,0,0.39c-0.01,0.21,0.03,0.37,0.29,0.36
		c0.25,0,0.32-0.14,0.31-0.36c-0.01-0.19,0.01-0.37-0.01-0.56c-0.02-0.22,0.15-0.56-0.3-0.57c-0.47,0-0.24,0.35-0.29,0.56
		C9.77,11.68,9.78,11.74,9.78,11.79z M14.3,11.82c0-0.13-0.01-0.26,0-0.39c0.01-0.21-0.01-0.37-0.28-0.37
		c-0.28,0-0.28,0.18-0.27,0.37c0.01,0.19-0.02,0.37,0.01,0.56c0.03,0.21-0.14,0.55,0.27,0.55c0.39,0,0.24-0.34,0.27-0.55
		C14.31,11.93,14.3,11.88,14.3,11.82z M15.03,13.65c-0.03,0.31,0.13,0.42,0.4,0.41c0.29-0.01,0.41-0.14,0.41-0.45
		c0-0.38-0.22-0.34-0.47-0.36C15.04,13.23,15.02,13.43,15.03,13.65z M7.55,12.15c0.05-0.29-0.09-0.38-0.38-0.37
		c-0.25,0.01-0.42,0.03-0.42,0.36c0,0.31,0.11,0.42,0.42,0.42C7.48,12.55,7.59,12.43,7.55,12.15z M9.06,13.62
		c0.08-0.27-0.05-0.36-0.35-0.37c-0.31-0.01-0.45,0.08-0.43,0.4c0.01,0.24,0.08,0.4,0.34,0.4C8.89,14.06,9.13,14.02,9.06,13.62z
		 M17.27,12.12c0.05-0.33-0.15-0.33-0.4-0.34c-0.34-0.02-0.32,0.18-0.34,0.42c-0.02,0.33,0.15,0.34,0.41,0.36
		C17.29,12.57,17.28,12.36,17.27,12.12z M17.27,15.86c0.06-0.3-0.12-0.33-0.39-0.34c-0.34-0.01-0.33,0.17-0.35,0.42
		c-0.02,0.32,0.13,0.36,0.4,0.37C17.27,16.31,17.29,16.13,17.27,15.86z M8.74,15.52c0.28,0.07,0.34-0.08,0.35-0.36
		c0.01-0.33-0.16-0.34-0.41-0.35c-0.28-0.01-0.4,0.07-0.4,0.37C8.28,15.5,8.44,15.55,8.74,15.52z M15.39,14.81
		c-0.28-0.05-0.37,0.08-0.37,0.37c0,0.33,0.18,0.34,0.43,0.35c0.28,0.01,0.39-0.09,0.39-0.39C15.85,14.79,15.65,14.8,15.39,14.81z
		 M7.16,11.07c0.12-0.01,0.3,0.06,0.32-0.11c0.02-0.18-0.15-0.25-0.3-0.25c-0.14,0-0.32,0.03-0.32,0.22
		C6.86,11.11,7.03,11.07,7.16,11.07z M16.89,11.07c0.13-0.03,0.34,0.08,0.33-0.18c-0.01-0.18-0.18-0.2-0.28-0.19
		c-0.13,0.01-0.34,0.02-0.35,0.2C16.55,11.17,16.78,11.03,16.89,11.07z"/>
	<path class="st3" d="M22.58,18.18c0.06,0.37-0.18,0.36-0.44,0.38c-0.35,0.02-0.33-0.18-0.34-0.42c-0.02-0.33,0.15-0.37,0.41-0.36
		C22.48,17.78,22.63,17.87,22.58,18.18z"/>
	<path class="st3" d="M5.32,18.16c0.04,0.26-0.04,0.4-0.36,0.4c-0.29,0-0.45-0.04-0.44-0.39c0.01-0.29,0.1-0.41,0.39-0.4
		C5.16,17.79,5.37,17.82,5.32,18.16z"/>
	<path class="st3" d="M1.92,17.78c0.25-0.02,0.42,0.03,0.4,0.36c-0.02,0.24,0,0.43-0.34,0.42c-0.28-0.01-0.46-0.03-0.45-0.38
		C1.53,17.89,1.62,17.76,1.92,17.78z"/>
	<path class="st3" d="M20.69,17.78c0.31-0.02,0.36,0.14,0.37,0.41c0.01,0.38-0.2,0.36-0.46,0.37c-0.35,0.02-0.32-0.2-0.34-0.43
		C20.24,17.78,20.44,17.77,20.69,17.78z"/>
	<path class="st3" d="M19.57,18.17c0.06,0.29-0.06,0.38-0.36,0.39c-0.32,0.01-0.42-0.09-0.42-0.41c0-0.32,0.15-0.37,0.41-0.37
		C19.48,17.77,19.63,17.86,19.57,18.17z"/>
	<path class="st3" d="M3.44,18.54C3.13,18.6,3,18.49,3,18.16c0-0.32,0.15-0.38,0.41-0.38c0.26,0,0.42,0.07,0.4,0.39
		C3.8,18.43,3.76,18.61,3.44,18.54z"/>
	<path class="st3" d="M22.17,15.52c-0.3,0.06-0.37-0.07-0.38-0.36c-0.01-0.31,0.12-0.36,0.39-0.37c0.3,0,0.43,0.06,0.42,0.4
		C22.59,15.54,22.41,15.55,22.17,15.52z"/>
	<path class="st3" d="M4.89,14.81c0.28-0.04,0.45,0,0.45,0.36c-0.01,0.33-0.15,0.36-0.41,0.36c-0.26,0-0.41-0.03-0.4-0.36
		C4.54,14.9,4.58,14.74,4.89,14.81z"/>
	<path class="st3" d="M22.58,16.67c0.08,0.36-0.16,0.33-0.4,0.34c-0.25,0.01-0.4-0.02-0.4-0.35c0-0.35,0.15-0.38,0.43-0.38
		C22.51,16.28,22.63,16.38,22.58,16.67z"/>
	<path class="st3" d="M5.32,16.68c0.07,0.37-0.19,0.31-0.41,0.33c-0.27,0.02-0.38-0.05-0.39-0.36c-0.01-0.37,0.18-0.36,0.45-0.37
		C5.28,16.27,5.37,16.4,5.32,16.68z"/>
	<path class="st3" d="M1.95,15.52c-0.32,0.05-0.42-0.06-0.42-0.36c0-0.3,0.11-0.36,0.39-0.37c0.31-0.01,0.4,0.08,0.4,0.4
		C2.33,15.52,2.19,15.57,1.95,15.52z"/>
	<path class="st3" d="M3.8,16.66c0.07,0.35-0.14,0.34-0.39,0.35c-0.25,0-0.4-0.02-0.41-0.35c-0.01-0.36,0.16-0.37,0.44-0.38
		C3.74,16.27,3.86,16.37,3.8,16.66z"/>
	<path class="st3" d="M3.42,15.53C3.15,15.55,3.01,15.5,3,15.18c-0.01-0.36,0.16-0.37,0.43-0.38c0.29-0.01,0.38,0.09,0.38,0.38
		C3.82,15.49,3.68,15.56,3.42,15.53z"/>
	<path class="st3" d="M19.16,16.29c0.24-0.01,0.44-0.04,0.43,0.32c-0.01,0.3-0.07,0.43-0.4,0.41c-0.25-0.02-0.42-0.02-0.4-0.35
		C18.8,16.38,18.86,16.23,19.16,16.29z"/>
	<path class="st3" d="M1.92,16.29c0.27-0.04,0.4,0.02,0.4,0.35c0,0.3-0.09,0.39-0.38,0.38C1.7,17,1.52,17.01,1.53,16.66
		C1.55,16.37,1.62,16.23,1.92,16.29z"/>
	<path class="st3" d="M20.58,16.29c0.29-0.03,0.49-0.03,0.47,0.32c-0.01,0.26-0.02,0.43-0.35,0.4c-0.24-0.02-0.48,0.04-0.45-0.35
		C20.28,16.4,20.28,16.19,20.58,16.29z"/>
	<path class="st3" d="M19.57,15.17c0.07,0.35-0.14,0.35-0.39,0.36c-0.29,0.01-0.38-0.09-0.39-0.39c-0.01-0.34,0.17-0.34,0.42-0.35
		C19.49,14.79,19.64,14.87,19.57,15.17z"/>
	<path class="st3" d="M20.68,15.52c-0.29,0.04-0.43-0.02-0.43-0.35c0-0.3,0.09-0.39,0.38-0.38c0.25,0.01,0.42,0.02,0.41,0.35
		C21.04,15.44,20.97,15.59,20.68,15.52z"/>
</g>
</svg>
