<?xml version="1.0" encoding="utf-8"?>
<!-- Generator: Adobe Illustrator 25.3.1, SVG Export Plug-In . SVG Version: 6.00 Build 0)  -->
<svg version="1.1" id="Layer_1" xmlns="http://www.w3.org/2000/svg" xmlns:xlink="http://www.w3.org/1999/xlink" x="0px" y="0px"
	 viewBox="0 0 24 24" style="enable-background:new 0 0 24 24;" xml:space="preserve">
<style type="text/css">
	.st0{fill-rule:evenodd;clip-rule:evenodd;fill:#005897;}
	.st1{fill-rule:evenodd;clip-rule:evenodd;fill:#5D5E5E;}
	.st2{fill-rule:evenodd;clip-rule:evenodd;fill:#005897;stroke:#005897;stroke-width:0.25;stroke-miterlimit:10;}
	.st3{fill:#005897;}
	.st4{fill:#005897;stroke:#005897;stroke-width:0.25;stroke-miterlimit:10;}
	.st5{fill:#FBFBFB;}
	.st6{fill:#F6FAFD;}
	.st7{fill:#010201;}
	.st8{fill:#38ADE1;}
	.st9{fill:#005897;stroke:#FFFFFF;stroke-width:0.1;stroke-miterlimit:10;}
	.st10{fill:#005897;stroke:#005897;stroke-width:0.1;stroke-miterlimit:10;}
	.st11{fill:#005897;stroke:#005897;stroke-width:0.12;stroke-miterlimit:10;}
	.st12{fill:#174884;}
	.st13{fill:#9CBDD4;}
	.st14{fill:#FFFFFF;}
</style>
<g>
	<path class="st10" d="M20.62,23.32c-0.04-0.11-0.09-0.21-0.13-0.32c-0.08-0.28-0.16-0.57-0.24-0.85c-0.2-0.81-0.4-1.63-0.59-2.44
		c-0.04-0.19-0.18-0.26-0.32-0.35c-1.48-0.97-2.96-1.94-4.44-2.92c-0.55-0.36-1.11-0.73-1.66-1.1c0.07,0.32,0.22,0.56,0.34,0.81
		c0.23,0.48,0.59,0.9,0.72,1.44c0.42,1.79,0.86,3.58,1.29,5.37c-0.02,0.17-0.1,0.29-0.3,0.24c-0.05-0.11-0.09-0.22-0.14-0.33
		c-0.07-0.27-0.14-0.55-0.22-0.82c-0.02-0.12,0.01-0.26-0.08-0.36c-0.08-0.37-0.16-0.73-0.24-1.1c-0.06-0.14-0.01-0.31-0.13-0.44
		c-0.07-0.33-0.14-0.66-0.22-0.99c-0.04-0.16-0.07-0.31-0.11-0.47c-0.12-0.23,0.05-0.67-0.38-0.68c-0.76-0.02-1.53,0.01-2.29,0.01
		c-0.18,0-0.36,0-0.55,0c-0.39-0.01-0.78,0-1.17-0.02C9.56,18,9.49,18.1,9.45,18.28c-0.13,0.57-0.25,1.14-0.38,1.7
		C9,20.15,8.94,20.33,8.95,20.52c-0.2,0.59-0.33,1.19-0.43,1.81c-0.11,0.2-0.12,0.42-0.17,0.63c-0.04,0.15-0.11,0.26-0.29,0.26
		C8.03,23.2,8,23.17,7.96,23.14c-0.03-0.57,0.27-1.07,0.29-1.63c0.27-1.07,0.59-2.13,0.79-3.22c0.19-1.05,0.8-1.88,1.26-2.79
		c0-0.04,0.01-0.08,0.01-0.12c-0.04,0.01-0.07,0.03-0.11,0.04c-2.04,1.33-4.08,2.67-6.12,3.99c-0.13,0.08-0.19,0.19-0.22,0.32
		c-0.25,1.01-0.5,2.02-0.75,3.04c-0.16,0.17,0.02,0.63-0.46,0.52c-0.01-0.08-0.03-0.17-0.04-0.25c0.14-0.57,0.28-1.14,0.42-1.72
		c0.08-0.2,0.16-0.41,0.15-0.63c0.02-0.02,0.05-0.05,0.05-0.07c0.06-1.07,0.68-1.75,1.61-2.15c0.73-0.32,0.9-0.86,0.77-1.57
		c0-0.15,0-0.3,0-0.45c0-0.45,0-0.9,0-1.35c0-0.15,0-0.3,0-0.45c0-0.45,0-0.9,0-1.35c0-0.15,0-0.3,0-0.45c0-0.45,0-0.9,0-1.35
		c0-0.15,0-0.3,0-0.45c0-0.45,0.01-0.9,0.01-1.35C5.64,9.5,5.67,9.32,5.69,9.14c0.03-0.48,0.15-0.96,0.12-1.45
		C5.9,7.52,5.9,7.33,5.88,7.15C5.93,6.7,6,6.25,5.93,5.79c0.05-0.21,0.09-0.42,0.14-0.63c0.26-0.69,0.74-1.3,0.72-2.08
		C6.77,2.95,6.91,2.75,6.65,2.71C6.56,2.59,6.44,2.48,6.39,2.35c-0.12-0.32-0.02-0.6,0.27-0.78c0.32-0.2,0.62-0.12,0.84,0.16
		C7.7,2,7.72,2.34,7.46,2.54C6.99,2.91,7.14,3.31,7.31,3.73c0.06,0.15,0.1,0.32,0.17,0.46c0.44,0.84,0.66,1.73,0.58,2.68
		C8.05,6.96,8.01,7.08,8.14,7.18C8.19,6.61,8.3,6.06,8.28,5.51C8.25,4.65,8.49,3.87,8.83,3.1c0.14-0.31,0.4-0.62,0.3-1.01
		C9.2,1.81,9.11,1.63,8.88,1.44c-0.28-0.23-0.25-0.63,0-0.88C9.14,0.31,9.44,0.29,9.73,0.5C10,0.69,10.11,1.17,9.86,1.37
		C9.3,1.83,9.53,2.31,9.72,2.81c0.03,0.07,0.06,0.13,0.1,0.2c0.17,0.55,0.49,1.04,0.6,1.61c-0.05,0.45-0.02,0.9,0.01,1.35
		c0.03,0.36,0.07,0.71,0.09,1.07c0.01,0.31,0.11,0.4,0.43,0.29c0.32-0.12,0.63-0.36,1.02-0.23c0.31,0.1,0.71,0.37,0.91,0.27
		c0.27-0.15,0.16-0.62,0.18-0.96c0.08-1.2,0.08-2.42,0.7-3.51c0.08-0.17,0.21-0.35,0.22-0.52c0.01-0.29,0.24-0.65-0.19-0.84
		c-0.14-0.18-0.25-0.37-0.21-0.62c0.04-0.31,0.22-0.49,0.52-0.54c0.3-0.05,0.53,0.06,0.68,0.33c0.15,0.27,0.13,0.57-0.11,0.73
		c-0.41,0.29-0.36,0.72-0.21,1c0.73,1.32,0.82,2.76,0.91,4.21c0.01,0.18,0.03,0.35,0.09,0.53c0.01-0.07,0.03-0.14,0.02-0.21
		c-0.1-1.08,0.21-2.07,0.68-3.02c0.11-0.22,0.22-0.45,0.22-0.72c0-0.25,0.01-0.47-0.26-0.65c-0.28-0.19-0.27-0.63-0.04-0.88
		c0.28-0.31,0.59-0.3,1.03,0.04c0.17,0.38,0.13,0.71-0.25,0.96c-0.22,0.15-0.08,0.37-0.1,0.56c-0.02,0.13-0.03,0.26,0.08,0.36
		c0.1,0.36,0.24,0.71,0.43,1.03c0.01,0.09,0.01,0.18,0.1,0.23c0.1,0.36,0.28,0.7,0.24,1.08c-0.02,0.18-0.04,0.37,0.02,0.55
		c0.02,0.39-0.02,0.79,0.11,1.17c0.01,0.15,0.02,0.3,0.02,0.45c0.04,0.39,0.08,0.78,0.12,1.18c0.02,0.15,0.04,0.3,0.06,0.45
		c0,0.45,0,0.9,0,1.35c0,0.15,0,0.3,0,0.45c0,0.45,0,0.9,0,1.35c0,0.15,0,0.3,0,0.45c0,0.45,0,0.9,0,1.35c0,0.15,0,0.3,0,0.45
		c0,0.45,0,0.9,0,1.35c0,0.15,0,0.3,0,0.45c-0.01,0.16,0.01,0.33-0.02,0.48c-0.06,0.38,0.09,0.61,0.44,0.74
		c0.04,0.03,0.08,0.05,0.12,0.08c0.32,0.21,0.64,0.42,0.97,0.63c0.07,0.1,0.16,0.15,0.27,0.18c0.26,0.16,0.32,0.43,0.39,0.7
		c0.05,0.16,0.1,0.33,0.14,0.49c0.07,0.32,0.15,0.64,0.22,0.96c0.05,0.16,0.03,0.34,0.15,0.48c0.01,0.31,0.12,0.59,0.21,0.88
		c0.04,0.15,0.07,0.3,0.11,0.45C20.93,23.26,20.84,23.36,20.62,23.32z M8.36,11.57c0,0.73,0,1.45,0,2.18
		c-0.02,0.3-0.06,0.61,0.03,0.94c0.4-0.29,0.73-0.6,1.13-0.8c0.73-0.36,0.93-0.93,0.79-1.68c0.01-0.69,0.02-1.38,0.01-2.07
		c0-0.35,0.16-0.84-0.07-1.03c-0.21-0.18-0.68-0.07-1.04-0.07c-0.31,0-0.71-0.13-0.91,0.06C8.18,9.24,8.32,9.65,8.34,9.93
		c0.01,0.13,0.01,0.27,0.02,0.4C8.36,10.74,8.36,11.15,8.36,11.57z M17.54,16.43c0-2.07,0-4.04,0-6.02c0-0.21-0.08-0.25-0.27-0.25
		c-0.47,0.01-0.93,0.02-1.4,0c-0.26-0.01-0.33,0.08-0.33,0.33c0.01,1.41,0.01,2.82,0,4.23c0,0.18,0.03,0.31,0.19,0.42
		C16.32,15.54,16.89,15.96,17.54,16.43z M5.99,16.43c0.67-0.48,1.26-0.91,1.86-1.34c0.11-0.08,0.13-0.19,0.13-0.31
		c0-1.46,0-2.91,0-4.37c0-0.2-0.07-0.26-0.26-0.25c-0.48,0.01-0.96,0.01-1.44,0c-0.21,0-0.29,0.06-0.29,0.28
		C6,12.4,5.99,14.37,5.99,16.43z M15.24,9.05c-0.59,0-1.19,0.01-1.79-0.01c-0.26-0.01-0.24,0.14-0.24,0.31c0,1.22,0,2.44,0,3.66
		c0,0.12-0.03,0.25,0.08,0.33c0.61,0.44,1.22,0.89,1.88,1.37C15.23,12.77,15.13,10.93,15.24,9.05z M10.3,8.68
		c-0.09-0.9-0.18-1.74-0.24-2.59c-0.02-0.24-0.08-0.41-0.33-0.33C9.37,5.86,8.79,5.43,8.66,6.01c-0.17,0.8-0.17,1.64-0.26,2.45
		C8.39,8.62,8.44,8.68,8.6,8.68C9.16,8.67,9.73,8.68,10.3,8.68z M14.18,8.68c0.16,0,0.33-0.02,0.49,0c0.43,0.07,0.5-0.12,0.45-0.49
		c-0.08-0.49-0.11-0.98-0.17-1.47c-0.12-1.03-0.12-1.02-1.15-0.98c-0.22,0.01-0.31,0.07-0.33,0.3c-0.04,0.57-0.11,1.13-0.16,1.7
		C13.22,8.68,13.22,8.68,14.18,8.68z M16.51,9.78c0.24,0,0.48-0.01,0.72,0c0.17,0.01,0.27-0.01,0.25-0.24
		c-0.09-0.8-0.15-1.61-0.23-2.42c-0.01-0.1-0.01-0.24-0.14-0.24c-0.37-0.01-0.75-0.01-1.12,0c-0.17,0.01-0.13,0.17-0.14,0.28
		c-0.06,0.55-0.11,1.1-0.17,1.65C15.56,9.77,15.55,9.77,16.51,9.78z M6.98,9.77c0.26,0,0.51,0,0.77,0c0.13,0,0.22-0.01,0.2-0.2
		c-0.07-0.6-0.1-1.2-0.18-1.79c-0.13-0.95-0.14-0.93-1.1-0.93c-0.28,0-0.37,0.09-0.39,0.35C6.23,7.73,6.2,8.26,6.13,8.78
		C6,9.78,5.99,9.78,6.98,9.77z M10.74,12.98c0.27-0.2,0.52-0.35,0.73-0.53c0.21-0.18,0.37-0.19,0.59,0
		c0.22,0.19,0.47,0.34,0.74,0.54c0.25-1.24-0.61-2.02-0.99-3.02C10.97,11.1,10.64,12.02,10.74,12.98z M10.7,10.96
		c0.03,0.01,0.06,0.02,0.08,0.02c0.24-0.47,0.48-0.95,0.73-1.42c0.06-0.11,0.08-0.26,0.27-0.25c0.16,0.01,0.18,0.15,0.23,0.25
		c0.25,0.47,0.49,0.94,0.73,1.42c0.06-0.03,0.08-0.03,0.08-0.04c0-0.5-0.03-1,0.01-1.49c0.04-0.51-0.15-0.84-0.62-1.02
		c-0.48-0.19-1.04-0.06-1.37,0.3c-0.09,0.1-0.16,0.22-0.16,0.36C10.7,9.71,10.7,10.33,10.7,10.96z M13.15,16.16
		c-0.26-0.46-0.47-0.88-0.72-1.27c-0.32-0.5-0.89-0.56-1.24-0.1c-0.31,0.41-0.52,0.89-0.8,1.37C11.33,16.16,12.2,16.16,13.15,16.16z
		 M12.85,14.69c-0.08-0.63,0.18-1.14-0.41-1.5c-0.7-0.43-0.68-0.48-1.34,0.02c-0.17,0.12-0.42,0.18-0.41,0.48
		c0.02,0.28,0,0.56,0,0.99C11.42,13.89,12.11,13.89,12.85,14.69z M15.21,16.17c-0.07-0.42,0.13-0.81-0.12-1.02
		c-0.58-0.48-1.21-0.9-1.88-1.38c0,0.29-0.01,0.48,0,0.67c0.02,0.17-0.09,0.36,0.11,0.49C13.92,15.32,14.52,15.72,15.21,16.17z
		 M10.32,13.77c-0.54,0.39-1.01,0.73-1.47,1.06c-0.58,0.42-0.62,0.51-0.44,1.29c0.6-0.39,1.18-0.78,1.77-1.16
		c0.1-0.07,0.14-0.14,0.14-0.26C10.32,14.42,10.32,14.14,10.32,13.77z M15.55,15.46c0.05,0.4-0.14,0.79,0.1,0.97
		c0.58,0.46,1.22,0.83,1.92,1.29c-0.08-0.37,0.12-0.69-0.16-0.9C16.82,16.38,16.23,15.96,15.55,15.46z M6.04,17.67
		c0.47-0.3,0.89-0.64,1.37-0.88c0.56-0.28,0.67-0.68,0.51-1.28c-0.49,0.35-0.94,0.72-1.43,1.01C6.06,16.79,5.88,17.11,6.04,17.67z
		 M9.63,17.61c1.44,0,2.86,0,4.28,0c-0.03-0.27-0.17-0.34-0.4-0.34c-1.16,0.01-2.32,0.01-3.48,0C9.79,17.26,9.66,17.34,9.63,17.61z
		 M13.52,16.9c-0.04-0.3-0.2-0.36-0.45-0.36c-0.87,0.01-1.74,0.01-2.6,0c-0.26,0-0.42,0.07-0.44,0.36
		C11.19,16.9,12.35,16.9,13.52,16.9z M10.65,8.36c0.77-0.53,1.47-0.53,2.2-0.02c0.01-0.21,0.17-0.38-0.01-0.53
		c-0.38-0.33-1.64-0.33-2.13-0.02C10.49,7.94,10.69,8.11,10.65,8.36z M6.33,6.02c0.13-0.19,0.19-0.27,0.25-0.35
		c0.4-0.59,0.4-0.59,0.8-0.02c0.06,0.08,0.08,0.23,0.28,0.22C7.57,5.23,7.24,4.7,6.98,3.99C6.76,4.72,6.36,5.23,6.33,6.02z
		 M16.54,4.12c-0.22,0.59-0.62,1.1-0.64,1.79c0.3-0.21,0.33-0.65,0.64-0.66c0.35-0.01,0.35,0.48,0.66,0.67
		C17.17,5.23,16.78,4.71,16.54,4.12z M9.34,3c-0.23,0.58-0.62,1.1-0.61,1.76c0.14-0.13,0.25-0.28,0.34-0.43
		c0.17-0.29,0.34-0.3,0.52-0.01c0.1,0.16,0.21,0.31,0.39,0.56C9.98,4.11,9.56,3.6,9.34,3z M13.56,4.89
		c0.17-0.25,0.28-0.39,0.37-0.54c0.18-0.31,0.35-0.34,0.55-0.01c0.09,0.16,0.17,0.34,0.39,0.48c-0.06-0.71-0.43-1.25-0.68-1.96
		C13.98,3.59,13.55,4.1,13.56,4.89z M16.55,5.75c-0.17,0.26-0.31,0.46-0.48,0.72c0.36-0.01,0.64,0.04,0.93-0.05
		C16.85,6.2,16.72,6,16.55,5.75z M6.98,5.75c-0.17,0.26-0.3,0.46-0.45,0.69c0.33,0,0.6,0,0.91,0C7.28,6.2,7.15,6.01,6.98,5.75z
		 M13.73,5.32c0.34,0,0.61,0,0.94,0c-0.18-0.23-0.33-0.58-0.46-0.57C13.98,4.76,13.92,5.1,13.73,5.32z M8.88,5.32
		c0.33,0,0.6,0,0.91,0c-0.16-0.24-0.3-0.44-0.46-0.68C9.16,4.89,9.04,5.09,8.88,5.32z M9.36,0.74C9.2,0.75,9.09,0.84,9.08,0.98
		C9.07,1.15,9.17,1.27,9.35,1.27c0.15,0,0.25-0.1,0.25-0.26C9.6,0.85,9.49,0.78,9.36,0.74z M14.47,1.01
		c-0.04-0.12-0.1-0.24-0.25-0.26c-0.15-0.02-0.26,0.07-0.28,0.22c-0.02,0.17,0.07,0.29,0.25,0.3C14.35,1.28,14.41,1.16,14.47,1.01z
		 M16.54,1.87c-0.14,0.02-0.25,0.08-0.25,0.25c0,0.16,0.09,0.24,0.26,0.24c0.17,0,0.26-0.09,0.26-0.24
		C16.81,1.97,16.71,1.89,16.54,1.87z M7.25,2.09C7.22,1.94,7.12,1.86,6.96,1.88C6.81,1.89,6.71,1.99,6.73,2.14
		C6.74,2.3,6.84,2.37,7.01,2.36C7.18,2.35,7.24,2.26,7.25,2.09z"/>
	<path class="st10" d="M5.89,23.15c-0.02-0.13-0.05-0.27-0.21-0.17c-0.1,0.07-0.1,0.33-0.31,0.2c-0.21-0.13-0.06-0.32-0.05-0.49
		c0.25-1.08,0.49-2.16,0.74-3.23c0.02-0.09,0.03-0.18,0.04-0.27c0.01-0.06,0.01-0.13-0.05-0.15C5.96,19,5.9,19.06,5.87,19.13
		c-0.05,0.09-0.09,0.19-0.13,0.28c-0.49,1.15-0.98,2.31-1.48,3.46c-0.07,0.16-0.1,0.35-0.27,0.46C3.76,23.31,3.7,23.2,3.8,22.98
		c0.15-0.33,0.28-0.67,0.42-1.01c0.42-0.99,0.84-1.97,1.26-2.96c0.15-0.36,0.45-0.5,0.88-0.37c0.37,0.11,0.17,0.4,0.13,0.6
		c-0.17,0.85-0.36,1.69-0.55,2.54c-0.07,0.38-0.25,0.75-0.16,1.16c0.24-0.38,0.32-0.81,0.42-1.23c0.3-1.06,0.6-2.12,0.9-3.18
		c0.24-0.85,0.24-0.84,1.12-0.8c0.28,0.01,0.39,0.1,0.31,0.39c-0.04,0.13-0.04,0.27-0.06,0.4c-0.16,1-0.4,1.99-0.5,3.01
		c-0.17,0.51-0.2,1.06-0.31,1.58l0,0c-0.28,0.23-0.37,0.08-0.36-0.2c0-0.16,0.04-0.33,0.05-0.49c0.28-1.11,0.41-2.24,0.63-3.35
		c0.04-0.19,0.08-0.38,0.09-0.58c0-0.12,0.2-0.3-0.08-0.36c-0.23-0.05-0.4,0.01-0.46,0.28c-0.2,0.78-0.42,1.56-0.64,2.34
		c-0.2,0.72-0.41,1.44-0.61,2.16C6.22,23.13,6.16,23.31,5.89,23.15z"/>
	<path class="st10" d="M10.58,22.86c0-0.18,0-0.35,0-0.53c0-0.44,0-0.87,0-1.31c0-0.17,0-0.33,0-0.5c0.01-0.18,0.15-0.22,0.29-0.29
		c0.56-0.27,1.12-0.31,1.7-0.07c0.13,0.06,0.25,0.12,0.38,0.19c0.01,0.39,0.01,0.77,0.02,1.16c0,0.15,0,0.3,0,0.45
		c-0.01,0.3-0.01,0.6-0.02,0.89c0,0.15,0.03,0.34-0.18,0.34c-0.21,0-0.18-0.19-0.19-0.33c0-0.09-0.01-0.18-0.01-0.27
		c0-0.15,0-0.3,0-0.45c0-0.45,0-0.9,0-1.35c-0.08-0.42-0.48-0.34-0.74-0.42c-0.45-0.13-0.88,0.27-0.87,0.74
		c0,0.35,0.01,0.69,0.02,1.04c-0.01,0.22-0.01,0.45-0.02,0.67c-0.01,0.16,0.05,0.38-0.19,0.38C10.56,23.21,10.6,23,10.58,22.86z"/>
	<path class="st10" d="M15.83,22.96c-0.19-1.14-0.38-2.28-0.58-3.41c-0.08-0.49-0.16-0.98-0.26-1.46c-0.05-0.27,0.05-0.36,0.3-0.36
		c0.02,0,0.03,0,0.05,0c0.86-0.03,0.86-0.03,1.09,0.78c0.37,1.31,0.73,2.63,1.1,3.94c0.03,0.11,0,0.33,0.19,0.28
		c0.19-0.05,0.04-0.24,0.01-0.35c-0.23-1.06-0.47-2.11-0.69-3.16c-0.04-0.19-0.23-0.45,0.1-0.58c0.34-0.13,0.74,0.02,0.87,0.31
		c0.53,1.22,1.06,2.44,1.59,3.66c0.03,0.1,0.07,0.2,0.1,0.3c0.04,0.13,0.18,0.29-0.02,0.39c-0.23,0.11-0.27-0.11-0.35-0.24
		c-0.04-0.11-0.05-0.23-0.15-0.31c-0.07-0.34-0.24-0.64-0.39-0.95c-0.35-0.84-0.71-1.68-1.06-2.52c-0.04-0.1-0.07-0.26-0.22-0.23
		c-0.15,0.04-0.07,0.18-0.05,0.27c0.23,1.02,0.47,2.03,0.71,3.05c0.03,0.17,0.06,0.35,0.09,0.52c0.02,0.12,0.02,0.24-0.11,0.3
		c-0.13,0.06-0.19-0.03-0.24-0.13c-0.1-0.18-0.18-0.19-0.26,0.01c-0.05,0.12-0.14,0.14-0.25,0.14c-0.06-0.12-0.13-0.24-0.19-0.35
		c-0.04-0.34-0.14-0.68-0.28-0.99c-0.09-0.36-0.18-0.73-0.28-1.09c-0.21-0.79-0.44-1.59-0.65-2.38c-0.06-0.24-0.19-0.3-0.42-0.28
		c-0.28,0.03-0.15,0.2-0.13,0.33c0.23,1.3,0.47,2.59,0.7,3.89c0.02,0.16,0.02,0.33,0.06,0.49c0.03,0.14,0.07,0.28-0.08,0.36
		C15.94,23.28,15.91,23.07,15.83,22.96z"/>
	<path class="st10" d="M17.09,11.94c0,0.42,0,0.84,0,1.26c0,0.15-0.04,0.28-0.22,0.27c-0.17-0.01-0.16-0.16-0.16-0.27
		c0-0.82,0-1.65,0-2.47c0-0.14,0.01-0.3,0.19-0.29c0.17,0,0.19,0.15,0.19,0.3C17.09,11.13,17.09,11.53,17.09,11.94z"/>
	<path class="st10" d="M16.01,11.93c0-0.41,0-0.81,0-1.22c0-0.15,0.02-0.29,0.2-0.28c0.15,0.01,0.17,0.14,0.17,0.27
		c0,0.83,0,1.66,0,2.48c0,0.14,0,0.3-0.2,0.28c-0.19-0.02-0.17-0.18-0.17-0.31C16.01,12.75,16.01,12.34,16.01,11.93z"/>
	<path class="st10" d="M7.52,11.95c0,0.41,0,0.81,0,1.22c0,0.16-0.01,0.33-0.23,0.3c-0.19-0.03-0.23-0.2-0.22-0.37
		c0.03-0.53,0.05-1.05,0-1.58c-0.02-0.31,0.12-0.61,0.09-0.93c-0.01-0.1,0.08-0.17,0.17-0.17c0.15,0.01,0.19,0.12,0.19,0.25
		C7.52,11.1,7.52,11.52,7.52,11.95z"/>
	<path class="st10" d="M6.82,11.98c0,0.4,0,0.81,0,1.21c0,0.12,0.01,0.26-0.16,0.27c-0.18,0.01-0.22-0.12-0.22-0.27
		c0-0.84,0-1.68,0-2.51c0-0.13,0.05-0.25,0.19-0.25c0.15,0,0.19,0.13,0.19,0.25C6.82,11.12,6.82,11.55,6.82,11.98z"/>
	<path class="st10" d="M14.35,10.82c0-0.4,0-0.81,0-1.21c0-0.13-0.01-0.3,0.19-0.29c0.18,0.01,0.19,0.16,0.19,0.3
		c0,0.81,0,1.62,0,2.42c0,0.14-0.01,0.3-0.18,0.31c-0.21,0.01-0.21-0.17-0.21-0.32C14.35,11.63,14.36,11.23,14.35,10.82
		C14.35,10.82,14.35,10.82,14.35,10.82z"/>
	<path class="st10" d="M13.66,10.84c0-0.42,0-0.84,0-1.26c0-0.13,0.01-0.25,0.18-0.25c0.16,0,0.18,0.13,0.18,0.25
		c0,0.84,0,1.69,0,2.53c0,0.13-0.03,0.25-0.18,0.25c-0.15,0-0.18-0.12-0.18-0.25C13.66,11.68,13.66,11.26,13.66,10.84z"/>
	<path class="st10" d="M8.77,11.49c0-0.45,0-0.9,0-1.35c0.01-0.19,0.01-0.39,0.02-0.58C8.8,9.41,8.86,9.32,9.01,9.32
		c0.14,0,0.16,0.12,0.16,0.22c0,0.85,0,1.7,0,2.56c0,0.12-0.03,0.26-0.19,0.26c-0.14,0-0.19-0.11-0.2-0.25
		C8.79,11.9,8.78,11.69,8.77,11.49z"/>
	<path class="st10" d="M9.86,12.3c-0.03,0.03-0.06,0.05-0.09,0.08c-0.19,0.01-0.27-0.08-0.27-0.27c0-0.84,0-1.68,0-2.51
		c0-0.12,0.01-0.26,0.17-0.27c0.2-0.01,0.2,0.14,0.2,0.28C9.87,10.5,9.87,11.4,9.86,12.3z"/>
	<path class="st10" d="M9.06,7.73c-0.12-0.03-0.2-0.08-0.18-0.21C8.9,7.4,8.99,7.34,9.1,7.36c0.09,0.01,0.16,0.08,0.15,0.19
		C9.24,7.67,9.17,7.73,9.06,7.73z"/>
	<path class="st10" d="M9.64,8.42c-0.13,0-0.22-0.04-0.22-0.18c0-0.1,0.07-0.17,0.17-0.18c0.13-0.01,0.19,0.06,0.2,0.19
		C9.8,8.35,9.74,8.41,9.64,8.42z"/>
	<path class="st10" d="M9.24,6.16C9.23,6.29,9.16,6.35,9.03,6.33c-0.1-0.01-0.16-0.08-0.15-0.19c0.01-0.13,0.1-0.18,0.22-0.17
		C9.2,5.98,9.25,6.05,9.24,6.16z"/>
	<path class="st10" d="M9.63,7.35c0.11,0.04,0.18,0.1,0.17,0.22c-0.01,0.1-0.08,0.16-0.18,0.15c-0.11-0.01-0.2-0.05-0.19-0.19
		C9.44,7.41,9.52,7.37,9.63,7.35z"/>
	<path class="st10" d="M14.66,7.55c0,0.13-0.09,0.18-0.2,0.18c-0.09,0-0.16-0.05-0.17-0.16c-0.01-0.12,0.06-0.2,0.17-0.21
		C14.57,7.35,14.65,7.42,14.66,7.55z"/>
	<path class="st10" d="M14.11,8.25C14.09,8.39,14,8.43,13.88,8.42c-0.11-0.01-0.16-0.08-0.14-0.19c0.01-0.1,0.06-0.17,0.17-0.17
		C14.04,8.06,14.1,8.14,14.11,8.25z"/>
	<path class="st10" d="M14.46,5.97c0.12,0,0.2,0.05,0.2,0.19c0,0.1-0.07,0.16-0.17,0.17c-0.13,0.01-0.19-0.06-0.19-0.19
		C14.29,6.03,14.35,5.98,14.46,5.97z"/>
	<path class="st10" d="M14.1,7.48c0.02,0.17-0.05,0.22-0.14,0.24c-0.12,0.02-0.2-0.03-0.22-0.16c-0.01-0.11,0.06-0.18,0.15-0.2
		C14,7.34,14.08,7.42,14.1,7.48z"/>
	<path class="st10" d="M16.46,9.31c0.02,0.16-0.07,0.22-0.18,0.24c-0.1,0.01-0.17-0.05-0.19-0.14c-0.03-0.13,0.05-0.21,0.15-0.23
		C16.35,9.16,16.44,9.21,16.46,9.31z"/>
	<path class="st10" d="M17,9.28c0.02,0.18-0.06,0.25-0.17,0.26c-0.09,0.01-0.17-0.04-0.19-0.14c-0.03-0.13,0.04-0.21,0.15-0.23
		C16.9,9.15,16.99,9.21,17,9.28z"/>
	<path class="st10" d="M17.01,7.96C17,8.1,16.92,8.15,16.8,8.14c-0.11-0.01-0.16-0.08-0.15-0.18c0-0.1,0.05-0.17,0.16-0.17
		C16.93,7.78,17,7.84,17.01,7.96z"/>
	<path class="st10" d="M6.9,7.96C6.88,8.09,6.82,8.14,6.71,8.14c-0.13,0-0.19-0.07-0.18-0.2c0.01-0.13,0.11-0.17,0.22-0.16
		C6.86,7.8,6.89,7.88,6.9,7.96z"/>
	<path class="st10" d="M7.28,9.56C7.16,9.53,7.07,9.49,7.07,9.36c0-0.13,0.09-0.19,0.2-0.19c0.09,0,0.16,0.06,0.17,0.17
		C7.46,9.47,7.38,9.52,7.28,9.56z"/>
	<path class="st10" d="M6.9,9.37C6.89,9.48,6.82,9.55,6.7,9.54C6.61,9.54,6.54,9.49,6.53,9.38C6.52,9.25,6.59,9.18,6.7,9.17
		C6.81,9.17,6.89,9.24,6.9,9.37z"/>
</g>
</svg>
