<?xml version="1.0" encoding="utf-8"?>
<!-- Generator: Adobe Illustrator 25.3.1, SVG Export Plug-In . SVG Version: 6.00 Build 0)  -->
<svg version="1.1" id="Layer_1" xmlns="http://www.w3.org/2000/svg" xmlns:xlink="http://www.w3.org/1999/xlink" x="0px" y="0px"
	 viewBox="0 0 24 24" style="enable-background:new 0 0 24 24;" xml:space="preserve">
<style type="text/css">
	.st0{fill-rule:evenodd;clip-rule:evenodd;fill:#005897;}
	.st1{fill-rule:evenodd;clip-rule:evenodd;fill:#5D5E5E;}
	.st2{fill-rule:evenodd;clip-rule:evenodd;fill:#005897;stroke:#005897;stroke-width:0.25;stroke-miterlimit:10;}
	.st3{fill:#005897;}
	.st4{fill:#005897;stroke:#005897;stroke-width:0.25;stroke-miterlimit:10;}
	.st5{fill:#FBFBFB;}
	.st6{fill:#F6FAFD;}
	.st7{fill:#010201;}
	.st8{fill:#38ADE1;}
	.st9{fill:#005897;stroke:#FFFFFF;stroke-width:0.1;stroke-miterlimit:10;}
	.st10{fill:#005897;stroke:#005897;stroke-width:0.1;stroke-miterlimit:10;}
	.st11{fill:#005897;stroke:#005897;stroke-width:0.12;stroke-miterlimit:10;}
	.st12{fill:#174884;}
	.st13{fill:#9CBDD4;}
	.st14{fill:#FFFFFF;}
</style>
<g>
	<path class="st3" d="M1.39,12.84c0.34-0.27,0.73-0.18,1.11-0.16c0.29,0.01,0.4-0.1,0.45-0.36c0.15-0.75,0.33-1.5,0.48-2.25
		C3.5,9.7,3.64,9.52,4.05,9.57C5.9,9.79,7.76,9.93,9.6,10.23c0.22,0.04,0.33-0.07,0.22-0.24C9.46,9.41,9.36,8.61,8.5,8.46
		C8.24,8.41,8.2,8.27,8.31,8c0.11-0.28,0.22-0.29,0.47-0.19c2.98,1.23,5.96,2.45,8.94,3.68c0.85,0.35,1.71,0.69,2.55,1.06
		c0.44,0.19,0.88,0.1,1.32,0.11c0.25,0.01,0.48,0.03,0.69,0.18c0,0.12,0,0.25,0,0.37c-0.12,0.01-0.12,0.13-0.16,0.2
		c-0.33,0.65-0.56,1.38-1.3,1.71c-0.1,0.04-0.1,0.14-0.12,0.23c-0.14,0.72-0.28,1.44-0.43,2.2c0.5-0.07,0.62,0.22,0.69,0.62
		c0.12,0.73,0.27,1.45,0.41,2.17c0.14,0.73,0.14,0.73,0.91,0.67c0,0.25,0,0.5,0,0.74c-0.11-0.01-0.22-0.02-0.32-0.02
		c-6.75,0-13.5,0-20.26,0c-0.11,0-0.22,0.01-0.32,0.02c0-0.25,0-0.5,0-0.74c0.37,0.01,0.74,0,1.11,0.02
		c0.23,0.01,0.29-0.07,0.28-0.29c-0.01-1.78-0.01-3.56,0-5.34c0-0.27-0.12-0.29-0.33-0.3c-0.36-0.02-0.73,0.06-1.07-0.13
		C1.39,14.26,1.39,13.55,1.39,12.84z M21.33,13.4c-0.05-0.01-0.08-0.02-0.11-0.02c-6.27,0-12.53,0-18.8-0.01
		c-0.29,0-0.4,0.08-0.36,0.36c0.02,0.12,0.02,0.25,0,0.37c-0.03,0.24,0.07,0.31,0.31,0.32c0.9,0.01,1.79,0.05,2.69,0.09
		c1.64,0.06,3.25,0.26,4.74,1.05c1.46,0.78,3.07,1.01,4.71,0.95c2.13-0.07,4.05-0.82,5.86-1.91C20.84,14.32,21.18,13.96,21.33,13.4z
		 M11.5,19.99c-0.12,0-0.21,0-0.3,0c-0.24,0.01-0.43,0.03-0.43-0.34c0-0.37,0.18-0.36,0.43-0.35c0.08,0,0.16-0.01,0.23,0
		c0.23,0.02,0.36-0.03,0.39-0.31c0.03-0.27-0.09-0.3-0.29-0.35c-0.8-0.18-1.56-0.47-2.29-0.84c-0.84-0.42-1.71-0.69-2.64-0.77
		c-0.37-0.03-0.74-0.07-1.11-0.08c-0.26-0.01-0.29-0.12-0.27-0.34c0.02-0.22,0.04-0.38,0.34-0.35c0.71,0.08,1.41,0.11,2.12,0.24
		c0.94,0.17,1.75,0.67,2.62,1.01c0.49,0.19,0.97,0.4,1.51,0.45c0-0.15,0-0.26,0-0.37c0.01-0.44-0.11-0.72-0.64-0.8
		c-0.59-0.1-1.14-0.37-1.68-0.62c-0.52-0.24-1.02-0.51-1.57-0.65c-1.32-0.31-2.66-0.33-4-0.38c-0.34-0.01-0.44,0.06-0.44,0.42
		c0.02,1.67,0.02,3.34,0,5.01c-0.01,0.38,0.11,0.5,0.47,0.44c0.06-0.01,0.12-0.01,0.19,0c0.33,0.05,0.48-0.05,0.44-0.42
		c-0.04-0.38,0-0.77-0.01-1.16c-0.01-0.35,0.11-0.51,0.48-0.5c1.07,0.01,2.14,0.01,3.2,0c0.37,0,0.5,0.17,0.49,0.51
		c-0.01,0.42,0.01,0.84-0.01,1.25C8.7,20.94,8.74,21.05,9,21.04c0.57-0.02,1.14-0.01,1.72-0.01c0.14,0,0.26,0,0.35-0.16
		C11.22,20.59,11.41,20.33,11.5,19.99z M11.26,12.67c-0.26-0.49-0.51-0.92-0.71-1.36c-0.13-0.28-0.32-0.38-0.6-0.41
		c-1.84-0.19-3.68-0.39-5.52-0.6c-0.27-0.03-0.35,0.05-0.4,0.28c-0.13,0.59-0.25,1.17-0.39,1.76c-0.06,0.24-0.02,0.35,0.27,0.35
		C6.33,12.66,8.76,12.67,11.26,12.67z M10.16,9.14c0.61,1.14,1.17,2.16,1.7,3.2c0.13,0.26,0.28,0.34,0.56,0.34
		c1.92-0.01,3.83-0.01,5.75-0.01c0.13,0,0.25,0,0.38,0c0-0.03,0-0.06,0.01-0.09C15.8,11.45,13.04,10.32,10.16,9.14z M16.32,19.99
		c0.17,0.32,0.33,0.6,0.47,0.88c0.08,0.16,0.21,0.16,0.35,0.16c1.13,0,2.26-0.01,3.38,0c0.22,0,0.31-0.04,0.26-0.28
		c-0.16-0.75-0.31-1.51-0.45-2.26c-0.03-0.18-0.1-0.26-0.3-0.26c-1.25,0.01-2.5,0.01-3.75,0c-0.14,0-0.22,0.02-0.25,0.19
		c-0.12,0.58,0.09,0.88,0.68,0.88c0.26,0,0.39,0.02,0.39,0.34c-0.01,0.29-0.09,0.39-0.37,0.35C16.61,19.98,16.5,19.99,16.32,19.99z
		 M13.93,19.31c0.4,0,0.8,0,1.2,0c0.11,0,0.28,0.03,0.24-0.17c-0.1-0.59-0.02-1.17,0.04-1.75c0.01-0.11,0.06-0.28-0.16-0.24
		c-0.85,0.14-1.69,0.06-2.53-0.03c-0.23-0.02-0.29,0.05-0.27,0.28c0.07,0.58,0.16,1.16,0.04,1.74c-0.04,0.2,0.12,0.17,0.24,0.17
		C13.13,19.31,13.53,19.31,13.93,19.31z M19.95,15.68c-0.51,0.23-0.96,0.43-1.41,0.62c-0.69,0.3-1.41,0.53-2.15,0.67
		c-0.28,0.05-0.29,0.24-0.3,0.44c-0.01,0.28,0.22,0.15,0.34,0.15c0.94,0.01,1.89,0,2.83,0.01c0.21,0,0.33-0.02,0.36-0.28
		C19.7,16.77,19.83,16.27,19.95,15.68z M16.05,21.03c-0.14-0.3-0.26-0.54-0.36-0.8c-0.07-0.2-0.18-0.24-0.38-0.24
		c-0.92,0.01-1.85,0.01-2.77,0c-0.19,0-0.31,0.04-0.38,0.24c-0.09,0.27-0.23,0.52-0.35,0.8C13.24,21.03,14.62,21.03,16.05,21.03z
		 M5.21,20.3c0,0.79,0,0.79,0.8,0.74c0.02,0,0.03,0,0.05,0c0.15,0.01,0.23-0.04,0.23-0.21c-0.01-0.34,0-0.68,0-1.01
		c0-0.08-0.01-0.17-0.11-0.17c-0.29-0.01-0.61-0.07-0.87,0.02c-0.21,0.08-0.05,0.39-0.09,0.59C5.21,20.27,5.21,20.28,5.21,20.3z
		 M6.97,20.29c0,0.11,0.01,0.22,0,0.32c-0.06,0.34,0.07,0.48,0.42,0.42c0.13-0.02,0.28,0,0.42,0c0.09,0,0.2,0.01,0.2-0.12
		c0-0.38,0-0.77,0-1.15c0-0.07-0.04-0.12-0.11-0.12c-0.28,0-0.58-0.07-0.82,0.02c-0.22,0.08-0.05,0.39-0.09,0.59
		C6.96,20.26,6.97,20.28,6.97,20.29z"/>
	<path class="st3" d="M18.21,10.3c0.02,0.31-0.27,0.53-0.57,0.41c-2.21-0.91-4.43-1.82-6.64-2.72c-0.24-0.1-0.35-0.18-0.21-0.45
		c0.12-0.23,0.19-0.31,0.47-0.19c2.22,0.93,4.46,1.83,6.68,2.75C18.04,10.12,18.21,10.1,18.21,10.3z"/>
	<path class="st3" d="M19.05,10.5c0.17,0.18,0.54,0.09,0.53,0.38c0,0.15-0.02,0.49-0.3,0.47c-0.19-0.02-0.5-0.05-0.51-0.31
		C18.75,10.85,18.82,10.61,19.05,10.5z"/>
	<path class="st3" d="M14.29,15.81c-0.36,0-0.71-0.02-1.06,0.01c-0.26,0.02-0.33-0.07-0.34-0.33c0-0.28,0.06-0.37,0.36-0.36
		c0.69,0.02,1.39,0.02,2.08,0c0.28-0.01,0.36,0.07,0.37,0.36c0.01,0.33-0.15,0.33-0.39,0.33C14.97,15.8,14.63,15.81,14.29,15.81z"/>
</g>
</svg>
