<svg id="card_giftcard_black_24dp" xmlns="http://www.w3.org/2000/svg" width="16.875" height="16.875" viewBox="0 0 16.875 16.875">
  <path id="Path_1076" data-name="Path 1076" d="M0,0H16.875V16.875H0Z" transform="translate(0)" fill="none"/>
  <path id="Path_1077" data-name="Path 1077" d="M14.656,4.813H13.123A2.1,2.1,0,0,0,9.383,2.949l-.352.471L8.68,2.942a2.1,2.1,0,0,0-3.741,1.87H3.406a1.4,1.4,0,0,0-1.4,1.406L2,13.953a1.4,1.4,0,0,0,1.406,1.406h11.25a1.4,1.4,0,0,0,1.406-1.406V6.219A1.4,1.4,0,0,0,14.656,4.813ZM11.14,3.406a.7.7,0,1,1-.7.7A.705.705,0,0,1,11.14,3.406Zm-4.219,0a.7.7,0,1,1-.7.7A.705.705,0,0,1,6.922,3.406Zm7.734,10.547H3.406V12.547h11.25Zm0-3.516H3.406V6.219H6.978L5.516,8.209l1.139.823L8.328,6.753l.7-.956.7.956,1.673,2.278,1.139-.823-1.462-1.99h3.572Z" transform="translate(-0.594 -0.594)" fill="#005897"/>
</svg>
