<?xml version="1.0" encoding="utf-8"?>
<!-- Generator: Adobe Illustrator 25.3.1, SVG Export Plug-In . SVG Version: 6.00 Build 0)  -->
<svg version="1.1" id="Layer_1" xmlns="http://www.w3.org/2000/svg" xmlns:xlink="http://www.w3.org/1999/xlink" x="0px" y="0px"
	 viewBox="0 0 24 24" style="enable-background:new 0 0 24 24;" xml:space="preserve">
<style type="text/css">
	.st0{fill-rule:evenodd;clip-rule:evenodd;fill:#005897;}
	.st1{fill-rule:evenodd;clip-rule:evenodd;fill:#5D5E5E;}
	.st2{fill-rule:evenodd;clip-rule:evenodd;fill:#005897;stroke:#005897;stroke-width:0.25;stroke-miterlimit:10;}
	.st3{fill:#005897;}
	.st4{fill:#005897;stroke:#005897;stroke-width:0.25;stroke-miterlimit:10;}
	.st5{fill:#FBFBFB;}
	.st6{fill:#F6FAFD;}
	.st7{fill:#010201;}
	.st8{fill:#38ADE1;}
	.st9{fill:#005897;stroke:#FFFFFF;stroke-width:0.1;stroke-miterlimit:10;}
	.st10{fill:#005897;stroke:#005897;stroke-width:0.1;stroke-miterlimit:10;}
	.st11{fill:#005897;stroke:#005897;stroke-width:0.12;stroke-miterlimit:10;}
	.st12{fill:#174884;}
	.st13{fill:#9CBDD4;}
	.st14{fill:#FFFFFF;}
</style>
<g>
	<path class="st10" d="M11,16.08c0.04-1.14,0.08-2.29,0.11-3.43c0.02-0.63,0.02-1.25,0.06-1.88c0.02-0.37-0.19-0.71-0.12-1.09
		c0.02-0.13-0.03-0.29,0.13-0.37c0.05-0.02,0.03-0.08,0.03-0.13c0.01-0.09,0-0.19,0.01-0.28c0.04-0.36,0.02-0.63-0.35-0.89
		c-0.79-0.57-0.75-1.75,0.01-2.38c0.11-0.09,0.21-0.16,0.18-0.32c-0.01-0.03,0.01-0.1,0.03-0.11c0.25-0.13,0.15-0.36,0.17-0.55
		c0.01-0.1,0.01-0.2,0-0.31c-0.02-0.24,0.05-0.39,0.32-0.37c0.1,0.01,0.11-0.05,0.11-0.13c0-0.28,0-0.56,0-0.85
		c0-0.09-0.02-0.12-0.11-0.13c-0.1-0.02-0.17-0.09-0.16-0.2c0.01-0.09,0.06-0.16,0.16-0.17c0.2-0.03,0.09-0.18,0.11-0.28
		c0.01-0.07,0.04-0.18-0.1-0.18c-0.11,0-0.17-0.09-0.16-0.19c0-0.09,0.06-0.17,0.16-0.18c0.14,0,0.11-0.09,0.11-0.17
		c0-0.27,0-0.55,0-0.82c0-0.14,0.02-0.28,0.2-0.28c0.17,0,0.19,0.13,0.19,0.27c0,0.27,0,0.55,0,0.82c0,0.09-0.02,0.18,0.13,0.19
		c0.09,0,0.15,0.08,0.14,0.19c0,0.1-0.05,0.17-0.15,0.18c-0.15,0.01-0.13,0.11-0.12,0.2c0.01,0.09-0.08,0.23,0.11,0.26
		c0.11,0.02,0.17,0.08,0.16,0.19c0,0.11-0.07,0.18-0.17,0.19c-0.1,0.01-0.1,0.07-0.1,0.15c0,0.27,0.01,0.53,0,0.8
		c0,0.13,0.04,0.16,0.16,0.16c0.2-0.01,0.28,0.1,0.27,0.29c-0.01,0.19,0,0.38,0,0.56c0,0.13-0.03,0.27,0.14,0.33
		c0.03,0.01,0.06,0.07,0.06,0.1c-0.05,0.25,0.15,0.33,0.29,0.46c0.73,0.72,0.58,1.93-0.31,2.46c-0.13,0.08-0.17,0.15-0.16,0.29
		c0.02,0.18,0.01,0.36,0.02,0.54c0,0.14-0.03,0.29,0.13,0.39c0.03,0.02,0.05,0.1,0.05,0.15c-0.03,0.28,0.11,0.59-0.12,0.85
		c-0.03,0.04-0.01,0.12-0.01,0.18c0.05,1.62,0.1,3.24,0.16,4.86c0.04,1.27,0.08,2.54,0.13,3.8c0.03,0.9,0.06,1.8,0.1,2.7
		c0,0.12,0.03,0.25,0.05,0.37c0.03,0.2,0.09,0.35,0.36,0.32c0.21-0.02,0.25,0.14,0.24,0.32c-0.01,0.16-0.04,0.32,0.23,0.31
		c0.18-0.01,0.18,0.18,0.19,0.32c0,0.31,0,0.31,0.31,0.31c0.68,0,1.36,0,2.04,0c0.15,0,0.29,0.01,0.29,0.19
		c0,0.18-0.14,0.19-0.29,0.19c-2.48,0-4.97,0-7.45,0c-0.15,0-0.29-0.02-0.28-0.19c0-0.18,0.15-0.19,0.29-0.19
		c0.22,0,0.44-0.01,0.66,0c0.13,0.01,0.19-0.02,0.17-0.16c-0.01-0.07,0-0.14,0-0.21c-0.02-0.18,0.07-0.28,0.24-0.27
		c0.18,0.01,0.17-0.09,0.17-0.22c0-0.36,0-0.37,0.36-0.4c0.18-0.01,0.18-0.16,0.2-0.27c0.07-0.33,0.09-0.66,0.1-1
		C10.88,19.61,10.94,17.85,11,16.08C11,16.08,11,16.08,11,16.08z M11.07,22.63c0.5,0,0.99,0,1.49,0c0.13,0,0.11-0.06,0.09-0.15
		c-0.08-0.3-0.1-0.62-0.11-0.93c-0.06-1.9-0.12-3.8-0.19-5.7c-0.01-0.22,0.09-0.51-0.05-0.63c-0.13-0.11-0.42-0.02-0.63-0.04
		c-0.21-0.02-0.26,0.06-0.26,0.26c-0.04,1.69-0.09,3.38-0.15,5.07C11.22,21.22,11.26,21.93,11.07,22.63z M10.87,7.42
		c0.28,0.44,0.75,0.66,1.2,0.58c0.48-0.09,0.87-0.46,0.96-0.94c0.09-0.45-0.11-0.94-0.5-1.2c-0.07-0.05-0.19-0.07-0.19-0.16
		C12.32,5.45,12.15,5.5,12,5.5c-0.14,0-0.28,0-0.42,0c-0.05,0-0.14-0.02-0.14,0.08c0.01,0.15-0.1,0.2-0.2,0.26
		c-0.35,0.23-0.52,0.57-0.55,0.98c-0.01,0.14,0.03,0.21,0.19,0.2c0.4-0.01,0.8-0.01,1.2,0c0.21,0,0.32,0.15,0.23,0.29
		c-0.06,0.1-0.17,0.1-0.27,0.1C11.66,7.42,11.28,7.42,10.87,7.42z M12.31,12.65c-0.04,0-0.08,0-0.12,0c0-0.62,0-1.24,0-1.86
		c0-0.41,0-0.4-0.42-0.41c-0.17,0-0.21,0.05-0.21,0.21c-0.01,0.61-0.04,1.22-0.06,1.83c-0.02,0.74-0.04,1.47-0.07,2.21
		c-0.01,0.14,0.03,0.19,0.18,0.18c0.17-0.01,0.35-0.01,0.52,0c0.15,0.01,0.19-0.04,0.19-0.2C12.31,13.96,12.31,13.31,12.31,12.65z
		 M11.88,23.65c-0.53,0-1.06,0-1.59,0c-0.09,0-0.16-0.01-0.16,0.12c0,0.14,0.08,0.12,0.17,0.12c1.05,0,2.11,0,3.16,0
		c0.09,0,0.17,0.02,0.16-0.12c0-0.14-0.08-0.12-0.17-0.12C12.93,23.66,12.4,23.65,11.88,23.65z M11.86,23.25
		C11.86,23.25,11.86,23.25,11.86,23.25c0.38,0,0.77,0,1.15,0c0.07,0,0.18,0.05,0.18-0.1c0-0.16-0.12-0.1-0.18-0.1
		c-0.77,0-1.53,0-2.3,0c-0.08,0-0.18-0.04-0.17,0.11c0.01,0.14,0.1,0.09,0.17,0.09C11.1,23.25,11.48,23.25,11.86,23.25z M12.13,8.87
		c-0.01-0.11-0.02-0.22-0.02-0.33c0.01-0.14-0.05-0.18-0.17-0.15c-0.05,0.01-0.11,0.01-0.16,0c-0.14-0.03-0.15,0.04-0.15,0.15
		c0,0.18,0.01,0.36-0.01,0.54c-0.02,0.19,0.02,0.26,0.23,0.25c0.31-0.02,0.31,0,0.29-0.31C12.14,8.96,12.13,8.92,12.13,8.87z
		 M12.1,4.74c0-0.08,0-0.16,0-0.23c0-0.08-0.01-0.15-0.11-0.12c-0.12,0.03-0.3-0.1-0.35,0.07c-0.05,0.18-0.01,0.39-0.01,0.58
		c0,0.03,0.02,0.05,0.05,0.07c0.22,0.1,0.41-0.02,0.41-0.27C12.1,4.8,12.1,4.77,12.1,4.74z M11.89,9.99c0.09,0,0.19-0.01,0.28,0
		c0.13,0.01,0.13-0.06,0.14-0.16c0.01-0.12-0.03-0.15-0.15-0.14c-0.19,0.01-0.38,0.01-0.56,0c-0.12-0.01-0.16,0.03-0.16,0.15
		c0,0.14,0.06,0.15,0.17,0.14C11.7,9.99,11.79,9.99,11.89,9.99z"/>
	<path class="st10" d="M11.68,16.72c0-0.13,0-0.27,0-0.4c0-0.13,0.08-0.21,0.2-0.21c0.11,0,0.18,0.08,0.18,0.2c0,0.27,0,0.53,0,0.8
		c0,0.11-0.05,0.2-0.18,0.2c-0.14,0-0.2-0.07-0.21-0.2C11.68,16.98,11.68,16.85,11.68,16.72z"/>
	<path class="st10" d="M12.1,6.37c-0.27-0.11-0.51-0.02-0.7,0.22c-0.06,0.08-0.17,0.08-0.25,0.01c-0.08-0.07-0.09-0.15-0.04-0.25
		c0.18-0.35,0.77-0.53,1.11-0.35c0.1,0.05,0.13,0.13,0.1,0.23C12.3,6.34,12.22,6.37,12.1,6.37z"/>
	<path class="st10" d="M11.68,12.31c0-0.05-0.01-0.09,0-0.14c0.02-0.12,0.09-0.19,0.21-0.17c0.23,0.03,0.16,0.23,0.17,0.37
		c0.01,0.14,0.01,0.28-0.18,0.29c-0.12,0.01-0.18-0.07-0.2-0.18C11.67,12.42,11.68,12.37,11.68,12.31
		C11.68,12.31,11.68,12.31,11.68,12.31z"/>
</g>
</svg>
