<?xml version="1.0" encoding="utf-8"?>
<!-- Generator: Adobe Illustrator 25.3.1, SVG Export Plug-In . SVG Version: 6.00 Build 0)  -->
<svg version="1.1" id="Layer_1" xmlns="http://www.w3.org/2000/svg" xmlns:xlink="http://www.w3.org/1999/xlink" x="0px" y="0px"
	 viewBox="0 0 24 24" style="enable-background:new 0 0 24 24;" xml:space="preserve">
<style type="text/css">
	.st0{fill-rule:evenodd;clip-rule:evenodd;fill:#005897;}
	.st1{fill-rule:evenodd;clip-rule:evenodd;fill:#5D5E5E;}
	.st2{fill-rule:evenodd;clip-rule:evenodd;fill:#005897;stroke:#005897;stroke-width:0.25;stroke-miterlimit:10;}
	.st3{fill:#005897;}
	.st4{fill:#005897;stroke:#005897;stroke-width:0.25;stroke-miterlimit:10;}
	.st5{fill:#FBFBFB;}
	.st6{fill:#F6FAFD;}
	.st7{fill:#010201;}
	.st8{fill:#38ADE1;}
	.st9{fill:#005897;stroke:#FFFFFF;stroke-width:0.1;stroke-miterlimit:10;}
	.st10{fill:#005897;stroke:#005897;stroke-width:0.1;stroke-miterlimit:10;}
	.st11{fill:#005897;stroke:#005897;stroke-width:0.12;stroke-miterlimit:10;}
	.st12{fill:#174884;}
	.st13{fill:#9CBDD4;}
	.st14{fill:#FFFFFF;}
</style>
<g>
	<path class="st2" d="M20.24,23.21c-5.19,0-10.32,0-15.49,0c0-2.77,0-5.5,0-8.25c0.34-0.04,0.65-0.08,1-0.13c0-0.68,0-1.33,0-2.03
		c0.24-0.06,0.45-0.11,0.7-0.17c0-0.67,0-1.32,0-2.01c0.28-0.03,0.52-0.05,0.86-0.08c0-0.68,0-1.37,0-2.08
		c0.31-0.03,0.52-0.06,0.8-0.09c0-0.69,0-1.36,0-2.06c0.25-0.04,0.44-0.08,0.7-0.12c0-0.64,0-1.29,0-1.98
		C9.13,4.18,9.4,4.15,9.74,4.1c0-0.97,0-1.95,0-2.92c0.52-0.1,0.52-0.1,0.68,0.53c0.1,0.01,0.2,0.03,0.31,0.03
		c0.11,0,0.22-0.01,0.28-0.02c0.16-0.25,0.29-0.45,0.42-0.65c0.14,0.19,0.29,0.37,0.49,0.64c0.33,0,0.8,0,1.19,0
		c0.17-0.25,0.3-0.45,0.44-0.64c0.14,0.19,0.29,0.38,0.49,0.64c0.08,0,0.28,0,0.4,0C14.61,1.45,14.75,1.22,14.9,1
		c0.08,0.03,0.15,0.06,0.23,0.1c0,0.99,0,1.97,0,3c0.37,0.04,0.68,0.07,1.06,0.1c0,0.65,0,1.29,0,1.97c0.26,0.06,0.47,0.1,0.73,0.15
		c0,0.68,0,1.35,0,2.05c0.27,0.03,0.49,0.05,0.8,0.09c0,0.68,0,1.37,0,2.07c0.3,0.03,0.52,0.05,0.85,0.09
		c0,0.43,0.02,0.87-0.01,1.31c-0.03,0.48,0.01,0.87,0.69,0.82c0,0.38,0,0.72,0,1.05c0,1,0,1,0.99,1.16
		C20.24,17.7,20.24,20.42,20.24,23.21z M19.69,22.69c0-2.45,0-4.82,0-7.19c-0.16-0.02-0.27-0.06-0.38-0.06
		c-4.51,0-9.02,0-13.53-0.01c-0.43,0-0.54,0.17-0.54,0.56c0.01,1.56,0.01,3.13,0,4.69c0,0.65,0,1.3,0,1.99c1.52,0,2.96,0,4.47,0
		c0-1.82,0-3.6,0-5.37c0.31-0.05,0.55-0.08,0.8-0.12c0.03-0.34,0.06-0.65,0.08-0.96c1.32,0,2.6,0,3.88,0
		c0.03,0.35,0.06,0.66,0.09,0.98c0.26,0.03,0.48,0.06,0.77,0.1c0,1.82,0,3.59,0,5.39C16.83,22.69,18.23,22.69,19.69,22.69z
		 M10.29,17.81c0,1.66,0,3.26,0,4.87c1.51,0,2.97,0,4.45,0c0-1.64,0-3.24,0-4.85c-0.27-0.04-0.51-0.08-0.74-0.11
		c-0.03-0.35-0.06-0.65-0.09-0.97c-0.94,0-1.81,0-2.73,0c-0.05,0.35-0.09,0.67-0.14,1C10.78,17.76,10.56,17.78,10.29,17.81z
		 M14.21,13.3c0.05,0.45,0.06,0.84,0.14,1.21c0.03,0.13,0.21,0.31,0.33,0.31c1.32,0.02,2.65,0.01,3.99,0.01c0-0.57,0-1.05,0-1.54
		C17.17,13.3,15.73,13.3,14.21,13.3z M10.49,14.8c0.06-0.52,0.12-0.99,0.17-1.48c-1.49,0-2.9,0-4.32,0c0,0.51,0,0.98,0,1.48
		C7.73,14.8,9.09,14.8,10.49,14.8z M14,11.16c0.03,0.42,0.02,0.77,0.09,1.1c0.03,0.16,0.21,0.41,0.32,0.41
		c1.19,0.03,2.38,0.02,3.58,0.02c0-0.56,0-1.03,0-1.52C16.65,11.16,15.35,11.16,14,11.16z M10.89,11.17c-1.32,0-2.59,0-3.87,0
		c0,0.51,0,0.97,0,1.52c0.8,0,1.56,0,2.32,0C10.78,12.69,10.78,12.69,10.89,11.17z M13.74,9.01c0.04,0.44,0.05,0.85,0.14,1.23
		c0.03,0.14,0.25,0.33,0.38,0.33c0.83,0.03,1.67,0.03,2.51,0c0.14-0.01,0.37-0.19,0.39-0.32c0.05-0.41,0.02-0.83,0.02-1.25
		C15.98,9.01,14.9,9.01,13.74,9.01z M11.15,9.01c-1.13,0-2.17,0-3.23,0c0,0.53,0,1.02,0,1.54c1.03,0,2.01,0,3.07,0
		C11.04,10.06,11.09,9.57,11.15,9.01z M16.34,6.91c-0.96,0-1.89,0-2.87,0c0.07,0.54,0.14,1,0.2,1.46c0.93,0,1.79,0,2.68,0
		C16.34,7.85,16.34,7.39,16.34,6.91z M11.39,6.89c-0.96,0-1.8,0-2.68,0c0,0.53,0,1.01,0,1.5c0.86,0,1.67,0,2.52,0
		C11.29,7.89,11.34,7.42,11.39,6.89z M13.85,2.31c-0.03,0.51-0.05,0.94-0.08,1.38c-0.9,0-1.72,0-2.56,0
		c-0.02-0.48-0.04-0.9-0.06-1.35c-0.29,0-0.55,0-0.77,0c0,0.63,0,1.2,0,1.77c1.43,0,2.8,0,4.19,0c0-0.63,0-1.2,0-1.8
		C14.32,2.31,14.12,2.31,13.85,2.31z M11.05,14.78c0.95,0,1.84,0,2.79,0c-0.07-0.52-0.13-0.98-0.19-1.46c-0.83,0-1.61,0-2.42,0
		C11.17,13.82,11.11,14.28,11.05,14.78z M15.65,4.75c-0.81,0-1.59,0-2.42,0c0.06,0.51,0.12,0.97,0.18,1.46c0.75,0,1.48,0,2.24,0
		C15.65,5.71,15.65,5.25,15.65,4.75z M11.65,4.76c-0.82,0-1.53,0-2.24,0c0,0.52,0,0.98,0,1.46c0.7,0,1.35,0,2.05,0
		C11.52,5.74,11.59,5.28,11.65,4.76z M13.36,11.16c-0.62,0-1.22,0-1.88,0c-0.06,0.5-0.11,0.98-0.17,1.47c0.8,0,1.51,0,2.24,0
		c-0.01-0.33-0.01-0.6-0.04-0.87C13.48,11.56,13.41,11.37,13.36,11.16z M13.29,10.55c-0.03-1.66-0.04-1.67-1.15-1.59
		c-0.5,0.04-0.64,0.47-0.49,1.59C12.18,10.55,12.71,10.55,13.29,10.55z M13.1,8.38c-0.04-0.29-0.08-0.53-0.11-0.77
		c-0.03-0.24-0.04-0.47-0.06-0.69c-1.08-0.16-1.16-0.04-1.06,1.46C12.26,8.38,12.66,8.38,13.1,8.38z M11.75,2.31
		c0,0.31,0,0.55,0,0.81c0.52,0,0.99,0,1.48,0c0-0.3,0-0.55,0-0.81C12.72,2.31,12.26,2.31,11.75,2.31z M12.85,6.21
		C12.8,5.79,12.77,5.39,12.7,5c-0.02-0.1-0.17-0.27-0.22-0.25c-0.12,0.03-0.3,0.14-0.31,0.24c-0.07,0.39-0.09,0.79-0.13,1.23
		C12.31,6.21,12.55,6.21,12.85,6.21z"/>
	<path class="st2" d="M16.14,17.77c0.5-0.01,0.5-0.01,0.5,2.52c0,0.7,0,0.7-0.5,0.69C16.14,19.91,16.14,18.84,16.14,17.77z"/>
	<path class="st2" d="M18.07,17.74c0.65-0.15,0.48,0.32,0.49,0.61c0.04,2.6,0.03,2.6-0.49,2.66C18.07,19.94,18.07,18.87,18.07,17.74
		z"/>
	<path class="st2" d="M6.96,20.98c-0.52,0-0.52,0-0.5-2.53c0.01-0.57,0.01-0.57,0.5-0.56C6.96,18.92,6.96,19.95,6.96,20.98z"/>
	<path class="st2" d="M8.54,20.97c0-1.03,0-2.06,0-3.09c0.55,0,0.55,0,0.5,2.61C9.02,20.99,9.02,20.99,8.54,20.97z"/>
</g>
</svg>
