<?xml version="1.0" encoding="utf-8"?>
<!-- Generator: Adobe Illustrator 16.0.0, SVG Export Plug-In . SVG Version: 6.00 Build 0)  -->
<!DOCTYPE svg PUBLIC "-//W3C//DTD SVG 1.1//EN" "http://www.w3.org/Graphics/SVG/1.1/DTD/svg11.dtd">
<svg version="1.1" id="Layer_1" xmlns="http://www.w3.org/2000/svg" xmlns:xlink="http://www.w3.org/1999/xlink" x="0px" y="0px"
	 width="24px" height="24px" viewBox="30.695 30.695 24 24" enable-background="new 30.695 30.695 24 24" xml:space="preserve">
<g id="Group_154" transform="translate(635.35 -1241.369)">
	<path id="Path_354" fill="#004786" d="M-602.205,1284.758v-1.317c0.03-0.235,0.056-0.472,0.09-0.706
		c0.26-1.916,1.083-3.712,2.365-5.16c1.531-1.775,3.65-2.939,5.969-3.282c0.279-0.044,0.558-0.077,0.839-0.115h1.317
		c0.234,0.029,0.471,0.055,0.705,0.089c1.924,0.261,3.723,1.088,5.174,2.377c1.768,1.53,2.928,3.644,3.27,5.957
		c0.043,0.279,0.076,0.56,0.115,0.839v1.317c-0.029,0.235-0.057,0.473-0.09,0.707c-0.26,1.916-1.084,3.711-2.365,5.158
		c-1.533,1.775-3.65,2.941-5.971,3.284c-0.279,0.043-0.557,0.077-0.838,0.114h-1.317c-0.235-0.029-0.472-0.055-0.706-0.09
		c-1.922-0.261-3.723-1.089-5.173-2.378c-1.768-1.53-2.927-3.644-3.27-5.956C-602.134,1285.319-602.167,1285.038-602.205,1284.758z
		 M-592.287,1275.492c-4.752,0.003-8.603,3.855-8.605,8.607c0.001,4.752,3.851,8.605,8.603,8.609
		c4.757,0.002,8.612-3.852,8.614-8.607c0-0.003,0-0.006,0-0.01C-583.68,1279.339-587.534,1275.491-592.287,1275.492
		L-592.287,1275.492z"/>
	<path id="Path_355" fill="#004786" d="M-591.62,1279.825v3.625c0.385,0.155,0.758,0.34,1.117,0.552
		c1.033,0.647,1.574,1.855,1.369,3.058c-0.191,1.371-1.014,2.249-2.334,2.649c-0.127,0.038-0.164,0.085-0.162,0.209
		c0.01,0.278,0.006,0.556,0.002,0.833c0.02,0.358-0.257,0.665-0.616,0.684c-0.014,0.001-0.029,0.001-0.043,0.001
		c-0.359,0.001-0.652-0.289-0.653-0.648c0-0.015,0-0.028,0.001-0.044c-0.002-0.271-0.006-0.542,0.002-0.813
		c0.004-0.129-0.025-0.188-0.165-0.226c-0.733-0.188-1.372-0.636-1.798-1.261c-0.231-0.281-0.19-0.697,0.091-0.929
		c0.007-0.006,0.014-0.011,0.021-0.017c0.281-0.218,0.685-0.166,0.902,0.115c0.012,0.016,0.023,0.031,0.034,0.047
		c0.203,0.294,0.481,0.526,0.806,0.674c0.027,0.012,0.057,0.019,0.098,0.032v-3.678c-0.571-0.123-1.097-0.402-1.519-0.805
		c-0.868-0.783-1.216-1.99-0.897-3.115c0.263-1.116,1.126-1.993,2.239-2.272c0.147-0.045,0.195-0.096,0.188-0.246
		c-0.012-0.27-0.006-0.542-0.002-0.813c-0.015-0.357,0.264-0.659,0.622-0.673c0.009,0,0.018-0.001,0.027-0.001
		c0.359-0.007,0.655,0.277,0.663,0.636c0.001,0.016,0.001,0.031-0.001,0.045c0.004,0.272,0.008,0.543-0.002,0.814
		c-0.004,0.134,0.026,0.198,0.174,0.238c0.727,0.187,1.359,0.631,1.783,1.25c0.236,0.281,0.199,0.7-0.082,0.936
		c-0.006,0.003-0.01,0.008-0.016,0.012c-0.281,0.221-0.688,0.174-0.91-0.107c-0.014-0.018-0.027-0.038-0.039-0.058
		C-590.942,1280.21-591.256,1279.964-591.62,1279.825z M-592.948,1279.838c-0.757,0.273-1.246,1.01-1.201,1.814
		c0.029,0.752,0.564,1.487,1.201,1.64V1279.838z M-591.622,1288.36c0.773-0.224,1.273-1.055,1.201-1.961
		c-0.053-0.647-0.682-1.426-1.201-1.479V1288.36z"/>
</g>
</svg>
