<?xml version="1.0" encoding="utf-8"?>
<!-- Generator: Adobe Illustrator 25.3.1, SVG Export Plug-In . SVG Version: 6.00 Build 0)  -->
<svg version="1.1" id="Layer_1" xmlns="http://www.w3.org/2000/svg" xmlns:xlink="http://www.w3.org/1999/xlink" x="0px" y="0px"
	 viewBox="0 0 24 24" style="enable-background:new 0 0 24 24;" xml:space="preserve">
<style type="text/css">
	.st0{fill-rule:evenodd;clip-rule:evenodd;fill:#005897;}
	.st1{fill-rule:evenodd;clip-rule:evenodd;fill:#5D5E5E;}
	.st2{fill-rule:evenodd;clip-rule:evenodd;fill:#005897;stroke:#005897;stroke-width:0.25;stroke-miterlimit:10;}
	.st3{fill:#005897;}
	.st4{fill:#005897;stroke:#005897;stroke-width:0.25;stroke-miterlimit:10;}
	.st5{fill:#FBFBFB;}
	.st6{fill:#F6FAFD;}
	.st7{fill:#010201;}
	.st8{fill:#38ADE1;}
	.st9{fill:#005897;stroke:#FFFFFF;stroke-width:0.1;stroke-miterlimit:10;}
	.st10{fill:#005897;stroke:#005897;stroke-width:0.1;stroke-miterlimit:10;}
	.st11{fill:#005897;stroke:#005897;stroke-width:0.12;stroke-miterlimit:10;}
	.st12{fill:#174884;}
	.st13{fill:#9CBDD4;}
	.st14{fill:#FFFFFF;}
</style>
<g>
	<path class="st0" d="M14.39,0.26c0.44,0.54,0.89,1.08,1.33,1.63c0.12,0.15,0.24,0.22,0.44,0.22c0.65-0.02,1.3-0.01,1.95-0.01
		c0.45,0,0.54,0.09,0.54,0.55c0,0.7,0,1.41,0,2.11c0,0.08,0,0.16,0,0.27c0.35,0,0.67,0,1,0c0.35,0,0.47,0.12,0.47,0.47
		c0,0.33,0,0.65,0,1c0.13,0,0.23,0,0.34,0c0.26,0.01,0.39,0.14,0.39,0.41c0,0.34,0,0.69,0,1.06c0.12,0,0.22-0.01,0.32,0
		c0.34,0.02,0.49,0.26,0.34,0.57c-0.19,0.39-0.39,0.78-0.58,1.17c-0.05,0.11-0.09,0.25-0.09,0.37c-0.01,1.54,0,3.09-0.01,4.63
		c0,0.14-0.01,0.25,0.18,0.31c0.08,0.03,0.18,0.19,0.18,0.28c0,0.11-0.09,0.26-0.19,0.3c-0.14,0.07-0.17,0.14-0.17,0.27
		c0.01,0.66,0,1.33,0,2.01c0.2,0.05,0.37,0.14,0.36,0.37c0,0.22-0.17,0.31-0.36,0.36c0,1.47,0,2.94,0,4.43c0.13,0,0.24,0,0.36,0
		c0.21,0.01,0.36,0.15,0.36,0.34c0,0.19-0.14,0.33-0.35,0.35c-0.06,0-0.12,0-0.18,0c-6,0-12,0-17.99,0c-0.37,0-0.54-0.11-0.53-0.35
		c0-0.23,0.17-0.34,0.52-0.34c0.06,0,0.12,0,0.2,0c0-1.49,0-2.96,0-4.44c-0.19-0.06-0.36-0.14-0.35-0.38
		c0.01-0.21,0.15-0.3,0.36-0.34c0-0.71,0-1.42-0.01-2.13c0-0.04-0.08-0.08-0.12-0.13c-0.08-0.11-0.22-0.22-0.22-0.33
		c0-0.11,0.15-0.21,0.23-0.32c0.05-0.07,0.11-0.15,0.11-0.23c0.01-1.19-0.04-2.39,0.02-3.58c0.04-0.89-0.1-1.71-0.59-2.45
		C2.66,8.7,2.65,8.67,2.64,8.64C2.41,8.2,2.55,7.98,3.04,7.97c0.06,0,0.12,0,0.21,0c0-0.32,0-0.62,0-0.92
		c0-0.44,0.09-0.54,0.53-0.54c0.06,0,0.12-0.01,0.2-0.01c0-0.34,0-0.66,0-0.99c0-0.35,0.12-0.47,0.47-0.47c0.32,0,0.64,0,1,0
		c0-0.09,0-0.17,0-0.25c0-0.73,0-1.45,0-2.18c0-0.4,0.11-0.51,0.5-0.51c0.67,0,1.34-0.01,2.02,0c0.18,0,0.29-0.06,0.4-0.2
		c0.36-0.46,0.73-0.92,1.1-1.38c0.08-0.09,0.16-0.18,0.25-0.26C11.27,0.26,12.83,0.26,14.39,0.26z M9.5,23.04c0-0.11,0-0.2,0-0.29
		c0-2.65,0-5.3,0-7.95c0-0.29,0.01-0.58,0.04-0.87c0.07-0.99,0.85-1.93,1.83-2.16c0.26-0.06,0.37-0.14,0.35-0.43
		c-0.02-0.26,0.15-0.42,0.35-0.42c0.2,0.01,0.33,0.16,0.35,0.41c0,0.02,0,0.05,0,0.07c-0.04,0.22,0.05,0.29,0.27,0.34
		c0.73,0.18,1.28,0.62,1.64,1.29c0.23,0.42,0.3,0.88,0.3,1.35c0,2.8,0,5.59,0,8.39c0,0.09,0,0.18,0,0.27c0.27,0,0.51,0,0.77,0
		c0-0.11,0-0.21,0-0.31c0-2.63,0-5.26,0-7.88c0-0.08,0-0.17,0-0.25c0.02-0.23,0.14-0.35,0.34-0.36c0.2,0,0.34,0.13,0.35,0.37
		c0.01,0.11,0,0.22,0,0.33c1.38,0,2.72,0,4.06,0c0-1.61,0-3.19,0-4.78c-1.36,0-2.7,0-4.06,0c0,0.1,0,0.18,0,0.26
		c0,0.83,0,1.67,0,2.5c0,0.08,0,0.15-0.01,0.23c-0.04,0.19-0.16,0.3-0.35,0.29c-0.19-0.01-0.31-0.12-0.33-0.32
		c-0.01-0.08-0.01-0.15-0.01-0.23c0-0.82,0-1.65,0-2.47c0-0.08,0-0.16,0-0.25c-2.23,0-4.43,0-6.64,0c0,4.3,0,8.58,0,12.87
		C8.99,23.04,9.23,23.04,9.5,23.04z M13.91,23.04c0-0.12,0-0.22,0-0.32c0-2.73,0-5.47,0-8.2c0-0.16-0.01-0.32-0.01-0.48
		c-0.06-1.09-1.19-1.9-2.25-1.64c-0.78,0.19-1.46,0.88-1.45,1.97c0.02,2.81,0.01,5.62,0.01,8.43c0,0.08,0.01,0.16,0.01,0.25
		C11.45,23.04,12.66,23.04,13.91,23.04z M3.96,7.96c5.41,0,10.79,0,16.19,0c0-0.25,0-0.49,0-0.76c-0.36,0-0.71,0.01-1.06,0
		c-0.26-0.01-0.39-0.14-0.39-0.35c0-0.21,0.15-0.33,0.4-0.34c0.1,0,0.21,0,0.31,0c0-0.27,0-0.51,0-0.76c-4.92,0-9.81,0-14.72,0
		c0,0.26,0,0.5,0,0.76c0.11,0,0.21,0,0.31,0c4.12,0,8.23,0,12.35,0c0.11,0,0.22,0,0.32,0.03c0.17,0.05,0.25,0.18,0.24,0.35
		c-0.02,0.16-0.11,0.28-0.29,0.3c-0.1,0.01-0.2,0.01-0.3,0.01c-4.35,0-8.71,0-13.06,0c-0.1,0-0.19,0-0.3,0
		C3.96,7.47,3.96,7.7,3.96,7.96z M17.95,2.8c-3.94,0-7.86,0-11.78,0c0,0.75,0,1.48,0,2.22c3.93,0,7.85,0,11.78,0
		C17.95,4.28,17.95,3.55,17.95,2.8z M3.96,10.16c0,1.6,0,3.19,0,4.78c1.36,0,2.7,0,4.05,0c0-1.6,0-3.19,0-4.78
		C6.67,10.16,5.33,10.16,3.96,10.16z M3.44,8.69c0.09,0.19,0.18,0.33,0.24,0.49c0.08,0.21,0.2,0.27,0.43,0.27
		c5.31-0.01,10.61-0.01,15.92-0.01c0.06,0,0.12,0.01,0.18,0c0.04-0.01,0.1-0.03,0.11-0.06c0.12-0.22,0.23-0.45,0.35-0.7
		C14.91,8.69,9.19,8.69,3.44,8.69z M8.01,21.57c0-1,0-1.98,0-2.96c-1.36,0-2.7,0-4.05,0c0,0.99,0,1.97,0,2.96
		C5.32,21.57,6.66,21.57,8.01,21.57z M16.09,21.56c1.37,0,2.72,0,4.06,0c0-0.99,0-1.97,0-2.95c-1.36,0-2.71,0-4.06,0
		C16.09,19.6,16.09,20.58,16.09,21.56z M8.01,15.68c-1.37,0-2.71,0-4.05,0c0,0.75,0,1.48,0,2.21c1.36,0,2.7,0,4.05,0
		C8.01,17.15,8.01,16.42,8.01,15.68z M20.15,17.89c0-0.76,0-1.49,0-2.21c-1.36,0-2.71,0-4.05,0c0,0.75,0,1.48,0,2.21
		C17.45,17.89,18.79,17.89,20.15,17.89z M9.12,2.08c1.97,0,3.91,0,5.87,0c-0.29-0.37-0.56-0.71-0.84-1.04
		c-0.04-0.05-0.13-0.08-0.19-0.08c-1.27,0-2.54,0-3.8,0c-0.06,0-0.15,0.02-0.18,0.06C9.69,1.36,9.41,1.71,9.12,2.08z M3.95,23.04
		c1.37,0,2.71,0,4.06,0c0-0.26,0-0.51,0-0.75c-1.36,0-2.71,0-4.06,0C3.95,22.54,3.95,22.78,3.95,23.04z M16.09,23.04
		c1.37,0,2.71,0,4.06,0c0-0.26,0-0.51,0-0.75c-1.36,0-2.71,0-4.06,0C16.09,22.54,16.09,22.78,16.09,23.04z"/>
	<path class="st0" d="M17.04,12.36c0-0.59,0.48-1.08,1.07-1.08c0.59,0,1.09,0.51,1.09,1.1c-0.01,0.58-0.52,1.08-1.09,1.07
		C17.52,13.44,17.04,12.96,17.04,12.36z M18.5,12.37c0-0.2-0.16-0.38-0.37-0.38c-0.21,0-0.38,0.15-0.39,0.36
		c-0.01,0.22,0.16,0.39,0.38,0.39C18.33,12.74,18.5,12.58,18.5,12.37z"/>
	<path class="st0" d="M12.05,4.26c-0.82,0-1.65,0-2.47-0.01c-0.12,0-0.27-0.04-0.35-0.12C9.04,3.96,9.15,3.65,9.41,3.58
		c0.07-0.02,0.15-0.01,0.23-0.01c1.61,0,3.22,0,4.83,0c0.05,0,0.11,0,0.16,0c0.2,0.02,0.34,0.16,0.34,0.34
		c0,0.18-0.14,0.34-0.35,0.34c-0.41,0.01-0.82,0-1.24,0C12.94,4.26,12.5,4.26,12.05,4.26z"/>
	<path class="st0" d="M16.44,3.91c0,0.18-0.15,0.34-0.33,0.34c-0.2,0.01-0.35-0.14-0.36-0.33c0-0.18,0.14-0.34,0.32-0.35
		C16.26,3.56,16.44,3.73,16.44,3.91z"/>
	<path class="st0" d="M8.35,3.91c0,0.19-0.14,0.33-0.33,0.34c-0.19,0-0.36-0.15-0.36-0.34c0-0.18,0.18-0.35,0.36-0.34
		C8.2,3.58,8.35,3.73,8.35,3.91z"/>
	<path class="st0" d="M7.07,12.37c0,0.59-0.49,1.08-1.07,1.08c-0.58,0-1.08-0.49-1.09-1.08C4.9,11.78,5.41,11.27,6,11.28
		C6.59,11.29,7.07,11.78,7.07,12.37z M6.37,12.38c0.01-0.21-0.15-0.38-0.36-0.39c-0.22-0.01-0.4,0.15-0.41,0.37
		c0,0.2,0.16,0.38,0.37,0.38C6.19,12.75,6.36,12.59,6.37,12.38z"/>
	<path class="st0" d="M6,17.13c-0.28,0-0.56,0-0.85,0c-0.26,0-0.43-0.14-0.43-0.34c-0.01-0.2,0.16-0.35,0.42-0.35
		c0.57-0.01,1.14-0.01,1.71,0c0.26,0,0.39,0.13,0.39,0.35c0,0.21-0.15,0.34-0.4,0.35C6.57,17.13,6.28,17.13,6,17.13z"/>
	<path class="st0" d="M18.13,16.43c0.28,0,0.56,0,0.85,0c0.25,0.01,0.4,0.14,0.41,0.34c0,0.21-0.16,0.35-0.42,0.36
		c-0.56,0-1.13,0-1.69,0c-0.26,0-0.42-0.14-0.41-0.35c0-0.21,0.14-0.33,0.4-0.34C17.55,16.43,17.84,16.43,18.13,16.43z"/>
</g>
</svg>
