<?xml version="1.0" encoding="utf-8"?>
<!-- Generator: Adobe Illustrator 25.3.1, SVG Export Plug-In . SVG Version: 6.00 Build 0)  -->
<svg version="1.1" id="Layer_1" xmlns="http://www.w3.org/2000/svg" xmlns:xlink="http://www.w3.org/1999/xlink" x="0px" y="0px"
	 viewBox="0 0 24 24" style="enable-background:new 0 0 24 24;" xml:space="preserve">
<style type="text/css">
	.st0{fill-rule:evenodd;clip-rule:evenodd;fill:#005897;}
	.st1{fill-rule:evenodd;clip-rule:evenodd;fill:#5D5E5E;}
	.st2{fill-rule:evenodd;clip-rule:evenodd;fill:#005897;stroke:#005897;stroke-width:0.25;stroke-miterlimit:10;}
	.st3{fill:#005897;}
	.st4{fill:#005897;stroke:#005897;stroke-width:0.25;stroke-miterlimit:10;}
	.st5{fill:#FBFBFB;}
	.st6{fill:#F6FAFD;}
	.st7{fill:#010201;}
	.st8{fill:#38ADE1;}
	.st9{fill:#005897;stroke:#FFFFFF;stroke-width:0.1;stroke-miterlimit:10;}
	.st10{fill:#005897;stroke:#005897;stroke-width:0.1;stroke-miterlimit:10;}
	.st11{fill:#005897;stroke:#005897;stroke-width:0.12;stroke-miterlimit:10;}
	.st12{fill:#174884;}
	.st13{fill:#9CBDD4;}
	.st14{fill:#FFFFFF;}
</style>
<g>
	<path class="st3" d="M12.77,5.6c2.91,3.05,4.22,6.62,4.87,10.45c0.3,1.79,0.54,3.6,0.49,5.43c-0.02,0.5,0.14,0.67,0.63,0.62
		c0.32-0.03,0.64-0.02,0.96,0.01c0.17,0.02,0.35,0.12,0.34,0.33c0,0.24-0.15,0.35-0.38,0.36c-0.17,0.01-0.35,0.01-0.52,0.01
		c-5.04,0-10.07,0-15.11,0c-0.12,0-0.25,0-0.37,0c-0.22-0.01-0.42-0.08-0.43-0.31c-0.02-0.27,0.2-0.39,0.44-0.4
		c0.64-0.01,1.29-0.03,1.93,0c0.4,0.02,0.56-0.07,0.56-0.52c-0.01-5.13-0.01-10.27,0-15.4c0-0.48-0.17-0.61-0.61-0.57
		C5.25,5.62,4.9,5.6,4.55,5.57C4.37,5.55,4.23,5.43,4.26,5.21C4.3,4.99,4.48,5.07,4.61,5.06c0.02,0,0.05,0,0.07,0
		C6.19,5.01,6.17,5.01,6.2,3.5C6.2,3.01,5.89,2.33,6.82,2.2C7.01,2.17,6.87,1.7,6.9,1.44c0.02-0.26-0.06-0.6,0.36-0.59
		C7.62,0.86,7.63,1.16,7.58,1.4C7.41,2.24,7.79,2.6,8.57,2.86c0.95,0.31,1.86,0.77,2.62,1.43c0.56,0.48,1.15,0.72,1.89,0.63
		c0.29-0.04,0.59,0,0.89,0c0.21,0,0.31,0.12,0.32,0.33c0.01,0.21-0.11,0.34-0.3,0.35C13.65,5.61,13.3,5.6,12.77,5.6z M10.02,4.5
		c1.65,2.16,2.58,4.6,3.2,7.17c0.76,3.17,1.08,6.4,1.06,9.66c0,0.64,0.2,0.81,0.8,0.76c0.64-0.05,1.29-0.02,1.93,0
		c0.31,0.01,0.45-0.09,0.46-0.41c0.01-0.36-0.12-0.49-0.48-0.47c-0.35,0.02-0.69,0.01-1.04,0c-0.2,0-0.35-0.1-0.35-0.31
		c0-0.28,0.23-0.18,0.39-0.2c0.36-0.03,0.71-0.02,1.09-0.12c0.44-0.12,0.3-0.38,0.31-0.62c0.02-0.36-0.26-0.29-0.47-0.29
		c-0.3-0.01-0.6,0-0.89,0c-0.24,0-0.47-0.02-0.48-0.33c-0.01-0.33,0.23-0.4,0.51-0.4c0.22,0,0.45,0.03,0.67-0.01
		c0.21-0.04,0.58,0.22,0.58-0.29c0-0.44-0.18-0.62-0.63-0.58c-0.32,0.03-0.64,0-0.97-0.02c-0.21-0.01-0.3-0.14-0.28-0.35
		c0.02-0.32,0.23-0.13,0.36-0.13c0.27-0.01,0.55-0.03,0.82,0c0.49,0.05,0.52-0.36,0.55-0.63c0.03-0.27-0.22-0.43-0.55-0.41
		c-0.32,0.02-0.64,0.01-0.97,0c-0.22-0.01-0.37-0.11-0.39-0.36c-0.02-0.27,0.2-0.24,0.34-0.3c0.4-0.19,0.84,0.01,1.24-0.12
		c0.1-0.68-0.23-0.85-0.85-0.82c-0.33,0.01-0.96,0.25-0.94-0.35c0.02-0.5,0.6-0.22,0.93-0.3c0.19-0.05,0.5,0.16,0.52-0.21
		c0.01-0.24-0.04-0.52-0.29-0.63c-0.15-0.06-0.35,0.01-0.51-0.03c-0.34-0.08-0.95,0.25-0.96-0.35c-0.01-0.52,0.57-0.29,0.9-0.34
		c0.02,0,0.05,0,0.07,0c0.32,0.02,0.35-0.12,0.29-0.41c-0.13-0.62-0.6-0.46-1-0.48c-0.27-0.02-0.68,0.12-0.67-0.34
		c0.01-0.39,0.37-0.29,0.63-0.32c0.17-0.02,0.48,0.13,0.46-0.18c-0.02-0.27-0.08-0.61-0.45-0.69c-0.14-0.03-0.3,0-0.45-0.01
		c-0.28-0.02-0.68,0.11-0.72-0.31c-0.03-0.44,0.37-0.36,0.65-0.39c0.07-0.01,0.14-0.03,0.24-0.06c-0.15-0.45-0.28-0.86-0.87-0.82
		c-0.25,0.02-0.61,0.1-0.68-0.27c-0.08-0.45,0.37-0.33,0.62-0.47c-0.26-0.44-0.47-0.87-1.11-0.81c-0.36,0.03-0.49-0.22-0.3-0.54
		c0.06-0.11,0.19-0.19,0.08-0.3C11.73,5.59,11.01,4.86,10.02,4.5z M12.48,11.64c-1.69,1.57-3.3,3.08-5.08,4.73c2,0,3.77,0,5.54,0
		c0.41,0,0.33-0.26,0.31-0.51C13.11,14.49,12.87,13.14,12.48,11.64z M7.54,22.08c2.03,0,3.81,0,5.6,0c0.26,0,0.5,0.02,0.49-0.36
		c-0.01-1.41-0.09-2.81-0.23-4.31C11.45,18.97,9.58,20.46,7.54,22.08z M6.86,21.72c1.99-1.59,3.84-3.07,5.87-4.69
		c-1.99,0-3.74,0.01-5.48,0c-0.43,0-0.39,0.27-0.39,0.55C6.86,18.9,6.86,20.21,6.86,21.72z M7.17,10.62c1.66,0,3.19,0,4.72,0
		c0.23,0,0.32-0.1,0.24-0.32c-0.53-1.51-1.07-3.01-2.08-4.38C9.08,7.49,8.16,9,7.17,10.62z M6.86,15.93
		c1.71-1.59,3.25-3.04,4.93-4.6c-1.63,0-3.06,0.01-4.49,0c-0.3,0-0.45,0.08-0.44,0.42C6.87,13.07,6.86,14.4,6.86,15.93z M9.42,5.59
		c-0.81,0-1.45,0-2.09,0c-0.22,0-0.47-0.03-0.47,0.31c0,1.2,0,2.39,0,3.59c0.05,0.01,0.1,0.02,0.15,0.03
		C7.79,8.25,8.57,6.99,9.42,5.59z M9.27,4.91C8.61,4.14,7.93,3.62,7.35,3.31c-0.42-0.23-0.48-0.1-0.5,0.31
		C6.8,4.91,6.78,4.91,8.05,4.91C8.42,4.91,8.78,4.91,9.27,4.91z"/>
</g>
</svg>
