<?xml version="1.0" encoding="utf-8"?>
<!-- Generator: Adobe Illustrator 16.0.0, SVG Export Plug-In . SVG Version: 6.00 Build 0)  -->
<!DOCTYPE svg PUBLIC "-//W3C//DTD SVG 1.1//EN" "http://www.w3.org/Graphics/SVG/1.1/DTD/svg11.dtd">
<svg version="1.1" id="Group_202" xmlns="http://www.w3.org/2000/svg" xmlns:xlink="http://www.w3.org/1999/xlink" x="0px" y="0px"
	 width="24px" height="24px" viewBox="64.977 28.937 24 24" enable-background="new 64.977 28.937 24 24" xml:space="preserve">
<g>
	<path id="Path_487" fill="#004686" d="M88.978,45.422c-0.115,0.171-0.315,0.264-0.519,0.239c-0.865-0.011-1.731-0.004-2.598-0.004
		c-0.002,0.024-0.012,0.042-0.006,0.054c0.241,0.479,0.105,0.695-0.438,0.695h-5.594c0.048,0.091,0.084,0.148,0.112,0.211
		c0.095,0.181,0.021,0.403-0.159,0.498c-0.05,0.024-0.104,0.037-0.16,0.04c-0.054,0.004-0.11,0.002-0.165,0.002
		c-4.653,0-9.305,0-13.958,0.004c-0.204,0.024-0.403-0.068-0.518-0.239v-0.278l7.04-9.147c0.162-0.21,0.323-0.421,0.486-0.631
		c0.228-0.291,0.494-0.288,0.705,0.016c0.492,0.705,0.98,1.41,1.467,2.117c0.057,0.083,0.114,0.166,0.19,0.275
		c0.059-0.074,0.106-0.129,0.148-0.188c1.026-1.461,2.054-2.925,3.08-4.387c0.286-0.404,0.542-0.401,0.806,0.014
		c1.217,1.925,2.434,3.851,3.652,5.776c0.04,0.065,0.084,0.128,0.141,0.213c0.053-0.077,0.099-0.135,0.137-0.199
		c0.423-0.691,0.845-1.385,1.271-2.076c0.229-0.372,0.528-0.372,0.757,0c0.922,1.503,1.841,3.008,2.759,4.512
		c0.451,0.737,0.907,1.468,1.361,2.203L88.978,45.422z M78.615,35.68c-0.03,0.077-0.042,0.103-0.05,0.13
		c-0.599,1.997-1.196,3.997-1.792,5.995c-0.02,0.109,0.004,0.221,0.067,0.313c0.771,1.127,1.551,2.245,2.325,3.371
		c0.063,0.114,0.189,0.181,0.32,0.171c1.732-0.006,3.466-0.002,5.201-0.004c0.063,0,0.128-0.009,0.221-0.016
		c-0.462-0.731-0.906-1.437-1.357-2.137c-0.055-0.059-0.131-0.092-0.21-0.095c-0.248-0.012-0.5,0.003-0.748-0.006
		c-0.207-0.006-0.369-0.177-0.363-0.384c0.006-0.2,0.168-0.359,0.369-0.361c0.129-0.005,0.255-0.001,0.416-0.001
		c-0.061-0.099-0.093-0.159-0.129-0.216c-0.637-1.01-1.297-2.005-1.901-3.033c-0.229-0.392-0.479-0.594-0.932-0.504
		c-0.04,0.006-0.078,0.005-0.116-0.002c-0.19-0.013-0.335-0.172-0.333-0.361c-0.013-0.196,0.137-0.366,0.333-0.382
		c0.066-0.007,0.135-0.001,0.245-0.001C79.655,37.327,79.149,36.526,78.615,35.68L78.615,35.68z M70.229,44.908
		c0.14,0,0.233-0.002,0.326,0c0.261,0.004,0.417,0.143,0.419,0.37c0.007,0.202-0.152,0.372-0.354,0.379
		c-0.019,0.002-0.037,0-0.055-0.002c-0.164,0.004-0.328-0.007-0.491,0.006c-0.064,0.004-0.124,0.034-0.163,0.086
		c-0.092,0.21-0.167,0.429-0.25,0.645h9.208c-0.337-0.487-0.652-0.949-0.979-1.403c-0.052-0.05-0.123-0.078-0.196-0.078
		c-0.242-0.01-0.484,0.002-0.726-0.006c-0.206-0.006-0.369-0.177-0.363-0.382c0.005-0.2,0.167-0.361,0.367-0.363
		c0.104-0.006,0.208,0,0.351,0l-4.376-6.321L70.229,44.908z M84.478,39.261c-0.439,0.719-0.857,1.396-1.263,2.08
		c-0.025,0.081-0.016,0.17,0.03,0.243c0.663,1.059,1.331,2.113,1.993,3.171c0.059,0.11,0.178,0.172,0.302,0.158
		c0.717-0.008,1.438-0.004,2.154-0.004c0.066,0,0.13-0.01,0.223-0.017c-0.204-0.338-0.401-0.646-0.582-0.964
		c-0.053-0.105-0.166-0.166-0.283-0.147c-0.225,0.008-0.454,0.006-0.679,0c-0.206,0.018-0.387-0.135-0.405-0.342
		c-0.016-0.204,0.136-0.385,0.342-0.403c0.02-0.002,0.038-0.002,0.059,0c0.126-0.005,0.252,0,0.414,0
		c-0.204-0.306-0.393-0.618-0.565-0.941c-0.199-0.425-0.464-0.679-0.964-0.563c-0.023,0.004-0.048,0.004-0.07,0
		c-0.188-0.016-0.333-0.177-0.327-0.366c-0.01-0.188,0.124-0.352,0.312-0.377c0.066-0.01,0.134-0.01,0.232-0.018L84.478,39.261z
		 M66.119,46.408c0.878,0,1.697-0.004,2.516,0.004c0.133,0.02,0.257-0.066,0.285-0.196c0.834-2.183,1.671-4.363,2.513-6.542
		c0.023-0.061,0.039-0.125,0.058-0.187l-0.034-0.017L66.119,46.408z M75.333,39.952l0.838,1.202l1.199-3.999l-0.057-0.023
		L75.333,39.952z"/>
	<path id="Path_491" fill="#9BBDD4" d="M66.118,46.408l5.337-6.938l0.035,0.017c-0.02,0.061-0.036,0.125-0.059,0.187
		c-0.838,2.179-1.676,4.362-2.513,6.542c-0.028,0.13-0.152,0.216-0.285,0.196C67.815,46.404,66.996,46.408,66.118,46.408z"/>
	<path id="Path_492" fill="#9BBDD4" d="M75.332,39.951l1.98-2.82l0.056,0.024l-1.198,3.999L75.332,39.951z"/>
	<path id="Path_493" fill="#004686" d="M78.87,41.908c0.124,0,0.252-0.006,0.374,0.003c0.206,0.01,0.365,0.185,0.354,0.389
		c-0.01,0.193-0.164,0.346-0.356,0.354c-0.263,0.009-0.53,0.009-0.797-0.002c-0.203-0.015-0.358-0.193-0.342-0.398
		c0.014-0.185,0.16-0.329,0.345-0.343C78.589,41.902,78.729,41.908,78.87,41.908z"/>
	<path id="Path_494" fill="#004686" d="M78.851,39.659c0.206-0.001,0.375,0.167,0.375,0.372c0.002,0.207-0.164,0.375-0.372,0.376
		c-0.206,0.001-0.374-0.166-0.374-0.372c0-0.003,0-0.005,0-0.007c-0.003-0.203,0.16-0.368,0.363-0.369
		C78.845,39.659,78.849,39.659,78.851,39.659z"/>
	<path id="Path_495" fill="#004686" d="M80.708,44.906c-0.205-0.01-0.365-0.187-0.356-0.393c0.011-0.206,0.187-0.366,0.393-0.354
		c0.206,0.008,0.367,0.185,0.354,0.392c0,0,0,0.005,0,0.007c-0.008,0.2-0.181,0.357-0.382,0.349
		C80.713,44.906,80.711,44.906,80.708,44.906z"/>
	<path id="Path_496" fill="#004686" d="M73.215,43.404c-0.125,0-0.25,0.009-0.374,0c-0.201,0-0.363-0.162-0.363-0.363
		c0-0.004,0-0.011,0-0.015c-0.006-0.193,0.147-0.359,0.343-0.365c0.001,0,0.004,0,0.005,0c0.266-0.009,0.532-0.009,0.797,0
		c0.197,0.002,0.354,0.165,0.351,0.361v0.002c0.01,0.201-0.146,0.37-0.345,0.38c-0.005,0-0.011,0-0.015,0
		C73.481,43.413,73.348,43.404,73.215,43.404z"/>
	<path id="Path_497" fill="#004686" d="M73.219,41.155c-0.207-0.003-0.371-0.174-0.367-0.38c0.004-0.207,0.174-0.372,0.381-0.368
		s0.371,0.175,0.368,0.382c0,0.002,0,0.003,0,0.007c-0.004,0.202-0.169,0.363-0.373,0.36C73.225,41.156,73.222,41.156,73.219,41.155
		z"/>
	<path id="Path_498" fill="#004686" d="M74.724,45.28c0.002,0.206-0.163,0.375-0.371,0.377c-0.207,0.002-0.375-0.165-0.377-0.371
		c-0.001-0.207,0.165-0.376,0.371-0.378c0.002,0,0.005,0,0.007,0c0.203-0.002,0.369,0.16,0.37,0.366
		C74.725,45.276,74.725,45.278,74.724,45.28z"/>
</g>
</svg>
