<svg id="event_black_24dp" xmlns="http://www.w3.org/2000/svg" width="18.631" height="18.631" viewBox="0 0 18.631 18.631">
  <path id="Path_1070" data-name="Path 1070" d="M0,0H18.631V18.631H0Z" fill="none"/>
  <path id="Path_1071" data-name="Path 1071" d="M13.868,9.539H9.987v3.882h3.881ZM13.092,1V2.553H6.881V1H5.329V2.553H4.553A1.546,1.546,0,0,0,3.008,4.105L3,14.974a1.552,1.552,0,0,0,1.553,1.553H15.421a1.557,1.557,0,0,0,1.553-1.553V4.105a1.557,1.557,0,0,0-1.553-1.553h-.776V1Zm2.329,13.974H4.553V6.434H15.421Z" transform="translate(-0.671 -0.224)" fill="#005897"/>
</svg>
