<?xml version="1.0" encoding="utf-8"?>
<!-- Generator: Adobe Illustrator 25.3.1, SVG Export Plug-In . SVG Version: 6.00 Build 0)  -->
<svg version="1.1" id="Layer_1" xmlns="http://www.w3.org/2000/svg" xmlns:xlink="http://www.w3.org/1999/xlink" x="0px" y="0px"
	 viewBox="0 0 24 24" style="enable-background:new 0 0 24 24;" xml:space="preserve">
<style type="text/css">
	.st0{fill-rule:evenodd;clip-rule:evenodd;fill:#005897;}
	.st1{fill-rule:evenodd;clip-rule:evenodd;fill:#5D5E5E;}
	.st2{fill-rule:evenodd;clip-rule:evenodd;fill:#005897;stroke:#005897;stroke-width:0.25;stroke-miterlimit:10;}
	.st3{fill:#005897;}
	.st4{fill:#005897;stroke:#005897;stroke-width:0.25;stroke-miterlimit:10;}
	.st5{fill:#FBFBFB;}
	.st6{fill:#F6FAFD;}
	.st7{fill:#010201;}
	.st8{fill:#38ADE1;}
	.st9{fill:#005897;stroke:#FFFFFF;stroke-width:0.1;stroke-miterlimit:10;}
	.st10{fill:#005897;stroke:#005897;stroke-width:0.1;stroke-miterlimit:10;}
	.st11{fill:#005897;stroke:#005897;stroke-width:0.12;stroke-miterlimit:10;}
	.st12{fill:#174884;}
	.st13{fill:#9CBDD4;}
	.st14{fill:#FFFFFF;}
</style>
<path class="st3" d="M12.23,0c0.31,0.83,0.54,1.58,0.87,2.28c0.42,0.89,0.58,1.8,0.5,2.78c-0.02,0.2-0.11,0.45,0.24,0.54
	c0.12,0.03,0.05,0.27,0.05,0.42c0,2.9,0.01,5.79-0.01,8.69c0,0.37,0.11,0.54,0.45,0.65c0.4,0.13,0.8,0.28,1.16,0.49
	c1.15,0.64,2.37,0.8,3.66,0.71c0.26-0.02,0.41-0.04,0.35-0.34c-0.04-0.23,0.05-0.32,0.3-0.31c0.83,0.01,1.66,0.01,2.49,0
	c0.17,0,0.31,0.02,0.28,0.24c-0.04,0.27,0.09,0.34,0.33,0.31c0.1-0.01,0.21,0.01,0.32,0c0.31-0.04,0.41,0.06,0.41,0.39
	c-0.01,1.89-0.01,3.77,0.02,5.66c0.01,0.39-0.13,0.44-0.47,0.44c-1.87-0.01-3.74,0-5.61-0.01c-0.25,0-0.45,0-0.41,0.35
	c0.03,0.27-0.19,0.21-0.34,0.21c-0.95,0-1.9,0-2.85,0c-2.07,0-4.13,0-6.2,0c-0.25,0-0.48,0.03-0.46-0.35c0.02-0.3-0.24-0.2-0.4-0.2
	c-1.87-0.01-3.74-0.02-5.61,0.01C0.9,22.93,0.79,22.82,0.8,22.4c0.03-1.46,0-2.93,0.01-4.39c0-0.42,0.05-0.84,0.06-1.26
	c0.01-0.18,0.08-0.24,0.25-0.23c0.18,0.01,0.36-0.01,0.54,0c0.2,0.02,0.32-0.04,0.28-0.27c-0.03-0.22,0.06-0.29,0.27-0.28
	c0.83,0.01,1.66,0.01,2.49,0c0.24,0,0.34,0.07,0.3,0.31c-0.05,0.29,0.09,0.38,0.35,0.34c0.03,0,0.06-0.01,0.09,0
	c1.43,0.25,2.62-0.43,3.86-0.94c0.4-0.17,0.93-0.25,1.16-0.55c0.25-0.33,0.07-0.87,0.07-1.32c0.01-2.61,0-5.22,0.01-7.83
	c0-0.17-0.1-0.39,0.21-0.45c0.14-0.03,0.11-0.21,0.09-0.32C10.68,4,11.1,2.92,11.54,1.83C11.77,1.26,11.98,0.68,12.23,0z
	 M11.47,14.76c0.43-0.15,0.78-0.41,1.19-0.13c0.27,0.19,0.34,0.07,0.34-0.23c-0.01-1.5-0.01-3.01,0-4.51c0-0.35,0-0.71,0-1.15
	c-0.54,0.45-1.04,0.38-1.53,0.04C11.47,10.79,11.47,12.75,11.47,14.76z M10.95,14.95c0.37,0.01,0.33-0.24,0.33-0.47
	c0-2.02,0-4.04,0-6.06c0-0.45-0.16-1.05,0.07-1.31c0.26-0.29,0.88-0.05,1.34-0.1c0.41-0.05,0.52,0.1,0.51,0.51
	c-0.02,2.32-0.01,4.64-0.01,6.97c0,0.23-0.04,0.47,0.31,0.47c0.01-0.02,0.02-0.03,0.02-0.04c0.01-2.64,0.01-5.28,0.02-7.91
	c0-0.25-0.13-0.26-0.31-0.26c-0.63,0.01-1.27,0.02-1.9-0.01c-0.31-0.01-0.41,0.08-0.41,0.4c0.01,2.5,0.01,5.01,0.01,7.51
	C10.93,14.75,10.94,14.85,10.95,14.95z M8.52,16.43c0.01,0.02,0.01,0.04,0.02,0.06c2.46,0,4.93,0,7.39,0
	c-1.17-0.56-2.36-1.06-3.54-1.56c-0.12-0.05-0.23-0.03-0.35,0.02C10.87,15.45,9.69,15.94,8.52,16.43z M20.24,22.53
	c0.89,0,1.78-0.02,2.66,0.01c0.36,0.01,0.38-0.16,0.37-0.43c-0.01-0.26,0.02-0.44-0.36-0.44c-1.79,0.02-3.58,0.02-5.37,0
	c-0.35,0-0.38,0.14-0.38,0.42c0.01,0.26-0.01,0.45,0.36,0.44C18.44,22.51,19.34,22.53,20.24,22.53z M4.27,21.68
	c-0.9,0-1.81,0.02-2.71-0.01c-0.37-0.01-0.37,0.16-0.37,0.43c0,0.26-0.01,0.44,0.36,0.44c1.79-0.02,3.58-0.02,5.37,0
	c0.37,0,0.37-0.16,0.37-0.43c0-0.26,0.01-0.45-0.36-0.43C6.04,21.7,5.15,21.68,4.27,21.68z M20.19,17.41c0.9,0,1.81-0.01,2.71,0
	c0.23,0,0.35-0.03,0.35-0.31c0-0.41-0.29-0.25-0.48-0.28c-0.25-0.04-0.65,0.16-0.59-0.38c0.02-0.2-0.17-0.16-0.3-0.16
	c-0.56,0-1.12,0.01-1.67-0.01c-0.25-0.01-0.38,0.07-0.33,0.33c0.05,0.31-0.12,0.33-0.36,0.33c-0.66-0.01-1.33,0-1.99,0
	c-0.18,0-0.37-0.04-0.36,0.26c0.01,0.26,0.18,0.23,0.35,0.23C18.42,17.41,19.3,17.41,20.19,17.41z M11.79,20.56
	c0,0.71,0.02,1.42-0.01,2.12c-0.02,0.37,0.13,0.42,0.44,0.41c0.29-0.01,0.46-0.02,0.45-0.4c-0.03-1.4-0.01-2.8-0.01-4.2
	c0-0.25-0.06-0.47-0.13-0.71c-0.05-0.17-0.15-0.2-0.31-0.2c-0.14,0-0.26,0.01-0.31,0.18c-0.07,0.25-0.14,0.49-0.14,0.75
	C11.79,19.21,11.79,19.89,11.79,20.56z M5.48,19.6c0-0.44-0.01-0.87,0-1.31c0.01-0.34-0.05-0.53-0.47-0.51
	c-0.77,0.03-0.78,0.01-0.79,0.52c-0.01,0.71,0,1.42,0,2.12c0,0.9,0,0.89,0.9,0.88c0.27,0,0.37-0.06,0.36-0.35
	C5.46,20.5,5.48,20.05,5.48,19.6z M4.31,17.4c0.9,0,1.81,0,2.71,0c0.15,0,0.32,0.02,0.31-0.21c0-0.24-0.18-0.19-0.32-0.19
	c-0.68,0-1.35-0.01-2.03,0c-0.23,0-0.38-0.03-0.34-0.31c0.05-0.29-0.1-0.35-0.36-0.34c-0.54,0.02-1.08,0.01-1.62,0
	c-0.21,0-0.37,0.02-0.32,0.28c0.04,0.23-0.07,0.29-0.28,0.27c-0.15-0.01-0.3,0-0.45,0c-0.16,0-0.33-0.04-0.34,0.23
	c-0.01,0.27,0.15,0.28,0.35,0.28C2.5,17.4,3.41,17.4,4.31,17.4z M21.73,19.68c0-0.45,0.01-0.9-0.01-1.35
	c-0.01-0.2-0.01-0.44-0.25-0.53c-0.64-0.22-0.98,0.03-0.99,0.71c-0.01,0.63,0,1.26,0,1.9c0,0.95,0,0.94,0.94,0.9
	c0.24-0.01,0.32-0.09,0.31-0.32C21.72,20.55,21.73,20.11,21.73,19.68z M14.46,20.5c0-0.72,0-1.44,0-2.17c0-0.18-0.02-0.36-0.08-0.53
	c-0.05-0.13-0.1-0.21-0.24-0.21c-0.14,0-0.22,0.04-0.26,0.18c-0.05,0.2-0.15,0.39-0.15,0.61c0,1.46,0.01,2.92-0.01,4.38
	c0,0.32,0.14,0.32,0.38,0.33c0.25,0.01,0.38-0.03,0.37-0.34C14.44,22.01,14.46,21.25,14.46,20.5z M10.73,20.57
	c0-0.72,0.02-1.45-0.01-2.17c-0.01-0.29,0.02-0.76-0.34-0.76c-0.37-0.01-0.35,0.47-0.35,0.75c-0.02,1.46,0,2.92-0.02,4.38
	c0,0.26,0.09,0.34,0.34,0.33c0.22-0.01,0.4,0.02,0.39-0.31C10.71,22.04,10.73,21.3,10.73,20.57z M7.29,19.53
	c0-0.44-0.02-0.87,0.01-1.31c0.01-0.3-0.02-0.49-0.4-0.44c-0.3,0.04-0.64-0.1-0.62,0.44c0.03,0.79,0.01,1.59,0.01,2.39
	c0,0.74,0,0.73,0.72,0.7c0.21-0.01,0.29-0.08,0.28-0.29C7.28,20.52,7.29,20.02,7.29,19.53z M15.52,20.46c0,0.77,0,1.53,0,2.3
	c0,0.2,0.01,0.34,0.28,0.33c0.23-0.01,0.35-0.05,0.35-0.32c-0.01-1.43,0-2.86-0.01-4.29c0-0.09,0-0.19-0.04-0.26
	c-0.11-0.21-0.02-0.62-0.34-0.58c-0.23,0.03-0.24,0.4-0.24,0.66C15.52,19.02,15.52,19.74,15.52,20.46z M12.27,17.23
	c1.33,0,2.65,0.01,3.98-0.01c0.18,0,0.54,0.19,0.54-0.17c0-0.25-0.34-0.15-0.53-0.15c-2.62-0.01-5.25-0.01-7.87-0.01
	c-0.1,0-0.24-0.03-0.31,0.03c-0.11,0.09-0.37,0-0.33,0.21c0.03,0.16,0.23,0.09,0.36,0.09C9.49,17.23,10.88,17.23,12.27,17.23z
	 M3.44,19.6c0-0.45,0-0.9,0-1.35c0-0.28-0.05-0.48-0.43-0.48c-0.37,0-0.48,0.17-0.48,0.48c0,0.92,0.01,1.83-0.01,2.75
	c-0.01,0.39,0.26,0.29,0.46,0.29c0.2,0,0.48,0.1,0.46-0.29C3.42,20.54,3.44,20.07,3.44,19.6z M18.79,19.69
	c0,0.42,0.03,0.84-0.01,1.26c-0.04,0.39,0.2,0.35,0.44,0.35c0.26,0,0.49,0.05,0.48-0.37c-0.03-0.81-0.01-1.62-0.01-2.43
	c0-0.17-0.05-0.32-0.09-0.48c-0.05-0.2-0.18-0.23-0.37-0.24c-0.2,0-0.3,0.06-0.36,0.25c-0.05,0.16-0.08,0.32-0.08,0.48
	C18.79,18.91,18.79,19.3,18.79,19.69z M8.96,20.56c0-0.71,0.01-1.42,0-2.13c0-0.3-0.05-0.77-0.28-0.77c-0.25,0-0.29,0.46-0.29,0.75
	c-0.01,1.45,0,2.89-0.01,4.34c0,0.21,0.01,0.34,0.28,0.34c0.25,0,0.3-0.1,0.3-0.32C8.95,22.03,8.96,21.29,8.96,20.56z M17.18,19.5
	c0,0.48,0.02,0.96-0.01,1.44c-0.02,0.34,0.15,0.36,0.41,0.35c0.24,0,0.43,0.01,0.41-0.34c-0.03-0.84-0.01-1.69-0.01-2.53
	c0-0.17-0.05-0.33-0.11-0.48c-0.11-0.29-0.36-0.15-0.55-0.16c-0.21-0.01-0.15,0.19-0.15,0.31C17.18,18.57,17.18,19.04,17.18,19.5z
	 M23.27,19.5c0-0.47,0-0.93,0-1.4c0-0.14,0.06-0.33-0.19-0.32c-0.18,0.01-0.41-0.08-0.48,0.2c-0.03,0.13-0.08,0.26-0.08,0.39
	c-0.01,0.87,0.01,1.74-0.01,2.62c-0.01,0.3,0.14,0.31,0.36,0.3c0.22-0.01,0.42,0.03,0.41-0.31C23.26,20.5,23.27,20,23.27,19.5z
	 M13.51,17.62c-0.6-0.05-0.6-0.06-0.5,0.48c0.03,0.15,0.03,0.3,0.03,0.45c0,1.35,0,2.71,0.01,4.06c0,0.16-0.15,0.47,0.16,0.46
	c0.27,0,0.14-0.29,0.14-0.44c0.01-0.99-0.01-1.99,0.01-2.98C13.37,18.98,13.25,18.3,13.51,17.62z M14.83,20.3c0,0.94,0,1.7,0,2.47
	c0,0.12-0.05,0.3,0.15,0.31c0.21,0.01,0.16-0.17,0.17-0.29c0-0.01,0-0.03,0-0.05c0.06-1.67-0.11-3.34,0.09-5
	c0.03-0.24-0.18-0.14-0.29-0.15c-0.1-0.01-0.25-0.04-0.21,0.18C14.93,18.67,14.76,19.57,14.83,20.3z M1.2,19.52
	c0,0.5,0.01,0.99,0,1.49c0,0.21,0.06,0.3,0.28,0.29c0.22,0,0.29-0.08,0.28-0.29c-0.01-0.84,0-1.69,0-2.53c0-0.14,0-0.27-0.02-0.4
	c-0.03-0.19-0.12-0.32-0.36-0.29c-0.25,0.03-0.17,0.21-0.17,0.34C1.19,18.59,1.2,19.05,1.2,19.52z M11.42,3.24c0.49,0,0.93,0,1.36,0
	c0.18,0,0.25-0.05,0.18-0.24c-0.24-0.61-0.47-1.22-0.73-1.91C11.95,1.84,11.7,2.51,11.42,3.24z M9.81,17.63
	c-0.62-0.05-0.61-0.05-0.51,0.45c0.03,0.16,0.04,0.33,0.04,0.49c0,1.39,0,2.77,0.01,4.16c0,0.12-0.09,0.35,0.16,0.33
	c0.2-0.01,0.12-0.21,0.12-0.33c0.01-1.28,0-2.56,0-3.84C9.64,18.47,9.61,18.05,9.81,17.63z M10.94,17.64
	c0.25,0.5,0.16,1.03,0.16,1.55c0.01,1.18,0,2.35,0.01,3.53c0,0.13-0.09,0.36,0.15,0.35c0.23-0.01,0.13-0.23,0.13-0.36
	c0.01-1.39,0-2.77,0.01-4.16c0-0.15,0-0.3,0.03-0.45C11.54,17.56,11.55,17.56,10.94,17.64z M16.33,17.65
	c0.29,0.62,0.18,1.29,0.19,1.95c0.01,1.05,0,2.11,0.01,3.16c0,0.11-0.09,0.31,0.13,0.32c0.23,0,0.13-0.2,0.13-0.31
	c0.01-1.59-0.01-3.19,0.01-4.78C16.81,17.62,16.7,17.52,16.33,17.65z M7.72,20.33c0,0.77-0.01,1.54,0.01,2.31
	c0,0.15-0.14,0.43,0.15,0.43c0.24,0,0.13-0.27,0.13-0.41c0.01-1.39,0-2.77,0.01-4.16c0-0.18-0.02-0.36,0.06-0.53
	c0.04-0.1,0.14-0.23,0.04-0.32c-0.06-0.05-0.21-0.05-0.3-0.02c-0.15,0.05-0.09,0.21-0.09,0.31C7.72,18.73,7.72,19.53,7.72,20.33z
	 M12.9,8.09c-0.01-0.36-0.32-0.65-0.68-0.64c-0.36,0.01-0.66,0.32-0.65,0.67c0.01,0.36,0.32,0.65,0.68,0.64
	C12.61,8.75,12.91,8.45,12.9,8.09z M12.19,6.38c0.35,0,0.69,0,1.04,0c0.15,0,0.3,0.02,0.3-0.21c0.01-0.23-0.12-0.23-0.28-0.23
	c-0.68,0-1.35,0-2.03,0c-0.16,0-0.29,0-0.28,0.23c0.01,0.24,0.16,0.21,0.31,0.21C11.56,6.38,11.87,6.38,12.19,6.38z M19.97,19.58
	c0,0.53-0.01,0.97,0,1.4c0,0.1-0.07,0.29,0.09,0.3c0.2,0.01,0.12-0.19,0.14-0.31c0.01-0.07,0-0.15,0-0.23
	c0.05-0.93-0.11-1.86,0.1-2.78c0.01-0.06,0.03-0.14-0.03-0.15c-0.12-0.02-0.24-0.03-0.36,0c-0.11,0.02-0.06,0.12-0.04,0.18
	C20.06,18.53,19.92,19.11,19.97,19.58z M18.37,17.78c-0.15-0.01-0.28,0.02-0.17,0.25c0.08,0.17,0.06,0.35,0.06,0.53
	c0,0.8,0,1.59,0,2.39c0,0.12-0.06,0.33,0.12,0.34c0.21,0.01,0.11-0.2,0.13-0.31c0.01-0.09,0-0.18,0-0.27
	c0.05-0.91-0.11-1.83,0.09-2.73C18.65,17.76,18.52,17.78,18.37,17.78z M6.01,19.51C6.01,19.51,6.01,19.51,6.01,19.51
	c0.01-0.51,0-1.02,0.01-1.53c0-0.12,0-0.21-0.15-0.2c-0.13,0.01-0.11,0.1-0.11,0.19c0,1.02,0,2.04,0.01,3.06
	c0,0.09-0.05,0.24,0.11,0.24c0.14,0,0.14-0.13,0.14-0.24C6.01,20.54,6.01,20.02,6.01,19.51z M12.62,4.61c0-0.25,0-0.51,0-0.76
	c0-0.12-0.03-0.21-0.17-0.21c-0.14,0-0.17,0.08-0.17,0.2c0,0.49,0,0.99,0,1.48c0,0.13,0.01,0.25,0.19,0.24
	c0.14-0.01,0.15-0.11,0.15-0.23C12.62,5.08,12.62,4.85,12.62,4.61z M22.12,21.28c0.16-0.17,0.11-0.35,0.11-0.53
	c0.01-0.87-0.05-1.75,0.04-2.62c0.04-0.41-0.06-0.38-0.32-0.32C22.13,18.97,21.94,20.14,22.12,21.28z M3.94,19.52
	C3.94,19.52,3.95,19.52,3.94,19.52c0.01-0.53-0.01-1.06,0.02-1.58c0.01-0.14-0.03-0.15-0.12-0.15c-0.1-0.01-0.17,0.02-0.15,0.15
	c0.02,0.18,0.04,0.36,0.04,0.54c0,0.84,0,1.69,0,2.53c0,0.09-0.04,0.25,0.11,0.25c0.16,0,0.1-0.15,0.1-0.24
	C3.94,20.51,3.94,20.02,3.94,19.52z M2.09,21.27c0.14-0.01,0.14-0.09,0.14-0.16c0.04-1.06-0.07-2.13,0.06-3.19
	c0.02-0.15-0.08-0.13-0.17-0.13c-0.1,0-0.15,0.02-0.13,0.16c0.11,0.97,0.02,1.95,0.05,2.92C2.05,21.01,2.01,21.15,2.09,21.27z
	 M12.01,4.58C12.01,4.58,12.01,4.58,12.01,4.58c0-0.26,0-0.51,0-0.77c0-0.07,0.01-0.16-0.1-0.17c-0.09-0.01-0.14,0.06-0.14,0.14
	c0,0.54,0,1.09,0.01,1.63c0,0.04,0.06,0.12,0.1,0.12c0.1,0.02,0.12-0.06,0.12-0.14C12.01,5.12,12.01,4.85,12.01,4.58z M13.21,4.59
	c0-0.24,0-0.48,0-0.72c0-0.11,0.01-0.22-0.15-0.22c-0.15-0.01-0.16,0.1-0.16,0.21c0,0.49,0,0.99,0,1.48c0,0.11,0.01,0.22,0.17,0.2
	c0.15-0.01,0.14-0.13,0.14-0.23C13.21,5.07,13.21,4.83,13.21,4.59z M11.48,4.58C11.48,4.58,11.49,4.58,11.48,4.58
	c0-0.25,0.01-0.51,0-0.76c0-0.08-0.01-0.16-0.11-0.16c-0.11,0-0.11,0.08-0.11,0.16c0,0.52,0,1.05,0,1.57c0,0.06,0.02,0.12,0.09,0.13
	c0.1,0.01,0.13-0.06,0.13-0.14C11.48,5.12,11.48,4.85,11.48,4.58z"/>
</svg>
