<?xml version="1.0" encoding="utf-8"?>
<!-- Generator: Adobe Illustrator 16.0.0, SVG Export Plug-In . SVG Version: 6.00 Build 0)  -->
<!DOCTYPE svg PUBLIC "-//W3C//DTD SVG 1.1//EN" "http://www.w3.org/Graphics/SVG/1.1/DTD/svg11.dtd">
<svg version="1.1" id="Layer_1" xmlns="http://www.w3.org/2000/svg" xmlns:xlink="http://www.w3.org/1999/xlink" x="0px" y="0px"
	 width="24px" height="24px" viewBox="0 0 24 24" enable-background="new 0 0 24 24" xml:space="preserve">
<path fill-rule="evenodd" clip-rule="evenodd" fill="#FFFFFF" d="M9.984,22.918c-3.948-0.416-9.09-4.294-9.173-10.684
	C0.732,6.201,5.639,1.122,11.596,1.041c6.278-0.086,11.299,4.742,11.362,10.98c0.063,6.267-4.905,10.524-9.674,10.979
	c0-2.576,0-5.148,0-7.8c0.718,0,1.438-0.021,2.156,0.008c0.402,0.017,0.547-0.105,0.581-0.521c0.068-0.844,0.208-1.682,0.328-2.586
	c-1.034,0-2.03,0-3.017,0c0-0.919-0.045-1.78,0.016-2.633c0.039-0.539,0.492-0.833,1.168-0.861c0.616-0.026,1.234-0.005,1.893-0.005
	c0-0.96,0-1.868,0-2.831c-1.37-0.083-2.745-0.337-4.078,0.187c-1.388,0.545-2.121,1.633-2.247,3.081
	c-0.085,0.98-0.016,1.974-0.016,3.03c-0.958,0-1.829,0-2.722,0c0,1.067,0,2.065,0,3.127c0.887,0,1.745,0,2.64,0
	C9.984,17.811,9.984,20.363,9.984,22.918z"/>
</svg>
