<?xml version="1.0" encoding="utf-8"?>
<!-- Generator: Adobe Illustrator 16.0.0, SVG Export Plug-In . SVG Version: 6.00 Build 0)  -->
<!DOCTYPE svg PUBLIC "-//W3C//DTD SVG 1.1//EN" "http://www.w3.org/Graphics/SVG/1.1/DTD/svg11.dtd">
<svg version="1.1" id="Layer_1" xmlns="http://www.w3.org/2000/svg" xmlns:xlink="http://www.w3.org/1999/xlink" x="0px" y="0px"
	 width="24px" height="24px" viewBox="47.802 32.824 24 24" enable-background="new 47.802 32.824 24 24" xml:space="preserve">
<g id="Group_156" transform="translate(159.292 -1255.44)">
	<path id="Path_357" fill="#004786" d="M-111.496,1299.552c0.413-0.434,0.813-0.88,1.244-1.294c0.167-0.16,0.396-0.077,0.595,0.023
		c1.144,0.574,2.291,1.141,3.43,1.721c0.146,0.088,0.327,0.087,0.471-0.004c0.572-0.299,1.153-0.582,1.759-0.885
		c-0.754-0.431-1.478-0.844-2.202-1.257c-0.976-0.558-1.951-1.116-2.926-1.675c-0.455-0.262-0.5-0.589-0.131-0.958
		c0.596-0.597,1.2-1.187,1.787-1.794c0.191-0.225,0.504-0.303,0.778-0.196c2.722,0.825,5.444,1.645,8.167,2.461
		c0.146,0.049,0.304,0.041,0.441-0.025c1.501-0.678,3.089-1.146,4.717-1.391c1.479-0.236,2.991-0.13,4.424,0.31
		c0.439,0.124,0.831,0.376,1.123,0.727c0.124,0.185,0.233,0.378,0.328,0.579v0.516c-0.455,1.027-1.34,1.63-2.245,2.177
		c-0.994,0.599-2.039,1.115-3.061,1.666c-0.088,0.048-0.179,0.091-0.252,0.129c0.307,1.222,0.608,2.421,0.91,3.621
		c0.199,0.794,0.396,1.587,0.596,2.381c0.113,0.449,0.038,0.613-0.38,0.823c-0.579,0.29-1.158,0.58-1.737,0.87
		c-0.356,0.177-0.547,0.136-0.796-0.168c-1.355-1.657-2.71-3.314-4.063-4.974c-0.098-0.169-0.312-0.229-0.482-0.137
		c-2.23,0.822-4.501,1.528-6.805,2.114c-1.152,0.257-2.336,0.333-3.511,0.229c-0.481-0.04-0.959-0.105-1.434-0.194
		c-0.332-0.045-0.616-0.26-0.749-0.566v-0.421c0.407-0.703,1.113-1.052,1.768-1.472c-0.598-0.898-1.183-1.776-1.768-2.655
		L-111.496,1299.552z M-91.457,1295.194c-1.856-0.08-3.567,0.411-5.256,1.006c0.083,0.12,0.152,0.247,0.209,0.382
		c0.064,0.232-0.058,0.424-0.346,0.598c-1.459,0.875-2.917,1.751-4.376,2.627c-0.826,0.496-0.706,0.49-1.526,0.016
		c-0.115-0.08-0.267-0.085-0.386-0.013c-0.806,0.413-1.623,0.804-2.425,1.224c-0.263,0.157-0.591,0.159-0.855,0.004
		c-1.094-0.565-2.2-1.109-3.304-1.655c-0.076-0.038-0.165-0.042-0.244-0.009c-0.145,0.097-0.283,0.204-0.414,0.319
		c0.613,0.918,1.177,1.762,1.737,2.608c0.249,0.375,0.183,0.644-0.207,0.873c-0.181,0.107-0.37,0.203-0.548,0.314
		c-0.275,0.17-0.544,0.349-0.816,0.522c0.007,0.03,0.014,0.062,0.021,0.093c0.927,0.02,1.854,0.069,2.781,0.055
		c0.998-0.015,1.957-0.293,2.907-0.567c4.233-1.221,8.351-2.814,12.303-4.76c1.004-0.494,1.951-1.11,2.907-1.697
		c0.252-0.184,0.478-0.4,0.673-0.643c0.141-0.116,0.168-0.322,0.06-0.469c-0.126-0.161-0.306-0.272-0.505-0.316
		c-0.929-0.037-1.841,0.258-2.572,0.831c-0.195,0.19-0.507,0.187-0.696-0.008c-0.018-0.018-0.033-0.036-0.047-0.056
		c-0.181-0.24-0.138-0.519,0.14-0.733C-92.003,1295.554-91.746,1295.392-91.457,1295.194L-91.457,1295.194z M-98.262,1296.837
		c-0.097-0.037-0.167-0.066-0.24-0.088c-2.572-0.772-5.149-1.526-7.712-2.327c-0.484-0.151-0.797-0.118-1.112,0.285
		c-0.264,0.299-0.548,0.581-0.85,0.843c0.066,0.045,0.09,0.064,0.116,0.079c1.977,1.129,3.951,2.261,5.927,3.392
		c0.092,0.058,0.21,0.049,0.293-0.021c1.129-0.679,2.259-1.358,3.391-2.034C-98.394,1296.931-98.341,1296.89-98.262,1296.837
		L-98.262,1296.837z M-97.7,1302.346l3.847,4.701c0.38-0.189,0.738-0.378,1.104-0.55c0.143-0.066,0.163-0.14,0.124-0.289
		c-0.22-0.852-0.424-1.706-0.638-2.56c-0.236-0.942-0.473-1.886-0.712-2.828L-97.7,1302.346z"/>
	<path id="Path_358" fill="#004786" d="M-111.496,1310.525c0.141-0.249,0.418-0.388,0.703-0.353
		c3.537,0.006,7.074,0.007,10.611,0.006c0.132-0.005,0.264,0.013,0.39,0.05c0.203,0.084,0.324,0.293,0.295,0.51
		c-0.025,0.217-0.189,0.392-0.404,0.431c-0.085,0.011-0.17,0.015-0.256,0.011c-3.56,0-7.121,0.002-10.682,0.005
		c-0.279,0.036-0.547-0.118-0.656-0.378L-111.496,1310.525z"/>
</g>
</svg>
