<?xml version="1.0" encoding="utf-8"?>
<!-- Generator: Adobe Illustrator 25.3.1, SVG Export Plug-In . SVG Version: 6.00 Build 0)  -->
<svg version="1.1" id="Layer_1" xmlns="http://www.w3.org/2000/svg" xmlns:xlink="http://www.w3.org/1999/xlink" x="0px" y="0px"
	 viewBox="0 0 24 24" style="enable-background:new 0 0 24 24;" xml:space="preserve">
<style type="text/css">
	.st0{fill-rule:evenodd;clip-rule:evenodd;fill:#005897;}
	.st1{fill-rule:evenodd;clip-rule:evenodd;fill:#5D5E5E;}
	.st2{fill-rule:evenodd;clip-rule:evenodd;fill:#005897;stroke:#005897;stroke-width:0.25;stroke-miterlimit:10;}
	.st3{fill:#005897;}
	.st4{fill:#005897;stroke:#005897;stroke-width:0.25;stroke-miterlimit:10;}
	.st5{fill:#FBFBFB;}
	.st6{fill:#F6FAFD;}
	.st7{fill:#010201;}
	.st8{fill:#38ADE1;}
	.st9{fill:#005897;stroke:#FFFFFF;stroke-width:0.1;stroke-miterlimit:10;}
	.st10{fill:#005897;stroke:#005897;stroke-width:0.1;stroke-miterlimit:10;}
	.st11{fill:#005897;stroke:#005897;stroke-width:0.12;stroke-miterlimit:10;}
	.st12{fill:#174884;}
	.st13{fill:#9CBDD4;}
	.st14{fill:#FFFFFF;}
</style>
<g>
	<path class="st11" d="M7.13,15.19c0-2.89,0-5.77,0-8.66c0-0.13,0.04-0.18,0.15-0.23C7.49,6.23,7.69,6.15,7.9,6.1
		C7.96,6.09,8,6.07,8.02,6.01c0.05-0.15,0.17-0.22,0.32-0.23C8.5,5.77,8.66,5.76,8.81,5.77c0.12,0.01,0.16-0.03,0.16-0.15
		c0-1.67,0-3.34,0-5.02c0-0.03,0-0.06,0-0.09C8.95,0.41,9,0.4,9.09,0.4c0.16,0.01,0.32,0.01,0.48,0C9.68,0.4,9.72,0.43,9.71,0.55
		c-0.01,0.53,0,1.06,0,1.58c0,1.16,0,2.32,0,3.48c0,0.14,0.04,0.17,0.17,0.16c0.14-0.01,0.28,0,0.42,0c0.1-0.01,0.12,0.03,0.12,0.13
		c-0.01,0.24,0,0.49-0.01,0.73c0,0.12,0.03,0.16,0.16,0.16c0.2,0,0.2,0.01,0.19-0.18c-0.01-0.13,0.03-0.17,0.17-0.17
		c0.83,0.01,1.65,0.01,2.48,0c0.12,0,0.15,0.04,0.14,0.15c-0.01,0.46,0,0.92,0,1.37c0,0.1,0.03,0.13,0.12,0.13
		c0.28,0.01,0.56,0.04,0.83,0.05c0.1,0,0.12,0.04,0.12,0.13c0,0.71,0,1.42,0,2.14c0,2.24,0,4.48,0,6.72c0,2.23,0,4.47,0.01,6.7
		c0,0.14-0.04,0.17-0.17,0.17c-2.39,0-4.78,0-7.17,0c-0.13,0-0.16-0.03-0.16-0.16C7.13,20.95,7.13,18.07,7.13,15.19z M7.49,15.57
		c0,2.64,0,5.28,0,7.91c0,0.12,0.02,0.16,0.15,0.16c0.75-0.01,1.49-0.01,2.24,0c0.13,0,0.15-0.04,0.15-0.16c0-1.26,0-2.52,0-3.78
		c0-3.66,0.01-7.33,0-10.99c0-0.22,0.05-0.36,0.24-0.47c0.17-0.1,0.38-0.2,0.46-0.36c0.08-0.17,0.02-0.4,0.02-0.6
		c0-0.09-0.02-0.12-0.11-0.12c-0.6-0.03-1.2-0.04-1.8,0.01c-0.4,0.03-0.79,0.08-1.17,0.23C7.55,7.44,7.49,7.51,7.49,7.67
		C7.5,10.3,7.49,12.93,7.49,15.57z M11.89,15.98c0,2.49,0,4.99,0,7.48c0,0.13,0.02,0.18,0.17,0.18c0.68-0.01,1.35-0.01,2.03,0
		c0.15,0,0.18-0.04,0.18-0.18c-0.01-4.07-0.01-8.14-0.01-12.21c0-0.86,0-1.72,0-2.58c0-0.15-0.04-0.18-0.18-0.19
		c-0.67-0.04-1.34-0.08-2.01-0.13c-0.14-0.01-0.18,0.02-0.18,0.17C11.9,11.01,11.89,13.5,11.89,15.98z M11.12,15.97
		c0,2.49,0,4.98,0,7.46c0,0.03,0,0.07,0,0.1c-0.01,0.08,0.03,0.11,0.1,0.1c0.04,0,0.08-0.01,0.12,0c0.16,0.03,0.19-0.04,0.19-0.19
		c0-4.96,0-9.92,0-14.88c0-0.24,0-0.23-0.24-0.26c-0.13-0.02-0.18,0.01-0.18,0.16C11.12,10.96,11.12,13.47,11.12,15.97z M10.76,8.37
		c-0.09,0.02-0.12,0.08-0.18,0.1c-0.14,0.07-0.17,0.18-0.17,0.34c0.01,0.91,0,1.81,0,2.72c0,2.73,0,5.45-0.01,8.18
		c0,0.04,0,0.08,0,0.12c0,1.23,0,2.47,0,3.7c0,0.03-0.01,0.09,0.02,0.09c0.1,0.01,0.21,0.02,0.31,0c0.06-0.01,0.03-0.11,0.03-0.16
		c0-4.98,0-9.95,0-14.93C10.76,8.49,10.76,8.44,10.76,8.37z M12.15,6.8c-0.3,0-0.61,0-0.91,0c-0.1,0-0.13,0.03-0.12,0.13
		c0.01,0.3,0,0.6,0,0.89c0,0.08,0.02,0.11,0.11,0.12c0.62,0.04,1.23,0.07,1.84,0.12c0.09,0.01,0.12-0.02,0.12-0.11
		c-0.01-0.34-0.01-0.68,0-1.01c0-0.11-0.04-0.13-0.14-0.13C12.75,6.81,12.45,6.8,12.15,6.8z M7.5,7.06
		c0.21-0.08,0.41-0.14,0.61-0.18c0.6-0.11,1.2-0.13,1.81-0.12c0.08,0,0.13-0.01,0.12-0.11c-0.01-0.14-0.01-0.29,0-0.43
		c0-0.07-0.02-0.09-0.09-0.09c-0.5,0-0.99,0-1.49,0c-0.07,0-0.1,0.02-0.11,0.1c-0.01,0.14-0.1,0.22-0.24,0.21
		c-0.08,0-0.15,0.01-0.22,0.03C7.48,6.59,7.47,6.61,7.5,7.06z M9.53,5.03c0-0.15,0-0.31,0-0.46c0-0.27,0-0.26-0.26-0.26
		c-0.1,0-0.12,0.04-0.12,0.13c0,0.36,0,0.72,0,1.07c0,0.28,0,0.27,0.28,0.27c0.09,0,0.11-0.04,0.1-0.12
		C9.53,5.45,9.53,5.24,9.53,5.03z M9.53,3.75c0-0.04,0-0.08,0-0.12c0-0.27,0-0.26-0.27-0.26c-0.09,0-0.12,0.02-0.12,0.12
		c0.01,0.16,0.01,0.32,0,0.48C9.13,4.11,9.19,4.14,9.33,4.13c0.24-0.01,0.2,0.03,0.21-0.21C9.53,3.87,9.53,3.81,9.53,3.75z
		 M9.53,1.86c0-0.04,0-0.08,0-0.12c0-0.27,0-0.27-0.28-0.27c-0.08,0-0.11,0.02-0.11,0.11c0.01,0.15,0,0.31,0,0.46
		c0,0.2,0,0.19,0.2,0.2C9.5,2.26,9.56,2.21,9.53,2.06C9.52,1.99,9.53,1.93,9.53,1.86z M9.53,2.82c0-0.04,0-0.09,0-0.13
		c0-0.28,0-0.27-0.28-0.26c-0.08,0-0.1,0.03-0.1,0.1c0,0.15,0,0.31,0,0.46c0,0.23-0.03,0.18,0.2,0.2C9.5,3.2,9.55,3.15,9.53,3
		C9.52,2.94,9.53,2.88,9.53,2.82z M9.53,0.94c0-0.03,0-0.06,0-0.09c0-0.29,0-0.28-0.29-0.27c-0.07,0-0.1,0.02-0.09,0.09
		c0,0.14,0.01,0.29,0,0.43c-0.01,0.15,0.03,0.21,0.19,0.2c0.23-0.02,0.19,0.03,0.2-0.2C9.53,1.05,9.53,1,9.53,0.94z"/>
</g>
</svg>
