<?xml version="1.0" encoding="utf-8"?>
<!-- Generator: Adobe Illustrator 16.0.0, SVG Export Plug-In . SVG Version: 6.00 Build 0)  -->
<!DOCTYPE svg PUBLIC "-//W3C//DTD SVG 1.1//EN" "http://www.w3.org/Graphics/SVG/1.1/DTD/svg11.dtd">
<svg version="1.1" id="Layer_1" xmlns="http://www.w3.org/2000/svg" xmlns:xlink="http://www.w3.org/1999/xlink" x="0px" y="0px"
	 width="24px" height="24px" viewBox="48.962 45.965 24 24" enable-background="new 48.962 45.965 24 24" xml:space="preserve">
<path id="Path_371" fill="#005897" d="M62.628,51.72c0.497-0.38,0.8-0.607,1.099-0.841c1.531-1.213,3.281-1.551,5.159-1.201
	c2.054,0.384,3.302,1.668,3.703,3.699c0.696,3.506-0.074,6.682-2.646,9.195c-3.587,3.504-7.977,4.727-12.901,3.91
	c-0.914-0.152-1.776-0.639-2.65-1.002c-1.193-0.496-1.836-0.115-1.905,1.164c-0.02,0.316-0.021,0.635-0.004,0.951
	c0.048,0.771-0.312,1.023-1.066,1.045c-2.435,0.068-2.435,0.094-2.453-2.307c-0.001-0.316-0.002-0.635-0.001-0.951
	c0.009-3.244,0.681-4.166,3.767-5.178c4.478-1.467,5.988-3.406,6.297-8.242c0.104-1.62,0.068-3.251,0.047-4.877
	c-0.012-0.813,0.299-1.133,1.122-1.121c2.934,0.043,2.375-0.219,2.429,2.379C62.646,49.395,62.628,50.448,62.628,51.72z
	 M50.216,67.336c0.8,0.285,1.094,0.063,1.141-0.771c0.124-2.18,1.662-3.029,3.631-2.098c0.711,0.336,1.439,0.723,2.201,0.855
	c4.557,0.789,8.62-0.328,11.936-3.574c2.292-2.242,2.968-5.086,2.312-8.226c-0.296-1.417-1.155-2.352-2.57-2.661
	c-1.579-0.346-3.112-0.171-4.376,0.929c-0.648,0.566-1.148,1.298-1.751,1.922c-0.222,0.229-0.543,0.359-0.819,0.535
	c-0.151-0.297-0.42-0.591-0.431-0.893c-0.049-1.348-0.023-2.699-0.023-4.049c0-0.7,0-1.401,0-2.097
	c-1.194-0.009-1.208-0.01-1.224,0.878c-0.022,1.27,0.063,2.548-0.045,3.81c-0.352,4.148-1.591,7.75-6.127,9.074
	c-4.165,1.217-4.002,1.826-3.942,6.043C50.147,67.125,50.177,67.232,50.216,67.336L50.216,67.336z"/>
</svg>
