<?xml version="1.0" encoding="utf-8"?>
<!-- Generator: Adobe Illustrator 16.0.0, SVG Export Plug-In . SVG Version: 6.00 Build 0)  -->
<!DOCTYPE svg PUBLIC "-//W3C//DTD SVG 1.1//EN" "http://www.w3.org/Graphics/SVG/1.1/DTD/svg11.dtd">
<svg version="1.1" id="Group_203" xmlns="http://www.w3.org/2000/svg" xmlns:xlink="http://www.w3.org/1999/xlink" x="0px" y="0px"
	 width="24px" height="24px" viewBox="48.148 48.154 24 24" enable-background="new 48.148 48.154 24 24" xml:space="preserve">
<g>
	<path id="Path_499" fill="#004686" d="M60.515,50.653c0.377,0,0.735,0.008,1.091-0.003c0.213-0.021,0.412,0.104,0.488,0.303
		c0.174,0.367,0.37,0.723,0.537,1.092c0.051,0.142,0.193,0.228,0.342,0.205c1.152-0.006,2.304-0.003,3.476-0.003v0.792h-0.766v0.402
		h0.263c1.203,0,2.405,0.002,3.607-0.002c0.208,0,0.383,0.038,0.468,0.248c0.073,0.184,0.011,0.394-0.152,0.508
		c-0.093,0.105-0.195,0.204-0.302,0.295c-0.339,0.235-0.358,0.56-0.287,0.943h1.285c0.315,0,0.63,0.004,0.944-0.001
		c0.2-0.004,0.385,0.011,0.49,0.215c0.108,0.214,0.006,0.379-0.121,0.544c-0.306,0.403-0.612,0.804-0.906,1.216
		c-0.072,0.105-0.113,0.229-0.12,0.357c-0.013,0.538-0.005,1.077-0.005,1.65c0.125,0,0.237-0.001,0.35,0
		c0.221-0.027,0.423,0.129,0.451,0.351c0.009,0.063,0.001,0.128-0.021,0.188c-0.073,0.323-0.176,0.639-0.233,0.964
		c-0.079,0.379-0.127,0.764-0.142,1.149c-0.012,2.571-0.023,5.143,0.008,7.714c0.007,0.526,0.194,1.051,0.3,1.575
		c0.013,0.065,0.031,0.128,0.047,0.193c0.101,0.409-0.047,0.605-0.464,0.605c-2.057,0-4.113,0-6.171,0H49.12
		c-0.508,0-0.641-0.167-0.521-0.66c0.043-0.176,0.083-0.354,0.134-0.528c0.157-0.557,0.231-1.135,0.221-1.714
		c-0.015-2.488,0.011-4.977-0.02-7.465c-0.006-0.525-0.194-1.05-0.299-1.575c-0.015-0.073-0.037-0.144-0.055-0.216
		c-0.091-0.377,0.063-0.578,0.447-0.582c0.098-0.001,0.196,0,0.318,0c0-0.615,0.003-1.209-0.005-1.805
		c-0.016-0.072-0.052-0.138-0.103-0.189c-0.316-0.427-0.631-0.853-0.953-1.275c-0.169-0.155-0.181-0.418-0.026-0.587
		c0.097-0.106,0.241-0.154,0.381-0.128c0.755,0.005,1.508,0.002,2.278,0.002c0.038-0.338,0.096-0.657-0.239-0.894
		c-0.139-0.118-0.27-0.246-0.39-0.383c-0.172-0.143-0.195-0.399-0.051-0.571c0.087-0.105,0.222-0.159,0.357-0.144
		c1.211,0.003,2.422,0.001,3.633,0.001h0.282v-0.387h-0.766v-0.808h0.271c1.078,0,2.157-0.003,3.235,0.004
		c0.132,0.017,0.258-0.06,0.304-0.185c0.175-0.375,0.371-0.74,0.549-1.114c0.076-0.2,0.277-0.323,0.489-0.301
		c0.356,0.012,0.712,0.002,1.088,0.002v-0.779c-0.025-0.011-0.053-0.017-0.082-0.018c-0.443,0.081-0.689-0.139-0.813-0.537
		c-0.032-0.182-0.206-0.304-0.389-0.272c-0.013,0.002-0.025,0.005-0.038,0.008c-0.078,0.007-0.157,0.008-0.235,0.002v-0.795
		c0.273-0.013,0.548-0.01,0.822,0.011c0.13,0.037,0.244,0.118,0.321,0.229c0.084,0.133,0.157,0.271,0.221,0.415
		c0.044,0.071,0.118,0.119,0.2,0.132V48.28h0.802v0.762l0.063,0.038c0.059-0.046,0.113-0.101,0.156-0.163
		c0.382-0.765,0.282-0.645,1.116-0.655c0.075,0,0.149,0,0.244,0v0.766c-0.011,0.006-0.025,0.024-0.035,0.021
		c-0.397-0.082-0.609,0.11-0.725,0.471c-0.063,0.237-0.301,0.384-0.541,0.334c-0.083-0.005-0.167-0.005-0.252-0.001V50.653z
		 M55.329,55.413h9.528v-2.36h-9.528V55.413z M52.455,60.215c-0.217,0.699-0.33,1.428-0.333,2.16
		c0.027,2.419-0.006,4.841,0.022,7.26c0.007,0.574,0.166,1.147,0.253,1.711h1.007c0.22-0.705,0.332-1.44,0.332-2.18
		c-0.026-2.403,0.007-4.807-0.022-7.211c-0.007-0.582-0.165-1.163-0.252-1.74H52.455z M67.732,71.351
		c0.236-0.738,0.351-1.512,0.338-2.287c-0.024-2.396,0.008-4.791-0.021-7.186c-0.008-0.558-0.17-1.112-0.258-1.657h-0.999
		c-0.23,0.729-0.345,1.491-0.334,2.257c0.024,2.411-0.007,4.823,0.021,7.235c0.006,0.549,0.171,1.097,0.264,1.638H67.732z
		 M57.238,60.215c-0.234,0.731-0.348,1.495-0.337,2.263c0.024,2.411-0.008,4.823,0.021,7.234c0.006,0.549,0.171,1.098,0.262,1.633
		h0.993c0.236-0.736,0.35-1.507,0.336-2.281c-0.024-2.395,0.008-4.79-0.021-7.186c-0.007-0.557-0.169-1.112-0.259-1.664
		L57.238,60.215z M62.951,71.351c0.246-0.754,0.36-1.545,0.341-2.339c-0.024-2.387,0.008-4.773-0.021-7.16
		c-0.007-0.549-0.172-1.096-0.263-1.631h-0.993c-0.237,0.746-0.352,1.525-0.336,2.309c0.024,2.402-0.007,4.807,0.021,7.21
		c0.007,0.54,0.174,1.079,0.266,1.611H62.951z M70.822,56.249H49.371c0.139,0.17,0.269,0.346,0.389,0.53
		c0.103,0.18,0.306,0.279,0.512,0.25c6.55-0.006,13.101-0.007,19.652-0.005c0.058,0.007,0.116,0.006,0.173-0.002
		c0.084-0.016,0.162-0.054,0.227-0.11C70.49,56.709,70.643,56.491,70.822,56.249L70.822,56.249z M65.658,69.754v-7.938h-1.563v7.938
		H65.658z M59.318,61.81v7.943h1.562V61.81H59.318z M56.096,69.755v-7.941h-1.56v7.942L56.096,69.755z M51.319,69.754v-7.934h-1.563
		v7.935L51.319,69.754z M70.433,69.754v-7.934h-1.563v7.935L70.433,69.754z M54.514,54.244h-2.972
		c0.345,0.356,0.109,0.791,0.217,1.17h2.755L54.514,54.244z M68.436,55.418c0.099-0.395-0.125-0.825,0.202-1.165h-2.955v1.165
		H68.436z M63.295,57.83v1.566h1.562V57.83H63.295z M55.337,57.827V59.4h1.559v-1.573H55.337z M60.874,59.404v-1.571h-1.56v1.571
		H60.874z M51.752,57.829v1.563h1.164v-1.563H51.752z M67.274,59.395h1.166v-1.564h-1.166V59.395z M51.61,60.218h-2.14l0.186,0.772
		h1.768L51.61,60.218z M56.2,60.994l0.187-0.776h-2.139c0.065,0.27,0.127,0.523,0.189,0.776H56.2z M59.024,60.219
		c0.068,0.275,0.129,0.522,0.191,0.771h1.765l0.187-0.771H59.024z M65.757,60.998c0.063-0.264,0.124-0.515,0.187-0.778h-2.14
		l0.191,0.778H65.757z M68.771,60.991h1.766c0.063-0.26,0.122-0.507,0.185-0.766h-2.139L68.771,60.991z M51.422,70.57h-1.764
		c-0.063,0.258-0.124,0.511-0.188,0.779h2.14L51.422,70.57z M54.248,71.349h2.14c-0.065-0.27-0.126-0.521-0.188-0.779h-1.763
		C54.375,70.827,54.313,71.08,54.248,71.349L54.248,71.349z M59.026,71.349h2.14c-0.064-0.269-0.126-0.521-0.186-0.771h-1.768
		L59.026,71.349z M63.804,71.344h2.143l-0.19-0.772h-1.762L63.804,71.344z M68.585,71.339h2.14c-0.067-0.27-0.129-0.516-0.189-0.765
		H68.77C68.707,70.836,68.646,71.083,68.585,71.339L68.585,71.339z M70.041,57.832h-0.77v1.562h0.77V57.832z M65.676,59.392h0.776
		v-1.554h-0.776V59.392z M58.5,57.84h-0.776v1.554H58.5V57.84z M62.481,57.84h-0.775v1.554h0.775V57.84z M53.73,59.392h0.776v-1.554
		H53.73V59.392z M50.153,57.828v1.571h0.77v-1.571H50.153z M61.826,52.232c-0.123-0.25-0.232-0.48-0.351-0.706
		c-0.025-0.04-0.066-0.068-0.113-0.075c-0.286-0.006-0.572-0.003-0.854-0.003v0.784H61.826z M58.368,52.229h1.313v-0.782
		c-0.275,0-0.532-0.007-0.788,0.005c-0.075,0.008-0.143,0.049-0.188,0.111C58.586,51.769,58.487,51.987,58.368,52.229L58.368,52.229
		z"/>
	<path id="Path_505" fill="#9BBDD4" d="M70.822,56.249c-0.18,0.243-0.331,0.46-0.5,0.663c-0.064,0.056-0.143,0.093-0.226,0.109
		c-0.058,0.009-0.116,0.011-0.174,0.003c-6.551,0-13.102,0.001-19.652,0.005c-0.206,0.03-0.409-0.07-0.512-0.25
		c-0.12-0.183-0.25-0.359-0.389-0.529H70.822z"/>
	<path id="Path_506" fill="#9BBDD4" d="M65.658,69.755h-1.563v-7.938h1.563V69.755z"/>
	<path id="Path_507" fill="#9BBDD4" d="M59.318,61.811h1.562v7.943h-1.562V61.811z"/>
	<path id="Path_508" fill="#9BBDD4" d="M56.096,69.756h-1.56v-7.942h1.56V69.756z"/>
	<path id="Path_509" fill="#9BBDD4" d="M51.319,69.755h-1.563v-7.935h1.563V69.755z"/>
	<path id="Path_510" fill="#9BBDD4" d="M70.433,69.755h-1.563v-7.935h1.563V69.755z"/>
	<path id="Path_523" fill="#FFFFFF" d="M51.422,70.571l0.188,0.778h-2.139c0.065-0.269,0.126-0.521,0.188-0.778H51.422z"/>
	<path id="Path_524" fill="#FFFFFF" d="M54.248,71.349c0.065-0.269,0.126-0.521,0.189-0.779H56.2l0.188,0.779H54.248z"/>
	<path id="Path_525" fill="#FFFFFF" d="M59.026,71.349l0.186-0.771h1.768c0.061,0.251,0.121,0.504,0.186,0.771H59.026z"/>
	<path id="Path_526" fill="#FFFFFF" d="M63.804,71.345l0.19-0.772h1.761l0.191,0.772H63.804z"/>
	<path id="Path_527" fill="#FFFFFF" d="M68.585,71.34c0.062-0.257,0.122-0.503,0.185-0.765h1.766
		c0.062,0.25,0.122,0.495,0.189,0.765H68.585z"/>
	<path id="Path_536" fill="#004686" d="M61.27,54.628h-2.346v-0.773h2.346V54.628z"/>
	<path id="Path_537" fill="#004686" d="M62.109,53.843h1.551v0.773h-1.551V53.843z"/>
	<path id="Path_538" fill="#004686" d="M58.089,54.629h-1.555v-0.773h1.555V54.629z"/>
</g>
</svg>
