<svg xmlns="http://www.w3.org/2000/svg" width="24" height="24" viewBox="0 0 24 24">
  <g id="Group_990" data-name="Group 990" transform="translate(-15952.367 5797.373)">
    <ellipse id="Ellipse_71" data-name="Ellipse 71" cx="11.517" cy="11.517" rx="11.517" ry="11.517" transform="translate(15952.85 -5796.891)" fill="#fff"/>
    <path id="Path_1084" data-name="Path 1084" d="M12,.96A11.04,11.04,0,1,1,.96,12,11.04,11.04,0,0,1,12,.96M12,0A12,12,0,1,0,24,12,12,12,0,0,0,12,0Z" transform="translate(15952.367 -5797.373)" fill="#005897"/>
    <g id="Group_985" data-name="Group 985" transform="translate(15958.275 -5793.453)">
      <path id="Path_985" data-name="Path 985" d="M30.709,9.557c0-2.155.006-4.31,0-6.465a1.081,1.081,0,0,1,.761-1.16c.085-.029.2-.075.232-.144.284-.585.792-.627,1.355-.623q3.185.019,6.371,0a1.047,1.047,0,0,1,.791.311c.779.733,1.593,1.427,2.368,2.164a.984.984,0,0,1,.29.633c.018,3.728.01,7.456.016,11.184a1.065,1.065,0,0,1-.735,1.086.516.516,0,0,0-.262.169,1.293,1.293,0,0,1-1.32.62c-2.847-.011-5.695,0-8.542-.005-.937,0-1.32-.379-1.32-1.3Q30.708,12.789,30.709,9.557Zm8.759-7.8c-.189-.009-.313-.021-.437-.021q-3.089,0-6.179,0c-.6,0-.643.042-.644.642q0,6.485,0,12.971c0,.623.046.668.679.668h8.726c.663,0,.709-.044.709-.687q0-5.189,0-10.378V4.443c-.769,0-1.489,0-2.209,0-.642,0-.646-.009-.645-.667S39.468,2.461,39.468,1.756Zm-7.827.778-.21-.049a2.514,2.514,0,0,0-.151.6Q31.266,9.6,31.274,16.11c0,.549.1.648.668.649q4.414,0,8.826,0a3.059,3.059,0,0,0,.463-.072l-.013-.1h-8.3c-.936,0-1.282-.342-1.282-1.273q0-6.113,0-12.225ZM42,3.851,40.07,2.128V3.851Z" transform="translate(-30.705 -1.164)" fill="#005897"/>
      <path id="Path_987" data-name="Path 987" d="M38.91,7.973A2.222,2.222,0,0,1,36.7,5.844,2.243,2.243,0,0,1,38.853,3.6a2.285,2.285,0,0,1,2.22,2.185A2.257,2.257,0,0,1,38.91,7.973Zm1.6-2.2a1.62,1.62,0,0,0-1.631-1.612,1.593,1.593,0,0,0-1.613,1.665,1.57,1.57,0,0,0,1.643,1.578A1.593,1.593,0,0,0,40.508,5.778Z" transform="translate(-32.402 -1.853)" fill="#005897"/>
      <path id="Path_988" data-name="Path 988" d="M38.494,16.312c.942,0,1.885-.012,2.826.012.157,0,.311.166.465.255-.153.1-.3.283-.458.284q-2.827.03-5.654,0c-.156,0-.31-.181-.465-.278.153-.091.3-.257.458-.262C36.609,16.3,37.552,16.312,38.494,16.312Z" transform="translate(-31.979 -5.448)" fill="#005897"/>
      <path id="Path_989" data-name="Path 989" d="M38.483,18.506c-.943,0-1.885.011-2.828-.011-.151,0-.3-.148-.447-.228.143-.108.285-.31.43-.311q2.851-.032,5.7,0c.15,0,.3.192.445.3-.143.085-.284.24-.429.244C40.4,18.516,39.441,18.506,38.483,18.506Z" transform="translate(-31.979 -5.909)" fill="#005897"/>
      <path id="Path_990" data-name="Path 990" d="M36.628,19.893c.361,0,.723-.02,1.081.011.118.011.224.155.336.237-.109.1-.214.295-.328.3-.719.028-1.441.028-2.161,0-.119,0-.232-.191-.347-.294.128-.085.251-.229.387-.242A10.115,10.115,0,0,1,36.628,19.893Z" transform="translate(-31.979 -6.46)" fill="#005897"/>
      <path id="Path_991" data-name="Path 991" d="M38.915,5.954a2.857,2.857,0,0,1,.014-.668c.03-.111.2-.186.3-.278.08.1.209.185.23.294a3.621,3.621,0,0,1,.011.653,3.652,3.652,0,0,1,.648.01c.11.022.2.147.3.226-.091.106-.166.273-.278.3a2.84,2.84,0,0,1-.665.014,2.413,2.413,0,0,1-.011.583c-.037.136-.172.244-.263.364a1.374,1.374,0,0,1-.278-.371,2.14,2.14,0,0,1-.011-.57,2.2,2.2,0,0,1-.572-.011c-.138-.04-.247-.183-.369-.28a1.351,1.351,0,0,1,.366-.258A2.377,2.377,0,0,1,38.915,5.954Z" transform="translate(-32.76 -2.252)" fill="#005897"/>
    </g>
  </g>
</svg>
