<svg xmlns="http://www.w3.org/2000/svg" width="25" height="25" viewBox="0 0 25 25">
  <g id="Group_980" data-name="Group 980" transform="translate(-0.196 -0.198)">
    <g id="Group_629" data-name="Group 629" transform="translate(0.197 0.198)">
      <circle id="Ellipse_46" data-name="Ellipse 46" cx="12.5" cy="12.5" r="12.5" fill="#c1e4f9"/>
    </g>
    <g id="Group_648" data-name="Group 648" transform="translate(1.875 4.177)">
      <path id="Path_921" data-name="Path 921" d="M1.781,10.391C1.852,9.962,1.9,9.527,2,9.1A7.908,7.908,0,0,1,4.592,4.732,3.287,3.287,0,0,1,9.9,6.445,2.979,2.979,0,0,1,9.74,8.3c-.04.1-.061.163.038.248a3.314,3.314,0,0,1,1.142,2.159c.118.825.262,1.648.343,2.476.083.85.134,1.707.143,2.561.019,2.165.006,4.329.006,6.494v.252h-.729V22.23c0-2.36.029-4.719-.018-7.078-.021-1.087-.186-2.172-.3-3.255-.042-.408-.123-.81-.186-1.216a2.633,2.633,0,0,0-.864-1.593,2.409,2.409,0,0,0-.4,3.612,3.411,3.411,0,0,1,.98,1.663,4.08,4.08,0,0,1,.082.786c.006,2.38,0,4.76,0,7.14,0,.062-.005.124-.008.2h-.7V17.066c-.061.05-.1.073-.128.1a3.342,3.342,0,0,1-4.742.124,8.4,8.4,0,0,1-2.524-4.825c-.037-.218-.062-.438-.093-.658Zm6.154-.848c.276-.325.539-.62.787-.929A2.266,2.266,0,0,0,9.19,6.56,2.576,2.576,0,0,0,5.044,5.276a7.279,7.279,0,0,0-1.97,2.809A7.824,7.824,0,0,0,2.513,10.7a8.017,8.017,0,0,0,.414,2.994,7.779,7.779,0,0,0,1.823,2.93,2.6,2.6,0,0,0,2.582.785,2.407,2.407,0,0,0,1.414-3.82c-.258-.325-.541-.632-.822-.959a2.1,2.1,0,0,0-1.179,1.406l-.687-.175a2.835,2.835,0,0,1,1.618-1.9,3.086,3.086,0,0,1,0-1.723,2.825,2.825,0,0,1-1.615-1.9l.7-.192A2.094,2.094,0,0,0,7.935,9.542Z" transform="translate(-1.781 -3.956)" fill="#004786" fill-rule="evenodd"/>
      <path id="Path_922" data-name="Path 922" d="M22.51,11.811c-.056.356-.1.715-.172,1.066a8.207,8.207,0,0,1-2.493,4.456,3.323,3.323,0,0,1-4.693-.166.447.447,0,0,1-.058-.109l-.055.036v5.389h-.717c0-.069-.012-.142-.012-.215q0-3.539,0-7.078a3.2,3.2,0,0,1,.95-2.348A2.362,2.362,0,0,0,15.3,9.41c-.094-.1-.187-.205-.294-.324a2.385,2.385,0,0,0-.631.788,3.754,3.754,0,0,0-.343,1.323c-.125.909-.263,1.815-.355,2.727-.059.587-.065,1.181-.067,1.772-.007,2.178,0,4.357,0,6.535v.257H12.89c0-.07-.01-.138-.01-.205.007-2.484-.019-4.97.039-7.453.026-1.128.212-2.253.346-3.376a10.676,10.676,0,0,1,.258-1.391,2.963,2.963,0,0,1,.956-1.486c.083-.072.139-.125.083-.256a3.118,3.118,0,0,1,2.286-4.27,3.371,3.371,0,0,1,3.372,1.162,8.545,8.545,0,0,1,2.193,4.483c.038.231.064.464.1.7Zm-6.152.838c-.264.306-.515.585-.752.875a2.288,2.288,0,0,0-.425,2.363,2.591,2.591,0,0,0,4.151.949,7.131,7.131,0,0,0,1.544-2.008,7.745,7.745,0,0,0,.9-3.306,7.989,7.989,0,0,0-.458-3.132,7.833,7.833,0,0,0-1.8-2.827,2.621,2.621,0,0,0-2.462-.81,2.412,2.412,0,0,0-1.593,3.764c.264.363.577.688.878,1.043a2.113,2.113,0,0,0,1.181-1.4l.707.168a2.81,2.81,0,0,1-1.591,1.894,7.757,7.757,0,0,1,.094.865,7.985,7.985,0,0,1-.094.883,2.793,2.793,0,0,1,1.591,1.9l-.7.189A2.088,2.088,0,0,0,16.358,12.648Z" transform="translate(-1.126 -3.955)" fill="#004786" fill-rule="evenodd"/>
    </g>
  </g>
</svg>
