<svg xmlns="http://www.w3.org/2000/svg" width="24" height="24" viewBox="0 0 24 24">
  <g id="Group_987" data-name="Group 987" transform="translate(-15848.42 5916.16)">
    <g id="Group_981" data-name="Group 981" transform="translate(15848.903 -5915.677)">
      <ellipse id="Ellipse_53" data-name="Ellipse 53" cx="11.517" cy="11.517" rx="11.517" ry="11.517" fill="#fff"/>
    </g>
    <path id="Path_1082" data-name="Path 1082" d="M12,.96A11.04,11.04,0,1,1,.96,12,11.04,11.04,0,0,1,12,.96M12,0A12,12,0,1,0,24,12,12,12,0,0,0,12,0Z" transform="translate(15848.42 -5916.161)" fill="#005897"/>
    <path id="Path_1083" data-name="Path 1083" d="M10.572,5.447c0-.639,0-1.24,0-1.841,0-.673.117-.787.777-.787h4.957c.563,0,.71.152.71.733q0,1.311,0,2.621c0,.828-.034.868-.864.984V7.6c0,2.236-.011,4.472.01,6.707a3.825,3.825,0,0,0,.235,1.145c.163.483.393.944.585,1.418a.5.5,0,0,1-.51.764q-6.769,0-13.537,0c-.494,0-.686-.3-.512-.761a.282.282,0,0,1,.014-.036,7.9,7.9,0,0,0,.8-4.119c-.068-2.028-.018-4.06-.017-6.09,0-.854.33-1.182,1.179-1.182h6.172ZM3.811,14.6c.383.115.526-.008.547-.37A9.017,9.017,0,0,1,4.514,13.2a1.285,1.285,0,0,1,.862-1.083c.239-.081.271-.2.269-.417-.008-.746-.017-1.491,0-2.237A2.839,2.839,0,0,1,8.015,6.753a2.592,2.592,0,0,1,2.881,2.3,22.069,22.069,0,0,1,.081,2.653c0,.212.031.335.268.418a1.2,1.2,0,0,1,.833,1.009c.061.405.152.807.194,1.214.025.239.123.3.34.293.406-.012.813,0,1.22,0h1.7V7.072c-.45,0-.872-.027-1.287.01a1.518,1.518,0,0,0-.69.23c-.539.363-1.046.773-1.576,1.15-.1.072-.3.144-.368.1a.546.546,0,0,1-.172-.381c-.023-.354-.008-.712-.008-.981-.3-.139-.61-.187-.745-.366a2,2,0,0,1-.172-.777h-.347q-2.9,0-5.8,0c-.512,0-.555.045-.555.585q0,2.7,0,5.4Zm-.8,2.425h13.35c-.232-.581-.441-1.127-.674-1.661-.03-.069-.185-.112-.285-.116-.342-.014-.686,0-1.029,0q-5.144,0-10.289,0c-.136,0-.354.036-.393.123C3.446,15.9,3.243,16.446,3.01,17.023Zm8.985-9.284c.4-.291.744-.507,1.046-.771a1.823,1.823,0,0,1,1.394-.454c.654.041,1.313.01,1.971.01V3.434H11.167V6.507a2.2,2.2,0,0,0,.357.014c.382-.048.5.14.474.495C11.982,7.218,11.995,7.424,11.995,7.739ZM4.727,14.618H11.87c-.018-.158-.027-.3-.048-.432-.043-.278-.092-.556-.138-.834a.97.97,0,0,0-.82-.879c-.362-.064-.729-.1-1.093-.156a.418.418,0,0,0-.486.236,1.087,1.087,0,0,1-1.758.209.97.97,0,0,0-1.16-.382c-.209.049-.428.053-.639.094a.894.894,0,0,0-.783.818C4.87,13.722,4.8,14.152,4.727,14.618Zm5.743-2.66c0-.758,0-1.462,0-2.166a3.676,3.676,0,0,0-.034-.616A2.314,2.314,0,0,0,7.822,7.215,2.328,2.328,0,0,0,6.027,9.306c-.049.833-.026,1.67-.03,2.505a.516.516,0,0,0,.053.15l1.04-.127a2.254,2.254,0,0,0-.176-.734,3.344,3.344,0,0,1-.6-2.064c.006-.349.13-.485.469-.487a2.809,2.809,0,0,0,1.675-.544c.081-.058.265-.006.386.038a7.651,7.651,0,0,0,.968.374c.231.048.327.116.363.344a3.152,3.152,0,0,1-.474,2.2,5.109,5.109,0,0,0-.326.866ZM9.755,8.97c-.392-.17-.71-.313-1.034-.446A.372.372,0,0,0,8.486,8.5c-.556.192-1.108.4-1.684.6a2.375,2.375,0,0,0,.457,1.679,1.214,1.214,0,0,0,1.992.04A2.425,2.425,0,0,0,9.755,8.97Zm-.763,2.725H7.559a.69.69,0,0,0,.366.842,1,1,0,0,0,.737-.015A.673.673,0,0,0,8.992,11.695Z" transform="translate(15850.717 -5914.988)" fill="#004786"/>
  </g>
</svg>
