<svg xmlns="http://www.w3.org/2000/svg" width="24" height="24" viewBox="0 0 24 24">
  <g id="Group_989" data-name="Group 989" transform="translate(-15952.367 5843.274)">
    <g id="vaidam_icon-52" data-name="vaidam icon-52" transform="translate(15952.367 -5843.274)">
      <ellipse id="Ellipse_55" data-name="Ellipse 55" cx="11.52" cy="11.52" rx="11.52" ry="11.52" transform="translate(0.48 0.48)" fill="#fff"/>
      <path id="Path_943" data-name="Path 943" d="M12,.96A11.04,11.04,0,1,1,.96,12,11.04,11.04,0,0,1,12,.96M12,0A12,12,0,1,0,24,12,12,12,0,0,0,12,0Z" fill="#005897"/>
    </g>
    <g id="Group_984" data-name="Group 984" transform="translate(15956.934 -5839.799)">
      <path id="Path_984" data-name="Path 984" d="M51.482-12.266q-2.817,0-5.635,0c-.873,0-1.048-.181-1.051-1.072,0-.546,0-1.091,0-1.636a1.941,1.941,0,0,1,1.18-1.933c1.106-.529,2.19-1.1,3.283-1.659a.873.873,0,0,0,.136-1.52A4.637,4.637,0,0,1,48.6-26.3a3.4,3.4,0,0,1,3.286-1.527,3.737,3.737,0,0,1,3.162,2.8,4.534,4.534,0,0,1-1.462,4.968.876.876,0,0,0,.153,1.489c1.111.569,2.219,1.144,3.342,1.689a1.9,1.9,0,0,1,1.135,1.839c.006.626.006,1.253,0,1.879-.011.691-.215.893-.915.9-1.94,0-3.879,0-5.819,0Zm-3.323-4.817-.175-.188c-.721.389-1.455.758-2.155,1.183a.861.861,0,0,0-.358.6c-.04.855-.016,1.713-.016,2.559H57.611a22.044,22.044,0,0,0-.024-2.295,1.427,1.427,0,0,0-.532-.947,25.071,25.071,0,0,0-2.229-1.175l-.18.124a2.727,2.727,0,0,0,.419.77,1.11,1.11,0,0,1,.161,1.6,1.089,1.089,0,0,1-1.521.029,1.052,1.052,0,0,1,.119-1.6.915.915,0,0,0,.3-.514c.078-.807-.087-.977-1.052-1.215-.391.664-.771,1.328-1.172,1.98-.275.447-.517.445-.792,0-.408-.667-.8-1.346-1.207-2.043-.331.168-.661.316-.972.5a.783.783,0,0,0-.026,1.161A2.113,2.113,0,0,1,49.975-14c-.028.119-.2.2-.3.305-.1-.107-.26-.206-.273-.322-.038-.339,0-.686-.021-1.029a.962.962,0,0,0-1.014-.97.942.942,0,0,0-.927.986c-.014.343.018.689-.023,1.028-.014.113-.193.206-.3.308-.095-.106-.253-.2-.271-.319-.041-.277,0-.564-.019-.846a1.627,1.627,0,0,1,.963-1.665C47.965-16.615,48.04-16.892,48.159-17.083Zm6.363-7.3A5.465,5.465,0,0,1,51-24.715a1.831,1.831,0,0,0-.765-.144c-1.943,0-2.018.084-1.8,2.024A3.3,3.3,0,0,0,51.11-20,3.384,3.384,0,0,0,54.522-24.379Zm-5.708-.991a5.21,5.21,0,0,1,3.069.325,3.27,3.27,0,0,0,2.492.009,3.174,3.174,0,0,0-2.849-2.238A3.009,3.009,0,0,0,48.814-25.37Zm1.576,5.927a4.107,4.107,0,0,0,1.146,2.7,4.914,4.914,0,0,0,1.122-2.7Zm4.065,3.213c-.219.329-.447.521-.423.676a.631.631,0,0,0,.456.392c.121.015.386-.251.389-.4C54.882-15.729,54.673-15.905,54.456-16.23Z" transform="translate(-44.797 27.863)" fill="#005897"/>
      <g id="Group_947" data-name="Group 947" transform="translate(11.072 11.115)">
        <g id="Ellipse_65" data-name="Ellipse 65" fill="#fff" stroke="#005897" stroke-width="0.75">
          <ellipse cx="2.415" cy="2.415" rx="2.415" ry="2.415" stroke="none"/>
          <ellipse cx="2.415" cy="2.415" rx="2.04" ry="2.04" fill="none"/>
        </g>
        <path id="Path_935" data-name="Path 935" d="M.869,1.32,1.493.274c.134-.23.317-.365.566-.2s.192.374.058.586c-.259.442-.518.883-.787,1.315s-.384.374-.7.115c-.154-.115-.3-.24-.442-.365a.409.409,0,0,1-.106-.576c.173-.221.374-.154.557,0Z" transform="translate(1.61 1.034) rotate(14)" fill="#005897"/>
      </g>
    </g>
  </g>
</svg>
