<svg xmlns="http://www.w3.org/2000/svg" width="15.336" height="16.698" viewBox="0 0 15.336 16.698">
  <g id="Group_986" data-name="Group 986" transform="translate(0.5 0.5)">
    <path id="Path_1078" data-name="Path 1078" d="M997.979,622.086c.456.248.906.506,1.367.744a10.093,10.093,0,0,0,4.4,1.151,2.205,2.205,0,0,1,.619.076.969.969,0,0,1,.65.977,13.828,13.828,0,0,1-2.973,9.747,10.476,10.476,0,0,1-3.994,3H997.7c-.178-.081-.36-.155-.535-.243a11.011,11.011,0,0,1-4.907-4.918,14.3,14.3,0,0,1-1.543-7.36c.043-.949.336-1.267,1.285-1.291a9.958,9.958,0,0,0,4.795-1.365c.319-.184.65-.347.975-.519Zm-6.275,2.928a.549.549,0,0,0-.03.106c-.015.139-.033.278-.036.417a13.98,13.98,0,0,0,.621,4.6,10.61,10.61,0,0,0,5.328,6.536.537.537,0,0,0,.548.01,9.767,9.767,0,0,0,3.456-2.867,12.786,12.786,0,0,0,2.492-8.3c0-.181-.03-.361-.046-.535a.878.878,0,0,0-.136-.029,10.936,10.936,0,0,1-5.819-1.744.384.384,0,0,0-.473.026,10.489,10.489,0,0,1-3.857,1.517C993.082,624.869,992.4,624.927,991.7,625.014Z" transform="translate(-990.697 -622.086)" fill="#005897" stroke="#005897" stroke-width="1"/>
    <path id="Path_1079" data-name="Path 1079" d="M1048.042,703.469c1.056-1.09,2.139-2.208,3.223-3.326.089-.091.176-.231.281-.25.187-.033.465-.062.56.04.114.123.1.387.094.589,0,.082-.118.165-.191.24q-1.772,1.827-3.549,3.652c-.385.4-.573.394-.956,0-.569-.581-1.135-1.167-1.7-1.749a.523.523,0,0,1-.1-.721c.177-.257.474-.243.747.015Z" transform="translate(-1041.77 -694.437)" fill="#005897" stroke="#005897" stroke-width="1"/>
  </g>
</svg>
