<svg id="Group_983" data-name="Group 983" xmlns="http://www.w3.org/2000/svg" width="24" height="24" viewBox="0 0 24 24">
  <path id="Path_933" data-name="Path 933" d="M12,.96A11.04,11.04,0,1,1,.96,12,11.04,11.04,0,0,1,12,.96M12,0A12,12,0,1,0,24,12,12,12,0,0,0,12,0Z" fill="#005897"/>
  <g id="Group_973" data-name="Group 973" transform="translate(0.48 0.48)">
    <ellipse id="Ellipse_53" data-name="Ellipse 53" cx="11.52" cy="11.52" rx="11.52" ry="11.52" fill="#fff"/>
    <g id="Group_770" data-name="Group 770" transform="translate(2.849 2.025)">
      <g id="Path_993" data-name="Path 993" transform="translate(-2.289 -1.683)" fill="#005897" stroke-miterlimit="10">
        <path d="M 8.567363739013672 10.83521747589111 C 8.201983451843262 10.83521747589111 7.836713790893555 10.83512783050537 7.471223831176758 10.83487701416016 C 6.933543682098389 10.83406734466553 6.809573650360107 10.70783710479736 6.807963848114014 10.15954780578613 C 6.807663917541504 10.03209781646729 6.808084011077881 9.904667854309082 6.808513641357422 9.777247428894043 C 6.809144020080566 9.5894775390625 6.809793949127197 9.395307540893555 6.807963848114014 9.204507827758789 C 6.803884029388428 8.647317886352539 7.038474082946777 8.263617515563965 7.525153636932373 8.031367301940918 C 7.969644069671631 7.818817615509033 8.415743827819824 7.58925724029541 8.84714412689209 7.367257595062256 C 9.044604301452637 7.265647411346436 9.242074012756348 7.164027214050293 9.440123558044434 7.063577651977539 C 9.595993995666504 6.98450756072998 9.694893836975098 6.851457595825195 9.71147346496582 6.698537349700928 C 9.728814125061035 6.538607597351074 9.65549373626709 6.37879753112793 9.510323524475098 6.260087490081787 C 8.423913955688477 5.370557308197021 8.208293914794922 3.677407503128052 9.039453506469727 2.562777519226074 C 9.500113487243652 1.945847392082214 10.06618404388428 1.633047461509705 10.72195434570312 1.633047461509705 C 10.81375408172607 1.633047461509705 10.90850353240967 1.63932740688324 11.00357341766357 1.6517174243927 C 11.92739391326904 1.772817373275757 12.56199359893799 2.334517478942871 12.88977432250977 3.321237325668335 C 13.24712371826172 4.398667335510254 12.91424369812012 5.530197620391846 12.0210542678833 6.274267196655273 C 11.88816356658936 6.385337352752686 11.82213401794434 6.540007591247559 11.83995342254639 6.698557376861572 C 11.85728359222412 6.852757453918457 11.9524040222168 6.98471736907959 12.10093402862549 7.060607433319092 L 12.4302339553833 7.229577541351318 C 12.95940399169922 7.501317501068115 13.50659370422363 7.782317638397217 14.05034351348877 8.045967102050781 C 14.50983428955078 8.268057823181152 14.73563385009766 8.63350772857666 14.7405834197998 9.163177490234375 C 14.74472427368164 9.560807228088379 14.74397373199463 9.919857025146484 14.73828411102295 10.26078701019287 C 14.73177433013916 10.69200706481934 14.58989429473877 10.83096694946289 14.15442371368408 10.83258724212646 C 13.70210361480713 10.83380699157715 13.24965381622314 10.83417701721191 12.79723358154297 10.83417701721191 C 12.4575138092041 10.83417701721191 12.11779403686523 10.8339672088623 11.77810382843018 10.8337574005127 C 11.4551477432251 10.83356761932373 11.13223743438721 10.8333683013916 10.80935287475586 10.83334922790527 L 10.75941371917725 10.83487701416016 L 9.663233757019043 10.83504772186279 L 8.567363739013672 10.83521747589111 Z M 7.291898727416992 10.34784698486328 L 14.28567123413086 10.34784698486328 C 14.28622722625732 10.22640705108643 14.2886791229248 10.10653305053711 14.29105377197266 9.990137100219727 C 14.29762363433838 9.668707847595215 14.30383396148682 9.365097045898438 14.2713737487793 9.063877105712891 C 14.25105381011963 8.86894702911377 14.12206363677979 8.637657165527344 13.98382377624512 8.548137664794922 C 13.69340419769287 8.36027717590332 13.37393379211426 8.203886985778809 13.0649938583374 8.052637100219727 C 12.94972515106201 7.996211051940918 12.830810546875 7.937995433807373 12.71431159973145 7.878604412078857 L 12.66946792602539 7.909471035003662 C 12.68722057342529 7.946816921234131 12.70352458953857 7.985342979431152 12.7194242477417 8.022937774658203 C 12.76605415344238 8.133147239685059 12.81009387969971 8.23725700378418 12.88373374938965 8.304747581481934 C 13.04791355133057 8.455947875976562 13.1461935043335 8.655997276306152 13.15343379974365 8.853687286376953 C 13.15974426269531 9.02597713470459 13.09981346130371 9.184497833251953 12.98012351989746 9.312127113342285 C 12.8573637008667 9.442587852478027 12.67773342132568 9.517377853393555 12.48721408843994 9.517377853393555 C 12.30742359161377 9.517387390136719 12.13729381561279 9.449277877807617 12.02045345306396 9.330517768859863 C 11.88732433319092 9.194757461547852 11.81932353973389 9.032257080078125 11.82374382019043 8.860527038574219 C 11.82861423492432 8.671287536621094 11.92373371124268 8.482047080993652 12.09157371520996 8.327667236328125 C 12.16048431396484 8.264387130737305 12.2441234588623 8.156257629394531 12.25315380096436 8.059647560119629 C 12.29421329498291 7.628818988800049 12.22821998596191 7.543084144592285 11.71304416656494 7.413311004638672 C 11.65718936920166 7.508341312408447 11.60167407989502 7.603360652923584 11.54622364044189 7.698257446289062 C 11.38502407073975 7.974167346954346 11.21832370758057 8.259457588195801 11.0480842590332 8.536177635192871 C 10.95608425140381 8.685737609863281 10.86928367614746 8.755397796630859 10.77493381500244 8.755397796630859 C 10.68010425567627 8.755407333374023 10.59287357330322 8.68498706817627 10.50039386749268 8.533787727355957 C 10.33484363555908 8.263497352600098 10.17860412597656 7.995827198028564 10.01318359375 7.712427616119385 C 9.949256896972656 7.602908611297607 9.884932518005371 7.492705821990967 9.819705009460449 7.381775379180908 C 9.776459693908691 7.403279304504395 9.733293533325195 7.42435884475708 9.690323829650879 7.445337295532227 C 9.552844047546387 7.512467384338379 9.42298412322998 7.575867652893066 9.296733856201172 7.64960765838623 C 9.217333793640137 7.695767402648926 9.165133476257324 7.813357353210449 9.163663864135742 7.949227333068848 C 9.162234306335449 8.081297874450684 9.209114074707031 8.195837020874023 9.283113479614258 8.241037368774414 C 9.887893676757812 8.610907554626465 10.09308433532715 9.101207733154297 9.928853988647461 9.7840576171875 C 9.913363456726074 9.848137855529785 9.856583595275879 9.892197608947754 9.80168342590332 9.934807777404785 C 9.778913497924805 9.952486991882324 9.757413864135742 9.96917724609375 9.740143775939941 9.986227035522461 L 9.70267391204834 10.02321720123291 L 9.66766357421875 9.98389720916748 C 9.652044296264648 9.966337203979492 9.632043838500977 9.94854736328125 9.610883712768555 9.929727554321289 C 9.557693481445312 9.882407188415527 9.502694129943848 9.833477020263672 9.495333671569824 9.768047332763672 C 9.482394218444824 9.652027130126953 9.483953475952148 9.534117698669434 9.485464096069336 9.420087814331055 C 9.486583709716797 9.336007118225098 9.487733840942383 9.249067306518555 9.482913970947266 9.164987564086914 C 9.46528434753418 8.854377746582031 9.256294250488281 8.645707130432129 8.962883949279785 8.645707130432129 C 8.956113815307617 8.645707130432129 8.949343681335449 8.645817756652832 8.942493438720703 8.646037101745605 C 8.65178394317627 8.655237197875977 8.463354110717773 8.857267379760742 8.45068359375 9.173267364501953 C 8.447854042053223 9.247367858886719 8.448683738708496 9.323847770690918 8.449474334716797 9.397807121276855 C 8.450823783874512 9.52222728729248 8.452203750610352 9.650876998901367 8.436623573303223 9.7769775390625 C 8.428274154663086 9.843067169189453 8.368233680725098 9.889897346496582 8.310183525085449 9.935177803039551 C 8.287464141845703 9.952897071838379 8.266003608703613 9.969637870788574 8.249194145202637 9.986227035522461 L 8.211954116821289 10.02299785614014 L 8.176923751831055 9.98411750793457 C 8.161514282226562 9.96701717376709 8.142383575439453 9.949847221374512 8.122134208679199 9.931667327880859 C 8.070103645324707 9.884967803955078 8.016304016113281 9.836667060852051 8.006194114685059 9.77166748046875 C 7.990753650665283 9.669377326965332 7.992844104766846 9.565327644348145 7.994863986968994 9.464707374572754 C 7.996133804321289 9.401397705078125 7.997453689575195 9.33592700958252 7.994234085083008 9.272847175598145 C 7.971014022827148 8.802967071533203 8.163804054260254 8.469877243041992 8.58359432220459 8.254457473754883 C 8.637463569641113 8.226707458496094 8.676553726196289 8.14610767364502 8.714353561401367 8.068157196044922 C 8.728421211242676 8.03914737701416 8.74283504486084 8.009429931640625 8.758504867553711 7.981175422668457 L 8.707379341125488 7.926262378692627 C 8.606349945068359 7.980612754821777 8.504932403564453 8.034365653991699 8.403484344482422 8.088137626647949 C 8.099284172058105 8.249377250671387 7.78472375869751 8.416107177734375 7.486514091491699 8.596917152404785 C 7.394484043121338 8.652937889099121 7.306403636932373 8.800657272338867 7.301794052124023 8.906787872314453 C 7.284564018249512 9.270877838134766 7.287313938140869 9.641127586364746 7.289963722229004 9.999197006225586 C 7.290829181671143 10.11570262908936 7.291694641113281 10.23195552825928 7.291898727416992 10.34784698486328 Z M 12.49423027038574 8.559293746948242 C 12.46338081359863 8.601907730102539 12.43334484100342 8.640031814575195 12.40584373474121 8.67493724822998 C 12.34423351287842 8.753157615661621 12.29102420806885 8.820697784423828 12.29674434661865 8.858227729797363 C 12.30727386474609 8.926377296447754 12.43635368347168 9.034937858581543 12.51949405670166 9.045487403869629 C 12.56321430206299 9.045417785644531 12.68921375274658 8.920147895812988 12.6902437210083 8.862586975097656 C 12.6917142868042 8.814177513122559 12.64151382446289 8.750157356262207 12.57795429229736 8.669097900390625 C 12.55199813842773 8.636003494262695 12.52368068695068 8.59989070892334 12.49423027038574 8.559293746948242 Z M 10.1696720123291 6.64696741104126 C 10.16025352478027 7.066343307495117 10.36709213256836 7.549126625061035 10.78518581390381 8.083614349365234 C 10.82662582397461 8.016141891479492 10.86916732788086 7.949183464050293 10.91063404083252 7.883927345275879 C 11.16371822357178 7.485632419586182 11.40323257446289 7.108669281005859 11.39667987823486 6.64696741104126 L 10.1696720123291 6.64696741104126 Z M 10.00651359558105 3.48678731918335 C 9.460043907165527 3.48678731918335 9.18951416015625 3.501427412033081 9.070123672485352 3.635167360305786 C 8.949974060058594 3.769757509231567 8.966963768005371 4.049497604370117 9.03093433380127 4.612017631530762 C 9.121864318847656 5.414437294006348 9.802023887634277 6.135627269744873 10.54713344573975 6.219687461853027 C 10.61017417907715 6.226857662200928 10.67400360107422 6.23048734664917 10.73688411712646 6.23048734664917 C 11.2847843170166 6.230497360229492 11.80241394042969 5.959697246551514 12.15706348419189 5.487507343292236 C 12.52619934082031 4.996029853820801 12.65189743041992 4.358899116516113 12.49719429016113 3.77431583404541 C 12.23082733154297 3.82496166229248 11.98356533050537 3.849617481231689 11.74269390106201 3.849617481231689 C 11.27682399749756 3.849637508392334 10.85570430755615 3.75677752494812 10.45524406433105 3.56573748588562 C 10.3469934463501 3.514097452163696 10.20005416870117 3.486797332763672 10.03032398223877 3.486797332763672 L 10.00651359558105 3.48678731918335 Z M 9.780353546142578 3.028107404708862 C 10.1784143447876 3.028107404708862 10.5811939239502 3.110947370529175 11.01170349121094 3.281367540359497 C 11.25217342376709 3.376447439193726 11.49615383148193 3.424667358398438 11.73687362670898 3.42467737197876 C 11.73688793182373 3.42467737197876 11.73693561553955 3.42467737197876 11.7369499206543 3.42467737197876 C 11.95661640167236 3.42467737197876 12.17392253875732 3.384324550628662 12.38373565673828 3.304655790328979 C 12.10253810882568 2.573147296905518 11.46544551849365 2.081702709197998 10.78495407104492 2.076607465744019 L 10.77562427520752 2.076577425003052 C 10.16221904754639 2.076577425003052 9.549419403076172 2.490084648132324 9.284464836120605 3.071527004241943 C 9.449417114257812 3.042696952819824 9.615810394287109 3.028107404708862 9.780353546142578 3.028107404708862 Z" stroke="none"/>
        <path d="M 8.567366600036621 10.78521537780762 C 9.297968864440918 10.78521537780762 10.02859210968018 10.78487777709961 10.75941371917725 10.78487777709961 L 10.75941371917725 10.78334712982178 C 11.89077377319336 10.78334808349609 13.0228853225708 10.78563976287842 14.15423393249512 10.7825870513916 C 14.56335353851318 10.78106784820557 14.682204246521 10.66297721862793 14.68829345703125 10.2599573135376 C 14.6943941116333 9.894267082214355 14.6943941116333 9.529337882995605 14.69058418273926 9.163647651672363 C 14.68601417541504 8.674537658691406 14.48564434051514 8.311897277832031 14.02853393554688 8.090957641601562 C 13.37333393096924 7.773267269134521 12.72652339935303 7.437287330627441 12.07818412780762 7.105127334594727 C 11.7292537689209 6.926847457885742 11.68735408782959 6.488017559051514 11.98905372619629 6.235847473144531 C 12.85146427154541 5.517417430877686 13.19506359100342 4.400547504425049 12.84232425689697 3.336997509002686 C 12.54672431945801 2.447157382965088 11.96771430969238 1.828527450561523 10.99711418151855 1.701297402381897 C 10.18421936035156 1.595397353172302 9.553403854370117 1.95804750919342 9.079533576965332 2.5926673412323 C 8.259774208068848 3.692017316818237 8.478433609008789 5.350577354431152 9.541974067687988 6.221377372741699 C 9.868053436279297 6.488017559051514 9.829194068908691 6.922277450561523 9.462743759155273 7.10816764831543 C 8.824314117431641 7.431957244873047 8.191973686218262 7.767937660217285 7.546683788299561 8.07648754119873 C 7.061383724212646 8.308087348937988 6.854154109954834 8.684447288513184 6.857964038848877 9.20402717590332 C 6.861013889312744 9.522477149963379 6.857203960418701 9.840937614440918 6.857964038848877 10.15939712524414 C 6.859493732452393 10.67897701263428 6.961584091186523 10.78410720825195 7.471253871917725 10.78487777709961 C 7.836735248565674 10.78513050079346 8.201997756958008 10.78521537780762 8.567366600036621 10.78521537780762 M 8.717654228210449 7.863927364349365 L 8.820504188537598 7.974397659301758 C 8.75041389465332 8.085627555847168 8.70698356628418 8.247137069702148 8.606424331665039 8.298947334289551 C 8.201113700866699 8.506927490234375 8.022073745727539 8.823097229003906 8.044174194335938 9.270307540893555 C 8.052554130554199 9.434867858886719 8.031224250793457 9.602477073669434 8.055603981018066 9.76398754119873 C 8.066264152526855 9.832557678222656 8.158453941345215 9.888936996459961 8.21406364440918 9.950647354125977 C 8.274253845214844 9.891217231750488 8.378623962402344 9.837127685546875 8.387003898620605 9.770847320556641 C 8.411383628845215 9.573527336120605 8.39310359954834 9.370877265930176 8.400723457336426 9.171267509460449 C 8.414433479309082 8.829197883605957 8.627754211425781 8.605977058410645 8.940874099731445 8.596067428588867 C 9.26921272277832 8.585404396057129 9.513023376464844 8.813198089599609 9.532834053039551 9.162127494812012 C 9.54426383972168 9.361727714538574 9.522933959960938 9.564387321472168 9.545023918151855 9.762467384338379 C 9.552643775939941 9.830266952514648 9.649394035339355 9.888167381286621 9.705014228820801 9.950647354125977 C 9.765203475952148 9.891217231750488 9.863473892211914 9.841697692871094 9.880244255065918 9.772367477416992 C 10.03946399688721 9.110317230224609 9.837574005126953 8.638737678527832 9.257043838500977 8.283707618713379 C 9.061244010925293 8.164097785949707 9.065814018249512 7.726037502288818 9.271513938903809 7.606427192687988 C 9.45284366607666 7.500527381896973 9.645593643188477 7.413677215576172 9.839103698730469 7.316157341003418 C 10.07832431793213 7.722227573394775 10.30459403991699 8.118387222290039 10.54305362701416 8.507697105407715 C 10.70380306243896 8.770538330078125 10.84474277496338 8.771297454833984 11.00549411773682 8.509977340698242 C 11.23938369750977 8.129817008972168 11.46108341217041 7.742797374725342 11.68888378143311 7.355767250061035 C 12.2518835067749 7.49442720413208 12.34788417816162 7.592707633972168 12.30293369293213 8.064297676086426 C 12.29303359985352 8.170197486877441 12.20922374725342 8.287517547607422 12.12542343139648 8.364467620849609 C 11.82144355773926 8.644067764282227 11.78563404083252 9.019657135009766 12.0560941696167 9.29544734954834 C 12.28845405578613 9.53162670135498 12.71281337738037 9.523246765136719 12.94365406036377 9.277927398681641 C 13.19658374786377 9.008227348327637 13.13868427276611 8.607497215270996 12.84994411468506 8.341607093811035 C 12.73109340667725 8.232666969299316 12.68462371826172 8.044486999511719 12.60538387298584 7.892877578735352 L 12.71052360534668 7.820507526397705 C 13.14706420898438 8.044486999511719 13.60113430023193 8.241047859191895 14.0110034942627 8.506167411804199 C 14.17099380493164 8.609777450561523 14.30051422119141 8.861197471618652 14.32108402252197 9.058517456054688 C 14.3675537109375 9.489727020263672 14.3355541229248 9.928547859191895 14.3355541229248 10.39784717559814 L 7.241943836212158 10.39784717559814 C 7.241943836212158 9.904167175292969 7.22822380065918 9.403637886047363 7.251843929290771 8.904617309570312 C 7.257174015045166 8.781957626342773 7.355453968048096 8.618167877197266 7.460593700408936 8.554167747497559 C 7.868943691253662 8.306567192077637 8.297103881835938 8.090957641601562 8.717654228210449 7.863927364349365 M 12.49415397644043 8.471887588500977 C 12.62138366699219 8.661587715148926 12.74328422546387 8.763677597045898 12.74023342132568 8.86347770690918 C 12.73871421813965 8.948806762695312 12.5841064453125 9.103470802307129 12.51320362091064 9.095087051391602 C 12.41111373901367 9.082137107849121 12.261794090271 8.959477424621582 12.24731349945068 8.865767478942871 C 12.23360347747803 8.775867462158203 12.3661642074585 8.663877487182617 12.49415397644043 8.471887588500977 M 10.12174415588379 6.596967220306396 L 11.44508361816406 6.596967220306396 C 11.47556400299072 7.201117515563965 11.09387397766113 7.665087223052979 10.79065418243408 8.170957565307617 C 10.31144428253174 7.575187206268311 10.09355354309082 7.052557468414307 10.12174415588379 6.596967220306396 M 10.00651741027832 3.436789274215698 C 10.16241073608398 3.436787366867065 10.33717441558838 3.454014301300049 10.47677421569824 3.520607471466064 C 11.14110374450684 3.837537288665771 11.8305835723877 3.856577157974243 12.53301429748535 3.716397523880005 C 12.9207935333252 5.05268669128418 11.84733963012695 6.417932510375977 10.54152393341064 6.269367218017578 C 9.798724174499512 6.185567378997803 9.076483726501465 5.45799732208252 8.981253623962402 4.617667198181152 C 8.853407859802246 3.49350380897522 8.895976066589355 3.436789274215698 10.00651741027832 3.436789274215698 M 9.780351638793945 3.078109502792358 C 9.59075927734375 3.078109502792358 9.398462295532227 3.097366333007812 9.202194213867188 3.138157367706299 C 9.454363822937012 2.486007452011108 10.12324237823486 2.022021532058716 10.78532409667969 2.026607513427734 C 11.49841403961182 2.031947374343872 12.16427421569824 2.544667482376099 12.4476842880249 3.333187341690063 C 11.9593334197998 3.532797336578369 11.45956420898438 3.512227535247803 10.99330425262451 3.327857494354248 C 10.59247589111328 3.169191122055054 10.19275188446045 3.078109502792358 9.780351638793945 3.078109502792358 M 8.567363739013672 10.88521766662598 C 8.201973915100098 10.88521766662598 7.836683750152588 10.88512706756592 7.471183776855469 10.88487720489502 C 6.906283855438232 10.8840274810791 6.75965404510498 10.73491764068604 6.75796365737915 10.15968704223633 C 6.757663726806641 10.03211784362793 6.758083820343018 9.904597282409668 6.758513927459717 9.777077674865723 C 6.759143829345703 9.58946704864502 6.759793758392334 9.395467758178711 6.75796365737915 9.204987525939941 C 6.753724098205566 8.626287460327148 6.997623920440674 8.227707862854004 7.503613948822021 7.986237525939941 C 7.947423934936523 7.774027347564697 8.393183708190918 7.544637203216553 8.824263572692871 7.322797298431396 C 9.021803855895996 7.221137523651123 9.219364166259766 7.119477272033691 9.417513847351074 7.018977642059326 C 9.558013916015625 6.947707653045654 9.64704418182373 6.8289475440979 9.661764144897461 6.693147659301758 C 9.677244186401367 6.550337314605713 9.610513687133789 6.40659761428833 9.478673934936523 6.298787593841553 C 8.372203826904297 5.392837524414062 8.152724266052246 3.668287515640259 8.999363899230957 2.53288745880127 C 9.470004081726074 1.902607440948486 10.04954433441162 1.583047389984131 10.72195434570312 1.583047389984131 C 10.81590366363525 1.583047389984131 10.91282367706299 1.589467406272888 11.01003360748291 1.602137446403503 C 11.95451354980469 1.725937366485596 12.60288429260254 2.299027442932129 12.93722343444824 3.305467367172241 C 13.301194190979 4.402877330780029 12.96239376068115 5.555157661437988 12.05306434631348 6.312677383422852 C 11.93333339691162 6.412747383117676 11.87372398376465 6.551397323608398 11.88964366912842 6.692977428436279 C 11.90506362915039 6.830197334289551 11.99036407470703 6.947967529296875 12.12368392944336 7.016077518463135 L 12.45307350158691 7.185097217559814 C 12.98199367523193 7.45670747756958 13.52892398834229 7.737577438354492 14.07216358184814 8.000977516174316 C 14.54376411437988 8.228917121887207 14.78550434112549 8.619797706604004 14.79058361053467 9.162717819213867 C 14.79472351074219 9.560737609863281 14.79397392272949 9.92023754119873 14.78828430175781 10.26162719726562 C 14.78137397766113 10.718337059021 14.615553855896 10.88087749481201 14.15460395812988 10.88258743286133 C 13.36251258850098 10.88472366333008 12.57022762298584 10.88424682617188 11.77809429168701 10.88375759124756 C 11.47170829772949 10.88357734680176 11.1653299331665 10.88338851928711 10.85899925231934 10.88335418701172 L 10.75941371917725 10.88487720489502 L 8.567363739013672 10.88521766662598 Z M 7.341772079467773 10.29784774780273 L 14.23600006103516 10.29784774780273 C 14.23689651489258 10.19309234619141 14.23900604248047 10.08979606628418 14.24106407165527 9.989107131958008 C 14.24760341644287 9.669327735900879 14.25377368927002 9.367277145385742 14.22166347503662 9.06922721862793 C 14.20300388336182 8.890316963195801 14.08166408538818 8.671067237854004 13.95664405822754 8.590106964111328 C 13.66874408721924 8.403877258300781 13.35063362121582 8.248147010803223 13.04300403594971 8.09754753112793 C 12.94415092468262 8.049147605895996 12.84262561798096 7.999448776245117 12.74211692810059 7.948758125305176 C 12.75008010864258 7.967077255249023 12.75782299041748 7.985374927520752 12.76547431945801 8.003457069396973 C 12.80992412567139 8.108517646789551 12.85190391540527 8.207747459411621 12.91751384735107 8.267887115478516 C 13.09153366088867 8.42813777923584 13.19567394256592 8.640927314758301 13.20340347290039 8.85185718536377 C 13.21021366119385 9.03776741027832 13.14561367034912 9.208757400512695 13.01659393310547 9.34633731842041 C 12.88436412811279 9.486857414245605 12.69145393371582 9.567377090454102 12.48721408843994 9.567377090454102 C 12.294114112854 9.567387580871582 12.11099433898926 9.493837356567383 11.98480415344238 9.365577697753906 C 11.84192371368408 9.219877243041992 11.76898384094238 9.044827461242676 11.77376365661621 8.859237670898438 C 11.77898406982422 8.656337738037109 11.87983417510986 8.454487800598145 12.05772399902344 8.290867805480957 C 12.1386137008667 8.216587066650391 12.19712352752686 8.121817588806152 12.2033634185791 8.054986953735352 C 12.23929786682129 7.677980899810791 12.21047687530518 7.593956470489502 11.73710346221924 7.471076011657715 C 11.68768978118896 7.555255889892578 11.63851165771484 7.639419555664062 11.58939361572266 7.723487377166748 C 11.428053855896 7.999627590179443 11.26121425628662 8.285177230834961 11.09066390991211 8.562376976013184 C 11.02649402618408 8.66669750213623 10.92394351959229 8.805397033691406 10.77493381500244 8.805397033691406 C 10.62522411346436 8.805417060852051 10.52220344543457 8.665277481079102 10.45774364471436 8.559867858886719 C 10.2919340133667 8.289167404174805 10.13555431365967 8.021267890930176 9.970004081726074 7.737637519836426 C 9.913810729980469 7.641366004943848 9.857316970825195 7.54457426071167 9.800167083740234 7.447222709655762 C 9.77079963684082 7.46168327331543 9.741489410400391 7.475995540618896 9.712264060974121 7.490267276763916 C 9.575634002685547 7.556977272033691 9.44659423828125 7.619987487792969 9.321944236755371 7.692777633666992 C 9.258374214172363 7.729747295379639 9.214923858642578 7.832977294921875 9.213664054870605 7.949767589569092 C 9.212433815002441 8.062817573547363 9.250813484191895 8.162717819213867 9.309173583984375 8.198367118835449 C 9.926584243774414 8.575957298278809 10.14516353607178 9.098447799682617 9.977474212646484 9.795747756958008 C 9.957843780517578 9.876897811889648 9.89116382598877 9.928647041320801 9.832344055175781 9.974307060241699 C 9.810784339904785 9.991047859191895 9.790424346923828 10.0068473815918 9.775274276733398 10.02180767059326 L 9.700344085693359 10.09579753875732 L 9.63032341003418 10.01713752746582 C 9.616633415222168 10.00175762176514 9.59769344329834 9.984917640686035 9.577644348144531 9.967077255249023 C 9.520223617553711 9.915997505187988 9.455143928527832 9.858097076416016 9.445653915405273 9.773637771606445 C 9.432363510131836 9.654477119445801 9.433943748474121 9.534976959228516 9.435473442077637 9.419417381286621 C 9.436623573303223 9.332377433776855 9.437713623046875 9.250167846679688 9.43299388885498 9.167847633361816 C 9.416337013244629 8.874382019042969 9.223176956176758 8.686753273010254 8.944113731384277 8.696017265319824 C 8.682053565979004 8.704307556152344 8.512164115905762 8.887947082519531 8.500643730163574 9.175267219543457 C 8.49786376953125 9.248047828674316 8.498683929443359 9.323907852172852 8.499473571777344 9.39726734161377 C 8.500833511352539 9.523337364196777 8.502243995666504 9.653687477111816 8.48625373840332 9.783107757568359 C 8.475283622741699 9.869807243347168 8.403903961181641 9.925487518310547 8.340933799743652 9.974596977233887 C 8.319394111633301 9.991397857666016 8.299054145812988 10.00726699829102 8.284323692321777 10.02180767059326 L 8.209843635559082 10.09534740447998 L 8.139774322509766 10.01758766174316 C 8.126143455505371 10.00245761871338 8.107974052429199 9.986147880554199 8.088733673095703 9.968877792358398 C 8.032903671264648 9.918766975402832 7.969634056091309 9.861967086791992 7.956793785095215 9.77934741973877 C 7.940683841705322 9.672627449035645 7.942813873291016 9.566417694091797 7.944873809814453 9.463706970214844 C 7.946183681488037 9.39838695526123 7.947423934936523 9.336697578430176 7.9443039894104 9.275397300720215 C 7.920003890991211 8.783757209777832 8.12165355682373 8.435297012329102 8.560773849487305 8.209977149963379 C 8.599743843078613 8.189897537231445 8.636734008789062 8.113627433776855 8.669363975524902 8.046337127685547 C 8.678540229797363 8.02741813659668 8.687856674194336 8.008208274841309 8.697623252868652 7.989165306091309 L 8.697060585021973 7.988560676574707 C 8.607196807861328 8.036751747131348 8.517054557800293 8.084527969360352 8.42690372467041 8.132317543029785 C 8.123323440551758 8.293227195739746 7.809413909912109 8.459607124328613 7.512444019317627 8.639677047729492 C 7.435283660888672 8.686647415161133 7.355613708496094 8.820077896118164 7.351753711700439 8.908957481384277 C 7.334573745727539 9.271877288818359 7.337313652038574 9.641437530517578 7.339963912963867 9.998817443847656 C 7.340705394744873 10.09870433807373 7.341446399688721 10.19840431213379 7.341772079467773 10.29784774780273 Z M 10.21957111358643 6.696967601776123 C 10.22665214538574 7.078259944915771 10.41499137878418 7.514232158660889 10.78071880340576 7.995925426483154 C 10.8100061416626 7.949068069458008 10.8394832611084 7.902678489685059 10.86843395233154 7.857117652893066 C 11.10811614990234 7.479905128479004 11.33541870117188 7.122153759002686 11.3463888168335 6.696967601776123 L 10.21957111358643 6.696967601776123 Z M 10.00651359558105 3.536787509918213 C 9.520234107971191 3.536787509918213 9.217063903808594 3.545647382736206 9.107423782348633 3.66846752166748 C 8.996994018554688 3.792157411575317 9.02363395690918 4.10531759262085 9.08061408996582 4.606367588043213 C 9.167573928833008 5.3737473487854 9.841723442077637 6.089787483215332 10.55273342132568 6.169997215270996 C 10.6139440536499 6.176957607269287 10.67587375640869 6.180487632751465 10.73688411712646 6.180487632751465 C 11.2689037322998 6.180497646331787 11.77196407318115 5.916967391967773 12.11707401275635 5.457477569580078 C 12.46764373779297 4.990737915039062 12.59311008453369 4.389472007751465 12.46015644073486 3.832032918930054 C 12.20827579498291 3.877457618713379 11.97269344329834 3.899608612060547 11.74268341064453 3.899617433547974 C 11.26922416687012 3.899637460708618 10.84105396270752 3.805187463760376 10.43371391296387 3.610867500305176 C 10.33214378356934 3.562407493591309 10.19265365600586 3.536797523498535 10.03032398223877 3.536797523498535 L 10.00651359558105 3.536787509918213 Z M 9.780353546142578 2.978107452392578 C 10.18483352661133 2.978107452392578 10.5936336517334 3.062097311019897 11.03011417388916 3.234877347946167 C 11.4617748260498 3.40556526184082 11.90373420715332 3.419810771942139 12.31823253631592 3.275298118591309 C 12.03560352325439 2.589046001434326 11.42986583709717 2.131435394287109 10.78457355499268 2.126607418060303 L 10.77562427520752 2.126577377319336 C 10.21147346496582 2.126577377319336 9.647662162780762 2.487976789474487 9.371930122375488 3.007086277008057 C 9.508120536804199 2.987828493118286 9.644843101501465 2.978107452392578 9.780353546142578 2.978107452392578 Z" stroke="none" fill="#004786"/>
      </g>
      <g id="Group_767" data-name="Group 767" transform="translate(7.655 11.031)">
        <path id="Path_994" data-name="Path 994" d="M11.913,17.166a3.022,3.022,0,0,1,.015-.709c.031-.119.208-.2.319-.3.085.1.222.2.245.312a3.847,3.847,0,0,1,.011.693,3.878,3.878,0,0,1,.689.011c.117.023.211.157.315.24-.1.113-.176.29-.295.322a3.016,3.016,0,0,1-.707.014,2.564,2.564,0,0,1-.012.619c-.039.144-.182.259-.28.387a1.479,1.479,0,0,1-.295-.395,2.274,2.274,0,0,1-.012-.606,2.338,2.338,0,0,1-.608-.012c-.147-.043-.262-.194-.392-.3a1.435,1.435,0,0,1,.389-.274A2.526,2.526,0,0,1,11.913,17.166Z" transform="translate(-10.907 -16.162)" fill="#005897"/>
      </g>
      <g id="Group_768" data-name="Group 768" transform="translate(0.762 8.607)">
        <path id="Path_995" data-name="Path 995" d="M17.609,20.427H1.867V12.98H17.609Zm-14.98-.762H16.847V13.742H2.629Z" transform="translate(-1.867 -12.98)" fill="#005897"/>
      </g>
      <g id="Group_769" data-name="Group 769" transform="translate(0 8.334)">
        <path id="Path_996" data-name="Path 996" d="M17.829,13.384H1.248a.381.381,0,1,1,0-.762H17.829a.381.381,0,1,1,0,.762Z" transform="translate(-0.867 -12.622)" fill="#005897"/>
      </g>
    </g>
  </g>
</svg>
