<svg xmlns="http://www.w3.org/2000/svg" width="24" height="24" viewBox="0 0 24 24">
  <g id="Group_988" data-name="Group 988" transform="translate(-15877.519 5807.759)">
    <g id="vaidam_icon-51" data-name="vaidam icon-51" transform="translate(15877.519 -5807.759)">
      <ellipse id="Ellipse_54" data-name="Ellipse 54" cx="11.52" cy="11.52" rx="11.52" ry="11.52" transform="translate(0.48 0.48)" fill="#fff"/>
      <path id="Path_936" data-name="Path 936" d="M12,.96A11.04,11.04,0,1,1,.96,12,11.04,11.04,0,0,1,12,.96M12,0A12,12,0,1,0,24,12,12,12,0,0,0,12,0Z" fill="#005897"/>
    </g>
    <g id="Group_982" data-name="Group 982" transform="translate(15882.856 -5802.145)">
      <path id="Path_1046" data-name="Path 1046" d="M222.829,308.093c-.765.6-1.452,1.133-2.137,1.671-.868.682-1.734,1.368-2.6,2.049a1.245,1.245,0,0,1-1.73,0c-1.113-.864-2.218-1.738-3.328-2.606-.091-.071-.2-.124-.343-.217-.044.024-.182.11-.328.178a.923.923,0,0,0-.426,1.348q.8,1.467,1.676,2.9a.946.946,0,0,0,1.384.314l.033-.019c1.211-.686,1.906-.537,2.693.621a5.36,5.36,0,0,1,1.037,2.094.914.914,0,0,1-.482,1.053,4.691,4.691,0,0,1-5.831-.8,10.083,10.083,0,0,1-1.466-1.835c-.576-.879-1.071-1.811-1.6-2.723a6.754,6.754,0,0,1-1.024-3.912,4.419,4.419,0,0,1,2.484-3.793.858.858,0,0,1,1.129.259,12.271,12.271,0,0,1,1.147,1.733.61.61,0,0,0,.634.38c2.833-.013,5.667-.009,8.5,0a2.125,2.125,0,0,1,.636.074.873.873,0,0,1,.637.89q0,3.278,0,6.556a.936.936,0,0,1-.929.957c-1.131.015-2.261,0-3.392.007-.246,0-.4-.114-.393-.357s.185-.339.421-.339q1.525,0,3.049,0c.5,0,.547-.043.547-.54q0-2.744,0-5.489Z" transform="translate(-208.344 -304.304)" fill="#005897"/>
      <path id="Path_1047" data-name="Path 1047" d="M224.252,327.081c.331-.107.938-.3,1.544-.5.374-.123.407-.4.253-.7a14.335,14.335,0,0,0-.987-1.7c-.527-.73-.75-.744-1.517-.305-.055.031-.112.06-.167.091a1.662,1.662,0,0,1-2.3-.545q-.9-1.453-1.714-2.956a1.641,1.641,0,0,1,.669-2.284,3.766,3.766,0,0,1,.4-.224.655.655,0,0,0,.4-.84,5.066,5.066,0,0,0-1.293-2.327.469.469,0,0,0-.452-.045,6.338,6.338,0,0,0-1.238,1.1,4.091,4.091,0,0,0-.393,4.158,24.718,24.718,0,0,0,1.653,3.153,15.4,15.4,0,0,0,1.453,2.174A4.712,4.712,0,0,0,224.252,327.081Z" transform="translate(-216.409 -313.917)"/>
      <path id="Path_1048" data-name="Path 1048" d="M282.788,346.218H273.92l-.232,1.039c1.166.912,2.355,1.84,3.54,2.771a.534.534,0,0,0,.728-.012C279.541,348.772,281.125,347.525,282.788,346.218Z" transform="translate(-268.706 -343.023)"/>
      <path id="Path_1049" data-name="Path 1049" d="M224.252,327.081a4.712,4.712,0,0,1-3.688-1.747,15.4,15.4,0,0,1-1.453-2.174,24.718,24.718,0,0,1-1.653-3.153,4.091,4.091,0,0,1,.393-4.158,6.338,6.338,0,0,1,1.238-1.1.469.469,0,0,1,.452.045,5.066,5.066,0,0,1,1.293,2.327.655.655,0,0,1-.4.84,3.766,3.766,0,0,0-.4.224,1.641,1.641,0,0,0-.669,2.284q.813,1.5,1.714,2.956a1.662,1.662,0,0,0,2.3.545c.055-.031.112-.06.167-.091.767-.439.99-.424,1.517.305a14.335,14.335,0,0,1,.987,1.7c.154.291.122.573-.253.7C225.19,326.78,224.583,326.974,224.252,327.081Z" transform="translate(-216.409 -313.917)" fill="#fff"/>
      <path id="Path_1050" data-name="Path 1050" d="M282.788,346.218c-1.663,1.307-3.246,2.554-4.832,3.8a.534.534,0,0,1-.728.012c-1.185-.931-2.374-1.859-3.54-2.771l.232-1.039Z" transform="translate(-268.706 -343.023)" fill="#fff"/>
    </g>
  </g>
</svg>
