<?xml version="1.0" encoding="utf-8"?>
<!-- Generator: Adobe Illustrator 25.3.1, SVG Export Plug-In . SVG Version: 6.00 Build 0)  -->
<svg version="1.1" id="Layer_1" xmlns="http://www.w3.org/2000/svg" xmlns:xlink="http://www.w3.org/1999/xlink" x="0px" y="0px"
	 viewBox="0 0 24 24" style="enable-background:new 0 0 24 24;" xml:space="preserve">
<style type="text/css">
	.st0{fill-rule:evenodd;clip-rule:evenodd;fill:#005897;}
	.st1{fill-rule:evenodd;clip-rule:evenodd;fill:#5D5E5E;}
	.st2{fill-rule:evenodd;clip-rule:evenodd;fill:#005897;stroke:#005897;stroke-width:0.25;stroke-miterlimit:10;}
	.st3{fill:#005897;}
	.st4{fill:#005897;stroke:#005897;stroke-width:0.25;stroke-miterlimit:10;}
	.st5{fill:#FBFBFB;}
	.st6{fill:#F6FAFD;}
	.st7{fill:#010201;}
	.st8{fill:#38ADE1;}
	.st9{fill:#005897;stroke:#FFFFFF;stroke-width:0.1;stroke-miterlimit:10;}
	.st10{fill:#005897;stroke:#005897;stroke-width:0.1;stroke-miterlimit:10;}
	.st11{fill:#005897;stroke:#005897;stroke-width:0.12;stroke-miterlimit:10;}
	.st12{fill:#174884;}
	.st13{fill:#9CBDD4;}
	.st14{fill:#FFFFFF;}
</style>
<g>
	<path class="st4" d="M1.37,23.58c0.49-0.36,0.86-0.27,1.18-0.23c0.73,0.08,0.98-0.14,0.96-0.92c-0.05-2.76,0-5.53-0.03-8.29
		c-0.01-0.61,0.11-0.87,0.8-0.83c1.17,0.06,2.35,0.05,3.53,0c0.57-0.02,0.74,0.14,0.73,0.72c-0.03,2.82-0.01,5.64-0.01,8.46
		c0,0.77,0.56,1.13,1.25,0.84c0.25-0.11,0.19-0.31,0.19-0.48c0-4.54,0.06-9.09-0.05-13.63c-0.02-0.8,0.19-1.19,0.75-1.56
		c2.58-1.75,5.27-3.31,8.28-4.19c0.36-0.11,0.48-0.26,0.47-0.62c-0.02-0.74-0.01-1.48,0-2.22c0-0.15-0.04-0.39,0.17-0.4
		c0.31-0.02,0.19,0.26,0.21,0.43c0.02,0.19,0,0.38,0,0.57c0,7.03,0.02,14.06-0.02,21.1c0,0.82,0.18,1.14,1.02,1.02
		c0.3-0.04,0.65-0.12,1.09,0.23C15.02,23.58,8.29,23.58,1.37,23.58z M18.66,3.96c-0.26,0.07-0.53,0.12-0.78,0.21
		c-1.73,0.68-3.37,1.54-4.96,2.48c-0.85,0.5-1.73,0.97-2.38,1.76C13.5,7.37,16.28,6,18.78,4.08c0.04-0.07,0.22-0.1,0.12-0.21
		C18.84,3.8,18.72,3.85,18.66,3.96z M19.44,4.21c-0.16,0.05-0.22,0.05-0.26,0.08c-2.62,1.9-5.41,3.47-8.5,4.49
		c-0.3,0.1-0.35,0.28-0.35,0.55c0,3.5,0,7,0.01,10.5c0,0.18-0.07,0.46,0.18,0.47c0.54,0.03,1.13,0.12,1.62-0.05
		c0.38-0.13,0.1-0.69,0.16-1.05c0.01-0.05-0.01-0.11,0-0.16c0.07-0.47-0.12-0.62-0.59-0.61c-0.3,0.01-0.68,0.17-1-0.34
		c1.08,0,2.06-0.05,3.04,0.02c0.74,0.05,0.95-0.17,0.96-0.93c0.01-0.76-0.23-0.95-0.93-0.87c-0.49,0.05-0.98,0.03-1.48,0
		c-0.23-0.01-0.54,0.14-0.76-0.37c1.3,0,2.52,0,3.74,0c1.46,0,1.43,0,1.43-1.48c0-0.55-0.21-0.62-0.67-0.61
		c-1.07,0.03-2.13,0.01-3.2,0c-0.18,0-0.46,0.11-0.51-0.23c0.24-0.22,0.52-0.12,0.78-0.12c1.81-0.01,3.61-0.05,5.42,0.02
		c0.77,0.03,0.92-0.23,0.94-0.95c0.03-0.81-0.29-0.93-0.98-0.91c-1.42,0.05-2.84,0.02-4.27,0.01c-0.24,0-0.55,0.14-0.73-0.24
		c0.24-0.18,0.52-0.11,0.77-0.11c1.48-0.01,2.95-0.02,4.43,0.01c0.54,0.01,0.78-0.11,0.77-0.72c-0.03-1.06,0.01-1.06-1.05-1.06
		c-0.68,0-1.37,0.01-2.05,0c-0.17,0-0.4,0.08-0.44-0.22c0.08-0.14,0.22-0.13,0.35-0.14c0.85,0,1.7-0.04,2.54,0.01
		c0.61,0.03,0.63-0.29,0.65-0.75c0.01-0.5-0.09-0.77-0.67-0.71c-0.35,0.04-0.73,0.09-1.24-0.18c0.51-0.25,0.89-0.19,1.24-0.17
		c0.49,0.03,0.69-0.12,0.67-0.64C19.41,5.92,19.44,5.11,19.44,4.21z M19.45,18.59c0-1.39-0.01-2.79,0.01-4.18
		c0.01-0.41-0.1-0.56-0.54-0.58c-1.84-0.07-1.87-0.09-1.84,1.73c0.01,0.63-0.18,0.78-0.78,0.76c-1.25-0.04-1.25,0-1.25,1.23
		c0,0.08-0.01,0.17,0,0.25c0.08,0.53-0.14,0.7-0.68,0.69c-1.62,0-1.63,0.02-1.69,1.63c-0.01,0.41-0.11,0.57-0.55,0.58
		c-0.58,0.02-1.38-0.3-1.69,0.17c-0.28,0.42-0.08,1.16-0.1,1.76c0,0.03,0,0.06,0,0.08c-0.08,0.52,0.17,0.64,0.65,0.64
		c2.62-0.02,5.24-0.02,7.86,0c0.54,0.01,0.63-0.2,0.62-0.67C19.44,21.33,19.45,19.96,19.45,18.59z M8.18,18.53
		c0-1.42-0.02-2.85,0.01-4.27c0.01-0.46-0.12-0.62-0.59-0.6c-1.04,0.03-2.08,0.04-3.12,0c-0.55-0.02-0.62,0.21-0.61,0.67
		c0.02,2.79,0.02,5.58,0,8.37c0,0.49,0.13,0.67,0.64,0.65c1.01-0.04,2.03-0.04,3.04,0c0.5,0.02,0.66-0.13,0.65-0.64
		C8.15,21.32,8.18,19.93,8.18,18.53z"/>
	<path class="st4" d="M19.11,15.12c0.2,0.77-0.16,0.87-0.81,0.9c-0.73,0.03-0.84-0.24-0.84-0.89c-0.01-0.65,0.18-0.84,0.83-0.81
		C18.87,14.35,19.37,14.34,19.11,15.12z M18.29,15.64c0.41,0.07,0.51-0.13,0.51-0.5c0-0.36-0.13-0.46-0.48-0.47
		c-0.4-0.01-0.51,0.15-0.51,0.52C17.82,15.54,17.93,15.7,18.29,15.64z"/>
	<path class="st4" d="M19.12,17.51c0.22,0.84-0.34,0.73-0.89,0.79c-0.83,0.09-0.72-0.41-0.77-0.94c-0.08-0.77,0.35-0.7,0.88-0.75
		C19.09,16.55,19.26,16.87,19.12,17.51z M18.3,17.94c0.42,0.07,0.5-0.15,0.5-0.51c0-0.37-0.15-0.45-0.49-0.46
		c-0.41-0.02-0.5,0.17-0.5,0.53C17.82,17.86,17.96,17.99,18.3,17.94z"/>
	<path class="st4" d="M13.98,20.6c-0.7,0.18-0.86-0.14-0.87-0.81c-0.01-0.7,0.23-0.86,0.88-0.86c0.63,0,0.84,0.17,0.82,0.82
		C14.79,20.36,14.75,20.8,13.98,20.6z M13.98,20.26c0.3,0.07,0.49-0.04,0.47-0.42c-0.01-0.29,0-0.55-0.41-0.54
		c-0.36,0-0.57,0.07-0.57,0.5C13.48,20.14,13.58,20.32,13.98,20.26z"/>
	<path class="st4" d="M17.5,19.81c-0.18-0.7,0.14-0.86,0.81-0.87c0.7-0.01,0.86,0.23,0.86,0.88c0,0.63-0.17,0.84-0.82,0.82
		C17.74,20.62,17.3,20.58,17.5,19.81z M18.79,19.82c0.04-0.31-0.06-0.5-0.43-0.52c-0.38-0.01-0.54,0.1-0.53,0.51
		c0.01,0.35,0.12,0.48,0.48,0.47C18.62,20.27,18.84,20.22,18.79,19.82z"/>
	<path class="st4" d="M12.63,22.08c0.21,0.8-0.24,0.82-0.84,0.86c-0.76,0.05-0.78-0.3-0.82-0.9c-0.05-0.79,0.36-0.76,0.94-0.8
		C12.62,21.2,12.78,21.5,12.63,22.08z M12.31,22.11c0.04-0.34-0.07-0.51-0.44-0.51c-0.39,0-0.53,0.15-0.53,0.54
		c0,0.39,0.19,0.44,0.51,0.45C12.21,22.59,12.36,22.46,12.31,22.11z"/>
	<path class="st4" d="M14.76,22.05c0.19,0.76-0.17,0.87-0.81,0.89c-0.7,0.02-0.83-0.23-0.85-0.88c-0.02-0.74,0.3-0.82,0.91-0.82
		C14.68,21.23,14.96,21.41,14.76,22.05z M13.94,21.61c-0.35-0.05-0.44,0.15-0.46,0.49c-0.03,0.44,0.21,0.47,0.56,0.48
		c0.41,0.01,0.41-0.23,0.42-0.53C14.47,21.68,14.29,21.57,13.94,21.61z"/>
	<path class="st4" d="M18.3,22.9c-0.73,0.19-0.82-0.19-0.84-0.83c-0.03-0.72,0.25-0.82,0.89-0.84c0.76-0.03,0.79,0.32,0.82,0.92
		C19.19,22.84,18.92,23.03,18.3,22.9z M18.79,22.11c0.05-0.42-0.18-0.51-0.54-0.51c-0.41-0.01-0.41,0.23-0.43,0.53
		c-0.02,0.38,0.17,0.45,0.5,0.45C18.66,22.58,18.84,22.47,18.79,22.11z"/>
	<path class="st4" d="M15.36,19.78c-0.14-0.63,0.1-0.85,0.76-0.84c0.64,0,0.83,0.18,0.82,0.82c0,0.65-0.13,0.89-0.84,0.89
		C15.41,20.64,15.24,20.39,15.36,19.78z M16.57,19.82c0.03-0.3-0.02-0.52-0.41-0.52c-0.34,0-0.49,0.12-0.48,0.47
		c0.01,0.3,0.03,0.52,0.42,0.51C16.45,20.28,16.63,20.19,16.57,19.82z"/>
	<path class="st4" d="M15.37,17.48c-0.16-0.66,0.09-0.87,0.78-0.87c0.66,0,0.8,0.21,0.8,0.82c0,0.63-0.1,0.91-0.82,0.88
		C15.48,18.29,15.21,18.13,15.37,17.48z M16.57,17.43c0.05-0.35-0.11-0.46-0.46-0.46c-0.41,0-0.4,0.23-0.41,0.52
		c-0.02,0.36,0.12,0.45,0.47,0.46C16.57,17.95,16.6,17.74,16.57,17.43z"/>
	<path class="st4" d="M16.91,22.11c0.15,0.65-0.12,0.81-0.77,0.83c-0.76,0.03-0.79-0.32-0.82-0.92c-0.04-0.7,0.26-0.76,0.85-0.79
		C16.89,21.2,17.02,21.52,16.91,22.11z M16.58,22.14c0.02-0.29,0.01-0.54-0.4-0.54c-0.33,0-0.5,0.09-0.49,0.45
		c0.01,0.29,0,0.53,0.41,0.52C16.42,22.57,16.63,22.52,16.58,22.14z"/>
	<path class="st4" d="M7.65,21.89c0.19,0.73-0.25,0.68-0.73,0.72c-0.64,0.05-0.67-0.26-0.7-0.77c-0.03-0.64,0.31-0.61,0.75-0.63
		C7.51,21.18,7.86,21.27,7.65,21.89z M7.33,21.88c0.03-0.21-0.07-0.33-0.31-0.33c-0.23,0-0.44,0.01-0.43,0.33
		c0,0.23,0.08,0.36,0.33,0.36C7.15,22.24,7.36,22.23,7.33,21.88z"/>
	<path class="st4" d="M6.96,16.66c-0.61,0.15-0.72-0.15-0.74-0.7c-0.03-0.67,0.31-0.65,0.8-0.67c0.55-0.03,0.69,0.16,0.69,0.69
		C7.7,16.54,7.56,16.81,6.96,16.66z M7.33,15.94c0.01-0.34-0.24-0.29-0.45-0.3c-0.26,0-0.3,0.16-0.3,0.38
		c0.01,0.32,0.24,0.31,0.46,0.3C7.31,16.33,7.35,16.15,7.33,15.94z"/>
	<path class="st4" d="M6.94,19.27c0.66-0.17,0.75,0.14,0.76,0.69c0.01,0.55-0.18,0.69-0.7,0.68c-0.52-0.01-0.8-0.07-0.78-0.7
		C6.23,19.36,6.37,19.09,6.94,19.27z M7.33,19.96c0.02-0.22-0.02-0.38-0.29-0.38c-0.22,0-0.45-0.03-0.46,0.3
		c0,0.21,0.04,0.38,0.3,0.38C7.11,20.27,7.34,20.3,7.33,19.96z"/>
	<path class="st4" d="M7.66,17.98c0.18,0.7-0.26,0.65-0.74,0.68c-0.64,0.05-0.67-0.26-0.7-0.77c-0.03-0.64,0.31-0.61,0.75-0.63
		C7.53,17.23,7.82,17.37,7.66,17.98z M6.95,17.62c-0.23-0.01-0.36,0.07-0.36,0.32c-0.01,0.29,0.14,0.37,0.4,0.37
		c0.23,0,0.34-0.09,0.35-0.33C7.35,17.67,7.2,17.59,6.95,17.62z"/>
	<path class="st4" d="M5.75,15.98c0.15,0.61-0.17,0.71-0.71,0.72c-0.55,0.01-0.66-0.2-0.67-0.7c-0.02-0.59,0.18-0.72,0.73-0.71
		C5.62,15.29,5.87,15.43,5.75,15.98z M5.4,15.92c0.04-0.26-0.16-0.26-0.36-0.27c-0.27-0.01-0.3,0.14-0.31,0.36
		c0,0.27,0.14,0.31,0.36,0.31C5.36,16.32,5.42,16.18,5.4,15.92z"/>
	<path class="st4" d="M5.15,21.22c0.58-0.14,0.6,0.21,0.63,0.69c0.04,0.61-0.24,0.68-0.76,0.7c-0.69,0.04-0.61-0.35-0.65-0.81
		C4.31,21.15,4.69,21.18,5.15,21.22z M5.4,21.9c0.03-0.24-0.08-0.34-0.32-0.35c-0.24,0-0.35,0.07-0.35,0.33
		c0,0.23,0.07,0.35,0.33,0.35C5.29,22.23,5.42,22.16,5.4,21.9z"/>
	<path class="st4" d="M5.06,19.26c0.59-0.13,0.7,0.13,0.72,0.65c0.02,0.58-0.19,0.71-0.74,0.73c-0.65,0.02-0.65-0.3-0.67-0.78
		C4.34,19.26,4.6,19.14,5.06,19.26z M5.08,19.59c-0.24-0.03-0.35,0.06-0.35,0.32c0,0.23,0.07,0.35,0.32,0.35
		c0.23,0,0.35-0.08,0.35-0.33C5.41,19.7,5.33,19.57,5.08,19.59z"/>
	<path class="st4" d="M5.07,17.29c0.59-0.13,0.7,0.14,0.71,0.65c0.02,0.58-0.19,0.71-0.74,0.73c-0.65,0.02-0.65-0.3-0.67-0.79
		C4.34,17.28,4.61,17.18,5.07,17.29z M5.4,17.94c0.02-0.25-0.11-0.32-0.35-0.32c-0.25,0-0.33,0.11-0.32,0.35
		c0,0.25,0.11,0.33,0.35,0.33C5.32,18.29,5.42,18.18,5.4,17.94z"/>
</g>
</svg>
