<?xml version="1.0" encoding="utf-8"?>
<!-- Generator: Adobe Illustrator 25.3.1, SVG Export Plug-In . SVG Version: 6.00 Build 0)  -->
<svg version="1.1" id="Layer_1" xmlns="http://www.w3.org/2000/svg" xmlns:xlink="http://www.w3.org/1999/xlink" x="0px" y="0px"
	 viewBox="0 0 24 24" style="enable-background:new 0 0 24 24;" xml:space="preserve">
<style type="text/css">
	.st0{fill-rule:evenodd;clip-rule:evenodd;fill:#005897;}
	.st1{fill-rule:evenodd;clip-rule:evenodd;fill:#5D5E5E;}
	.st2{fill-rule:evenodd;clip-rule:evenodd;fill:#005897;stroke:#005897;stroke-width:0.25;stroke-miterlimit:10;}
	.st3{fill:#005897;}
	.st4{fill:#005897;stroke:#005897;stroke-width:0.25;stroke-miterlimit:10;}
	.st5{fill:#FBFBFB;}
	.st6{fill:#F6FAFD;}
	.st7{fill:#010201;}
	.st8{fill:#38ADE1;}
	.st9{fill:#005897;stroke:#FFFFFF;stroke-width:0.1;stroke-miterlimit:10;}
	.st10{fill:#005897;stroke:#005897;stroke-width:0.1;stroke-miterlimit:10;}
	.st11{fill:#005897;stroke:#005897;stroke-width:0.12;stroke-miterlimit:10;}
	.st12{fill:#174884;}
	.st13{fill:#9CBDD4;}
	.st14{fill:#FFFFFF;}
</style>
<path id="Path_384_1_" class="st0" d="M23.14,13.37v9.9H1.23v-9.9c0.36,0,0.68-0.01,1,0c0.1,0.02,0.19-0.05,0.21-0.15c0,0,0,0,0,0
	c0.19-0.6,0.4-1.19,0.59-1.78c0.02-0.12,0.13-0.2,0.25-0.18c0,0,0,0,0,0c0.65,0.01,1.3,0,1.95,0c0.08,0,0.15-0.01,0.22-0.01V6.31
	H4.77V4.19h0.69c0-0.1,0.01-0.18,0.01-0.26c0.01-0.85,0.4-1.65,1.06-2.18c0.21-0.16,0.43-0.3,0.66-0.43h0.09
	c0.05,0.03,0.11,0.07,0.16,0.1C8.19,1.8,8.73,2.5,8.92,3.32C8.97,3.61,9.01,3.9,9.04,4.2H9.7v2.12H9.02v3.51h6.32V6.31h-0.68V4.2
	h0.68c0.01-0.14,0.02-0.27,0.02-0.4c0.03-0.54,0.22-1.05,0.53-1.49c0.31-0.42,0.72-0.76,1.19-0.99h0.09c0.05,0.03,0.1,0.07,0.16,0.1
	c0.76,0.39,1.31,1.1,1.49,1.94c0.05,0.28,0.08,0.56,0.1,0.84h0.67v2.12h-0.69v4.93h0.24c0.64,0,1.29,0.01,1.93,0
	c0.13-0.02,0.25,0.07,0.26,0.19c0,0,0,0,0,0c0.19,0.59,0.39,1.17,0.58,1.76c0.02,0.11,0.12,0.18,0.22,0.16c0,0,0,0,0,0
	C22.48,13.36,22.81,13.37,23.14,13.37z M9.71,22.54c0-0.11,0-0.2,0-0.28c0-1.3-0.04-2.6,0.02-3.9c0.07-1.64,0.91-2.81,2.35-3.56
	c0.06-0.03,0.13-0.03,0.19,0c1.43,0.74,2.28,1.9,2.36,3.51c0.07,1.33,0.02,2.66,0.02,3.98c0,0.08,0,0.16,0,0.24h0.69v-9.14H9.03
	v9.15L9.71,22.54z M13.93,22.54c0.01-0.04,0.01-0.07,0.01-0.11c0-1.29,0.01-2.58,0-3.87c-0.02-1.25-0.56-2.23-1.61-2.92
	c-0.07-0.05-0.16-0.06-0.24-0.03c-0.96,0.6-1.57,1.46-1.63,2.59c-0.07,1.41-0.03,2.82-0.04,4.24c0,0.04,0.01,0.07,0.02,0.1
	L13.93,22.54z M6.2,9.86v5.61h2.09V9.86H6.2z M16.08,9.86v5.62h2.09V9.86H16.08z M18.91,16.93v5.61h0.69v-4.21h2.13v4.21h0.68v-5.61
	L18.91,16.93z M1.96,16.93v5.61h0.69v-4.2h2.12v4.2h0.68v-5.61H1.96z M16.07,4.18h2.11c0.03-0.84-0.27-1.5-0.95-1.98
	c-0.07-0.03-0.15-0.03-0.22,0.01C16.34,2.68,16.05,3.35,16.07,4.18L16.07,4.18z M8.3,4.18c0.01-0.83-0.27-1.5-0.94-1.98
	C7.28,2.13,7.17,2.14,7.1,2.22c-0.43,0.3-0.73,0.76-0.85,1.27c-0.04,0.23-0.06,0.46-0.08,0.7L8.3,4.18z M16.09,17.62v1.38h2.08
	v-1.38L16.09,17.62z M8.29,17.63H6.2v1.39h2.09V17.63z M3.15,13.35h2.31V12c-0.02-0.01-0.03-0.03-0.05-0.03
	c-0.57,0-1.14-0.01-1.71,0c-0.05,0.01-0.1,0.04-0.12,0.09C3.44,12.48,3.29,12.91,3.15,13.35L3.15,13.35z M21.22,13.36
	c-0.15-0.45-0.29-0.88-0.44-1.3c-0.02-0.05-0.13-0.1-0.19-0.1c-0.41-0.01-0.81,0-1.22,0h-0.46v1.4L21.22,13.36z M6.2,6.33V7.7h2.09
	V6.33L6.2,6.33z M16.09,6.33V7.7h2.08V6.33L16.09,6.33z M8.29,21.17H6.2v1.36h2.09V21.17z M18.17,21.17h-2.08v1.37h2.08V21.17z
	 M5.48,5.59h3.5V4.92h-3.5V5.59z M15.38,5.59h3.5V4.92h-3.5V5.59z M5.46,14.1h-3.5v0.67h3.5V14.1z M22.41,14.11h-3.5v0.66h3.5
	L22.41,14.11z M1.96,16.18h3.5v-0.66h-3.5V16.18z M22.41,15.52h-3.5v0.66h3.5L22.41,15.52z M4.05,19.04H3.38v3.49h0.67V19.04z
	 M21,19.04h-0.67v3.49H21V19.04z M15.35,12.65v-2.09h-0.67v2.09H15.35z M13.26,12.67c0.19,0,0.35-0.01,0.52,0
	c0.15,0.01,0.18-0.06,0.18-0.19c-0.01-0.59,0-1.17,0-1.76c0-0.05-0.01-0.1-0.02-0.16h-0.67V12.67z M12.54,11.62v-0.56
	c0-0.54,0-0.53-0.53-0.52c-0.15,0-0.18,0.06-0.18,0.19c0.01,0.47,0,0.94,0,1.41c0,0.55,0,0.55,0.55,0.52
	c0.13-0.01,0.16-0.05,0.16-0.17C12.53,12.21,12.54,11.92,12.54,11.62L12.54,11.62z M11.11,10.55c-0.2,0-0.38-0.01-0.56,0.01
	c-0.06,0.02-0.11,0.07-0.13,0.13c-0.01,0.61-0.01,1.23,0,1.84c0,0.05,0.06,0.13,0.09,0.13c0.2,0.01,0.39,0.01,0.6,0.01L11.11,10.55z
	 M9.02,10.56v2.09h0.67v-2.09H9.02z M6.2,16.21v0.68h2.08v-0.68H6.2z M18.17,16.21h-2.09v0.68h2.09L18.17,16.21z M18.17,8.45h-2.09
	v0.67h2.09L18.17,8.45z M6.2,9.12h2.09V8.45H6.2L6.2,9.12z M8.29,19.76H6.2v0.66h2.09L8.29,19.76z M16.08,20.42h2.09v-0.66h-2.09
	L16.08,20.42z"/>
</svg>
