<?xml version="1.0" encoding="utf-8"?>
<!-- Generator: Adobe Illustrator 25.3.1, SVG Export Plug-In . SVG Version: 6.00 Build 0)  -->
<svg version="1.1" id="Layer_1" xmlns="http://www.w3.org/2000/svg" xmlns:xlink="http://www.w3.org/1999/xlink" x="0px" y="0px"
	 viewBox="0 0 24 24" style="enable-background:new 0 0 24 24;" xml:space="preserve">
<style type="text/css">
	.st0{fill-rule:evenodd;clip-rule:evenodd;fill:#005897;}
	.st1{fill-rule:evenodd;clip-rule:evenodd;fill:#5D5E5E;}
	.st2{fill-rule:evenodd;clip-rule:evenodd;fill:#005897;stroke:#005897;stroke-width:0.25;stroke-miterlimit:10;}
	.st3{fill:#005897;}
	.st4{fill:#005897;stroke:#005897;stroke-width:0.25;stroke-miterlimit:10;}
	.st5{fill:#FBFBFB;}
	.st6{fill:#F6FAFD;}
	.st7{fill:#010201;}
	.st8{fill:#38ADE1;}
	.st9{fill:#005897;stroke:#FFFFFF;stroke-width:0.1;stroke-miterlimit:10;}
	.st10{fill:#005897;stroke:#005897;stroke-width:0.1;stroke-miterlimit:10;}
	.st11{fill:#005897;stroke:#005897;stroke-width:0.12;stroke-miterlimit:10;}
	.st12{fill:#174884;}
	.st13{fill:#9CBDD4;}
	.st14{fill:#FFFFFF;}
</style>
<g>
	<path class="st3" d="M18.13,20.62c-0.1-0.94-0.19-1.71-0.27-2.47c-0.25-2.4-0.11-4.79,0.38-7.15c0.07-0.34,0.02-0.5-0.38-0.47
		c-0.55,0.04-1.11,0.02-1.66,0c-0.33-0.01-0.37,0.09-0.31,0.4c0.37,1.68,0.51,3.39,0.48,5.12c0,0.22,0.12,0.52-0.33,0.51
		c-0.45-0.01-0.32-0.3-0.32-0.52c0.02-1.72-0.15-3.42-0.49-5.12c-0.13-0.67-0.59-0.39-0.87-0.36c-0.36,0.04-0.11,0.35-0.08,0.54
		c0.2,1.21,0.36,2.43,0.42,3.66c0.01,0.26,0.04,0.49-0.37,0.49c-0.44,0-0.27-0.3-0.28-0.49c-0.1-1.42-0.29-2.82-0.57-4.21
		c-0.2-1-0.05-2.03-0.07-3.05c0-0.14,0.08-0.24,0.21-0.28c0.09-0.03,0.27-0.06,0.14-0.18C13.1,6.44,13.51,5.68,13.4,5
		c-0.03-0.17,0.01-0.34-0.01-0.51c-0.01-0.22,0.03-0.36,0.3-0.34c0.21,0.01,0.39,0,0.35,0.29c-0.03,0.24,0.01,0.39,0.32,0.39
		c0.31,0,0.36-0.14,0.33-0.38c-0.04-0.29,0.14-0.28,0.35-0.3c0.26-0.01,0.33,0.1,0.32,0.34c-0.01,0.14-0.04,0.31,0.19,0.33
		c0.25,0.02,0.23-0.15,0.29-0.31c0.11-0.32,0.1-0.6-0.03-0.92c-0.26-0.62-0.03-1.13,0.47-1.5c0.49-0.37,1.03-0.34,1.54-0.01
		c0.49,0.32,0.68,0.95,0.49,1.52c-0.06,0.19-0.24,0.36-0.1,0.59c0.12,0.2-0.09,0.58,0.28,0.63c0.42,0.05,0.21-0.31,0.26-0.5
		c0.05-0.23,0.23-0.13,0.36-0.15c0.21-0.03,0.32,0.05,0.3,0.28c-0.03,0.23-0.01,0.4,0.32,0.4c0.28-0.01,0.39-0.1,0.35-0.37
		c-0.04-0.27,0.12-0.3,0.34-0.31c0.26-0.01,0.32,0.1,0.32,0.34c-0.01,0.59-0.03,1.19,0.01,1.78c0.03,0.38-0.23,0.57-0.41,0.82
		c0.27,0.16,0.4,0.36,0.41,0.71c0.02,1.45-0.11,2.87-0.36,4.29c-0.52,2.93-0.39,5.87,0.19,8.79c0.04,0.22,0.12,0.41,0.41,0.37
		c0.3-0.04,0.49,0.02,0.46,0.39c-0.03,0.41-0.34,0.25-0.52,0.25c-2.49,0.01-4.97,0.01-7.46,0.01c-3.87,0-7.74,0-11.61-0.01
		c-0.18,0-0.46,0.15-0.53-0.17c-0.05-0.25-0.06-0.54,0.35-0.48c0.4,0.07,0.6-0.14,0.81-0.45c0.76-1.12,1.55-2.22,2.33-3.33
		c0.71-1.02,1.63-1.77,2.74-2.3c0.6-0.28,1.31-1.53,1.25-2.21c-0.04-0.48,0.19-0.74,0.64-0.76c0.62-0.03,1.23-0.03,1.85,0
		c0.45,0.02,0.68,0.29,0.63,0.76c-0.07,0.68,0.65,1.92,1.28,2.21c1.14,0.54,2.06,1.32,2.78,2.36C16.66,18.52,17.35,19.5,18.13,20.62
		z M3.01,21.19c0.83,0.25,1.33-0.01,1.67-0.74c0.24-0.51,0.58-0.98,0.9-1.45c0.25-0.36,0.6-0.52,1.05-0.35
		c0.46,0.17,0.65,0.53,0.62,0.99c-0.02,0.38-0.08,0.76-0.15,1.13c-0.04,0.25-0.19,0.53,0.27,0.48c0.29-0.03,0.74,0.17,0.65-0.44
		c-0.02-0.15-0.02-0.3,0.01-0.44c0.13-0.48,0.46-0.77,0.96-0.77c0.5,0,0.84,0.27,0.96,0.76c0.04,0.14,0.04,0.3,0.03,0.44
		c-0.02,0.29,0.01,0.47,0.39,0.47c0.39-0.01,0.32-0.24,0.32-0.46c0.02-0.79,0.37-1.22,0.98-1.22c0.6,0,0.99,0.44,0.97,1.22
		c-0.02,0.61,0.37,0.41,0.67,0.44c0.47,0.05,0.31-0.28,0.29-0.5c-0.03-0.36-0.09-0.71-0.14-1.07c-0.06-0.51,0.14-0.87,0.63-1.05
		c0.48-0.17,0.83,0.04,1.08,0.43c0.3,0.46,0.65,0.9,0.87,1.4c0.33,0.76,0.86,0.94,1.66,0.72c-0.86-1.22-1.67-2.46-2.57-3.62
		c-2.47-3.17-7.25-3.12-9.67,0.1C4.63,18.79,3.86,19.98,3.01,21.19z M19.98,10.52c-0.46,0.1-0.96-0.29-1.12,0.56
		c-0.62,3.25-0.61,6.49,0.02,9.74c0.12,0.65,0.54,0.44,0.86,0.42c0.43-0.03,0.16-0.4,0.13-0.57c-0.28-1.46-0.43-2.94-0.46-4.42
		C19.37,14.35,19.6,12.47,19.98,10.52z M17.07,5.47c-0.79,0-1.57,0-2.36,0c-0.66,0-0.9,0.24-0.64,0.81c0.2,0.45,0.52,0.92,1.16,0.92
		c1.1,0,2.21-0.06,3.31,0.02c0.69,0.05,1.05-0.32,1.42-0.75c0.22-0.25,0.14-0.58,0.08-0.85c-0.07-0.27-0.36-0.13-0.55-0.14
		C18.69,5.46,17.88,5.47,17.07,5.47z M17.09,7.85c-1.81,0-1.81,0-1.73,1.61c0,0.02,0,0.04,0,0.06c-0.03,0.28,0.1,0.37,0.37,0.36
		c0.89-0.01,1.79-0.01,2.68,0c0.23,0,0.32-0.06,0.35-0.31c0.19-1.69,0.17-1.72-1.49-1.72C17.22,7.85,17.16,7.85,17.09,7.85z
		 M15.77,21.22c-0.34-0.55-0.63-1.04-0.94-1.5c-0.13-0.19-0.18-0.56-0.51-0.44c-0.29,0.1-0.16,0.41-0.13,0.62
		C14.44,21.62,14,21.22,15.77,21.22z M4.97,21.21c1.42,0.11,1.42,0.11,1.56-1.19c0.01-0.1,0.04-0.21,0.06-0.31
		c0.05-0.18,0.02-0.35-0.16-0.44c-0.21-0.11-0.31,0.09-0.39,0.22C5.69,20.04,5.35,20.6,4.97,21.21z M17.09,3.81
		c0.41-0.03,0.67-0.27,0.65-0.69c-0.02-0.41-0.28-0.65-0.71-0.63c-0.41,0.01-0.64,0.29-0.64,0.65C16.39,3.53,16.64,3.79,17.09,3.81z
		 M8.98,14.62c0.94,0,1.87-0.11,2.81,0.08c-0.34-0.76-0.35-0.77-1-0.55c-0.3,0.1-0.59,0.14-0.86-0.02
		C9.41,13.8,9.15,14.03,8.98,14.62z M14.71,8.87c0-0.23-0.01-0.47,0-0.7c0.02-0.24-0.06-0.34-0.32-0.33
		c-0.22,0.01-0.36,0.02-0.35,0.3c0.02,0.46,0.01,0.93,0,1.4c-0.01,0.23,0.06,0.33,0.32,0.34c0.3,0.01,0.36-0.12,0.34-0.38
		C14.7,9.3,14.71,9.09,14.71,8.87z M19.41,8.82c0,0.23,0.01,0.47,0,0.7c-0.02,0.27,0.07,0.37,0.36,0.37c0.27,0,0.32-0.12,0.32-0.35
		c-0.01-0.47-0.02-0.94,0-1.4c0.01-0.3-0.16-0.29-0.36-0.29c-0.2,0-0.33,0.03-0.31,0.27C19.42,8.35,19.41,8.58,19.41,8.82z
		 M9.43,12.87c0.25,0.46,0.55,0.71,0.99,0.68c0.38-0.03,0.7-0.23,0.83-0.68C10.64,12.87,10.09,12.87,9.43,12.87z M8.7,20.85
		c0.03,0.14-0.12,0.41,0.29,0.42c0.34,0,0.39-0.13,0.37-0.41c-0.02-0.25,0.04-0.57-0.3-0.6C8.71,20.23,8.67,20.51,8.7,20.85z
		 M12.03,20.85c0-0.28,0.03-0.6-0.32-0.6c-0.34,0-0.35,0.29-0.34,0.56c0.01,0.23-0.06,0.45,0.32,0.45
		C12.06,21.26,12.05,21.07,12.03,20.85z M17.04,4.84c0.17-0.14,0.63,0.18,0.56-0.23c-0.07-0.43-0.53,0.01-0.79-0.16
		c-0.13-0.08-0.33-0.03-0.31,0.17C16.54,5,16.86,4.73,17.04,4.84z"/>
	<path class="st3" d="M12.93,17.69c-0.01,0.68-0.61,1.23-1.27,1.06c-0.86-0.22-1.7-0.23-2.56-0.01c-0.53,0.14-0.95-0.11-1.19-0.6
		c-0.25-0.49-0.14-0.94,0.27-1.31c1.28-1.17,3.04-1.18,4.35-0.03C12.84,17.08,12.93,17.3,12.93,17.69z M11.78,18.12
		c0.2,0.02,0.39-0.07,0.47-0.29c0.07-0.21,0-0.4-0.19-0.55c-1.04-0.88-2.36-0.88-3.4,0.01c-0.18,0.15-0.28,0.33-0.18,0.55
		c0.09,0.21,0.28,0.33,0.51,0.27C9.91,17.86,10.83,17.85,11.78,18.12z"/>
</g>
</svg>
