<?xml version="1.0" encoding="utf-8"?>
<!-- Generator: Adobe Illustrator 16.0.0, SVG Export Plug-In . SVG Version: 6.00 Build 0)  -->
<!DOCTYPE svg PUBLIC "-//W3C//DTD SVG 1.1//EN" "http://www.w3.org/Graphics/SVG/1.1/DTD/svg11.dtd">
<svg version="1.1" id="Group_199" xmlns="http://www.w3.org/2000/svg" xmlns:xlink="http://www.w3.org/1999/xlink" x="0px" y="0px"
	 width="24px" height="24px" viewBox="38.385 49.452 24 24" enable-background="new 38.385 49.452 24 24" xml:space="preserve">
<g>
	<path id="Path_437" fill="#004686" d="M51.752,49.452c0.104,0.046,0.203,0.109,0.287,0.188c0.164,0.202,0.422,0.3,0.678,0.257
		c0.427-0.016,0.854-0.007,1.283-0.004c0.535,0.005,0.787,0.258,0.789,0.786c0,0.17,0,0.341,0,0.549h0.49
		c0.405,0,0.809-0.002,1.213,0c0.522-0.026,0.967,0.376,0.994,0.898c0,0.034,0,0.068,0,0.102c0.002,0.574,0,1.147,0,1.75
		c0.11,0,0.2-0.002,0.291,0c0.452-0.005,0.821,0.357,0.827,0.809c0,0.007,0,0.014,0,0.021c0.007,0.325,0.003,0.65,0.003,0.972
		c0.664,0.107,0.887,0.375,0.887,1.043c0,0.262,0,0.524,0,0.793c0.078,0.004,0.132,0.009,0.185,0.011
		c0.468,0.023,0.679,0.362,0.494,0.791c-0.024,0.065-0.054,0.13-0.086,0.191c-0.406,0.667-0.582,1.449-0.502,2.225
		c0.043,0.184-0.07,0.37-0.255,0.413c-0.032,0.008-0.063,0.01-0.096,0.009c-0.211-0.004-0.341-0.158-0.343-0.413
		c-0.002-0.279,0-0.558,0-0.857h-4.088v4.629h4.088v-0.246c0-0.599,0-1.197,0-1.796c0-0.371,0.099-0.521,0.345-0.523
		c0.244-0.003,0.354,0.151,0.354,0.513c0,3.259,0,6.518,0,9.774v0.312c0.103,0,0.192-0.006,0.28,0.001
		c0.187,0.009,0.33,0.166,0.322,0.352c0,0.002,0,0.006,0,0.008c0.002,0.18-0.14,0.33-0.322,0.335
		c-0.062,0.004-0.123,0.005-0.187,0.002H41.279c-0.063,0.003-0.124,0.002-0.187-0.003c-0.191-0.021-0.328-0.193-0.308-0.384
		c0.018-0.16,0.144-0.288,0.305-0.307c0.102-0.008,0.203-0.009,0.304-0.003v-0.265c0-1.081,0-2.162,0-3.242
		c-0.002-0.063-0.001-0.125,0.003-0.188c0.015-0.188,0.178-0.329,0.366-0.316c0.181,0,0.327,0.146,0.327,0.327v0.001
		c0.009,0.124,0.004,0.248,0.004,0.374c0,1.011,0,2.021,0,3.032v0.262h3.992v-5.802h-3.992c0,0.198,0.002,0.399,0,0.598
		c-0.003,0.267-0.12,0.408-0.336,0.413c-0.226,0.007-0.362-0.145-0.362-0.415c-0.001-2.402,0-4.806,0.001-7.208
		c0.009-0.215-0.038-0.428-0.136-0.619c-0.204-0.382-0.368-0.787-0.543-1.185c-0.188-0.427,0.026-0.766,0.494-0.789
		c0.053-0.002,0.106-0.006,0.184-0.011v-0.794c0-0.668,0.221-0.933,0.888-1.043c0-0.275,0.017-0.555-0.003-0.832
		c-0.064-0.471,0.265-0.905,0.736-0.969c0.07-0.01,0.142-0.01,0.213-0.002c0.059,0,0.117-0.001,0.175-0.008v-0.246
		c0-0.491-0.001-0.98,0-1.47c-0.042-0.523,0.349-0.98,0.872-1.022c0.048-0.003,0.096-0.003,0.144,0c0.551-0.002,1.102,0,1.68,0
		c0-0.22-0.003-0.419,0-0.619c-0.026-0.366,0.249-0.684,0.614-0.711c0.028-0.001,0.055-0.002,0.082,0
		c0.512-0.015,1.026-0.011,1.539-0.001c0.162,0.012,0.321-0.053,0.431-0.174c0.115-0.102,0.24-0.192,0.371-0.271L51.752,49.452z
		 M47.503,64.62c0-0.199-0.007-0.376,0-0.553c0.087-1.993,2.239-3.338,4.07-2.544c0.246,0.106,0.343,0.289,0.261,0.493
		c-0.078,0.188-0.274,0.242-0.514,0.172c-0.247-0.089-0.504-0.147-0.766-0.176c-1.229-0.069-2.28,0.872-2.349,2.102
		c-0.003,0.052-0.004,0.103-0.003,0.154c-0.005,2.723-0.005,5.443,0,8.164c0,0.066,0.008,0.134,0.013,0.2h4.474V72.34
		c0-2.612-0.006-5.225,0.004-7.837c0.022-0.498-0.092-0.993-0.332-1.431c-0.104-0.158-0.062-0.37,0.097-0.476
		c0.006-0.004,0.012-0.008,0.021-0.012c0.147-0.103,0.353-0.065,0.455,0.085c0.014,0.021,0.024,0.042,0.034,0.064
		c0.152,0.296,0.271,0.606,0.357,0.927c0.055,0.315,0.086,0.635,0.096,0.955h0.647v-4.631h-7.252v4.635H47.503z M54.802,72.631
		h4.073v-5.807h-4.073V72.631z M58.767,57.622c0.011-0.02,0.021-0.042,0.024-0.064c0.003-0.226,0.007-0.451,0.007-0.677
		c0-0.375,0-0.375-0.373-0.375H42.468c-0.069-0.01-0.14-0.007-0.208,0.007c-0.062,0.023-0.153,0.086-0.156,0.135
		c-0.013,0.322-0.007,0.646-0.007,0.975H58.767z M47.228,53.967c0-0.228-0.001-0.436,0-0.645c0.003-0.454,0.243-0.722,0.698-0.724
		c1.679-0.008,3.358-0.008,5.038,0c0.455,0.002,0.695,0.269,0.699,0.724c0.002,0.214,0,0.428,0,0.636h3.092
		c0.011-0.02,0.017-0.041,0.021-0.063c0.003-0.513,0.005-1.026,0.005-1.539c0-0.375-0.052-0.426-0.433-0.426H44.545
		c-0.039,0-0.078,0.001-0.117,0c-0.147-0.027-0.288,0.07-0.315,0.217c-0.005,0.03-0.006,0.062-0.001,0.092c0,0.264,0,0.529,0,0.793
		c0,0.309,0,0.618,0,0.935H47.228z M57.905,55.789c0-0.255,0-0.494,0-0.733c0-0.377,0-0.377-0.369-0.377H43.35
		c-0.062,0-0.136-0.021-0.184,0.005c-0.069,0.038-0.167,0.106-0.17,0.166c-0.017,0.309-0.008,0.618-0.008,0.94H57.905z
		 M59.425,58.355H41.467c0.107,0.241,0.215,0.455,0.295,0.677c0.042,0.159,0.198,0.259,0.36,0.232
		c5.549-0.005,11.099-0.007,16.648-0.004c0.039,0.006,0.078,0.006,0.117-0.002c0.063-0.027,0.149-0.054,0.177-0.106
		c0.125-0.25,0.231-0.507,0.36-0.797V58.355z M42.102,64.617h3.979v-4.634h-3.979L42.102,64.617z M54.076,50.608
		c-0.56,0-1.103-0.014-1.644,0.006c-0.275,0.033-0.546-0.083-0.714-0.303c-0.09-0.119-0.235-0.181-0.383-0.163
		c-0.606,0.009-1.213-0.003-1.819,0.009c-0.119,0.003-0.233,0.051-0.318,0.135c-0.192,0.24-0.497,0.361-0.802,0.321
		c-0.348-0.024-0.7-0.006-1.049-0.006h-0.534v0.606h7.265L54.076,50.608z M58.884,65.365h-5.476v0.731h5.476V65.365z M46.819,66.818
		v5.813h0.66v-5.813H46.819z M54.07,72.638v-5.809h-0.653v5.809H54.07z M42.105,66.1h5.375v-0.733h-5.376L42.105,66.1z
		 M52.948,53.335h-5.006v0.622h5.004L52.948,53.335z"/>
	<path id="Path_438" fill="#004686" d="M55.347,62.204c0.012-0.785,0.657-1.411,1.442-1.398c0.774,0.012,1.396,0.641,1.399,1.414
		c0.005,0.786-0.631,1.424-1.414,1.429c-0.786,0.004-1.426-0.63-1.428-1.415C55.347,62.224,55.347,62.214,55.347,62.204z
		 M56.043,62.224c0.007,0.398,0.334,0.717,0.734,0.711c0.397-0.006,0.715-0.334,0.709-0.733c-0.007-0.394-0.328-0.71-0.722-0.71
		C56.367,61.503,56.05,61.826,56.043,62.224L56.043,62.224z"/>
	<path id="Path_442" fill="#9BBDD4" d="M47.228,53.967h-3.117c0-0.317,0-0.626,0-0.935c0-0.264,0-0.529,0-0.793
		c-0.024-0.147,0.076-0.286,0.223-0.31c0.031-0.004,0.062-0.004,0.093,0.001c0.039,0.001,0.078,0,0.117,0h11.801
		c0.383,0,0.435,0.051,0.435,0.426c0,0.513-0.002,1.026-0.005,1.539c-0.004,0.021-0.012,0.042-0.021,0.063h-3.092
		c0-0.208,0.002-0.422,0-0.636c-0.002-0.455-0.244-0.722-0.699-0.724c-1.679-0.008-3.358-0.008-5.038,0
		c-0.454,0.002-0.694,0.271-0.697,0.724C47.227,53.532,47.228,53.74,47.228,53.967z"/>
	<path id="Path_443" fill="#9BBDD4" d="M57.905,55.789H42.988c0-0.323-0.009-0.632,0.008-0.94c0.003-0.06,0.101-0.128,0.17-0.166
		c0.049-0.026,0.122-0.005,0.184-0.005h14.187c0.367,0,0.367,0,0.367,0.377C57.905,55.296,57.905,55.534,57.905,55.789z"/>
	<path id="Path_446" fill="#9BBDD4" d="M54.078,50.608v0.606h-7.263v-0.606h0.534c0.35,0,0.701-0.019,1.049,0.005
		c0.306,0.041,0.61-0.081,0.803-0.321c0.085-0.083,0.199-0.131,0.317-0.135c0.606-0.013,1.213,0,1.82-0.01
		c0.146-0.017,0.292,0.045,0.382,0.163c0.168,0.222,0.439,0.336,0.714,0.304C52.976,50.593,53.519,50.608,54.078,50.608z"/>
	<path id="Path_448" fill="#9BBDD4" d="M46.818,66.818h0.66v5.813h-0.66V66.818z"/>
	<path id="Path_449" fill="#9BBDD4" d="M54.07,72.637h-0.655v-5.808h0.653L54.07,72.637z"/>
	<path id="Path_452" fill="#9BBDD4" d="M56.043,62.224c-0.006-0.398,0.312-0.727,0.711-0.733c0.398-0.006,0.726,0.311,0.732,0.709
		l0,0c0.008,0.398-0.31,0.727-0.709,0.732C56.379,62.941,56.052,62.622,56.043,62.224L56.043,62.224z"/>
	<path id="Path_453" fill="#004686" d="M44.125,60.793c0.785,0,1.421,0.636,1.421,1.421c0,0.785-0.636,1.422-1.421,1.422
		c-0.785,0-1.421-0.637-1.421-1.422C42.704,61.429,43.34,60.793,44.125,60.793z M44.846,62.212c0-0.399-0.322-0.722-0.721-0.723
		c-0.398,0-0.722,0.323-0.722,0.72l0,0c0,0.4,0.322,0.724,0.721,0.724S44.845,62.612,44.846,62.212z"/>
	<path id="Path_454" fill="#9BBDD4" d="M44.846,62.213c0,0.398-0.323,0.722-0.722,0.722s-0.722-0.323-0.722-0.721
		c0-0.396,0.317-0.717,0.712-0.723C44.513,61.497,44.836,61.815,44.846,62.213z"/>
</g>
</svg>
