<?xml version="1.0" encoding="utf-8"?>
<!-- Generator: Adobe Illustrator 25.3.1, SVG Export Plug-In . SVG Version: 6.00 Build 0)  -->
<svg version="1.1" id="Layer_1" xmlns="http://www.w3.org/2000/svg" xmlns:xlink="http://www.w3.org/1999/xlink" x="0px" y="0px"
	 viewBox="0 0 24 24" style="enable-background:new 0 0 24 24;" xml:space="preserve">
<style type="text/css">
	.st0{fill-rule:evenodd;clip-rule:evenodd;fill:#005897;}
	.st1{fill-rule:evenodd;clip-rule:evenodd;fill:#5D5E5E;}
	.st2{fill-rule:evenodd;clip-rule:evenodd;fill:#005897;stroke:#005897;stroke-width:0.25;stroke-miterlimit:10;}
	.st3{fill:#005897;}
	.st4{fill:#005897;stroke:#005897;stroke-width:0.25;stroke-miterlimit:10;}
	.st5{fill:#FBFBFB;}
	.st6{fill:#F6FAFD;}
	.st7{fill:#010201;}
	.st8{fill:#38ADE1;}
	.st9{fill:#005897;stroke:#FFFFFF;stroke-width:0.1;stroke-miterlimit:10;}
	.st10{fill:#005897;stroke:#005897;stroke-width:0.1;stroke-miterlimit:10;}
	.st11{fill:#005897;stroke:#005897;stroke-width:0.12;stroke-miterlimit:10;}
	.st12{fill:#174884;}
	.st13{fill:#9CBDD4;}
	.st14{fill:#FFFFFF;}
</style>
<g>
	<path class="st3" d="M4.02,13.12c0.34-0.28,0.7-0.41,1.08-0.48c0.15-0.03,0.32-0.01,0.26-0.23c-0.05-0.16,0.19-0.46-0.21-0.47
		c-0.25-0.01-0.14-0.22-0.14-0.33c0-0.12-0.11-0.32,0.13-0.34c0.16-0.01,0.21-0.05,0.24-0.22c0.06-0.49,0.35-0.81,0.78-1.04
		c0.3-0.16,0.31-0.61,0.02-0.8c-0.2-0.13-0.18-0.6,0.04-0.66c0.2-0.05,0.19-0.18,0.22-0.32c0.33-1.98,1.95-3.43,3.95-3.47
		c0.36-0.01,0.49-0.08,0.45-0.45c-0.05-0.43,0.1-0.8,0.49-1.03c0.33-0.19,0.13-0.49,0.18-0.74c0.04-0.23-0.14-0.55,0.35-0.54
		c0.46,0.01,0.33,0.29,0.32,0.51c0,0.38-0.01,0.7,0.39,0.94c0.3,0.18,0.34,0.58,0.29,0.93c-0.04,0.3,0.07,0.37,0.37,0.38
		c2.09,0.05,3.65,1.42,4.02,3.49c0.03,0.15,0.04,0.26,0.24,0.3c0.19,0.04,0.21,0.54,0.04,0.66c-0.34,0.25-0.32,0.63,0.06,0.84
		c0.33,0.18,0.55,0.44,0.68,0.79c0.07,0.18-0.02,0.47,0.35,0.45c0.12,0,0.09,0.63-0.06,0.64c-0.42,0.03-0.21,0.33-0.24,0.51
		c-0.05,0.29,0.21,0.17,0.34,0.21c0.35,0.11,0.71,0.21,1,0.47c0.15-0.29,0.02-0.52-0.1-0.71c-0.17-0.28-0.19-0.58-0.18-0.88
		c0-0.06,0-0.18,0.02-0.18c0.57-0.14,0.28-0.59,0.31-0.9c0.04-0.35,0.09-0.72-0.26-1.03c-0.23-0.2-0.06-1.03,0.19-1.25
		c0.09-0.08,0.09-0.17,0.08-0.26c-0.12-1.25,0.2-2.44,0.54-3.62c0.19-0.64,0.15-1.28,0.14-1.93c0-0.28,0.09-0.34,0.36-0.35
		c0.3-0.01,0.31,0.13,0.3,0.35c-0.08,0.93,0.1,1.83,0.37,2.72c0.27,0.87,0.37,1.77,0.32,2.68c-0.01,0.19-0.1,0.44,0.26,0.45
		c0.15,0,0.11,0.18,0.1,0.28c-0.02,0.42,0.02,0.8-0.28,1.22c-0.27,0.38-0.06,0.97-0.08,1.47c0.83,0.46,0.2,0.98,0.05,1.46
		c-0.06,0.18-0.05,0.35-0.05,0.53c0,2.74,0,5.48,0,8.22c0,0.2-0.15,0.49,0.28,0.53c0.17,0.01,0.07,0.34,0.07,0.52
		c0.01,0.18-0.15,0.12-0.25,0.13c-0.11,0.01-0.23,0-0.34,0c-6.47,0-12.94,0-19.41-0.01c-0.17,0-0.45,0.12-0.5-0.11
		c-0.04-0.19-0.21-0.57,0.27-0.6c0.12-0.01,0.07-0.19,0.07-0.3c0-2.87,0-5.74,0.01-8.61c0-0.25-0.11-0.44-0.23-0.63
		c-0.17-0.27-0.14-0.56-0.14-0.85c0-0.06,0.01-0.16,0.05-0.17c0.13-0.05,0.35,0.03,0.32-0.24c-0.05-0.46,0.19-1.02-0.1-1.37
		C1.53,9.28,1.6,8.91,1.58,8.5C1.57,8.35,1.54,8.18,1.8,8.17c0.19,0,0.16-0.18,0.14-0.3C1.81,6.55,2.18,5.31,2.53,4.07
		c0.16-0.57,0.09-1.16,0.1-1.74c0-0.21,0.02-0.34,0.28-0.32c0.19,0.02,0.41-0.05,0.37,0.27C3.15,3.51,3.51,4.65,3.82,5.8
		C3.99,6.4,3.95,6.99,3.97,7.59c0.01,0.24-0.16,0.56,0.28,0.64c0.1,0.02,0.09,1.09-0.03,1.21c-0.5,0.51-0.19,1.14-0.23,1.71
		c-0.01,0.14,0.4,0.16,0.33,0.5c-0.05,0.25-0.05,0.5-0.18,0.74C4.02,12.58,3.89,12.8,4.02,13.12z M11.84,8.53
		C11.84,8.54,11.84,8.54,11.84,8.53c1.46,0,2.92-0.01,4.37,0.01c0.38,0.01,0.43-0.14,0.35-0.44c-0.37-1.36-1.22-2.29-2.61-2.57
		c-1.26-0.26-2.55-0.15-3.82-0.07C8.68,5.55,7.46,6.69,7.14,8.05c-0.08,0.32-0.08,0.51,0.38,0.5C8.96,8.51,10.4,8.53,11.84,8.53z
		 M11.84,15.01c-2.35,0-4.7,0-7.05,0c-0.83,0-0.84,0-0.82,0.85c0.01,0.4-0.18,0.95,0.08,1.16c0.25,0.2,0.77,0.05,1.17,0.08
		c0.33,0.03,0.47-0.03,0.48-0.43c0.01-0.6,0.48-0.96,1.07-0.94c0.55,0.02,0.95,0.41,0.94,1.01c-0.01,0.34,0.13,0.36,0.4,0.36
		c2.4-0.01,4.8,0,7.2,0c0.66,0,0.66,0,0.67-0.66c0.01-0.59,0.41-1.04,0.96-1.07c0.52-0.03,0.98,0.38,1.07,0.93
		c0.04,0.26-0.13,0.64,0.1,0.77c0.22,0.13,0.57,0.04,0.86,0.04c0.15,0,0.29-0.01,0.44,0c0.25,0.03,0.35-0.06,0.34-0.32
		c-0.02-0.42-0.03-0.85,0-1.26c0.03-0.4-0.09-0.52-0.5-0.52C16.77,15.02,14.31,15.01,11.84,15.01z M11.87,9.21
		c-1.46,0-2.92,0.02-4.37-0.01C7.04,9.19,7,9.37,7.03,9.73c0.02,0.19,0.11,0.23,0.25,0.3c0.33,0.14,0.62,0.38,0.67,0.72
		c0.08,0.53,0.38,0.58,0.8,0.53c0.1-0.01,0.19,0,0.29,0c0.22,0,0.43-0.06,0.43,0.32c0,0.37-0.16,0.38-0.43,0.37
		c-0.21-0.01-0.42,0.01-0.63-0.01c-0.24-0.02-0.34,0.04-0.33,0.31c0.02,0.6,0.01,1.2,0,1.8c0,0.21,0.03,0.35,0.29,0.31
		c0.19-0.03,0.38,0.07,0.42-0.28c0.18-1.66,1.45-2.81,3.03-2.82c1.62,0,2.89,1.14,3.08,2.82c0.04,0.35,0.23,0.26,0.42,0.28
		c0.26,0.03,0.29-0.1,0.29-0.31c-0.01-0.37,0-0.75,0-1.12c0-0.98,0-0.99-0.96-0.98c-0.27,0-0.43,0-0.43-0.37
		c0-0.38,0.21-0.32,0.43-0.32c0.21,0,0.42-0.02,0.63,0c0.24,0.02,0.34-0.06,0.38-0.3c0.07-0.45,0.33-0.79,0.75-0.94
		c0.38-0.14,0.23-0.42,0.24-0.64c0-0.31-0.26-0.17-0.4-0.17C14.79,9.21,13.33,9.21,11.87,9.21z M11.85,21.88c2.34,0,4.67,0,7.01,0
		c0.88,0,0.86,0,0.89-0.88c0.02-0.41-0.09-0.5-0.5-0.5c-4.78,0.02-9.57,0.01-14.35,0.01c-0.93,0-0.91,0-0.94,0.93
		c-0.01,0.37,0.09,0.45,0.45,0.45C6.88,21.87,9.37,21.88,11.85,21.88z M11.8,14.37c0.7,0,1.39-0.01,2.09,0.01
		c0.26,0.01,0.37-0.04,0.35-0.34c-0.09-1.1-1.19-2.08-2.36-2.08c-1.21,0-2.33,0.98-2.41,2.08c-0.02,0.29,0.08,0.35,0.35,0.34
		C10.47,14.35,11.13,14.37,11.8,14.37z M11.85,17.76c-1.17,0-2.33,0-3.5,0c-0.63,0-0.64,0-0.62,0.65c0.01,0.46-0.21,1.1,0.09,1.34
		c0.29,0.23,0.9,0.06,1.36,0.08c0.21,0.01,0.31-0.04,0.38-0.26c0.26-0.87,0.87-1.35,1.75-1.44c1.03-0.11,2.12-0.08,2.6,1
		c0.31,0.71,0.73,0.75,1.32,0.7c0.14-0.01,0.29-0.01,0.44,0c0.23,0.02,0.31-0.07,0.3-0.3c-0.02-0.42-0.03-0.84,0-1.26
		c0.03-0.39-0.07-0.53-0.49-0.52C14.28,17.78,13.06,17.76,11.85,17.76z M3.32,17.44c0-1.36,0-2.72,0-4.09c0-0.25,0-0.42-0.35-0.42
		c-0.34,0-0.4,0.13-0.4,0.43c0.01,2.71,0.01,5.42,0,8.13c0,0.32,0.09,0.4,0.41,0.41c0.35,0.01,0.34-0.17,0.34-0.41
		C3.32,20.13,3.32,18.79,3.32,17.44z M20.38,17.41C20.38,17.41,20.37,17.41,20.38,17.41c0,1.36,0.01,2.72-0.01,4.09
		c0,0.28,0.04,0.41,0.36,0.39c0.28-0.01,0.39-0.06,0.39-0.37c-0.01-2.72-0.01-5.45,0-8.17c0-0.33-0.11-0.4-0.42-0.41
		c-0.37-0.01-0.33,0.2-0.33,0.44C20.38,14.72,20.38,16.06,20.38,17.41z M3.96,18.77c0,0.28,0,0.55,0,0.82
		c0,0.15,0.05,0.24,0.22,0.23c0.48-0.02,1.05,0.13,1.42-0.08c0.27-0.15,0.05-0.78,0.08-1.19c0-0.02,0-0.03,0-0.05
		c0-0.74,0-0.74-0.72-0.74C3.96,17.76,3.96,17.76,3.96,18.77z M19.73,18.81c0-1.05,0-1.05-1.05-1.05c-0.13,0-0.26,0.01-0.39,0
		c-0.2-0.02-0.29,0.05-0.28,0.27c0.01,0.52,0.01,1.04,0,1.56c0,0.19,0.06,0.27,0.25,0.25c0.14-0.01,0.29,0,0.44,0
		C19.73,19.83,19.73,19.83,19.73,18.81z M7.41,13.19c0-0.34,0.08-0.71-0.02-1.01c-0.17-0.51-0.65-0.13-0.98-0.22
		c-0.14-0.04-0.4-0.12-0.39,0.23c0.02,0.63,0.01,1.26,0,1.89c0,0.24,0.1,0.28,0.32,0.29c1.07,0.04,1.07,0.05,1.07-1.03
		C7.41,13.29,7.41,13.24,7.41,13.19z M17.66,13.17c0-0.06,0-0.13,0-0.19c0-1.06,0-1.05-1.07-1.03c-0.25,0.01-0.34,0.06-0.32,0.32
		c0.02,0.48,0.01,0.97,0.01,1.45c0,0.65,0,0.65,0.63,0.65c0.75,0,0.75,0,0.76-0.76C17.66,13.46,17.66,13.31,17.66,13.17z
		 M13.48,19.82c-0.19-0.89-0.95-1.12-1.94-1.05c-0.7,0.04-1.19,0.43-1.3,1.05C11.3,19.82,12.37,19.82,13.48,19.82z M7.06,18.83
		c0-0.24-0.02-0.48,0-0.72c0.03-0.27-0.07-0.36-0.35-0.35c-0.24,0.01-0.39,0.02-0.37,0.33c0.03,0.43,0.01,0.87,0,1.3
		c0,0.24-0.05,0.46,0.35,0.46c0.38,0,0.37-0.18,0.36-0.44C7.05,19.22,7.06,19.02,7.06,18.83z M17.34,18.81c0-0.21-0.01-0.42,0-0.63
		c0.02-0.28-0.01-0.43-0.37-0.43c-0.34,0-0.35,0.16-0.34,0.41c0.01,0.42,0.01,0.84,0,1.26c-0.01,0.27,0,0.43,0.37,0.43
		c0.41,0.01,0.34-0.22,0.34-0.46C17.34,19.19,17.34,19,17.34,18.81z M4.01,14.37c0.4,0,0.74,0,1.08,0c0.13,0,0.29,0.01,0.27-0.18
		c-0.03-0.29,0.17-0.69-0.09-0.85c-0.25-0.15-0.58,0.1-0.82,0.29C4.23,13.81,4.1,14.04,4.01,14.37z M3.32,7.5
		c0-0.05,0.01-0.11,0-0.18C3.29,7.09,3.45,6.78,2.97,6.77C2.45,6.76,2.59,7.08,2.58,7.34c-0.01,0.19,0.01,0.39,0,0.58
		C2.56,8.14,2.67,8.18,2.86,8.2C3.5,8.28,3.29,7.82,3.32,7.5z M19.68,14.37c-0.15-0.58-0.51-0.87-0.99-1.03
		c-0.25-0.08-0.38-0.04-0.37,0.27c0.03,0.93-0.11,0.72,0.72,0.75C19.23,14.38,19.43,14.37,19.68,14.37z M20.37,7.48
		c0,0.16,0.01,0.32,0,0.48c-0.01,0.3,0.21,0.22,0.37,0.23c0.16,0.01,0.38,0.07,0.37-0.23c-0.01-0.32,0-0.64,0-0.96
		c0-0.13-0.06-0.19-0.2-0.21C20.43,6.7,20.38,6.77,20.37,7.48z M21.11,10.63c0-0.09,0-0.14,0-0.18c-0.02-0.26,0.13-0.58-0.38-0.57
		c-0.49,0.01-0.33,0.31-0.35,0.55c-0.01,0.13,0,0.26,0,0.39c0,0.44,0.16,0.59,0.57,0.45C21.31,11.14,21.01,10.81,21.11,10.63z
		 M3.32,10.58C3.32,10.58,3.32,10.58,3.32,10.58c0-0.05,0-0.1,0-0.15C3.3,10.18,3.44,9.87,2.93,9.88C2.44,9.89,2.6,10.2,2.58,10.43
		c-0.01,0.18,0.02,0.36-0.01,0.53c-0.05,0.35,0.19,0.3,0.4,0.3c0.22,0.01,0.39,0,0.35-0.3C3.3,10.85,3.32,10.71,3.32,10.58z
		 M16.95,11.26c0.06,0,0.13,0.02,0.19,0c0.16-0.05,0.44,0.14,0.48-0.12c0.04-0.26-0.18-0.44-0.42-0.52c-0.2-0.07-0.41-0.07-0.6,0.07
		c-0.16,0.12-0.34,0.29-0.3,0.47c0.05,0.23,0.3,0.06,0.45,0.1C16.82,11.28,16.89,11.26,16.95,11.26z M7.41,11.26
		c-0.06-0.4-0.25-0.63-0.61-0.68c-0.3-0.04-0.54,0.07-0.68,0.35c-0.09,0.18-0.15,0.34,0.17,0.33C6.65,11.26,7.01,11.26,7.41,11.26z
		 M17.34,16.69c0.02-0.3,0.01-0.63-0.35-0.64c-0.39-0.01-0.34,0.34-0.35,0.61c-0.01,0.24-0.05,0.46,0.35,0.45
		C17.36,17.11,17.37,16.94,17.34,16.69z M12.18,4.35c0.04-0.29-0.04-0.57-0.36-0.55c-0.32,0.02-0.31,0.33-0.33,0.6
		c-0.02,0.31,0.09,0.36,0.37,0.37C12.24,4.78,12.2,4.57,12.18,4.35z M2.92,9.22c0.12,0,0.2,0,0.28,0c0.19,0,0.44,0.03,0.42-0.25
		C3.6,8.72,3.36,8.87,3.22,8.84c-0.09-0.02-0.2-0.03-0.29,0C2.71,8.91,2.3,8.66,2.29,8.99C2.28,9.39,2.72,9.14,2.92,9.22z
		 M20.79,8.84c-0.15,0-0.29-0.01-0.44,0c-0.11,0.01-0.29-0.08-0.28,0.14c0,0.18,0.13,0.24,0.3,0.24c0.24,0,0.48,0,0.73,0
		c0.18,0,0.35-0.05,0.33-0.25c-0.02-0.22-0.22-0.1-0.35-0.13C20.99,8.82,20.89,8.84,20.79,8.84z M6.66,17.1
		c0.2,0,0.43,0.07,0.4-0.26C7.04,16.6,6.98,16.4,6.71,16.4c-0.26,0-0.34,0.19-0.36,0.43C6.33,17.11,6.48,17.12,6.66,17.1z
		 M2.35,11.96c0.09,0.52,0.47,0.31,0.74,0.35c0.25,0.04,0.45-0.03,0.46-0.35C3.16,11.96,2.78,11.96,2.35,11.96z M21.33,11.97
		c-0.4,0-0.79,0-1.19,0c0.1,0.54,0.5,0.29,0.78,0.34C21.17,12.36,21.32,12.25,21.33,11.97z M2.98,5.23C2.8,5.46,2.83,5.69,2.75,5.9
		C2.73,5.96,2.7,6.08,2.79,6.11c0.1,0.03,0.23,0.03,0.33,0c0.11-0.03,0.04-0.13,0.02-0.2C3.1,5.69,3.04,5.49,2.98,5.23z M20.78,5.28
		c-0.03,0-0.06,0-0.08,0c-0.05,0.2-0.1,0.4-0.14,0.6c-0.01,0.07-0.1,0.17,0.01,0.21c0.1,0.04,0.22,0.04,0.33,0.02
		c0.11-0.02,0.07-0.13,0.06-0.2C20.9,5.7,20.83,5.49,20.78,5.28z"/>
	<path class="st3" d="M8.78,16.04c0-0.13,0.02-0.26,0-0.39c-0.04-0.29,0.13-0.29,0.34-0.3c0.22,0,0.38,0.02,0.35,0.3
		c-0.02,0.19,0,0.39-0.01,0.58c-0.01,0.23,0.12,0.5-0.34,0.5c-0.46,0-0.32-0.28-0.34-0.5C8.77,16.17,8.78,16.1,8.78,16.04z"/>
	<path class="st3" d="M10.14,16c0.01-0.32-0.14-0.75,0.48-0.64c0.35,0.06,0.21,0.31,0.19,0.44c-0.06,0.31,0.26,0.75-0.18,0.91
		C10.19,16.86,10.14,16.77,10.14,16z"/>
	<path class="st3" d="M12.19,16.04c0,0.13-0.02,0.26,0,0.39c0.04,0.29-0.11,0.31-0.34,0.3c-0.21-0.01-0.39,0.01-0.35-0.3
		c0.03-0.19,0-0.39,0.01-0.58c0.01-0.23-0.12-0.5,0.34-0.5c0.46,0,0.33,0.27,0.34,0.5C12.19,15.91,12.19,15.97,12.19,16.04z"/>
	<path class="st3" d="M13.55,16.11c-0.02,0.29,0.15,0.75-0.48,0.62c-0.03-0.01-0.07,0-0.1-0.01c-0.09-0.03-0.19-1.08-0.1-1.24
		c0.14-0.23,0.38-0.08,0.57-0.1c0.11-0.01,0.1,0.1,0.1,0.18C13.55,15.72,13.55,15.9,13.55,16.11z"/>
	<path class="st3" d="M14.92,16.08c-0.02,0.32,0.15,0.77-0.48,0.64c-0.03-0.01-0.07,0-0.1-0.01c-0.09-0.03-0.19-1.08-0.1-1.24
		c0.14-0.23,0.38-0.08,0.57-0.11c0.1-0.01,0.1,0.1,0.1,0.18C14.92,15.72,14.92,15.9,14.92,16.08z"/>
	<path class="st3" d="M12.87,10.21c0,0.14-0.01,0.29,0,0.43c0.03,0.29-0.16,0.25-0.34,0.25c-0.16-0.01-0.38,0.07-0.35-0.23
		c0.02-0.21,0-0.42,0-0.63c0-0.25-0.07-0.49,0.36-0.48c0.42,0.01,0.31,0.26,0.32,0.47C12.87,10.08,12.87,10.15,12.87,10.21z"/>
	<path class="st3" d="M9.46,10.23c-0.03,0.34,0.15,0.79-0.48,0.66c-0.09-0.02-0.21,0.01-0.2-0.13c0.02-0.39-0.1-0.81,0.08-1.17
		c0.03-0.07,0.37-0.08,0.49,0C9.59,9.75,9.39,10.03,9.46,10.23z"/>
	<path class="st3" d="M13.92,10.25c0-0.13,0.01-0.26,0-0.39c-0.02-0.22,0.04-0.33,0.29-0.31c0.2,0.02,0.39-0.01,0.36,0.29
		c-0.02,0.19,0,0.39-0.01,0.58c-0.01,0.22,0.1,0.48-0.32,0.48c-0.41,0-0.33-0.24-0.33-0.47C13.92,10.38,13.92,10.31,13.92,10.25z"/>
	<path class="st3" d="M11.14,10.27c-0.06,0.25,0.21,0.72-0.43,0.63c-0.17-0.02-0.22-0.08-0.21-0.24c0.01-0.24,0.01-0.49,0-0.73
		c-0.02-0.25,0.02-0.38,0.33-0.38c0.33,0,0.33,0.17,0.31,0.4C11.13,10.05,11.14,10.15,11.14,10.27z"/>
	<path class="st3" d="M10.52,21.49c-0.29,0.07-0.38-0.01-0.38-0.3c0-0.29,0.11-0.34,0.36-0.34c0.24,0,0.35,0.04,0.34,0.31
		C10.82,21.4,10.83,21.61,10.52,21.49z"/>
	<path class="st3" d="M13.26,21.49c-0.28,0.06-0.41,0-0.4-0.3c0-0.29,0.1-0.35,0.36-0.34c0.23,0.01,0.36,0.03,0.34,0.31
		C13.53,21.38,13.59,21.62,13.26,21.49z"/>
	<path class="st3" d="M15.94,21.49c-0.3,0.08-0.33-0.07-0.34-0.33c-0.02-0.32,0.16-0.3,0.38-0.32c0.27-0.02,0.31,0.1,0.31,0.33
		C16.3,21.46,16.21,21.57,15.94,21.49z"/>
	<path class="st3" d="M11.86,21.49c-0.27,0.07-0.36-0.02-0.36-0.31c0-0.3,0.12-0.33,0.37-0.34c0.25,0,0.34,0.05,0.33,0.32
		C12.19,21.42,12.16,21.58,11.86,21.49z"/>
	<path class="st3" d="M9.13,21.49c-0.27,0.07-0.38-0.02-0.36-0.31c0.01-0.22,0.02-0.37,0.31-0.33c0.21,0.02,0.41-0.02,0.39,0.31
		C9.45,21.41,9.44,21.58,9.13,21.49z"/>
	<path class="st3" d="M7.73,21.5c-0.27,0.07-0.32-0.06-0.33-0.31c-0.01-0.29,0.11-0.34,0.37-0.34c0.26,0,0.32,0.09,0.33,0.34
		C8.11,21.49,7.99,21.55,7.73,21.5z"/>
	<path class="st3" d="M14.6,21.49c-0.3,0.08-0.37-0.04-0.38-0.31c-0.01-0.31,0.14-0.32,0.38-0.33c0.26-0.01,0.33,0.07,0.32,0.33
		C14.92,21.43,14.89,21.6,14.6,21.49z"/>
	<path class="st3" d="M8.43,18.77c0.05-0.29-0.19-0.78,0.46-0.67c0.41,0.07,0.2,0.43,0.18,0.62c-0.02,0.24,0.25,0.62-0.18,0.71
		C8.25,19.59,8.49,19.07,8.43,18.77z"/>
	<path class="st3" d="M15.25,18.78c0,0.14-0.01,0.29,0,0.43c0.03,0.31-0.19,0.23-0.35,0.24c-0.16,0.01-0.33,0.03-0.3-0.23
		c0.02-0.22,0-0.45,0.01-0.67c0.01-0.2-0.09-0.44,0.29-0.45c0.39-0.01,0.36,0.2,0.36,0.45C15.26,18.62,15.26,18.7,15.25,18.78
		C15.26,18.78,15.26,18.78,15.25,18.78z"/>
</g>
</svg>
