<?xml version="1.0" encoding="utf-8"?>
<!-- Generator: Adobe Illustrator 25.3.1, SVG Export Plug-In . SVG Version: 6.00 Build 0)  -->
<svg version="1.1" id="Layer_1" xmlns="http://www.w3.org/2000/svg" xmlns:xlink="http://www.w3.org/1999/xlink" x="0px" y="0px"
	 viewBox="0 0 24 24" style="enable-background:new 0 0 24 24;" xml:space="preserve">
<style type="text/css">
	.st0{fill-rule:evenodd;clip-rule:evenodd;fill:#005897;}
	.st1{fill-rule:evenodd;clip-rule:evenodd;fill:#5D5E5E;}
	.st2{fill-rule:evenodd;clip-rule:evenodd;fill:#005897;stroke:#005897;stroke-width:0.25;stroke-miterlimit:10;}
	.st3{fill:#005897;}
	.st4{fill:#005897;stroke:#005897;stroke-width:0.25;stroke-miterlimit:10;}
	.st5{fill:#FBFBFB;}
	.st6{fill:#F6FAFD;}
	.st7{fill:#010201;}
	.st8{fill:#38ADE1;}
	.st9{fill:#005897;stroke:#FFFFFF;stroke-width:0.1;stroke-miterlimit:10;}
	.st10{fill:#005897;stroke:#005897;stroke-width:0.1;stroke-miterlimit:10;}
	.st11{fill:#005897;stroke:#005897;stroke-width:0.12;stroke-miterlimit:10;}
	.st12{fill:#174884;}
	.st13{fill:#9CBDD4;}
	.st14{fill:#FFFFFF;}
</style>
<g>
	<path class="st3" d="M23.16,21.95c-0.21,0-0.42-0.01-0.64-0.01l0,0c-0.3,0.01-0.59,0.01-0.89,0.02c0.04,0.04,0.08,0.08,0.11,0.11
		c-0.03-0.03-0.07-0.07-0.11-0.11c-0.14,0-0.17-0.09-0.17-0.21c0-0.9,0.01-1.81,0-2.71c0-0.27,0.17-0.28,0.35-0.26
		c0.24,0.02,0.35-0.04,0.34-0.31c-0.01-0.25-0.03-0.42-0.34-0.37c-0.29,0.05-0.35-0.1-0.35-0.36c0.01-0.94,0.01-1.88,0-2.82
		c0-0.24,0.04-0.38,0.31-0.33c0.27,0.05,0.39-0.05,0.38-0.34c-0.01-0.24,0.02-0.48-0.34-0.44c-0.28,0.04-0.35-0.11-0.34-0.37
		c0.02-1.04,0.01-2.09,0-3.13c0-0.59-0.42-1.05-1.01-1.06c-0.28,0-0.39-0.07-0.49-0.33c-0.09-0.23-0.3-0.42-0.57-0.38
		c-0.59,0.08-0.9-0.08-0.79-0.74c0.04-0.24-0.17-0.32-0.33-0.31c-0.15,0.01-0.37,0.06-0.34,0.31c0.01,0.07,0,0.14,0,0.21
		c-0.01,0.24,0.11,0.53-0.35,0.52C17.1,8.54,17.27,8.22,17.26,8c-0.02-0.26,0.01-0.53-0.01-0.8c-0.03-0.45-0.14-0.91-0.55-1.15
		c-0.41-0.24-0.61-0.52-0.54-1c0.03-0.22-0.1-0.37-0.34-0.37c-0.23,0-0.43,0.14-0.38,0.34c0.19,0.71-0.44,0.9-0.77,1.26
		c-0.21,0.23-0.55,0.14-0.81,0.1c-0.26-0.04-0.14-0.32-0.15-0.5c-0.03-0.49-0.09-0.98-0.55-1.25c-0.41-0.25-0.63-0.53-0.55-1.03
		c0.03-0.17-0.07-0.4-0.33-0.38c-0.25,0.01-0.37,0.18-0.38,0.41c-0.01,0.16,0,0.32-0.01,0.48c-0.01,0.1,0.04,0.22-0.1,0.27
		c-0.78,0.29-0.97,0.9-0.9,1.65c0.03,0.28-0.1,0.36-0.37,0.37c-0.7,0.02-1.4-0.58-1.44-1.27C9.06,4.91,9.07,4.66,8.72,4.68
		C8.41,4.7,8.34,4.9,8.38,5.16C8.43,5.54,8.32,5.8,7.95,5.98C7.61,6.15,7.43,6.46,7.37,6.86C7.29,7.3,7.32,7.74,7.32,8.18
		c0,0.28-0.09,0.36-0.37,0.37C6.44,8.56,6.64,8.18,6.63,7.96C6.62,7.67,6.5,7.48,6.24,7.49C6.02,7.5,5.88,7.68,5.89,7.94
		c0,0.07-0.01,0.14,0,0.21c0.04,0.29-0.06,0.42-0.38,0.39c-0.46-0.04-0.89,0-1,0.59C4.51,9.18,4.41,9.25,4.36,9.25
		C3.95,9.15,3.64,9.42,3.28,9.52c-0.08,0.35-0.15,0.69-0.23,1.04c0.06,1.03,0.05,2.05,0,3.08c0.03,0.09-0.02,0.13-0.1,0.13
		c-0.03,0.01-0.06,0.04-0.1,0.04c-0.28,0-0.52,0.01-0.52,0.41c0,0.38,0.21,0.39,0.48,0.37c0.26-0.02,0.27,0.14,0.27,0.33
		c0,0.94-0.01,1.88,0,2.81c0,0.26-0.07,0.4-0.36,0.36c-0.25-0.04-0.38,0.03-0.38,0.34c0,0.31,0.14,0.37,0.39,0.34
		c0.29-0.03,0.37,0.11,0.36,0.37c-0.01,0.83-0.01,1.66,0,2.49c0,0.23-0.08,0.31-0.31,0.31c-0.48-0.01-0.96,0.01-1.43-0.01
		C1.08,21.93,0.98,22,0.97,22.29c-0.02,0.39,0.17,0.41,0.48,0.41c5.93-0.01,11.86,0,17.78-0.01c0.16,0,0.32-0.02,0.48-0.03
		c0.34,0.05,0.69,0.04,1.03,0.01c0.81,0.01,1.63,0.01,2.44,0.03c0.34,0.01,0.42-0.18,0.42-0.47C23.6,21.89,23.37,21.95,23.16,21.95z
		 M19.35,14.4c0.02,0.76,0.01,1.52,0.01,2.28c0,1.13,0,2.27,0,3.4c0,0.27,0.01,0.5-0.37,0.5c-0.35,0-0.4-0.19-0.39-0.48
		c0.01-0.53,0-1.06,0-1.59c0-0.21-0.02-0.4-0.3-0.4c-0.27,0-0.37,0.14-0.37,0.4c0.01,0.57-0.01,1.13,0.01,1.7
		c0.01,0.28-0.11,0.37-0.37,0.37c-0.26,0-0.34-0.12-0.34-0.36c0-2.37,0-4.75,0-7.12c0-0.21,0.06-0.34,0.3-0.32c0.05,0,0.11,0,0.16,0
		c0.53,0.03,1.2-0.22,1.54,0.1C19.58,13.2,19.34,13.88,19.35,14.4z M17.33,9.33c0.3-0.29,0.87-0.08,1.33-0.09
		c0.69-0.02,0.7-0.01,0.7,0.67c0,0.6-0.01,1.2,0.01,1.8c0.01,0.3-0.12,0.36-0.38,0.35c-0.24-0.01-0.4-0.02-0.39-0.34
		c0.02-0.56,0.01-1.13,0.01-1.7c0-0.23-0.03-0.44-0.33-0.43c-0.28,0.01-0.34,0.2-0.34,0.44c0,0.53,0,1.06,0,1.59
		c0,0.24,0.03,0.43-0.33,0.44c-0.38,0-0.39-0.18-0.38-0.46c0.01-0.32,0-0.64,0-1.04C17.28,10.21,17.03,9.63,17.33,9.33z M15.09,7.17
		c0.01-0.43,0.25-0.74,0.71-0.75c0.45-0.01,0.68,0.3,0.71,0.69c0.05,0.67,0.02,1.34,0.01,2.01c0,0.13,0.01,0.28-0.23,0.2
		c-0.39-0.13-0.79-0.08-1.21,0.07C15.08,8.61,15.07,7.89,15.09,7.17z M16.15,19.56c-0.01-0.2-0.08-0.4-0.33-0.4
		c-0.25,0-0.38,0.17-0.39,0.41c-0.02,0.26,0,0.53-0.01,0.79c0,0.08,0,0.19-0.12,0.2c-0.12,0.01-0.21-0.06-0.21-0.18
		c-0.01-0.23,0-0.46,0-0.74c0.05-0.26-0.11-0.61,0.17-0.9c0.2-0.21,0.4-0.35,0.69-0.29c0.3,0.07,0.51,0.28,0.54,0.58
		c0.05,0.44,0.03,0.88,0.03,1.32c0,0.11-0.06,0.23-0.18,0.22c-0.15,0-0.19-0.14-0.19-0.27C16.15,20.06,16.16,19.81,16.15,19.56z
		 M16.24,17.81c-0.36-0.09-0.74-0.05-1.16,0.06c0-1.02-0.01-1.97,0-2.93c0.01-0.43,0.25-0.69,0.69-0.71
		c0.45-0.02,0.72,0.24,0.73,0.65c0.03,0.9,0.01,1.81,0.02,2.71C16.53,17.8,16.47,17.87,16.24,17.81z M15.08,13.12
		c0.02-0.76,0-1.52,0.01-2.28c0-0.52,0.29-0.88,0.69-0.9c0.42-0.02,0.74,0.35,0.75,0.89c0.01,0.39,0,0.78,0,1.16
		c0,0.44-0.01,0.88,0,1.32c0.01,0.31-0.1,0.39-0.37,0.24c-0.18-0.1-0.39-0.14-0.56-0.05C15.1,13.78,15.06,13.54,15.08,13.12z
		 M14.05,7.07c0.33,0,0.38,0.16,0.37,0.43c-0.01,0.12,0,0.25,0,0.37c0,0.14-0.01,0.28,0,0.42c0.02,0.29-0.19,0.24-0.36,0.25
		c-0.17,0-0.37,0.04-0.37-0.24c0-0.26,0-0.53,0-0.79C13.69,7.26,13.71,7.07,14.05,7.07z M14.07,9.23c0.45,0.01,0.35,0.3,0.35,0.55
		c0,1.72,0,3.43,0,5.15c0,1.7,0,3.4,0,5.09c0,0.25,0.09,0.55-0.35,0.56c-0.42,0.01-0.38-0.26-0.38-0.53c0-3.43,0-6.86,0-10.29
		C13.69,9.49,13.64,9.22,14.07,9.23z M12.61,19.56c-0.01-0.2-0.08-0.41-0.32-0.4c-0.24,0-0.38,0.16-0.39,0.41
		c-0.01,0.25,0,0.5-0.01,0.74c0,0.1,0.02,0.23-0.13,0.24c-0.17,0.01-0.19-0.11-0.19-0.25c0-0.21,0-0.43,0-0.64c0-0.16,0-0.32,0-0.48
		c0.01-0.44,0.25-0.71,0.67-0.74c0.45-0.04,0.68,0.27,0.73,0.67c0.04,0.37,0.01,0.74,0.01,1.11c0,0.15-0.01,0.32-0.19,0.31
		c-0.13,0-0.17-0.16-0.17-0.29C12.62,20.03,12.63,19.79,12.61,19.56z M11.57,14.91c0-0.42,0.25-0.64,0.66-0.67
		c0.43-0.03,0.72,0.19,0.73,0.59c0.04,0.94,0.02,1.88,0.02,2.81c0,0.17-0.08,0.2-0.24,0.17c-0.38-0.07-0.76-0.06-1.18,0.06
		C11.57,16.85,11.56,15.88,11.57,14.91z M11.58,5.67c0.01-0.4,0.26-0.64,0.69-0.64c0.43-0.01,0.68,0.26,0.69,0.64
		c0.03,1.15,0.01,2.29,0.02,3.44c0,0.21-0.12,0.23-0.27,0.19c-0.37-0.11-0.73-0.02-1.13,0.04C11.57,8.1,11.56,6.89,11.58,5.67z
		 M11.56,13.12c0.03-0.37,0.01-0.74,0.01-1.11c0-0.42,0-0.85,0-1.27c0-0.46,0.24-0.73,0.67-0.79c0.37-0.06,0.73,0.31,0.74,0.77
		c0.02,0.88,0,1.76,0.01,2.64c0,0.3-0.13,0.34-0.36,0.21c-0.18-0.11-0.4-0.15-0.56-0.06C11.57,13.77,11.53,13.54,11.56,13.12z
		 M10.13,7.48c-0.01-0.28,0.08-0.41,0.4-0.41c0.33,0,0.38,0.17,0.37,0.44c-0.01,0.11,0,0.21,0,0.32c0,0.14-0.01,0.28,0,0.42
		c0.03,0.3-0.17,0.29-0.37,0.29c-0.19,0-0.41,0.04-0.39-0.27C10.15,8.01,10.14,7.75,10.13,7.48z M10.89,20.18
		c0,0.42-0.18,0.5-0.66,0.29c-0.16-0.17-0.07-0.37-0.07-0.55c-0.01-3.36,0.01-6.72-0.02-10.08c0-0.48,0.12-0.64,0.57-0.55
		c0.24-0.02,0.18,0.16,0.18,0.29C10.9,13.12,10.9,16.65,10.89,20.18z M8.05,7.08c0-0.37,0.24-0.58,0.56-0.65
		c0.38-0.08,0.66,0.1,0.75,0.48c0.18,0.75,0.05,1.51,0.07,2.27C9.44,9.36,9.28,9.33,9.16,9.3c-0.36-0.09-0.7-0.04-1.11,0.06
		C8.05,8.56,8.05,7.82,8.05,7.08z M8.04,13.11c0.03-0.37,0.01-0.74,0.01-1.11c0-0.42,0.01-0.85,0-1.27
		c-0.02-0.45,0.23-0.71,0.62-0.77C9.1,9.88,9.4,10.2,9.42,10.58c0.05,0.95,0.02,1.91,0.03,2.86c0,0.23-0.16,0.23-0.29,0.15
		c-0.2-0.12-0.42-0.19-0.6-0.09C8.05,13.77,8.01,13.53,8.04,13.11z M9.44,20.31c0,0.11-0.05,0.24-0.16,0.24
		c-0.13,0.01-0.22-0.1-0.22-0.25c0-0.25,0-0.5,0-0.74c-0.01-0.2-0.05-0.41-0.31-0.4c-0.25,0.01-0.38,0.16-0.37,0.42
		c0,0.27,0,0.53-0.01,0.8c0,0.11-0.03,0.22-0.18,0.2c-0.11-0.01-0.13-0.11-0.14-0.19c-0.01-0.25,0-0.49,0-0.74c0,0,0,0,0,0
		c0-0.16,0-0.32,0-0.48c-0.01-0.43,0.24-0.66,0.62-0.71c0.43-0.06,0.68,0.21,0.74,0.6C9.47,19.46,9.44,19.89,9.44,20.31z
		 M8.05,14.94c0-0.43,0.21-0.66,0.63-0.7C9.1,14.2,9.4,14.4,9.42,14.81c0.04,0.94,0.02,1.88,0.02,2.81c0,0.06-0.05,0.18-0.07,0.18
		c-0.42-0.02-0.85-0.08-1.26,0.04c-0.02-0.1-0.05-0.2-0.05-0.31c-0.01-0.44,0-0.89,0-1.33C8.05,15.79,8.05,15.36,8.05,14.94z
		 M5.27,9.33c0.27-0.29,0.84-0.08,1.28-0.09C7.42,9.23,7.32,9.15,7.33,10c0,0.57-0.01,1.13,0.01,1.7c0.01,0.28-0.08,0.37-0.36,0.37
		c-0.27,0-0.38-0.08-0.37-0.36c0.02-0.48,0.01-0.96,0-1.43c0-0.27,0.06-0.65-0.33-0.65c-0.43-0.01-0.37,0.39-0.37,0.68
		c0,0.48-0.02,0.96,0,1.43c0.01,0.32-0.16,0.33-0.4,0.33c-0.26,0.01-0.34-0.08-0.33-0.34c0.02-0.37,0-0.74,0-1.2
		C5.23,10.18,5.01,9.61,5.27,9.33z M6.61,18.59c0-0.24-0.02-0.48-0.35-0.48c-0.32,0-0.35,0.25-0.35,0.49c0,0.53,0,1.06,0,1.59
		c0,0.24-0.03,0.41-0.34,0.41c-0.3-0.01-0.39-0.14-0.38-0.43c0.02-0.9,0.02-1.8,0-2.7C5.18,17.13,5.27,16.98,5.63,17
		c0.44,0.02,0.88,0.03,1.32,0.02c0.28-0.01,0.37,0.12,0.37,0.38c-0.01,0.46,0,0.92,0,1.38c0,0,0,0,0,0c0,0.48-0.01,0.95,0,1.43
		c0,0.26-0.09,0.39-0.37,0.39c-0.29,0-0.36-0.15-0.35-0.4C6.62,19.65,6.61,19.12,6.61,18.59z M7.33,16.02c0,0.24-0.12,0.3-0.34,0.29
		c-0.21-0.01-0.39,0-0.39-0.3c0.01-0.53,0-1.06,0-1.59c0-0.26,0-0.54-0.34-0.55c-0.32,0-0.37,0.25-0.36,0.53
		c0.01,0.51,0,1.03,0,1.54c0,0.27-0.09,0.37-0.37,0.37c-0.29,0-0.36-0.12-0.35-0.38c0.02-0.48,0-0.96,0-1.43
		c0-0.46,0.01-0.92-0.01-1.38c-0.01-0.26,0.09-0.34,0.34-0.34c0.5,0.01,0.99,0.01,1.49,0c0.23,0,0.32,0.09,0.32,0.32
		C7.32,14.07,7.33,15.05,7.33,16.02z M3.79,10.47c0-0.25,0.06-0.55,0.38-0.52c0.28,0.03,0.37,0.27,0.36,0.55
		c-0.01,0.42,0,0.85,0,1.27c0,0.46-0.02,0.92,0.01,1.38c0.02,0.34-0.17,0.3-0.4,0.32c-0.24,0.01-0.36-0.02-0.35-0.3
		C3.79,12.28,3.78,11.37,3.79,10.47z M3.78,14.73c0-0.24,0.05-0.48,0.36-0.48c0.33,0,0.38,0.23,0.38,0.51c-0.01,0.44,0,0.88,0,1.32
		c0,0.46-0.01,0.92,0,1.37c0.01,0.25-0.07,0.34-0.34,0.32c-0.22-0.02-0.42,0.03-0.41-0.3C3.79,16.56,3.78,15.64,3.78,14.73z
		 M3.79,18.89c0.01-0.2,0.07-0.46,0.35-0.45c0.27,0.01,0.38,0.21,0.38,0.48c0,0.23,0,0.46,0,0.69c0,0.21-0.01,0.42,0,0.64
		c0.01,0.26-0.14,0.34-0.36,0.34c-0.23,0.01-0.38-0.06-0.38-0.32C3.78,19.81,3.77,19.35,3.79,18.89z M20.71,21.62
		c0,0.22-0.1,0.3-0.33,0.3c-0.33,0-0.67,0.03-1,0.04c0.05,0.1,0.15,0.17,0.24,0.26c-0.09-0.08-0.19-0.16-0.24-0.26
		c-2.53-0.01-5.07-0.02-7.6-0.02c-2.5,0-5,0-7.49,0c-0.22,0-0.5,0.11-0.5-0.32c0-0.43,0.28-0.32,0.5-0.32c5.31,0,10.63,0,15.94,0
		C20.46,21.3,20.75,21.22,20.71,21.62z M20.79,20.26c0.01,0.26-0.15,0.33-0.37,0.33c-0.23,0.01-0.37-0.07-0.37-0.33
		c0-0.46-0.01-0.92,0.01-1.38c0.01-0.21,0.08-0.45,0.35-0.44c0.25,0.01,0.36,0.21,0.38,0.44c0.02,0.25,0,0.49,0,0.74
		C20.78,19.83,20.78,20.05,20.79,20.26z M20.43,17.78c-0.25-0.01-0.4-0.03-0.39-0.33c0.02-0.46,0-0.92,0-1.37c0-0.44,0-0.88,0-1.32
		c0-0.27,0.05-0.52,0.38-0.51c0.29,0.01,0.36,0.23,0.36,0.49c0,0.9-0.01,1.8,0,2.69C20.79,17.7,20.71,17.79,20.43,17.78z
		 M20.44,13.48c-0.22-0.01-0.41,0.05-0.4-0.3c0.02-0.9,0.01-1.81,0.01-2.71c0-0.24,0.06-0.5,0.33-0.51
		c0.28-0.01,0.41,0.22,0.41,0.51c0,0.46,0,0.92,0,1.38c0,0.44-0.01,0.89,0,1.33C20.8,13.45,20.68,13.49,20.44,13.48z M22.39,22.27
		c-0.02,0.04-0.04,0.07-0.05,0.09C22.36,22.34,22.37,22.31,22.39,22.27z"/>
	<path class="st3" d="M18.6,15.47c0,0.39-0.01,0.78,0,1.17c0.01,0.26-0.05,0.37-0.34,0.37c-0.31,0-0.33-0.14-0.33-0.38
		c0.01-0.76,0.01-1.52,0-2.28c0-0.27,0.06-0.47,0.35-0.47c0.3,0,0.34,0.23,0.33,0.49C18.59,14.73,18.6,15.1,18.6,15.47z"/>
	<path class="st3" d="M12.63,7.31c0,0.16,0.02,0.32-0.01,0.47c-0.04,0.2-0.09,0.45-0.37,0.42c-0.21-0.03-0.37-0.18-0.37-0.43
		c0-0.32-0.01-0.63,0-0.95c0.01-0.23,0.13-0.4,0.38-0.41c0.28-0.01,0.32,0.22,0.35,0.43C12.65,7,12.63,7.15,12.63,7.31z"/>
	<path class="st3" d="M16.15,11.53c0,0.18,0.02,0.35,0,0.53c-0.02,0.18-0.09,0.34-0.32,0.35c-0.24,0.01-0.38-0.14-0.39-0.34
		c-0.03-0.35-0.02-0.7,0-1.05c0.01-0.23,0.21-0.33,0.41-0.32c0.19,0.01,0.31,0.14,0.31,0.36C16.15,11.22,16.15,11.37,16.15,11.53z"
		/>
	<path class="st3" d="M16.15,15.87c-0.07,0.24,0.19,0.74-0.33,0.75c-0.55,0.02-0.37-0.48-0.4-0.8c-0.01-0.16-0.01-0.32,0-0.48
		c0.02-0.23,0.12-0.41,0.38-0.42c0.29-0.01,0.33,0.21,0.35,0.43C16.16,15.51,16.15,15.67,16.15,15.87z"/>
	<path class="st3" d="M11.9,11.54c0.04-0.32-0.15-0.83,0.36-0.84c0.52,0,0.33,0.51,0.36,0.83c0.02,0.16,0.02,0.32,0,0.48
		c-0.02,0.2-0.07,0.4-0.32,0.4c-0.25,0-0.39-0.14-0.39-0.39C11.89,11.86,11.9,11.7,11.9,11.54z"/>
	<path class="st3" d="M9.06,11.54c0,0.19,0.01,0.39,0,0.58c-0.01,0.21-0.14,0.31-0.35,0.29c-0.2-0.02-0.33-0.12-0.33-0.34
		c0-0.34,0.02-0.67-0.01-1.01c-0.02-0.27,0.17-0.36,0.35-0.37c0.21-0.02,0.35,0.13,0.35,0.37c0,0.16,0,0.32,0,0.48
		C9.07,11.54,9.06,11.54,9.06,11.54z"/>
	<path class="st3" d="M9.06,15.77c0,0.19,0,0.39,0,0.58c0,0.2-0.12,0.29-0.31,0.28c-0.18-0.01-0.36-0.07-0.36-0.29
		c-0.01-0.33,0-0.67-0.01-1.01c-0.01-0.26,0.1-0.41,0.36-0.42c0.31-0.02,0.32,0.22,0.33,0.43c0.01,0.14,0,0.28,0,0.42
		C9.06,15.77,9.06,15.77,9.06,15.77z"/>
	<path class="st3" d="M11.9,15.76c0.07-0.27-0.21-0.83,0.38-0.82c0.52,0.01,0.28,0.54,0.33,0.85c0.03,0.15,0.01,0.32,0,0.48
		c-0.01,0.22-0.1,0.39-0.35,0.37c-0.24-0.02-0.39-0.14-0.37-0.41C11.91,16.09,11.9,15.94,11.9,15.76z"/>
	<path class="st3" d="M16.15,8.01c0,0.16,0.02,0.32,0,0.47c-0.02,0.19-0.06,0.39-0.33,0.39c-0.27,0-0.37-0.18-0.39-0.4
		c-0.02-0.3,0-0.6-0.01-0.89c0-0.28,0.19-0.45,0.41-0.45c0.23,0,0.34,0.22,0.33,0.46C16.15,7.73,16.15,7.87,16.15,8.01z"/>
	<path class="st3" d="M8.39,7.97C8.38,7.63,8.27,7.13,8.74,7.13c0.44,0,0.32,0.49,0.33,0.81c0.01,0.21,0,0.42-0.01,0.63
		c-0.01,0.17-0.07,0.3-0.28,0.3c-0.2,0-0.36-0.07-0.38-0.28C8.37,8.39,8.39,8.18,8.39,7.97z"/>
</g>
</svg>
