<?xml version="1.0" encoding="utf-8"?>
<!-- Generator: Adobe Illustrator 25.3.1, SVG Export Plug-In . SVG Version: 6.00 Build 0)  -->
<svg version="1.1" id="Layer_1" xmlns="http://www.w3.org/2000/svg" xmlns:xlink="http://www.w3.org/1999/xlink" x="0px" y="0px"
	 viewBox="0 0 24 24" style="enable-background:new 0 0 24 24;" xml:space="preserve">
<style type="text/css">
	.st0{fill-rule:evenodd;clip-rule:evenodd;fill:#005897;}
	.st1{fill-rule:evenodd;clip-rule:evenodd;fill:#5D5E5E;}
	.st2{fill-rule:evenodd;clip-rule:evenodd;fill:#005897;stroke:#005897;stroke-width:0.25;stroke-miterlimit:10;}
	.st3{fill:#005897;}
	.st4{fill:#005897;stroke:#005897;stroke-width:0.25;stroke-miterlimit:10;}
	.st5{fill:#FBFBFB;}
	.st6{fill:#F6FAFD;}
	.st7{fill:#010201;}
	.st8{fill:#38ADE1;}
	.st9{fill:#005897;stroke:#FFFFFF;stroke-width:0.1;stroke-miterlimit:10;}
	.st10{fill:#005897;stroke:#005897;stroke-width:0.1;stroke-miterlimit:10;}
	.st11{fill:#005897;stroke:#005897;stroke-width:0.12;stroke-miterlimit:10;}
	.st12{fill:#174884;}
	.st13{fill:#9CBDD4;}
	.st14{fill:#FFFFFF;}
</style>
<g>
	<path class="st3" d="M4.07,5.48c-0.76,0.3-1.53,0.59-2.42,0.93c0.7-0.94,1.27-1.76,2.19-2.36C4.59,3.57,5.37,3.19,6.2,3.05
		c0.56-0.1,1.23-0.06,1.8,0.23c1.81,0.92,3,2.46,4.16,4.05c0.17,0.24,0.32,0.49,0.41,0.85c-1.01-0.44-2.02-0.9-3.04-1.33
		C9.32,6.75,9.09,6.52,8.85,6.8c0-0.27,0.01-0.54,0.01-0.82c0.7,0.28,1.4,0.55,2.1,0.83c-0.91-1.22-1.85-2.37-3.21-3.06
		C7.44,3.6,7.26,3.61,7.01,3.93C6.69,4.35,6.44,4.81,6.17,5.26C5.98,5.2,5.78,5.21,5.6,5.09C5.43,4.97,5.41,5.14,5.39,5.26
		C5.15,5.5,4.88,5.72,4.68,5.99c-1.75,2.3-1.71,4.93-1.36,7.61c0.02,0.14,0.06,0.27,0.23,0.2c0.39-0.16,0.3,0.13,0.3,0.32
		c0.01,0.81,0.02,1.62,0,2.43c-0.01,0.3,0.08,0.43,0.39,0.41c0.19-0.02,0.39-0.02,0.57,0.01c0.44,0.06,0.58-0.09,0.57-0.55
		c-0.01-1.29,0.09-2.6-0.58-3.79c-0.11-0.2-0.15-0.39,0.2-0.32c0.81,0.19,1.62,0.19,2.43,0c0.12-0.06,0.12-0.17,0.11-0.27
		c-0.09-1.16-0.19-2.32-0.29-3.48C7.18,7.66,7.09,6.77,7,5.72C6.63,6.38,6.34,6.9,6.05,7.42c-0.66,1.2-1.32,2.41-1.98,3.61
		c-0.05,0.1-0.07,0.28-0.24,0.24c-0.13-0.03-0.11-0.14-0.07-0.25C4.36,9.33,4.68,7.55,5.4,5.89C5.64,6.02,5.69,5.29,6,5.76
		C5.96,5.96,5.81,6.15,5.96,6.4c0.23-0.42,0.42-0.84,0.69-1.21c0.2-0.29,0.21-0.91,0.63-0.8c0.27,0.07,0.26,0.68,0.29,1.08
		c0.08,1.08,0.17,2.16,0.27,3.41c0.19-0.73,0.34-1.29,0.48-1.86c0.13,0.17,0.37-0.05,0.49,0.14C8.47,8.7,8.14,10.24,7.8,11.78
		c-0.04,0.18-0.19,0.39,0,0.53c0.19,0.14,0.39-0.01,0.55-0.11c2.11-1.45,4.39-1.48,6.76-0.81c0.67,0.19,1.16,0.7,1.8,0.93
		c0.15,0.16,0.35,0.11,0.54,0.11c0.93,0,1.86,0,2.79,0c-0.15,0.58-0.38,1.13-0.64,1.67c-0.13,0.08-0.14,0.16-0.01,0.25
		c0.01,0.67,0.06,1.35,0.01,2.01c-0.04,0.52,0.17,0.68,0.63,0.6c0.23-0.04,0.52,0.14,0.66-0.18c0.19-0.68,0.18-1.36,0-2.04
		c-0.01-0.21,0-0.42-0.02-0.63c-0.02-0.26,0.12-0.37,0.34-0.28c0.7,0.29,0.67-0.2,0.72-0.63c0.15,0.03,0.3,0.06,0.45,0.1l0.04,0.04
		c-0.12,0.62,0.04,1.09,0.51,1.59c0.75,0.8,0.81,1.83,0.48,2.87c-0.06,0.17-0.12,0.37-0.34,0.42c-0.06-0.14-0.15-0.25-0.3-0.29
		c0.48-1.45,0.15-2.61-0.89-3.26c-0.34-0.21-0.47-0.18-0.45,0.26c0.02,0.72-0.02,1.45,0.01,2.17c0.01,0.37-0.12,0.46-0.47,0.46
		c-5.7-0.01-11.41-0.01-17.11,0c-0.39,0-0.62-0.06-0.49-0.51c0.12-0.09,0.13-0.17-0.01-0.25c0-0.75,0-1.5,0-2.38
		c-0.3,0.19-0.51,0.28-0.68,0.42c-0.84,0.68-1.17,1.69-0.83,2.67c0.39,1.13,1.24,1.67,2.41,1.74c0.04,0.07,0.08,0.07,0.12,0
		c0.09,0,0.17,0,0.26,0c0.09,0.12,0.21,0.11,0.33,0.08c0.03-0.03,0.07-0.05,0.1-0.08C5,19.38,4.94,19.54,4.88,19.71
		c-0.54,0.01-1.06,0.08-1.6,0.19c-0.5,0.1-1.09,0.09-1.64,0.08c-0.36,0-0.19-0.29-0.19-0.47c0.42,0.1,0.81,0.14,1.3-0.05
		c-0.68-0.47-1.17-0.99-1.42-1.68c-0.47-1.31-0.08-2.52,1.17-3.52c0.26-0.21,0.29-0.36,0.25-0.68C2.45,11.28,2.42,9,3.46,6.84
		c0.21-0.44,0.5-0.83,0.76-1.24C4.3,5.54,4.37,5.48,4.45,5.42C4.31,5.33,4.19,5.37,4.07,5.48z M14.47,12.31
		c0.35-0.22,0.74,0.3,1.11-0.04c-1.4-1.01-5.18-0.99-6.18,0.08c0.21,0.1,0.39-0.17,0.6-0.04c0.02,0.11,0.04,0.22,0.19,0.2
		c1.01-0.17,2.03-0.02,3.05-0.08C13.65,12.4,14.08,12.54,14.47,12.31z M18.81,17.03c0.05-0.04,0.1-0.07,0.14-0.11
		c0.14-0.04,0.1-0.18,0.14-0.27c0.2-0.64,0.19-1.28,0-1.91c0-0.13,0-0.26-0.01-0.39c0.13-0.08,0.13-0.17,0-0.25
		c-0.01-0.27,0.19-0.47,0.22-0.72c0.02-0.17,0.36-0.46,0.01-0.5c-0.3-0.04-0.83-0.33-0.95,0.24c-0.08,0.35-0.24,0.33-0.47,0.33
		c-1.13,0-2.26,0-3.38,0c-2.36,0-4.72,0-7.08-0.01c-0.19,0-0.56,0.16-0.51-0.24c0.05-0.43-0.2-0.36-0.44-0.36c-0.31,0-0.62,0-1.01,0
		c0.67,1.28,0.42,2.56,0.42,3.82c-0.02,0.01-0.05,0.03-0.05,0.03c0.01,0.03,0.03,0.06,0.05,0.09c0.32,0.28,0.45,0.15,0.66-0.18
		c0.76-1.24,2.11-1.2,2.79,0.05C9.4,16.75,9.4,16.9,9.57,16.9c0.27,0,0.19-0.25,0.23-0.38c0.45-1.35,1.39-2.07,2.71-2.08
		c1.21-0.01,2.22,0.78,2.65,2.08c0.05,0.15,0,0.38,0.24,0.38c0.19,0,0.19-0.2,0.25-0.33c0.29-0.6,0.78-0.89,1.44-0.87
		c0.66,0.02,1.12,0.35,1.37,0.97C18.52,16.84,18.54,17.06,18.81,17.03z M12.4,16.91c0.62,0,1.23-0.01,1.85,0
		c0.3,0.01,0.43-0.06,0.34-0.39c-0.19-0.71-1.2-1.57-1.84-1.54c-1.26,0.06-2.17,0.68-2.38,1.61c-0.06,0.27,0.01,0.33,0.26,0.32
		C11.21,16.9,11.81,16.91,12.4,16.91z M6.92,3.66C6.9,3.61,6.88,3.55,6.86,3.5C5.66,3.6,4.6,4.03,3.75,4.96
		C4.81,4.53,5.86,4.09,6.92,3.66z M8.82,16.9c-0.44-0.73-1.03-0.84-1.6-0.38c-0.09,0.07-0.16,0.14-0.15,0.24
		c0.01,0.2,0.18,0.13,0.29,0.13C7.82,16.91,8.29,16.9,8.82,16.9z M17.94,16.89c-0.24-0.49-0.56-0.69-1.01-0.63
		c-0.37,0.05-0.67,0.21-0.77,0.63C16.75,16.89,17.3,16.89,17.94,16.89z M15.04,17.23c-0.04-0.01-0.06-0.02-0.09-0.03
		c0,0.02,0.01,0.04,0.01,0.05C14.98,17.25,15,17.24,15.04,17.23z"/>
	<path class="st3" d="M14.85,5.61c0.56-0.9,1.3-1.62,2.22-2.13c0.74-0.41,1.51-0.43,2.34-0.19c1.71,0.51,2.94,1.58,4.02,3.18
		c-1.06-0.2-1.83-0.74-2.8-1.01c2.01,2.36,2.13,5.06,1.79,7.86c0,0-0.04-0.04-0.04-0.04c0-0.19,0.12-0.43-0.09-0.56
		c-0.18-0.11-0.22,0.11-0.31,0.2c0.09-1.51,0.08-3.02-0.34-4.49c-0.33-1.14-0.83-2.17-1.81-2.9c-0.08-0.06-0.14-0.17-0.29-0.09
		c0.51,1.56,0.93,3.15,1.22,4.78c-0.06,0.02-0.11,0.05-0.17,0.07c-0.8-1.45-1.6-2.9-2.47-4.48c-0.21,1.95-0.4,3.74-0.59,5.53
		c-0.03,0.01-0.05,0.01-0.08,0.02c-0.41-1.52-0.82-3.03-1.24-4.59c-0.89,0.39-1.76,0.77-2.73,1.2c0.19-0.59,0.42-1.03,0.75-1.43
		c0.29,0.09,0.47,0.99,0.9,0.13c0.22-0.12,0.44-0.24,0.67-0.34c0.71-0.31,0.81-0.26,1.01,0.48c0.13,0.49,0.27,0.98,0.44,1.57
		c0.28-1.26,0.19-2.45,0.5-3.58c0.03-0.12,0.03-0.23,0.14-0.28c0.17-0.08,0.23,0.09,0.28,0.18c0.23,0.39,0.45,0.8,0.67,1.2
		c0.12-0.79-0.33-1.31-0.76-1.84c-0.2-0.25-0.39-0.26-0.65-0.11c-0.54,0.3-1,0.71-1.44,1.14c-0.33,0.32-0.49,0.8-0.95,0.99
		C14.96,5.92,14.91,5.77,14.85,5.61z M18.17,3.81c1.01,0.41,2.01,0.82,3.02,1.23c0.02-0.06,0.05-0.12,0.07-0.18
		C20.34,4.22,19.38,3.69,18.17,3.81z"/>
	<path class="st3" d="M17.42,19.97c-0.22,0-0.43,0-0.65,0c-0.04-0.07-0.08-0.08-0.12,0c-1.2,0-2.39,0-3.59,0
		c-0.05-0.36-0.24-0.16-0.4-0.11c-0.86-0.13-1.71-0.26-2.57,0.07c-0.39,0.15-0.84,0.05-1.26,0.03c-0.72-0.18-1.44-0.19-2.17,0
		c-0.13,0-0.26,0-0.39-0.01c-0.07-0.47,0.22-0.49,0.58-0.5c1.8-0.03,3.6-0.08,5.4-0.12c0.15,0,0.3,0.02,0.42-0.11
		c0.21,0,0.43,0,0.64,0c0.1,0.38,0.41,0.23,0.63,0.23c2.1,0.01,4.2,0.01,6.29,0c0.35,0,0.67,0,0.5,0.5c-0.94,0-1.88,0-2.82,0
		C17.76,19.79,17.59,19.8,17.42,19.97z"/>
	<path class="st3" d="M9.61,20.75c0.09,0,0.17,0,0.26,0c0.17,0.18,0.34,0.18,0.51,0.01c0.73,0,1.45,0,2.18,0
		c0.04,0.07,0.08,0.07,0.12,0c0.04,0,0.09,0,0.13,0c0.25,0.19,0.51,0.19,0.76,0c0.98,0,1.97,0,2.95,0c0.13,0.18,0.32,0.11,0.49,0.12
		c0.08,0.31-0.05,0.4-0.35,0.4c-2.44-0.02-4.87-0.02-7.31-0.03c-0.13-0.17-0.32-0.1-0.49-0.11c0-0.09-0.01-0.17-0.01-0.26
		C9.11,20.84,9.39,20.97,9.61,20.75z"/>
	<path class="st3" d="M20.75,19.97c0.17-0.51-0.15-0.51-0.5-0.5c-2.1,0-4.2,0.01-6.29,0c-0.22,0-0.53,0.15-0.63-0.23
		c2.31-0.01,4.62-0.04,6.93-0.01c1.1,0.02,1.91-0.4,2.51-1.3c0.15,0.05,0.24,0.16,0.3,0.29c0.02,0.04,0.01,0.08-0.03,0.1
		c-0.12,0.01-0.25,0.03-0.28,0.16c-0.02,0.09,0.1,0.09,0.17,0.1C22.41,19.37,21.52,19.57,20.75,19.97z"/>
	<path class="st3" d="M9.77,22.54c-0.7,0-1.4,0-2.1,0c-0.22,0-0.52,0.08-0.46-0.32c0.05-0.34,0.28-0.06,0.42-0.09
		c1.44-0.27,2.91-0.1,4.36-0.13c0.18,0,0.46-0.13,0.48,0.23c0.02,0.38-0.25,0.31-0.48,0.31C11.25,22.54,10.51,22.54,9.77,22.54z"/>
	<path class="st3" d="M4.49,20.75c0.04,0,0.09,0,0.13,0c0.21,0.18,0.42,0.19,0.64,0c0.34,0,0.68,0,1.03,0
		c0.17,0.3,0.81-0.13,0.77,0.5c-1.66,0.01-3.31,0.01-4.97,0.03c-0.28,0-0.49-0.08-0.64-0.37c0.2-0.05,0.41-0.1,0.62-0.15
		C2.87,20.94,3.68,20.95,4.49,20.75z"/>
	<path class="st3" d="M12.68,19.22c-0.11,0.13-0.27,0.11-0.42,0.11c-1.8,0.04-3.6,0.09-5.4,0.12c-0.36,0.01-0.65,0.03-0.58,0.5
		c-0.49,0.06-0.98,0.06-1.4-0.25c0.06-0.16,0.12-0.32,0.18-0.48C7.6,19.22,10.14,19.22,12.68,19.22z"/>
	<path class="st3" d="M15.12,22.02c1.19-0.01,2.37-0.02,3.56-0.03c0.3,0,0.68,0.01,0.65,0.38c-0.03,0.35-0.41,0.1-0.63,0.15
		c-0.04-0.07-0.08-0.07-0.12,0c-1.07,0-2.14,0-3.21,0C15.22,22.39,15.07,22.25,15.12,22.02z"/>
	<path class="st3" d="M20.75,20.75c0.25-0.05,0.46,0.19,0.73,0.11c0.08-0.03,0.25-0.13,0.26,0.11c0,0.17-0.04,0.29-0.24,0.29
		c-0.97,0-1.95,0.01-2.92,0c-0.28,0-0.15-0.23-0.15-0.38C19.19,20.8,19.99,21.02,20.75,20.75z"/>
	<path class="st3" d="M2.19,22.03c0.68-0.05,1.37-0.05,2.05,0c0.05,0.04,0.1,0.07,0.16,0.11c0,0-0.01-0.01-0.01-0.01
		c-0.04,0.24-0.21,0.29-0.42,0.28c-0.55,0-1.11-0.02-1.66,0C1.73,22.43,2.18,22.17,2.19,22.03z"/>
	<path class="st3" d="M2.19,22.03c0,0.14-0.46,0.41,0.12,0.39c0.55-0.02,1.11-0.01,1.66,0c0.21,0,0.38-0.04,0.42-0.28
		c0.11,0.11,0.32,0.1,0.39,0.4c-1.07,0-2.12,0-3.16,0c-0.18,0-0.18-0.14-0.18-0.27c0-0.13,0.01-0.26,0.19-0.26
		C1.8,22,1.99,22.02,2.19,22.03z"/>
	<path class="st3" d="M15.11,6.66c-0.43,0.87-0.61-0.04-0.9-0.13c0.17-0.34,0.36-0.66,0.64-0.92c0.06,0.15,0.11,0.31,0.17,0.46
		c0.03,0.13-0.01,0.24-0.1,0.34C14.48,6.9,15.07,6.56,15.11,6.66z"/>
	<path class="st3" d="M8.81,7.17C8.69,6.98,8.45,7.19,8.32,7.03c0.05-0.3,0.09-0.61,0.15-0.91c0.05-0.25,0.18-0.31,0.39-0.13
		c0,0.27-0.01,0.54-0.01,0.82C8.83,6.92,8.82,7.04,8.81,7.17z"/>
	<path class="st3" d="M20.24,12.42c-0.93,0-1.86,0-2.79,0c-0.18,0-0.38,0.05-0.54-0.11c1.01-0.01,2.02-0.02,3.03-0.02
		C20.05,12.29,20.21,12.23,20.24,12.42z"/>
	<path class="st3" d="M4.49,20.75c-0.81,0.2-1.62,0.19-2.43,0C2.87,20.75,3.68,20.75,4.49,20.75z"/>
	<path class="st3" d="M20.75,20.75c-0.76,0.28-1.55,0.05-2.33,0.13c0.29-0.33,0.66-0.11,0.99-0.14
		C19.85,20.7,20.3,20.74,20.75,20.75z"/>
	<path class="st3" d="M6.67,19.97c0.72-0.2,1.44-0.19,2.17,0C8.12,19.96,7.39,19.96,6.67,19.97z"/>
	<path class="st3" d="M20.89,14.73c0.18,0.68,0.18,1.36,0,2.04C20.89,16.09,20.89,15.41,20.89,14.73z"/>
	<path class="st3" d="M21.97,12.92c0.09-0.09,0.13-0.31,0.31-0.2c0.22,0.13,0.09,0.37,0.09,0.56c-0.15-0.03-0.3-0.06-0.45-0.1
		C21.94,13.1,21.96,13.01,21.97,12.92z"/>
	<path class="st3" d="M7.05,21.24c0.04-0.62-0.6-0.2-0.77-0.5c0.19-0.01,0.38-0.03,0.57-0.02C7.26,20.74,7.27,20.76,7.05,21.24z"/>
	<path class="st3" d="M9.61,20.75c-0.22,0.22-0.5,0.09-0.76,0.12C9.07,20.61,9.35,20.77,9.61,20.75z"/>
	<path class="st3" d="M13.58,20.75c-0.25,0.18-0.51,0.19-0.76,0C13.07,20.75,13.32,20.75,13.58,20.75z"/>
	<path class="st3" d="M15.12,22.02c-0.04,0.23,0.1,0.37,0.25,0.5C14.85,22.57,14.89,22.35,15.12,22.02z"/>
	<path class="st3" d="M12.66,19.86c0.16-0.05,0.36-0.25,0.4,0.11C12.93,19.95,12.74,20.1,12.66,19.86z"/>
	<path class="st3" d="M5.26,20.75c-0.21,0.19-0.42,0.18-0.64,0C4.83,20.75,5.05,20.75,5.26,20.75z"/>
	<path class="st3" d="M22.93,18.57c-0.07-0.01-0.19-0.01-0.17-0.1c0.03-0.13,0.16-0.15,0.28-0.16
		C23.06,18.42,23.03,18.51,22.93,18.57z"/>
	<path class="st3" d="M17.42,19.97c0.17-0.17,0.34-0.17,0.5,0C17.76,19.97,17.59,19.97,17.42,19.97z"/>
	<path class="st3" d="M17.02,20.87c-0.17-0.01-0.36,0.06-0.49-0.12C16.69,20.77,16.92,20.58,17.02,20.87z"/>
	<path class="st3" d="M8.86,21.13c0.17,0.01,0.36-0.06,0.49,0.11C9.19,21.21,8.97,21.39,8.86,21.13z"/>
	<path class="st3" d="M10.38,20.75c-0.17,0.17-0.34,0.18-0.51-0.01C10.04,20.75,10.21,20.75,10.38,20.75z"/>
	<path class="st3" d="M19.59,14.34c-0.13-0.09-0.12-0.17,0.01-0.25C19.59,14.17,19.59,14.26,19.59,14.34z"/>
	<path class="st3" d="M16.65,19.97c0.04-0.08,0.08-0.07,0.12,0c0,0-0.06,0.02-0.06,0.02L16.65,19.97z"/>
	<path class="st3" d="M12.68,20.75c-0.04,0.07-0.08,0.07-0.12,0C12.6,20.75,12.64,20.75,12.68,20.75z"/>
	<path class="st3" d="M4.39,22.14c-0.05-0.04-0.1-0.07-0.16-0.11C4.33,22,4.37,22.06,4.39,22.14z"/>
	<path class="st3" d="M18.57,22.52c0.04-0.07,0.08-0.07,0.12,0c0,0-0.06,0.01-0.06,0.01L18.57,22.52z"/>
	<path class="st3" d="M10,12.3c1.49,0,2.98,0,4.47,0c-0.39,0.24-0.83,0.09-1.24,0.11c-1.01,0.06-2.04-0.09-3.05,0.08
		C10.04,12.53,10.02,12.41,10,12.3z"/>
	<path class="st3" d="M6.17,5.26C6.11,5.43,6.06,5.59,6,5.76C5.69,5.29,5.64,6.02,5.4,5.89C5.26,5.68,5.75,5.47,5.39,5.26
		C5.41,5.14,5.43,4.97,5.6,5.09C5.78,5.21,5.98,5.2,6.17,5.26z"/>
	<path class="st3" d="M5.01,12.31c0.81,0,1.62,0,2.43,0C6.62,12.5,5.81,12.5,5.01,12.31z"/>
	<path class="st3" d="M19.09,16.65c0-0.64,0-1.28,0-1.91C19.29,15.37,19.29,16.01,19.09,16.65z"/>
	<path class="st3" d="M3.35,17.03c0-0.08,0-0.17-0.01-0.25C3.47,16.86,3.47,16.94,3.35,17.03z"/>
	<path class="st3" d="M19.09,14.34c0-0.08,0-0.17,0-0.25C19.22,14.17,19.22,14.26,19.09,14.34z"/>
	<path class="st3" d="M4.62,19.22c0.12,0.01,0.26-0.1,0.33,0.08C4.83,19.34,4.71,19.34,4.62,19.22z"/>
	<path class="st3" d="M15.04,17.23c-0.04,0.01-0.05,0.02-0.07,0.02c-0.01,0-0.01-0.03-0.01-0.05C14.98,17.21,15,17.22,15.04,17.23z"
		/>
	<path class="st3" d="M18.81,17.03c0.02-0.07,0.05-0.13,0.14-0.11C18.91,16.95,18.86,16.99,18.81,17.03z"/>
	<path class="st3" d="M5.9,16.65c0,0.04,0,0.08,0,0.13c-0.02-0.03-0.03-0.06-0.05-0.09C5.85,16.68,5.88,16.66,5.9,16.65z"/>
	<path class="st3" d="M4.24,19.22c0.04-0.02,0.08-0.02,0.12,0C4.32,19.29,4.28,19.29,4.24,19.22z"/>
</g>
<rect x="0.57" y="19.42" class="st3" width="22.51" height="0.68"/>
</svg>
