<?xml version="1.0" encoding="utf-8"?>
<!-- Generator: Adobe Illustrator 16.0.0, SVG Export Plug-In . SVG Version: 6.00 Build 0)  -->
<!DOCTYPE svg PUBLIC "-//W3C//DTD SVG 1.1//EN" "http://www.w3.org/Graphics/SVG/1.1/DTD/svg11.dtd">
<svg version="1.1" id="Layer_1" xmlns="http://www.w3.org/2000/svg" xmlns:xlink="http://www.w3.org/1999/xlink" x="0px" y="0px"
	 width="24px" height="24px" viewBox="0 0 24 24" enable-background="new 0 0 24 24" xml:space="preserve">
<g>
	<path fill-rule="evenodd" clip-rule="evenodd" fill="#FFFFFF" d="M10.631,0c0.58,0,1.159,0,1.738,0
		c0.113,0.028,0.224,0.069,0.338,0.085c4.793,0.643,8.017,3.259,9.672,7.779C22.702,8.743,22.798,9.706,23,10.63
		c0,0.579,0,1.158,0,1.737c-0.03,0.114-0.071,0.226-0.086,0.342c-0.616,4.664-3.132,7.862-7.496,9.565
		c-0.963,0.377-2.03,0.49-3.049,0.726c-0.58,0-1.159,0-1.738,0c-0.113-0.031-0.225-0.072-0.339-0.087
		c-4.772-0.638-7.987-3.243-9.659-7.73C0.3,14.29,0.205,13.309,0,12.367c0-0.579,0-1.158,0-1.737
		c0.038-0.249,0.08-0.498,0.113-0.748c0.594-4.466,3.988-8.314,8.38-9.469C9.194,0.229,9.918,0.135,10.631,0z M12.169,17.348
		c0-0.192,0-0.327,0-0.463c0-1.328-0.012-2.657,0.005-3.984c0.011-0.81,0.557-1.416,1.269-1.47c0.821-0.063,1.309,0.268,1.396,1.183
		c0.106,1.13,0.062,2.275,0.079,3.415c0.007,0.435,0.001,0.871,0.001,1.317c0.899,0,1.728,0,2.542,0
		c0.03-0.053,0.062-0.081,0.062-0.109c-0.017-1.771,0.044-3.545-0.083-5.306c-0.086-1.186-0.743-2.124-1.976-2.464
		c-1.231-0.341-2.325-0.12-3.15,0.946c-0.022,0.029-0.081,0.029-0.17,0.06c0-0.333,0-0.633,0-0.926c-0.882,0-1.722,0-2.557,0
		c0,2.621,0,5.202,0,7.801C10.451,17.348,11.278,17.348,12.169,17.348z M5.559,9.526c0,2.634,0,5.226,0,7.818
		c0.869,0,1.697,0,2.558,0c0-2.616,0-5.207,0-7.818C7.252,9.526,6.423,9.526,5.559,9.526z M8.292,7.124
		c0.006-0.801-0.584-1.379-1.424-1.395c-0.85-0.015-1.517,0.592-1.515,1.377c0.002,0.772,0.642,1.368,1.469,1.367
		C7.668,8.473,8.287,7.906,8.292,7.124z"/>
	<path fill-rule="evenodd" clip-rule="evenodd" fill="#005797" d="M12.169,17.348c-0.891,0-1.718,0-2.582,0c0-2.599,0-5.18,0-7.801
		c0.835,0,1.675,0,2.557,0c0,0.293,0,0.593,0,0.926c0.089-0.03,0.148-0.03,0.17-0.06c0.825-1.066,1.918-1.287,3.15-0.946
		c1.232,0.34,1.889,1.278,1.976,2.464c0.127,1.761,0.066,3.535,0.083,5.306c0,0.028-0.032,0.057-0.062,0.109
		c-0.814,0-1.643,0-2.542,0c0-0.446,0.006-0.883-0.001-1.317c-0.017-1.14,0.027-2.285-0.079-3.415
		c-0.087-0.915-0.575-1.246-1.396-1.183c-0.712,0.054-1.258,0.66-1.269,1.47c-0.017,1.327-0.005,2.656-0.005,3.984
		C12.169,17.021,12.169,17.155,12.169,17.348z"/>
	<path fill-rule="evenodd" clip-rule="evenodd" fill="#005797" d="M5.559,9.526c0.864,0,1.693,0,2.558,0c0,2.611,0,5.202,0,7.818
		c-0.861,0-1.689,0-2.558,0C5.559,14.752,5.559,12.16,5.559,9.526z"/>
	<path fill-rule="evenodd" clip-rule="evenodd" fill="#005797" d="M8.292,7.124c-0.005,0.782-0.624,1.349-1.471,1.35
		C5.995,8.475,5.354,7.879,5.353,7.106C5.351,6.321,6.018,5.715,6.868,5.729C7.708,5.745,8.298,6.323,8.292,7.124z"/>
</g>
</svg>
