<?xml version="1.0" encoding="utf-8"?>
<!-- Generator: Adobe Illustrator 25.3.1, SVG Export Plug-In . SVG Version: 6.00 Build 0)  -->
<svg version="1.1" id="Layer_1" xmlns="http://www.w3.org/2000/svg" xmlns:xlink="http://www.w3.org/1999/xlink" x="0px" y="0px"
	 viewBox="0 0 24 24" style="enable-background:new 0 0 24 24;" xml:space="preserve">
<style type="text/css">
	.st0{fill-rule:evenodd;clip-rule:evenodd;fill:#005897;}
	.st1{fill-rule:evenodd;clip-rule:evenodd;fill:#5D5E5E;}
	.st2{fill-rule:evenodd;clip-rule:evenodd;fill:#005897;stroke:#005897;stroke-width:0.25;stroke-miterlimit:10;}
	.st3{fill:#005897;}
	.st4{fill:#005897;stroke:#005897;stroke-width:0.25;stroke-miterlimit:10;}
	.st5{fill:#FBFBFB;}
	.st6{fill:#F6FAFD;}
	.st7{fill:#010201;}
	.st8{fill:#38ADE1;}
	.st9{fill:#005897;stroke:#FFFFFF;stroke-width:0.1;stroke-miterlimit:10;}
	.st10{fill:#005897;stroke:#005897;stroke-width:0.1;stroke-miterlimit:10;}
	.st11{fill:#005897;stroke:#005897;stroke-width:0.12;stroke-miterlimit:10;}
	.st12{fill:#174884;}
	.st13{fill:#9CBDD4;}
	.st14{fill:#FFFFFF;}
</style>
<path class="st5" d="M8.15,19.67c0.93,0.02,0.87-0.15,0.86,0.79c0,0.74,0.1,0.56-0.84,0.65c-0.81,0.08-0.57-0.44-0.63-0.85
	C7.45,19.62,7.82,19.62,8.15,19.67z"/>
<path class="st3" d="M9.76,14.85c-0.03,0.19-0.15,0.37-0.35,0.39c-0.23,0.02-0.35-0.18-0.37-0.38C9,14.62,9.21,14.49,9.4,14.48
	C9.57,14.48,9.73,14.62,9.76,14.85z"/>
<path class="st3" d="M14.54,14.46c0.17,0.1,0.39,0.11,0.38,0.36c-0.01,0.24-0.13,0.41-0.35,0.41c-0.22,0-0.34-0.17-0.36-0.4
	C14.19,14.57,14.43,14.58,14.54,14.46z"/>
<path class="st3" d="M3.42,15.95c-0.23,0-0.28-0.19-0.28-0.36c-0.01-0.2,0.11-0.35,0.34-0.33c0.21,0.02,0.42,0.1,0.38,0.35
	C3.83,15.81,3.69,15.96,3.42,15.95z"/>
<path class="st3" d="M6.06,15.58c-0.07,0.21-0.14,0.39-0.4,0.36c-0.23-0.02-0.3-0.19-0.31-0.37c0-0.22,0.14-0.32,0.36-0.32
	C5.93,15.26,6.02,15.39,6.06,15.58z"/>
<path class="st3" d="M20.46,15.96c-0.27-0.01-0.34-0.21-0.33-0.41c0.01-0.21,0.17-0.32,0.39-0.3c0.2,0.03,0.38,0.13,0.36,0.35
	C20.85,15.8,20.71,15.96,20.46,15.96z"/>
<path class="st3" d="M18.32,15.95c-0.29,0-0.41-0.12-0.42-0.37c-0.01-0.25,0.15-0.32,0.35-0.33c0.25-0.02,0.37,0.11,0.36,0.36
	C18.59,15.82,18.52,15.97,18.32,15.95z"/>
<path class="st3" d="M23.36,21.09c-0.16,0.02-0.34-0.02-0.5,0.01c-0.44,0.07-0.56-0.11-0.56-0.55c0.02-2.35,0-4.71,0.02-7.06
	c0-0.33-0.02-0.55-0.43-0.49c-0.25,0.04-0.32-0.1-0.31-0.33c0.01-0.22-0.02-0.45,0.01-0.67c0.05-0.38-0.11-0.46-0.46-0.46
	c-1.15,0.02-2.3-0.01-3.45,0.02c-0.4,0.01-0.5-0.12-0.49-0.5c0.02-0.7-0.02-1.41,0.01-2.11c0.03-0.68-0.24-1.2-0.79-1.53
	c-0.29-0.17-0.4-0.35-0.37-0.65c0.03-0.28-0.02-0.43-0.37-0.44c-0.37,0-0.43,0.15-0.41,0.47c0.02,0.21,0.05,0.42-0.22,0.57
	c-0.58,0.32-0.95,0.79-0.83,1.52c0.05,0.31-0.08,0.42-0.4,0.42c-1.2-0.01-2.41-0.02-3.61,0c-0.34,0-0.48-0.11-0.44-0.45
	c0.08-0.64-0.22-1.13-0.74-1.43c-0.32-0.18-0.4-0.4-0.36-0.72C8.7,6.4,8.55,6.34,8.27,6.34c-0.27,0-0.44,0.04-0.38,0.36
	C7.97,7.08,7.8,7.31,7.48,7.49C6.97,7.77,6.81,8.23,6.81,8.78c0,0.72-0.02,1.45,0.01,2.17c0.02,0.44-0.1,0.63-0.59,0.61
	c-0.94-0.04-1.89-0.01-2.84-0.01c-0.99,0-0.99,0-1.01,1c-0.01,0.27-0.02,0.5-0.38,0.45c-0.4-0.06-0.39,0.19-0.39,0.48
	c0.01,2.22,0,4.45,0,6.67c0,0.93,0,0.95-0.92,0.93c-0.35-0.01-0.53,0.03-0.53,0.46c0,0.47,0.27,0.38,0.54,0.38
	c3.25,0,10.1,0,12.86,0v0.01h2.12c0,0,0,0,0,0c2.56-0.01,5.12-0.02,7.67-0.01c0.31,0,0.5-0.04,0.49-0.41
	C23.83,21.18,23.69,21.05,23.36,21.09z M4.94,21.1c-1.07,0.05-1.07,0.06-1.07-1c0-0.81,0-1.62,0-2.44c0-0.36,0.48-0.99,0.71-0.89
	c0.35,0.15,0.74,0.34,0.73,0.84c-0.01,0.54,0,1.07,0,1.61c0,0.5-0.01,1,0.01,1.5C5.34,21.01,5.23,21.09,4.94,21.1z M6.82,20.62
	c0,0.29-0.01,0.48-0.4,0.49c-0.42,0-0.37-0.24-0.37-0.51c0-0.96-0.03-1.93,0.01-2.89c0.04-0.96-0.54-1.39-1.29-1.67
	c-0.68-0.25-1.64,0.68-1.66,1.56c-0.02,1-0.01,2,0,3c0,0.26,0.04,0.51-0.37,0.51c-0.42,0-0.38-0.24-0.37-0.5c0-1.06,0-2.11,0-3.17
	c0,0,0,0,0,0c0-1.09,0-2.18,0-3.28c0-0.18-0.09-0.43,0.25-0.44c0.35-0.02,0.29,0.23,0.27,0.41c-0.03,0.3,0.15,0.33,0.37,0.34
	c0.21,0.01,0.41,0.01,0.4-0.31c-0.01-0.19-0.07-0.43,0.27-0.44c0.38-0.01,0.29,0.26,0.28,0.46c-0.01,0.28,0.16,0.29,0.36,0.29
	c0.19,0,0.38,0.01,0.36-0.28c-0.01-0.21-0.07-0.46,0.29-0.47c0.36-0.01,0.32,0.23,0.31,0.45c-0.02,0.26,0.11,0.32,0.34,0.3
	c0.19-0.01,0.38,0.02,0.37-0.27c-0.01-0.23-0.07-0.52,0.33-0.47c0.35,0.04,0.25,0.32,0.25,0.51C6.82,16.37,6.82,18.49,6.82,20.62z
	 M6.49,13.01c-1.02-0.01-2.03-0.01-3.05,0c-0.29,0-0.33-0.15-0.34-0.38c0-0.24,0.05-0.38,0.34-0.38c0.52,0.02,1.03,0,1.55,0
	c0.5,0,1,0.01,1.5,0c0.27-0.01,0.36,0.11,0.34,0.37C6.82,12.87,6.77,13.02,6.49,13.01z M15.7,7.92c0.36,0.02,0.68,0.46,0.72,0.89
	c0.07,0.7-0.44,0.45-0.78,0.5c-0.29-0.07-0.79,0.22-0.74-0.46C14.94,8.39,15.32,7.9,15.7,7.92z M7.55,8.85
	C7.59,8.4,7.93,7.92,8.29,7.92c0.35,0.01,0.7,0.47,0.73,0.9C9.08,9.55,8.54,9.22,8.25,9.3C7.93,9.26,7.49,9.48,7.55,8.85z
	 M8.53,10.04c1.15,0,2.3,0,3.45,0c1.32,0,2.63,0.01,3.95-0.01c0.38-0.01,0.51,0.08,0.5,0.48c-0.04,1.28,0.1,1.03-1.02,1.03
	c-2.43,0.01-4.85-0.01-7.28,0.01c-0.42,0-0.58-0.08-0.57-0.54C7.57,10.04,7.55,10.04,8.53,10.04z M13.94,13.02
	c-0.28,0-0.32-0.16-0.33-0.39c-0.01-0.25,0.06-0.37,0.33-0.37c0.26,0,0.3,0.14,0.27,0.35C14.23,12.82,14.24,13.02,13.94,13.02z
	 M12.64,13.02c-0.31,0-0.28-0.21-0.29-0.41c-0.01-0.2,0.02-0.35,0.28-0.35c0.33-0.01,0.27,0.21,0.27,0.29
	C12.9,12.84,12.92,13.02,12.64,13.02z M11.37,13.01c-0.29,0.01-0.34-0.15-0.32-0.38c-0.01-0.2-0.01-0.37,0.27-0.38
	c0.29-0.01,0.28,0.17,0.26,0.35C11.56,12.77,11.68,13,11.37,13.01z M10.31,12.62c0,0.21,0,0.42-0.31,0.4
	C9.74,13,9.75,12.8,9.75,12.58c-0.01-0.16,0.02-0.32,0.28-0.32C10.3,12.25,10.31,12.43,10.31,12.62z M7.78,13.01
	c-0.31,0-0.22-0.24-0.23-0.4c-0.01-0.16-0.05-0.35,0.22-0.34c0.26,0.01,0.52,0,0.78,0c0.24,0,0.48-0.05,0.48,0.34
	c0,0.37-0.18,0.44-0.48,0.41c-0.09-0.01-0.19,0-0.28,0c0,0,0,0,0,0C8.11,13.01,7.95,13.01,7.78,13.01z M8.18,21.11
	c-0.81,0.08-0.57-0.44-0.63-0.85c-0.09-0.64,0.28-0.64,0.61-0.59c0.93,0.02,0.87-0.15,0.86,0.79C9.02,21.2,9.12,21.02,8.18,21.11z
	 M8.87,18.89C8.5,19,8.07,18.94,7.66,18.91c-0.16-0.01-0.1-0.21-0.1-0.33c0-1.48,0.01-2.96-0.01-4.45c-0.01-0.38,0.16-0.41,0.46-0.4
	c1.33,0.01,2.67,0.01,4,0.01c1.3,0,2.59,0.01,3.89-0.01c0.36-0.01,0.53,0.05,0.52,0.47c-0.02,1.44-0.02,2.89,0,4.33
	c0,0.31-0.09,0.4-0.41,0.41c-1.08,0.01-1.08,0.03-1.08-1.06c0-1.81-0.93-2.98-2.71-3.29c-0.93-0.16-1.66,0.37-2.32,0.95
	c-0.8,0.7-0.91,1.63-0.88,2.61C9.02,18.4,9.18,18.8,8.87,18.89z M10.08,21.09c-0.14,0-0.32,0.01-0.31-0.21
	c0.03-1.26-0.09-2.52,0.06-3.76c0.13-1.02,1.39-1.75,2.09-1.83c0.73-0.08,1.86,0.8,2.15,1.66c0.19,0.15,0.15,0.37,0.15,0.56
	c0.01,0.41,0,0.83,0,1.24h0v0.71c-0.01,0.1-0.02,0.21,0,0.29v1.31c-0.04-0.02-0.07-0.02-0.1,0C12.77,21.07,11.42,21.08,10.08,21.09z
	 M15.96,21.06h-0.97v-1.3c0.39-0.23,0.86-0.08,1.29-0.07c0.13,0,0.14,0.15,0.14,0.26c0,0.3-0.01,0.59,0,0.89
	C16.43,20.96,16.18,21.02,15.96,21.06z M15.92,13.01c-0.09,0-0.18,0-0.32,0c-0.26-0.06-0.77,0.21-0.7-0.47
	c0.02-0.22,0.11-0.29,0.31-0.28c0.24,0,0.48,0.01,0.72,0c0.27-0.01,0.5-0.04,0.5,0.38C16.42,13.04,16.19,13.03,15.92,13.01z
	 M17.51,12.26c0.5,0.02,1,0.01,1.5,0.01c0.52,0,1.04,0.01,1.55,0c0.28-0.01,0.34,0.13,0.33,0.38c0,0.24-0.05,0.38-0.33,0.38
	c-1.02-0.01-2.03-0.01-3.05,0c-0.31,0-0.31-0.16-0.32-0.39C17.18,12.4,17.2,12.24,17.51,12.26z M19.81,21.1c-0.04,0-0.07,0-0.11,0
	c-1.1,0.04-1.1,0.04-1.1-1.05c0-0.78,0-1.55,0-2.33c0-0.43,0.46-0.99,0.79-0.97c0.32,0.02,0.73,0.55,0.73,0.97c0.01,0.5,0,1,0,1.5
	c0,0.52-0.01,1.03,0,1.55C20.13,21,20.05,21.12,19.81,21.1z M21.57,17.46c0,1.07,0,2.15,0,3.22c0,0.23,0.02,0.42-0.33,0.42
	c-0.37,0.01-0.37-0.17-0.36-0.44c0.01-0.98-0.04-1.96,0.02-2.94c0.05-0.86-0.75-1.54-1.38-1.7c-0.63-0.17-1.62,0.71-1.63,1.43
	c-0.01,1.07-0.01,2.15,0,3.22c0,0.28-0.03,0.43-0.37,0.43c-0.34,0-0.33-0.18-0.33-0.42c0-2.17,0-4.33,0.01-6.5
	c0-0.17-0.13-0.44,0.22-0.46c0.33-0.01,0.29,0.23,0.28,0.42c-0.01,0.29,0.15,0.33,0.38,0.34c0.25,0,0.38-0.08,0.37-0.35
	c-0.01-0.2-0.03-0.43,0.29-0.41c0.3,0.02,0.24,0.24,0.24,0.41c-0.01,0.27,0.12,0.35,0.37,0.36c0.27,0.01,0.42-0.07,0.4-0.38
	c-0.01-0.17-0.03-0.38,0.26-0.39c0.31-0.01,0.27,0.2,0.25,0.37c-0.03,0.31,0.13,0.38,0.39,0.39c0.27,0.01,0.42-0.07,0.4-0.38
	c-0.02-0.21,0-0.41,0.31-0.39c0.33,0.02,0.21,0.25,0.21,0.4C21.58,15.24,21.57,16.35,21.57,17.46z"/>
</svg>
