<?xml version="1.0" encoding="utf-8"?>
<!-- Generator: Adobe Illustrator 25.3.1, SVG Export Plug-In . SVG Version: 6.00 Build 0)  -->
<svg version="1.1" id="Layer_1" xmlns="http://www.w3.org/2000/svg" xmlns:xlink="http://www.w3.org/1999/xlink" x="0px" y="0px"
	 viewBox="0 0 24 24" style="enable-background:new 0 0 24 24;" xml:space="preserve">
<style type="text/css">
	.st0{fill-rule:evenodd;clip-rule:evenodd;fill:#005897;}
	.st1{fill-rule:evenodd;clip-rule:evenodd;fill:#5D5E5E;}
	.st2{fill-rule:evenodd;clip-rule:evenodd;fill:#005897;stroke:#005897;stroke-width:0.25;stroke-miterlimit:10;}
	.st3{fill:#005897;}
	.st4{fill:#005897;stroke:#005897;stroke-width:0.25;stroke-miterlimit:10;}
	.st5{fill:#FBFBFB;}
	.st6{fill:#F6FAFD;}
	.st7{fill:#010201;}
	.st8{fill:#38ADE1;}
	.st9{fill:#005897;stroke:#FFFFFF;stroke-width:0.1;stroke-miterlimit:10;}
	.st10{fill:#005897;stroke:#005897;stroke-width:0.1;stroke-miterlimit:10;}
	.st11{fill:#005897;stroke:#005897;stroke-width:0.12;stroke-miterlimit:10;}
	.st12{fill:#174884;}
	.st13{fill:#9CBDD4;}
	.st14{fill:#FFFFFF;}
</style>
<g>
	<path class="st9" d="M1.21,5.53c0-0.22,0-0.43,0-0.65C1.47,4,2.02,3.4,2.94,3.18C3.2,3.12,3.16,2.95,3.16,2.77
		C3.15,2.48,3.12,2.18,3.44,2.01c0.09,0,0.19,0,0.28,0c0.2,0.18,0.26,0.41,0.23,0.66C3.89,3.01,4.03,3.13,4.36,3.23
		c1.31,0.39,1.87,1.67,1.3,2.9C5.58,6.3,5.58,6.45,5.58,6.62c0,2.27,0,4.54,0,6.81c0,0.11-0.07,0.24,0.07,0.33
		c0.36-0.65,0.72-1.3,1.09-1.94c0.1-0.18,0.14-0.36,0.14-0.57c-0.01-1.56,0-3.12,0-4.68c0-0.17-0.03-0.33-0.1-0.49
		C6.27,4.95,6.72,3.76,7.89,3.32c0.47-0.17,0.75-0.34,0.64-0.88c-0.04-0.19,0.12-0.3,0.21-0.44c0.12,0,0.25,0,0.37,0
		C9.27,2.2,9.33,2.43,9.29,2.68C9.24,3.01,9.37,3.14,9.7,3.24c1.32,0.4,1.92,1.78,1.3,2.89c-0.09,0.16-0.1,0.32-0.1,0.49
		c0,1.41,0.01,2.81-0.01,4.22c-0.01,0.37,0.12,0.43,0.45,0.43c1.73-0.02,3.46-0.01,5.19,0c0.59,0,1.17-0.05,1.76,0.03
		c0.04,0.02,0.09,0.05,0.13,0.07c0.53,0.74,0.9,1.56,1.36,2.34c0.79,1.35,1.48,2.75,2.32,4.07c0,1.56-0.01,3.12,0.01,4.68
		c0,0.33-0.05,0.44-0.42,0.44c-6.64-0.01-13.28-0.01-19.93-0.01c-0.23-0.19-0.21-0.46-0.21-0.72c0-4.96-0.01-9.91,0.01-14.87
		C1.57,6.68,1.51,6.09,1.21,5.53z M18.28,19.54c0.01,0.63,0.02,1.27,0.02,1.9c0,0.67,0,0.66,0.66,0.67c0.28,0,0.38-0.06,0.37-0.36
		c-0.02-0.65,0-1.3-0.01-1.95c-0.01-0.31,0.06-0.59,0.42-0.59c0.34,0,0.38,0.3,0.39,0.58c0,0.53,0,1.05,0,1.58
		c0,0.74,0,0.73,0.76,0.74c0.35,0.01,0.45-0.09,0.44-0.44c-0.03-0.96-0.03-1.92,0-2.88c0.01-0.37-0.1-0.46-0.46-0.46
		c-2.91,0.02-5.82,0.01-8.73,0.01c-2.58,0-5.17,0.01-7.75-0.01c-0.33,0-0.41,0.08-0.41,0.41c0.02,1,0.03,2.01,0,3.01
		c-0.01,0.42,0.24,0.33,0.47,0.34c0.25,0.01,0.49,0.05,0.46-0.36c-0.03-0.66,0-1.33-0.01-1.99c-0.01-0.3,0.07-0.55,0.41-0.54
		c0.31,0.01,0.38,0.25,0.37,0.53c-0.01,0.68,0.01,1.36-0.01,2.04C5.66,22.27,6,22.08,6.22,22.1c0.22,0.02,0.5,0.11,0.48-0.32
		c-0.03-0.66,0-1.33-0.01-1.99c0-0.3,0.07-0.56,0.4-0.56c0.35-0.01,0.4,0.27,0.39,0.56c0,0.63,0.02,1.27-0.01,1.9
		c-0.02,0.36,0.1,0.48,0.44,0.43c0.27-0.04,0.64,0.15,0.6-0.41c-0.04-0.68-0.01-1.36-0.01-2.04c0-0.18,0.03-0.34,0.23-0.41
		c0.2-0.07,0.36-0.04,0.46,0.17c0.02,0.04,0.04,0.09,0.07,0.13c0.01,0.65,0.01,1.3,0.02,1.94c0,0.63,0,0.61,0.65,0.62
		c0.32,0.01,0.38-0.1,0.38-0.39c-0.02-0.72,0-1.45,0.01-2.18c0.02-0.04,0.04-0.09,0.07-0.13c0.1-0.21,0.26-0.23,0.46-0.17
		c0.2,0.07,0.23,0.23,0.23,0.41c0,0.6,0,1.2,0.01,1.81c0,0.66,0,0.64,0.68,0.65c0.31,0,0.36-0.12,0.35-0.38
		c-0.02-0.63,0-1.27-0.01-1.9c0-0.29,0.01-0.61,0.39-0.61c0.36,0,0.42,0.29,0.41,0.6c-0.01,0.54,0,1.08,0,1.62
		c0,0.7,0,0.69,0.7,0.67c0.28-0.01,0.33-0.12,0.32-0.36c-0.01-0.66,0-1.33-0.01-1.99c-0.01-0.3,0.07-0.55,0.4-0.54
		c0.31,0.01,0.38,0.24,0.37,0.53c-0.01,0.68,0.01,1.36-0.01,2.04c-0.02,0.48,0.32,0.31,0.54,0.32c0.22,0.01,0.51,0.12,0.48-0.32
		c-0.03-0.66,0-1.33-0.01-1.99c0-0.3,0.08-0.56,0.4-0.57c0.33-0.01,0.42,0.25,0.41,0.55c-0.01,0.66,0.02,1.33-0.01,1.99
		c-0.02,0.47,0.28,0.34,0.52,0.34c0.24,0,0.54,0.12,0.52-0.34c-0.03-0.69-0.01-1.39-0.01-2.09c0-0.18,0.02-0.34,0.22-0.42
		c0.19-0.07,0.36-0.06,0.46,0.14C18.24,19.45,18.26,19.5,18.28,19.54z M5.78,15.15c4.67,0,9.25,0,13.9,0
		c-0.57-1.02-1.12-2-1.66-2.98c-0.09-0.17-0.22-0.14-0.36-0.14c-3.29,0-6.59,0-9.88,0c-0.14,0-0.27-0.01-0.35,0.15
		C6.9,13.15,6.36,14.12,5.78,15.15z M4.44,17.56c5.56,0,11.04,0,16.58,0c-0.29-0.52-0.55-1-0.81-1.48
		c-0.08-0.15-0.21-0.15-0.35-0.15c-4.75,0-9.49,0-14.24,0c-0.16,0-0.29,0-0.38,0.18C5,16.59,4.73,17.05,4.44,17.56z M2.33,17.04
		c0,1.56,0.01,3.12-0.01,4.68c0,0.35,0.13,0.4,0.43,0.4c0.3,0,0.43-0.04,0.43-0.39c-0.01-3.1-0.02-6.21,0-9.31
		c0-0.36-0.14-0.39-0.43-0.38c-0.29,0-0.44,0.02-0.43,0.38C2.35,13.95,2.33,15.49,2.33,17.04z M8.89,5.83
		c0.37,0,0.74-0.02,1.11,0.01c0.25,0.01,0.35-0.1,0.41-0.32c0.22-0.78-0.42-1.54-1.38-1.63C8.1,3.79,7.24,4.54,7.35,5.35
		c0.04,0.3,0.14,0.52,0.52,0.48C8.21,5.8,8.55,5.83,8.89,5.83z M3.56,5.83c0.34,0,0.68-0.03,1.02,0.01c0.4,0.04,0.51-0.18,0.54-0.51
		c0.06-0.71-0.5-1.31-1.34-1.44c-0.97-0.14-1.85,0.6-1.75,1.47c0.04,0.32,0.14,0.51,0.51,0.48C2.88,5.8,3.22,5.83,3.56,5.83z
		 M3.67,8.9c-0.12,0-0.16,0-0.21,0c-1.13,0-1.13,0-1.13,1.11c0,0.4-0.13,0.91,0.07,1.16c0.21,0.26,0.75,0.06,1.15,0.09
		c0.03,0,0.06,0,0.09,0c0.37-0.01,0.86,0.12,1.07-0.07c0.25-0.22,0.08-0.72,0.08-1.1c0-0.38,0.18-0.87-0.08-1.11
		C4.47,8.74,3.98,8.93,3.67,8.9z M8.8,11.26c0.39,0,0.72-0.01,1.04,0c0.22,0.01,0.29-0.07,0.29-0.29c-0.01-0.58-0.01-1.17,0-1.75
		c0.01-0.23-0.06-0.33-0.31-0.32c-0.32,0.02-0.65,0-0.97,0.01C8.48,8.91,8,8.79,7.78,8.97c-0.27,0.22-0.08,0.72-0.09,1.1
		c-0.01,0.38-0.17,0.87,0.07,1.11C7.99,11.43,8.49,11.22,8.8,11.26z M3.99,16.6c0.31-0.51,0.78-0.93,0.8-1.53
		c0.04-0.89,0-1.79,0.02-2.69c0.01-0.29-0.08-0.36-0.36-0.36c-0.33,0-0.5,0.04-0.47,0.44c0.04,0.54,0.01,1.08,0.01,1.62
		C3.99,14.92,3.99,15.76,3.99,16.6z M3.56,6.63c-0.03,0-0.06,0-0.09,0c-1.18,0-1.17,0-1.15,1.19c0.01,0.23,0.04,0.32,0.3,0.33
		c0.38,0.02,0.63-0.03,0.54-0.5c-0.02-0.1-0.02-0.22,0.01-0.32C3.22,7.12,3.34,7,3.56,7c0.22,0,0.35,0.11,0.37,0.32
		c0.02,0.18,0.03,0.37,0.02,0.55c-0.02,0.4,0.28,0.23,0.45,0.25C4.59,8.14,4.79,8.2,4.81,7.86C4.89,6.62,4.9,6.63,3.66,6.63
		C3.63,6.63,3.6,6.63,3.56,6.63z M8.91,6.63c-1.31,0-1.31,0-1.22,1.24c0,0.03,0,0.06,0,0.09C7.68,8.09,7.74,8.12,7.85,8.14
		c0.52,0.1,0.66,0,0.67-0.51c0-0.09,0-0.19,0.01-0.28C8.54,7.13,8.66,7.01,8.88,7C9.12,7,9.26,7.11,9.28,7.35
		c0.02,0.18,0.02,0.37,0,0.56C9.26,8.2,9.48,8.16,9.62,8.12c0.17-0.04,0.45,0.2,0.5-0.19c0.16-1.24,0.11-1.3-1.12-1.3
		C8.97,6.63,8.94,6.63,8.91,6.63z"/>
	<path class="st9" d="M18.3,11.29c0.06-0.01,0.1,0.02,0.13,0.07C18.38,11.34,18.34,11.32,18.3,11.29z"/>
	<path class="st9" d="M9.21,19.42c0.06,0.03,0.08,0.07,0.07,0.13C9.25,19.5,9.23,19.46,9.21,19.42z"/>
	<path class="st9" d="M10.32,19.54c-0.01-0.06,0.01-0.1,0.07-0.13C10.37,19.46,10.35,19.5,10.32,19.54z"/>
	<path class="st9" d="M18.21,19.4c0.06,0.03,0.08,0.08,0.07,0.15C18.26,19.5,18.24,19.45,18.21,19.4z"/>
	<path class="st9" d="M4.36,10.05c-0.01,0.43-0.38,0.78-0.81,0.78c-0.44-0.01-0.78-0.36-0.77-0.8c0.01-0.45,0.36-0.79,0.8-0.78
		C4.01,9.25,4.37,9.62,4.36,10.05z"/>
	<path class="st9" d="M9.68,10.04c0,0.45-0.33,0.79-0.78,0.79c-0.43,0-0.8-0.36-0.8-0.79c0-0.43,0.37-0.79,0.8-0.79
		C9.35,9.25,9.68,9.59,9.68,10.04z"/>
</g>
</svg>
