<?xml version="1.0" encoding="utf-8"?>
<!-- Generator: Adobe Illustrator 25.3.1, SVG Export Plug-In . SVG Version: 6.00 Build 0)  -->
<svg version="1.1" id="Layer_1" xmlns="http://www.w3.org/2000/svg" xmlns:xlink="http://www.w3.org/1999/xlink" x="0px" y="0px"
	 viewBox="0 0 24 24" style="enable-background:new 0 0 24 24;" xml:space="preserve">
<style type="text/css">
	.st0{fill-rule:evenodd;clip-rule:evenodd;fill:#005897;}
	.st1{fill-rule:evenodd;clip-rule:evenodd;fill:#5D5E5E;}
	.st2{fill-rule:evenodd;clip-rule:evenodd;fill:#005897;stroke:#005897;stroke-width:0.25;stroke-miterlimit:10;}
	.st3{fill:#005897;}
	.st4{fill:#005897;stroke:#005897;stroke-width:0.25;stroke-miterlimit:10;}
	.st5{fill:#FBFBFB;}
	.st6{fill:#F6FAFD;}
	.st7{fill:#010201;}
	.st8{fill:#38ADE1;}
	.st9{fill:#005897;stroke:#FFFFFF;stroke-width:0.1;stroke-miterlimit:10;}
	.st10{fill:#005897;stroke:#005897;stroke-width:0.1;stroke-miterlimit:10;}
	.st11{fill:#005897;stroke:#005897;stroke-width:0.12;stroke-miterlimit:10;}
	.st12{fill:#174884;}
	.st13{fill:#9CBDD4;}
	.st14{fill:#FFFFFF;}
</style>
<g>
	<path class="st3" d="M10.05,23.2c-0.68-0.06-1.36-0.05-2.04-0.01c-0.68-0.05-1.36-0.06-2.04,0c-0.68-0.06-1.36-0.05-2.04,0
		c-0.72-0.01-1.44-0.01-2.16-0.02c-0.05-0.03-0.09-0.05-0.14-0.08c-0.16-0.22-0.23-0.43,0.02-0.64c0.16-0.03,0.32-0.07,0.48-0.1
		c0.04,0,0.08,0,0.12,0c0.1,0.03,0.2,0.03,0.19-0.12c0.07-2.49,0.04-4.98,0.01-7.47c0-0.59,0-1.18-0.01-1.77
		c0.06-0.84,0.05-1.68,0-2.51c0-0.64,0-1.28,0.01-1.92C2.52,7.61,2.52,7.61,3.52,7.6c0.14,0,0.28-0.02,0.42-0.03
		C4.35,7.59,4.77,7.6,5.19,7.6c0.92,0,0.92,0,0.88-0.91c0-0.61,0-1.22,0-1.83c0-0.04,0-0.08,0-0.12c0-0.08,0-0.16,0-0.24
		c0.03-0.11,0.07-0.22,0.1-0.33c0.3-0.19,0.64-0.13,0.97-0.11c0.45,0.02,0.55-0.17,0.42-0.56c0.1-0.14,0.06-0.28,0.04-0.43
		c0-0.24,0.01-0.48,0.01-0.73c0.04-0.22,0.26-0.25,0.4-0.35c0.47,0,1,0.14,1.4-0.03c0.45-0.19,0.06-0.8,0.25-1.19
		c0.03-0.05,0.05-0.11,0.07-0.16c0.11-0.04,0.22-0.08,0.32-0.12c0.08,0.02,0.15,0.05,0.23,0.07C10.56,1,10.13,1.7,10.56,1.95
		c0.39,0.22,0.99,0.08,1.5,0.09c0.26,0.02,0.28,0.25,0.36,0.42c0,0.39,0.02,0.79,0,1.18c-0.02,0.3,0.08,0.41,0.39,0.42
		c0.33,0,0.4-0.12,0.38-0.42c-0.03-0.39-0.02-0.79-0.03-1.18c0.13-0.66,0.69-0.37,1.07-0.48c0.68,0,1.36,0,2.04,0
		c0.68,0,1.36,0,2.04,0C19,1.99,19.68,2,20.36,2.01c0.26,0.13,0.72-0.08,0.75,0.45c0,0.68,0,1.36,0,2.04c0,0.68,0,1.36,0,2.04
		c0,0.68,0.01,1.36,0.01,2.04c-0.06,0.72-0.05,1.44,0,2.15c0,0.64,0,1.28,0,1.92c-0.05,0.72-0.04,1.44,0.01,2.15
		c0,0.68,0,1.36,0,2.04c0,0.76,0,1.52,0.01,2.27c0,0.6,0,1.2,0,1.8c-0.05,0.44-0.05,0.88,0,1.32c-0.03,0.07-0.01,0.1,0.07,0.1
		c0.31,0.19,1.05-0.14,0.83,0.69c-0.49,0.29-1.04,0.03-1.55,0.16c-0.72-0.05-1.44-0.05-2.16,0c-0.68,0-1.36,0-2.04,0
		c-0.68-0.06-1.36-0.06-2.04,0c-0.68-0.04-1.36-0.06-2.04,0C11.49,23.14,10.77,23.14,10.05,23.2z M9.57,15.53c0-0.08,0-0.16,0-0.24
		c0-0.12,0-0.24,0-0.36c0.07-0.76,0.05-1.52,0-2.28c0-0.64,0-1.28,0-1.92c0.01-0.32,0.03-0.64,0.03-0.95
		c0.01-1.5,0.01-1.5-1.49-1.37C8.09,8.37,8.06,8.37,8.02,8.4C7.78,8.34,7.54,8.35,7.3,8.39c-0.36,0-0.72,0-1.09,0
		c-0.12,0-0.25,0.01-0.37,0.01c-0.15-0.04-0.3-0.04-0.45,0.01C4.83,8.4,4.26,8.39,3.7,8.39C3.41,8.31,3.24,8.37,3.25,8.71
		c0.02,0.55,0.03,1.1,0.04,1.65c0,0.06,0.01,0.11,0.01,0.17c0,0.06-0.01,0.13-0.01,0.19c-0.05,0.65-0.05,1.29,0,1.94
		c0,0.06,0.01,0.13,0.01,0.19c0,0.05-0.01,0.11-0.01,0.16c-0.06,0.51-0.06,1.03,0,1.54c-0.04,0.18-0.07,0.35,0.02,0.52
		c-0.09,0.14-0.07,0.29-0.03,0.43c0,0.33,0,0.65,0,0.98c-0.03,0.03-0.03,0.07,0,0.11c0,0.08,0,0.16,0,0.24
		c-0.04,0.68-0.05,1.36,0.01,2.03c0,0.12-0.01,0.25-0.01,0.37c-0.03,0.04-0.03,0.07,0,0.11c-0.02,0.97-0.09,1.94,0.04,2.91
		l-0.03,0.02l0.04,0.01c0.07,0.02,0.15,0.07,0.22,0.07c1.84-0.03,1.44,0.37,1.45-1.45C5,20.59,5.17,20.39,5.5,20.32
		c0.75,0.11,1.51-0.09,2.25,0.13c0.04,0.16,0.09,0.31,0.13,0.47c-0.04,0.44-0.09,0.88,0.01,1.32c-0.02,0.1,0.03,0.13,0.12,0.11
		c0.08,0.01,0.16,0.03,0.24,0.03c1.65-0.06,1.37,0.4,1.33-1.46c0.05-0.52,0.05-1.04,0-1.56c0.06-0.96,0.06-1.92,0-2.88
		C9.62,16.17,9.62,15.85,9.57,15.53z M15.2,13.01c-0.12,0-0.25,0-0.37,0c-0.13,0-0.25,0-0.38,0c-0.81-0.07-1.62-0.09-2.43,0
		c-0.3-0.05-0.59-0.06-0.89,0c-0.11,0-0.22,0-0.33,0c-0.24-0.08-0.42-0.08-0.41,0.26c0.02,0.43,0.02,0.86,0.03,1.29
		c0,0.76,0,1.52,0,2.28c0,0.68,0,1.36,0,2.04c0,0.68,0,1.36,0,2.04c-0.01,0.38,0,0.76-0.02,1.14c-0.01,0.25,0.05,0.34,0.32,0.34
		c1.85-0.02,3.71-0.02,5.56-0.03c0.36,0.11,0.51-0.02,0.48-0.39c-0.02-0.31-0.02-0.62-0.03-0.93c0-0.72,0-1.44,0-2.16
		c0-0.71,0-1.43,0-2.14c0-0.59,0-1.19,0-1.78c0.01-0.53,0.02-1.07,0.03-1.6c0.01-0.37-0.16-0.45-0.48-0.36
		C15.92,12.96,15.56,12.95,15.2,13.01z M20.33,2.93c0.02-0.08,0.01-0.13-0.09-0.11c-0.68-0.06-1.36-0.05-2.04,0
		c-0.52-0.05-1.04-0.05-1.56,0c-0.72-0.01-1.43,0-2.15-0.05c-0.41-0.02-0.53,0.1-0.53,0.52c0.02,2.79,0.01,5.58,0.02,8.37
		c0,0.18-0.16,0.51,0.19,0.52c0.35,0,0.81,0.24,1.04-0.15c0.32-0.53,0.53-0.46,0.79,0.02c0.03,0.16,0.12,0.18,0.24,0.09
		c0.09,0.01,0.18,0.01,0.27,0.02c0.08,0.06,0.18,0.03,0.2-0.03c0.1-0.24,0.17-0.52,0.52-0.42c0.34,0.1,0.25,0.4,0.26,0.65
		c0.01,0.1,0.02,0.2,0.03,0.29c-0.05,0.76-0.05,1.51,0,2.27c-0.05,0.64-0.05,1.27,0,1.91c0,0.53,0,1.05,0,1.58c0,0.11,0,0.23,0,0.34
		c0,0.08,0,0.16,0,0.25c-0.04,0.64-0.05,1.28,0.01,1.93c0,0.08-0.01,0.16-0.01,0.24c0.06,0.4-0.28,0.86,0.18,1.19
		c0.2,0.05,0.4,0.06,0.6,0c0.26,0.01,0.52,0.03,0.77,0.03c1.31,0,1.31,0,1.22-1.35c0-0.72,0-1.44,0-2.15c0-0.64,0-1.28,0-1.92
		c0-2.08,0-4.15,0-6.23c0-0.68,0-1.36,0-2.04c0-0.72,0-1.44,0-2.15c0-0.64,0-1.28,0-1.92C20.33,4.05,20.33,3.49,20.33,2.93z
		 M11.88,8.67c-0.31,0.38-0.74,0.16-1.11,0.23c-0.13,0.02-0.35-0.11-0.36,0.16c-0.01,0.33-0.07,0.7,0.05,0.99
		c0.09,0.22,0.46,0.06,0.71,0.09c0.18,0.02,0.35,0.04,0.53,0.06c0.22,0.12,0.25,0.3,0.15,0.5c-0.13,0.26-0.38,0.25-0.62,0.25
		c-0.88,0.01-0.87,0.01-0.83,0.9c0.01,0.29,0.11,0.38,0.38,0.36c0.43-0.03,0.87-0.02,1.31-0.03c1.09,0.08,1.09,0.08,1.09-0.97
		c0-0.2-0.01-0.4-0.02-0.59c0-0.68,0-1.36,0-2.04c0.01-1.14,0.01-2.27,0.04-3.41c0.01-0.31-0.14-0.36-0.39-0.36
		c-0.92,0.02-1.83,0.02-2.75,0.04c-0.68-0.06-1.36-0.04-2.04,0c-0.22-0.01-0.44,0-0.66-0.04c-0.42-0.06-0.56,0.1-0.54,0.52
		c0.04,0.68,0.02,1.36,0.03,2.03C6.82,7.41,6.83,7.44,6.86,7.48c0.28,0.28,0.61,0.08,0.92,0.1c0.08,0,0.16,0,0.24,0
		C8.56,7.59,9.12,7.6,9.67,7.62c0.2,0.01,0.49-0.05,0.56,0.11c0.22,0.49,0.63,0.36,0.99,0.39c0.31,0.03,0.66,0.01,0.7,0.45
		C11.89,8.59,11.87,8.63,11.88,8.67z M10.05,4.03C10.05,4.03,10.05,4.03,10.05,4.03c0.26,0.01,0.52,0.01,0.78,0.01
		c0.93,0,0.92,0,0.85-0.92c-0.02-0.25-0.09-0.35-0.35-0.34c-0.88,0.01-1.75,0-2.63,0.01C8.55,2.79,8.4,2.77,8.35,3
		c-0.17,0.78,0.01,1.02,0.8,1.03C9.45,4.03,9.75,4.03,10.05,4.03z M6.99,22.38c0.12-0.5,0.2-0.95-0.1-1.16
		c-0.25-0.17-0.83-0.2-1,0.02c-0.21,0.27-0.15,0.75,0,1.15c0.41-0.26-0.15-0.97,0.53-0.98C6.98,21.4,6.7,21.99,6.99,22.38z"/>
	<path class="st3" d="M18.24,20.42c-0.04-0.35-0.12-0.7,0.1-1.02c0.24-0.01,0.55-0.15,0.66,0.2c0.09,0.28,0.14,0.59-0.06,0.85
		C18.7,20.75,18.47,20.45,18.24,20.42z"/>
	<path class="st3" d="M16.01,4.5C16.01,4.54,16,4.57,16,4.61c-0.04,0.27,0.06,0.67-0.37,0.67c-0.44-0.01-0.4-0.39-0.38-0.71
		c0-0.06,0-0.12,0.01-0.18c-0.02-0.23,0.13-0.31,0.31-0.33C15.89,4.03,15.93,4.28,16.01,4.5z"/>
	<path class="st3" d="M15.98,10.13c-0.11,0.19-0.25,0.31-0.47,0.23c-0.22-0.08-0.26-0.27-0.27-0.48c-0.01-0.16,0-0.31,0-0.47
		c0.07-0.09,0.14-0.18,0.21-0.26c0.24-0.03,0.43,0.04,0.54,0.27c0.02,0.11,0.03,0.23,0.05,0.34c-0.06,0.08-0.06,0.15-0.02,0.24
		c-0.02,0.03-0.03,0.05-0.04,0.08C15.97,10.1,15.98,10.12,15.98,10.13z"/>
	<path class="st3" d="M16.99,4.06c0.22-0.07,0.37,0.07,0.52,0.19c0.01,0.12,0.01,0.24,0.02,0.36c-0.03,0.04-0.02,0.07,0,0.11
		c-0.03,0.28-0.07,0.6-0.46,0.54c-0.33-0.06-0.29-0.37-0.31-0.62C16.75,4.41,16.81,4.22,16.99,4.06z"/>
	<path class="st3" d="M18.29,4.38c0.02-0.06,0.05-0.11,0.07-0.17c0.51-0.34,0.65-0.04,0.72,0.4c-0.05,0.36-0.05,0.77-0.61,0.66
		c-0.06-0.14-0.12-0.28-0.19-0.42c0.02-0.04,0.02-0.08,0-0.11C18.28,4.62,18.28,4.5,18.29,4.38z"/>
	<path class="st3" d="M15.34,6.69c0.11-0.03,0.23-0.06,0.34-0.09c0.43,0.15,0.22,0.55,0.33,0.82c-0.01,0.06-0.03,0.12-0.04,0.18
		c-0.13,0.15-0.25,0.31-0.49,0.21c-0.21-0.1-0.26-0.29-0.24-0.49C15.26,7.11,15.31,6.9,15.34,6.69z"/>
	<path class="st3" d="M18.29,15.17c0-0.12-0.01-0.24-0.01-0.36c0.06-0.28,0.11-0.63,0.49-0.52c0.44,0.13,0.31,0.55,0.26,0.87
		c-0.06,0.39-0.32,0.4-0.62,0.24c-0.03-0.03-0.06-0.06-0.08-0.09C18.31,15.27,18.3,15.22,18.29,15.17z"/>
	<path class="st3" d="M18.29,12.65c0.02-0.27,0.05-0.55,0.07-0.82c0.44-0.28,0.64-0.09,0.68,0.37c0.02,0.19-0.01,0.38-0.02,0.58
		c0,0-0.01,0.03-0.01,0.03c-0.11,0.06-0.21,0.12-0.32,0.18c-0.08-0.02-0.17-0.05-0.25-0.07C18.39,12.82,18.34,12.74,18.29,12.65z"/>
	<path class="st3" d="M18.97,16.89c0.2,0.87,0.12,1.07-0.48,1.14c-0.18-0.17-0.17-0.38-0.18-0.6
		C18.27,16.94,18.44,16.69,18.97,16.89z"/>
	<path class="st3" d="M17.38,6.65c0.09,0.16,0.14,0.32,0.14,0.51c-0.01,0.27,0.04,0.62-0.31,0.68c-0.38,0.06-0.41-0.28-0.48-0.55
		c0.03-0.3,0.04-0.6,0.4-0.71c0,0,0.05,0.03,0.05,0.03l0.05-0.02C17.28,6.61,17.33,6.63,17.38,6.65z"/>
	<path class="st3" d="M18.49,7.83c-0.29-0.3-0.24-0.66-0.13-0.99c0.08-0.27,0.34-0.2,0.56-0.17C19.2,7.47,19.09,7.79,18.49,7.83z"/>
	<path class="st3" d="M17.51,9.82c0.01,0.22,0.03,0.56-0.36,0.56c-0.38,0-0.38-0.34-0.38-0.62c0-0.26,0.01-0.57,0.35-0.59
		C17.52,9.15,17.51,9.48,17.51,9.82z"/>
	<path class="st3" d="M18.48,9.19c0.59,0.02,0.64,0.13,0.53,1.05c-0.52,0.24-0.71,0.13-0.72-0.45C18.29,9.56,18.32,9.36,18.48,9.19z
		"/>
	<path class="st3" d="M17.53,4.73c-0.03-0.04-0.03-0.07,0-0.11c0.01,0.03,0.03,0.05,0.03,0.08C17.57,4.71,17.54,4.72,17.53,4.73z"/>
	<path class="st3" d="M8.38,10.61c-0.05,0.28,0.01,0.6-0.25,0.82c-0.61,0.01-0.5-0.46-0.54-0.82c0.02-0.27,0.17-0.42,0.43-0.47
		C8.22,10.22,8.33,10.39,8.38,10.61z"/>
	<path class="st3" d="M7.89,13.99c-0.39-0.18-0.24-0.56-0.33-0.86c0.05-0.1,0.12-0.2,0-0.31l0.01-0.02
		c0.18-0.03,0.35-0.06,0.53-0.09c0.07,0.08,0.15,0.17,0.22,0.25C8.32,13.36,8.57,13.87,7.89,13.99z"/>
	<path class="st3" d="M7.63,18.89c0.01-0.38-0.2-0.82,0.26-1.09c0.41,0,0.46,0.34,0.5,0.61c0.03,0.22-0.08,0.45-0.28,0.6
		C7.89,19.18,7.73,19.17,7.63,18.89z"/>
	<path class="st3" d="M6.77,13.83c-0.04,0.04-0.08,0.08-0.11,0.12c-0.17-0.01-0.35-0.02-0.52-0.03l-0.01-0.01
		c-0.03-0.1-0.05-0.21-0.08-0.31c0.01-0.04,0.01-0.08-0.01-0.11c0.02-0.21,0.04-0.41,0.05-0.62c0.04-0.04,0.08-0.07,0.12-0.11
		C6.83,12.75,6.91,12.89,6.77,13.83z"/>
	<path class="st3" d="M5.23,11.32c-0.61,0.26-0.71-0.12-0.72-0.59c0.05-0.24,0.05-0.54,0.38-0.57c0.3-0.02,0.37,0.22,0.42,0.45
		c-0.02,0.04-0.02,0.07,0,0.11c0,0.08,0,0.17-0.01,0.25c-0.03,0.04-0.03,0.07-0.01,0.11C5.28,11.16,5.25,11.24,5.23,11.32z"/>
	<path class="st3" d="M6.21,17.86c0.61-0.03,0.66,0.06,0.59,1.02c-0.57,0.3-0.66,0.25-0.75-0.36c0-0.12,0-0.23,0-0.35
		C6.1,18.07,6.16,17.96,6.21,17.86z"/>
	<path class="st3" d="M5.19,18.98c-0.24,0.13-0.46,0.1-0.65-0.1c-0.01-0.18-0.02-0.36-0.02-0.53c-0.01-0.24,0.05-0.45,0.31-0.52
		c0.27-0.07,0.39,0.11,0.47,0.34c0,0.2,0,0.39,0,0.59C5.26,18.83,5.23,18.91,5.19,18.98z"/>
	<path class="st3" d="M4.55,12.92c0.13-0.15,0.3-0.2,0.49-0.22c0.04,0.02,0.09,0.05,0.13,0.07c0.03,0.04,0.06,0.08,0.09,0.11
		c0.01,0.2,0.03,0.4,0.03,0.6c0,0.26-0.06,0.5-0.39,0.49c-0.31-0.02-0.37-0.25-0.37-0.51C4.53,13.28,4.54,13.1,4.55,12.92z"/>
	<path class="st3" d="M6.14,10.27c0.32-0.19,0.54-0.1,0.7,0.22c0,0.14,0,0.28-0.02,0.42c-0.06,0.53-0.26,0.62-0.73,0.3
		c-0.02-0.16-0.03-0.32-0.05-0.48C6.07,10.58,6.11,10.43,6.14,10.27z"/>
	<path class="st3" d="M5.26,16.37c-0.54,0.24-0.71,0.14-0.73-0.42c-0.01-0.17,0.02-0.35,0.03-0.52c0,0,0,0,0,0
		c0.17-0.14,0.36-0.19,0.57-0.12c0.04,0.04,0.08,0.07,0.12,0.11c0,0,0,0,0,0c0.02,0.08,0.04,0.16,0.06,0.24
		c-0.02,0.04-0.02,0.07,0,0.11c0,0.09,0,0.17,0,0.26c-0.01,0.08-0.01,0.15-0.02,0.23C5.28,16.28,5.27,16.33,5.26,16.37z"/>
	<path class="st3" d="M6.12,16.36c-0.06-0.31-0.05-0.63,0-0.94c0.21-0.13,0.47-0.25,0.62,0.03c0.15,0.28,0.17,0.63-0.01,0.91
		C6.56,16.62,6.32,16.52,6.12,16.36z"/>
	<path class="st3" d="M8.13,15.27c0.06,0.05,0.12,0.11,0.18,0.16c0.02,0.27,0.04,0.54,0.05,0.81c-0.08,0.09-0.16,0.18-0.24,0.27
		c-0.3,0.03-0.48-0.11-0.55-0.4c0-0.15,0.01-0.3,0.01-0.46C7.65,15.35,7.84,15.25,8.13,15.27z"/>
	<path class="st3" d="M8.33,6.1c0.57-0.02,1.15-0.03,1.72-0.05C10.53,6.06,11,6.09,11.48,6.1c0.23,0,0.4,0.08,0.41,0.33
		c0,0.25-0.12,0.41-0.4,0.4c-0.97-0.01-1.95,0.01-2.92-0.02C8.07,6.8,8.01,6.58,8.33,6.1z"/>
	<path class="st3" d="M13.17,14.93c0.01-0.16,0.03-0.32,0.03-0.47c0.01-0.3-0.05-0.68,0.37-0.68c0.45-0.01,0.41,0.4,0.41,0.71
		c0.01,0.52,0,1.03,0.01,1.55c0.01,0.95,0.01,1.9,0.02,2.85c-0.03,0.75-0.07,1.5-0.1,2.25c-0.01,0.23-0.03,0.45-0.34,0.44
		c-0.28-0.01-0.36-0.18-0.36-0.44c-0.01-0.75-0.02-1.5-0.04-2.25c0.05-0.68,0.05-1.36,0-2.04C13.17,16.21,13.17,15.57,13.17,14.93z"
		/>
	<path class="st3" d="M11.62,18.76c0.05-0.44,0.05-0.88,0-1.32c0-0.08,0-0.16,0-0.24c0.05-0.12,0.05-0.24,0-0.36c0-0.1,0-0.2,0-0.31
		c0.08-0.36,0.08-0.72,0-1.07c0.01-0.03,0.03-0.06,0.03-0.1c0-0.01-0.02-0.03-0.03-0.05c0.03-0.37,0.06-0.74,0.07-1.11
		c0.01-0.27,0.1-0.46,0.39-0.5c0.17,0.07,0.27,0.2,0.29,0.38c-0.04,0.15-0.05,0.29,0.05,0.43c-0.07,0.1-0.05,0.19,0,0.29
		c0.01,0.68,0.01,1.36,0.02,2.04c-0.05,0.68-0.04,1.36,0.01,2.04c-0.01,0.7-0.03,1.39-0.03,2.09c0,0.3-0.02,0.61-0.38,0.63
		c-0.38,0.02-0.31-0.33-0.37-0.57c0.02-0.06,0.03-0.12-0.04-0.15c0.11-0.64,0.05-1.28-0.01-1.92
		C11.62,18.89,11.62,18.83,11.62,18.76z"/>
	<path class="st3" d="M14.7,14.57c0.11-0.3-0.1-0.85,0.44-0.8c0.45,0.04,0.26,0.53,0.31,0.84c0.01,0.06,0.02,0.12,0.02,0.17
		c0,0.65,0,1.3,0,1.95c0,0.68,0,1.36,0.01,2.04c0,0.76,0,1.52,0,2.27c-0.02,0.27-0.05,0.56-0.4,0.55c-0.36-0.01-0.35-0.32-0.35-0.58
		c-0.02-1.39-0.03-2.78-0.04-4.17C14.7,16.09,14.7,15.33,14.7,14.57z"/>
</g>
</svg>
