<svg xmlns="http://www.w3.org/2000/svg" width="19.137" height="21.522" viewBox="0 0 19.137 21.522">
  <path id="Path_1081" data-name="Path 1081" d="M-337.077,452.222c-.269-.283-.165-.528.061-.779.243-.27.468-.556.676-.805l-2.392-2.389a9.109,9.109,0,0,1-.87.734c-.146.1-.383.06-.579.084.05-.206.04-.461.162-.607a7.006,7.006,0,0,1,.806-.73c-.365-.99-.222-1.866,1.144-2.158a1.377,1.377,0,0,1,2.353-.912c.361-.322.74-.635,1.092-.977a2.769,2.769,0,0,0,.567-2.72,8.8,8.8,0,0,1,.717-5.881c.615-1.179,1.078-2.437,1.637-3.646a4.2,4.2,0,0,1,.557-.735h1.052a3.818,3.818,0,0,1,.533.695c.672,1.473,1.3,2.968,1.974,4.438a7.2,7.2,0,0,1,.512,4.24,18.514,18.514,0,0,0-.212,1.894,2.195,2.195,0,0,0,.679,1.724c.306.3.638.574.953.854,1.225-.564,1.934-.236,2.248,1.042a1.379,1.379,0,0,1,1.3,1.1c.02.092.06.208.025.281-.283.584.141.853.495,1.157a1.832,1.832,0,0,1,.424.379,1.743,1.743,0,0,1,.115.549c-.183-.007-.416.056-.541-.033-.374-.266-.707-.591-1.026-.868l-2.375,2.381c.227.276.488.617.775.934a.515.515,0,0,1,.049.751h-.287l-1.1-1.231c-1.142.491-1.9.1-2.193-1.124-1.3-.223-1.568-1.047-.8-2.463l-2.073-2.655-2.214,2.819c.767,1.064.377,2.031-.927,2.32-.218.9-.633,1.414-1.31,1.277-.748-.151-1.037.271-1.4.712-.1.122-.214.231-.322.346Zm3.738-5.191c.489-.59,1-1.2,1.5-1.812a3.791,3.791,0,0,0,.869-2.468c.01-2.262,0-4.524,0-6.787a2.8,2.8,0,0,0-.053-.351,4.861,4.861,0,0,0-.877,2.614c-.01.236.026.521-.327.525-.373,0-.363-.281-.358-.545a5.651,5.651,0,0,1,1.283-3.419c.116-.149.307-.3.313-.462.031-.858.015-1.718.015-2.577l-.138-.025c-.756,1.795-1.519,3.587-2.26,5.388a2.137,2.137,0,0,0-.165.883c.054,1.157.11,2.316.24,3.466a3.145,3.145,0,0,1-.947,2.817c-.321.305-.657.595-.974.881Zm5.287-.166,1.865-1.847c-.271-.248-.569-.509-.855-.782a2.95,2.95,0,0,1-.931-2.455c.047-.633.124-1.266.217-1.894a6.494,6.494,0,0,0-.486-3.818c-.625-1.336-1.2-2.7-1.8-4.046-.046-.1-.113-.2-.242-.422,0,.783.022,1.417-.007,2.049a1.733,1.733,0,0,0,.416,1.253,5.136,5.136,0,0,1,1.2,3.389.585.585,0,0,1-.335.445c-.3.057-.321-.209-.332-.449a5.442,5.442,0,0,0-.088-.806,4.586,4.586,0,0,0-.846-1.929c0,2.6-.046,5.071.032,7.535a4.153,4.153,0,0,0,.682,1.893A17.193,17.193,0,0,0-328.052,446.865Zm-4.992,1.728a3.936,3.936,0,0,0-.388-.6c-.642-.662-1.3-1.309-1.952-1.961-.3-.3-.6-.617-.917-.9a.558.558,0,0,0-.848.017.563.563,0,0,0,0,.849c.116.13.244.251.367.374.854.855,1.7,1.721,2.575,2.552a.845.845,0,0,0,.672.167C-333.358,449.045-333.229,448.79-333.044,448.593Zm5.453.558a3.019,3.019,0,0,0,.444-.323q1.359-1.339,2.7-2.7c.356-.358.4-.725.124-1s-.618-.242-.991.128q-1.354,1.345-2.7,2.7a1.374,1.374,0,0,0-.265.333A.63.63,0,0,0-327.591,449.152Zm-6.813.772a4.445,4.445,0,0,0-.4-.573q-1.356-1.377-2.73-2.734c-.385-.381-.694-.407-.986-.1s-.239.609.14.991c.6.61,1.214,1.216,1.821,1.822a11.01,11.01,0,0,0,1.026.994.889.889,0,0,0,.691.105C-334.679,450.381-334.572,450.127-334.4,449.924Zm11.718-3.037c-.168-.185-.3-.449-.472-.487a.9.9,0,0,0-.711.162c-.979.93-1.926,1.894-2.873,2.856a.6.6,0,0,0-.03.925.591.591,0,0,0,.888-.048q1.435-1.429,2.86-2.869A3.286,3.286,0,0,0-322.686,446.887Z" transform="translate(340.182 -430.7)" fill="#005897"/>
</svg>
