<svg xmlns="http://www.w3.org/2000/svg" width="21.933" height="21.896" viewBox="0 0 21.933 21.896">
  <path id="Path_998" data-name="Path 998" d="M14.488,14.751,5.115,8.888c.855-1.32,1.5-1.5,2.774-1.215,3.269.87,6.554,1.725,9.808,2.639a1.215,1.215,0,0,0,1.41-.42,21.535,21.535,0,0,1,2.669-2.744,7.093,7.093,0,0,1,2.609-1.5,1.245,1.245,0,0,1,1.62,1.59,6.674,6.674,0,0,1-1.365,2.549,24.909,24.909,0,0,1-2.864,2.8,1.155,1.155,0,0,0-.375,1.335c.9,3.269,1.77,6.539,2.639,9.808.36,1.35.15,1.89-1.2,2.8l-5.954-9.373c-1.065,1-2.025,2.055-3.119,2.894a2.744,2.744,0,0,0-1.215,3.494,8.308,8.308,0,0,1,.345,1.935,1.6,1.6,0,0,1-.1.855c-.66,1.14-.99,1.125-1.695,0-.54-.885-1.11-1.755-1.68-2.669a10.5,10.5,0,0,1-1.32.7,2.714,2.714,0,0,1-.93,0,3.194,3.194,0,0,1,0-.855A12.253,12.253,0,0,1,7.9,22.19c-.93-.585-1.86-1.125-2.729-1.74a2.6,2.6,0,0,1-.735-.885c.39-.45.765-1.035,1.5-.885,1.155.21,2.294.42,3.464.57a1.17,1.17,0,0,0,.93-.24C11.773,17.691,13.078,16.266,14.488,14.751ZM22.9,25.489a1.155,1.155,0,0,0,.495-1.5c-.96-3.374-1.875-6.823-2.819-10.273a1.155,1.155,0,0,1,.375-1.335,40.489,40.489,0,0,0,3.074-2.909,6.823,6.823,0,0,0,1.26-2.04.795.795,0,0,0-1.065-1.065,6.9,6.9,0,0,0-2.04,1.245,38.51,38.51,0,0,0-2.849,3,1.26,1.26,0,0,1-1.5.4c-3.4-.93-6.824-1.8-10.228-2.759a1.08,1.08,0,0,0-1.5.48c.27.18.525.36.81.525,2.594,1.62,5.189,3.269,7.8,4.859.63.375.63.675.15,1.17-1.41,1.5-2.789,3-4.229,4.5a1.275,1.275,0,0,1-.855.225c-1.14-.135-2.25-.39-3.374-.555a3.914,3.914,0,0,0-.93.09,15.342,15.342,0,0,0,2.8,2.01c.6.345.81.66.255,1.23a7.063,7.063,0,0,0-.57.855,1.5,1.5,0,0,0,.75-.3c.945-.66.945-.675,1.59.33s.975,1.74,1.59,2.609h.24a4.8,4.8,0,0,0,0-.915c-.18-1.155-.42-2.309-.585-3.464a1.02,1.02,0,0,1,.18-.795c1.5-1.5,3.149-3,4.724-4.5.375-.345.645-.345.93.135.54.93,1.125,1.83,1.71,2.744q1.92,2.984,3.809,6Z" transform="translate(-4.29 -5.422)" fill="#005897" stroke="#005897" stroke-miterlimit="10" stroke-width="0.25"/>
</svg>
