<svg xmlns="http://www.w3.org/2000/svg" width="23.18" height="22.281" viewBox="0 0 23.18 22.281">
  <path id="Path_364" data-name="Path 364" d="M886.44,1186.578h.767v-.281c0-1.532.015-3.064-.005-4.6a1.972,1.972,0,0,1,1.473-1.987.337.337,0,0,0,.188-.164,1.16,1.16,0,0,1,1.354-.626,1.179,1.179,0,0,1,.859,1.159,1.157,1.157,0,0,1-1.026,1.11,1.081,1.081,0,0,1-1.122-.552c-.1-.169-.183-.155-.318-.081a1.1,1.1,0,0,0-.624,1c-.012,1.659,0,3.319,0,5.011h1.173a3.374,3.374,0,0,0,1,3.02,3.248,3.248,0,0,0,2.32.816,3.208,3.208,0,0,0,2.492-1.152,3.613,3.613,0,0,0,.7-2.674h.763c.005-.092.013-.157.013-.223q-.013-2.354-.029-4.709a1.1,1.1,0,0,0-.825-1.153c-.032.052-.065.109-.1.165a1.157,1.157,0,0,1-1.3.482,1.151,1.151,0,0,1,.056-2.216,1.167,1.167,0,0,1,1.3.587.432.432,0,0,0,.207.2,1.943,1.943,0,0,1,1.453,1.98c.006,1.562.006,3.124.009,4.687,0,.052,0,.1,0,.182h.735a5.476,5.476,0,0,1-4.207,5.988c0,.383.028.776-.009,1.162a2.385,2.385,0,0,1-.223.79,1.025,1.025,0,0,1-.876.543,4.377,4.377,0,0,0,3.151,4.92,3.69,3.69,0,0,0,3.769-1.258,4.564,4.564,0,0,0,1.12-3.17q0-3.628,0-7.255a3.558,3.558,0,0,1,1.016-2.59,3.131,3.131,0,0,1,5,.619,3.742,3.742,0,0,1,.528,1.883c0,.232,0,.464,0,.712a2.7,2.7,0,0,1,1.985,1.408,2.647,2.647,0,0,1,.266,1.81,2.7,2.7,0,1,1-3.037-3.229,3.656,3.656,0,0,0-.346-2.073,2.366,2.366,0,0,0-2.215-1.325,2.394,2.394,0,0,0-2.1,1.4,2.777,2.777,0,0,0-.319,1.342q0,3.684,0,7.368a5.322,5.322,0,0,1-1.673,3.99,4.558,4.558,0,0,1-5.972.258,5.136,5.136,0,0,1-1.952-3.8c-.021-.328,0-.658,0-.972a1.34,1.34,0,0,1-1.164-1.49c-.009-.345,0-.69,0-1.02-.4-.16-.795-.285-1.159-.47a5.363,5.363,0,0,1-3.005-3.869c-.023-.116-.049-.231-.073-.346Zm.788.778a4.388,4.388,0,0,0,2.306,3.874,5.136,5.136,0,0,0,5.564-.136,4.373,4.373,0,0,0,2.112-3.736h-.752a3.893,3.893,0,0,1-3.563,3.8,4.089,4.089,0,0,1-2.756-.614,3.808,3.808,0,0,1-1.788-3.192Zm19.57,6.129a1.912,1.912,0,1,0-1.885-1.942A1.9,1.9,0,0,0,906.8,1193.485Zm-13.8-.766h-1.576c.022.395.028.783.071,1.167.031.28.161.37.439.375q.281,0,.563,0c.261,0,.392-.086.423-.339C892.966,1193.525,892.973,1193.122,893,1192.719Zm-3.1-12.31a.371.371,0,1,0,0-.741.371.371,0,0,0,0,.741Zm4.99-.364a.372.372,0,1,0-.372.364A.363.363,0,0,0,894.887,1180.045Z" transform="translate(-886.391 -1178.82)" fill="#005897" stroke="#005897" stroke-width="0.1" fill-rule="evenodd"/>
</svg>
