<svg xmlns="http://www.w3.org/2000/svg" width="24.418" height="16.724" viewBox="0 0 24.418 16.724">
  <path id="Path_1086" data-name="Path 1086" d="M22.075,16.644,20.707,18.3a1.463,1.463,0,0,1,.345,1.808,1.427,1.427,0,0,1-1.606.749,1.57,1.57,0,0,1-1.724,1.189c-.1,0-.214.131-.285.226-.583.9-.88,1.035-2.01.821-1.023,1.308-1.617,1.344-2.9.178a.714.714,0,0,0-.844-.214,1.189,1.189,0,0,1-1.439-.618,1.035,1.035,0,0,0-.583-.428c-.7-.119-.761-.951-1.189-1.189s-1.035-.5-1.189-1.189a.928.928,0,0,0-.5-.345,1.391,1.391,0,0,1-.737-1.3,7.92,7.92,0,0,0-.25-1.332,3.485,3.485,0,0,1-3.77-.975,1.76,1.76,0,0,1,0-1.4C3,12.184,4.081,10.138,5.163,8.117a1.3,1.3,0,0,1,1.772-.583,10.7,10.7,0,0,1,1.629.88,1.284,1.284,0,0,1,.595.785.963.963,0,0,0,.737.951,1.939,1.939,0,0,0,2.188-.131,4.008,4.008,0,0,1,3.9-.868c1.011.2,2.034.345,3.057.476.428,0,.725-.071.821-.654.178-1.023,2.759-1.986,3.568-1.38A1.713,1.713,0,0,1,24,8.343c.737,2.141,1.451,4.293,2.165,6.446a1.332,1.332,0,0,1-.892,1.867c-.321.119-.654.214-.975.321C23.157,17.369,23.11,17.369,22.075,16.644ZM8.826,10.567c-.773,1.475-1.5,2.985-2.379,4.436-.428.737-.452,1.284.309,1.76.951-.595,1.332-.547,2.224.3,1.082-.476,1.677-.19,2,.951a.571.571,0,0,0,.178.321c1.07.785,1.082.821.8,2.034.571.25,1.035.737.833,1.32-.285.833.238,1.189.714,1.463.2.131.571,0,.868,0a1.72,1.72,0,0,0-.1-.9c-.155-.226-.618-.547-.88-.868s-.071-.428-.107-.654a1.38,1.38,0,0,1,.607.107c.559.44,1.082.928,1.606,1.4.321.274.654.381.975,0a.645.645,0,0,0-.083-1.011c-.333-.309-1.058-.892-1.534-1.391-.155-.155-.167-.44-.238-.678a1.369,1.369,0,0,1,.749.131c.725.571,1.368,1.189,2.105,1.784.19.143.607,0,.916,0a8.123,8.123,0,0,0-.071-.928c0-.107-.19-.178-.285-.274-.547-.547-1.213-1.047-1.736-1.665-.155-.143-.167-.44-.25-.678a3.08,3.08,0,0,1,.761.131,2.069,2.069,0,0,1,.523.452l2.022,1.772a.607.607,0,0,0,.963,0,.618.618,0,0,0-.107-.963l-.25-.238-5.8-5.114a4.853,4.853,0,0,0-.725-.428,4.389,4.389,0,0,0-.357.844,2.747,2.747,0,0,1-1.534,2.176c-.749.345-1.57,0-1.51-.69.119-1.427-.571-3,.595-4.186Zm13.082,5.3L20.053,10.5a17.7,17.7,0,0,1-3.211-.392,4.555,4.555,0,0,0-5.435,1.582c-.2.25-.547.5-.571.761-.059,1,0,2,0,3.259.44-.333.809-.5.975-.785a4.448,4.448,0,0,0,.452-1.356c.131-.583.357-1.189.963-1.189a1.974,1.974,0,0,1,1.261.464c1.689,1.439,3.354,2.926,5.007,4.412.345.309.583.357.916,0s.9-.88,1.439-1.38Zm3.568-.654a2.86,2.86,0,0,0-.143-.476c-.559-1.665-1.189-3.342-1.677-5.019-.607-1.879-.44-1.808-2.379-1.118-.785.285-.868.416-.595,1.189.654,2,1.332,4,2,5.946a.987.987,0,0,0,.155.381c.642.595,1.189,0,1.772-.178.44,0,.892-.1.868-.69ZM4.663,16.406a3.853,3.853,0,0,0,.511-.607c.844-1.617,1.7-3.247,2.521-4.876.951-1.9,1.189-1.415-.833-2.557-.523-.285-.856-.19-1.118.309-1.011,1.95-2.034,3.9-3.009,5.863-.107.214-.119.666,0,.749.583.369,1.213.678,1.927,1.082Zm5.613,1.677c-.1-.119-.178-.321-.285-.345a.7.7,0,0,0-.547.119A13.154,13.154,0,0,0,8.184,19.3c-.1.143,0,.44,0,.654a1.336,1.336,0,0,0,.654-.1c.464-.452.856-.951,1.273-1.439a2.164,2.164,0,0,0,.167-.369Zm1.189,1.641v-.285c-.238-.071-.607-.274-.7-.19a8.967,8.967,0,0,0-1.249,1.439c-.2.3.226.761.476.559a16.65,16.65,0,0,0,1.451-1.558ZM7.8,16.989a9.086,9.086,0,0,0-.833,1.189c0,.071.25.321.381.5.309-.345.642-.666.9-1.023.012-.131-.285-.392-.476-.7Zm3.734,3.9a9.324,9.324,0,0,0-.642,1.07c0,.059.274.262.428.392a6.577,6.577,0,0,0,.69-.833C12.1,21.46,11.835,21.2,11.538,20.89Z" transform="translate(-1.877 -7.384)" fill="#005897"/>
</svg>
