<?xml version="1.0" encoding="utf-8"?>
<!-- Generator: Adobe Illustrator 16.0.0, SVG Export Plug-In . SVG Version: 6.00 Build 0)  -->
<!DOCTYPE svg PUBLIC "-//W3C//DTD SVG 1.1//EN" "http://www.w3.org/Graphics/SVG/1.1/DTD/svg11.dtd">
<svg version="1.1" id="Layer_1" xmlns="http://www.w3.org/2000/svg" xmlns:xlink="http://www.w3.org/1999/xlink" x="0px" y="0px"
	 width="24px" height="24px" viewBox="57.522 50.312 24 24" enable-background="new 57.522 50.312 24 24" xml:space="preserve">
<path id="Path_367" fill="#005897" d="M67.705,56.89c0-1.614-0.016-3.229,0.005-4.842c0.016-1.273,0.481-1.72,1.735-1.735
	c1.308-0.017,1.782,0.441,1.793,1.78c0.014,1.586,0.003,3.174,0.003,4.76l0.317,0.046c0.272-0.665,0.518-1.341,0.822-1.99
	c1.239-2.629,3.289-2.951,5.242-0.779c1.905,2.12,2.818,4.741,3.296,7.473c0.348,2.086,0.527,4.195,0.538,6.311
	c0.031,2.816-1.578,3.995-4.402,3.826c-3.654-0.22-6.867-3.695-6.364-7.147c0.046-0.313-0.028-0.644,0.013-0.958
	c0.127-0.958-0.212-1.36-1.236-1.363c-1.056-0.003-1.307,0.461-1.21,1.388c0.257,2.473-0.224,4.698-2.247,6.372
	c-1.844,1.521-4.025,2.056-6.283,1.547c-0.763-0.172-1.732-1.261-1.875-2.062c-0.895-5.013,0.054-9.758,2.557-14.192
	c0.02-0.034,0.042-0.068,0.066-0.1c0.974-1.289,1.954-2.703,3.814-2.461c1.812,0.235,2.171,1.913,2.769,3.288
	c0.123,0.282,0.224,0.575,0.334,0.863L67.705,56.89z M72.223,63.001l-0.564,0.28c0.241,1.39,0.24,2.882,0.78,4.143
	c0.8,1.861,2.489,2.816,4.48,3.243c1.877,0.402,3.188-0.351,3.319-2.226c0.303-4.306-0.373-8.451-2.559-12.241
	c-0.452-0.75-1.035-1.413-1.721-1.957c-0.775-0.63-1.621-0.499-2.107,0.437c-0.424,0.81-0.765,1.661-1.021,2.538
	c-0.475,1.664,0.329,2.435,2.041,2.018c0.303-0.073,0.571-0.316,0.873-0.362c0.267-0.04,0.559,0.084,0.839,0.136
	c-0.086,0.277-0.089,0.681-0.277,0.806c-0.422,0.294-0.9,0.499-1.406,0.598c-2.481,0.397-4.633-1.401-4.764-4.021
	c-0.078-1.584-0.015-3.176-0.015-4.817h-1.295c0,1.633,0.022,3.187-0.006,4.739c-0.03,1.657-0.797,2.934-2.248,3.698
	c-1.274,0.671-2.622,0.726-3.854-0.143c-0.212-0.148-0.218-0.59-0.319-0.897c0.286-0.032,0.585-0.134,0.855-0.083
	c0.5,0.095,0.978,0.392,1.471,0.406c1.451,0.043,1.851-0.483,1.463-1.876c-0.204-0.811-0.486-1.599-0.843-2.355
	c-0.72-1.422-1.766-1.64-2.817-0.423c-0.929,1.089-1.691,2.31-2.261,3.625c-1.391,3.204-1.693,6.631-1.652,10.086
	c0.015,1.338,1.01,2.272,2.35,2.416c2.954,0.316,7.385-2.944,5.851-7.817c-0.544,0.584-1.004,1.107-1.494,1.6
	c-0.259,0.232-0.532,0.449-0.817,0.65c-0.084-0.381-0.259-0.77-0.225-1.138c0.027-0.278,0.292-0.558,0.498-0.796
	c2.42-2.793,7.041-2.784,9.431,0.026c0.261,0.299,0.449,0.652,0.551,1.036c0.057,0.246-0.146,0.553-0.233,0.832
	c-0.268-0.149-0.586-0.251-0.792-0.461C73.206,64.158,72.724,63.569,72.223,63.001L72.223,63.001z"/>
</svg>
