<?xml version="1.0" encoding="utf-8"?>
<!-- Generator: Adobe Illustrator 16.0.0, SVG Export Plug-In . SVG Version: 6.00 Build 0)  -->
<!DOCTYPE svg PUBLIC "-//W3C//DTD SVG 1.1//EN" "http://www.w3.org/Graphics/SVG/1.1/DTD/svg11.dtd">
<svg version="1.1" id="Layer_1" xmlns="http://www.w3.org/2000/svg" xmlns:xlink="http://www.w3.org/1999/xlink" x="0px" y="0px"
	 width="24px" height="24px" viewBox="52.879 28.572 24 24" enable-background="new 52.879 28.572 24 24" xml:space="preserve">
<g id="Group_155" transform="translate(451.166 -1252.935)">
	<path id="Path_356" fill="#004786" d="M-398.288,1287.768c0.137-0.243,0.412-0.374,0.687-0.327
		c1.422,0.124,2.845,0.231,4.217,0.661c0.244,0.082,0.48,0.182,0.708,0.302c0.303,0.125,0.464,0.459,0.372,0.774
		c-0.016,0.075-0.022,0.151-0.036,0.247c0.095,0.004,0.171,0.011,0.248,0.011c1.179,0,2.358,0.003,3.536-0.006
		c0.138-0.005,0.27-0.05,0.381-0.13c0.756-0.55,1.573-0.914,2.527-0.771c0.453,0.073,0.896,0.193,1.322,0.36
		c0.945,0.363,1.876,0.765,2.813,1.149c0.07,0.03,0.143,0.053,0.25,0.092c-0.084-0.492,0.224-0.642,0.586-0.775
		c1.145-0.413,2.338-0.676,3.55-0.785c0.722-0.068,1.447-0.089,2.172-0.139c0.279-0.046,0.554,0.107,0.664,0.368v9.28
		c-0.115,0.257-0.387,0.408-0.666,0.373c-0.874-0.012-1.749-0.005-2.623-0.005c-0.495,0-0.604-0.081-0.749-0.557
		c-0.026-0.079-0.058-0.155-0.094-0.253c-0.238,0.158-0.464,0.299-0.674,0.456c-0.053,0.053-0.077,0.125-0.07,0.197
		c0.09,0.934-0.669,1.734-1.589,1.8c-0.07,0.009-0.136,0.045-0.179,0.105c-0.419,0.716-1.062,1.002-1.865,0.962
		c-0.111-0.021-0.226,0.036-0.273,0.144c-0.397,0.694-1.209,1.037-1.985,0.843c-0.049-0.015-0.102-0.013-0.149,0.009
		c-0.693,0.432-1.399,0.316-2.115,0.066c-0.538-0.212-1.036-0.515-1.473-0.892c-1.332-1.048-2.668-2.09-3.977-3.162
		c-0.505-0.414-0.944-0.907-1.428-1.379c-0.031,0.086-0.069,0.188-0.104,0.291c-0.055,0.215-0.25,0.361-0.469,0.357
		c-1.008,0.006-2.016,0.002-3.022,0.002c-0.215-0.012-0.405-0.145-0.49-0.342L-398.288,1287.768z M-392.502,1290.446
		c-0.067,0.308-0.118,0.6-0.194,0.885c-0.363,1.376-0.736,2.751-1.099,4.129c-0.028,0.09-0.017,0.188,0.03,0.268
		c0.551,0.576,1.07,1.191,1.683,1.694c1.441,1.185,2.916,2.327,4.4,3.456c0.333,0.214,0.693,0.383,1.07,0.5
		c0.161,0.038,0.327,0.057,0.493,0.052c0.007-0.021,0.015-0.04,0.022-0.062c-0.389-0.384-0.78-0.763-1.164-1.151
		c-0.291-0.294-0.574-0.597-0.855-0.897c-0.234-0.253-0.236-0.537-0.014-0.747c0.212-0.202,0.51-0.179,0.747,0.06
		c0.049,0.05,0.095,0.104,0.145,0.153c0.76,0.753,1.521,1.506,2.279,2.258c0.173,0.188,0.461,0.213,0.666,0.061
		c0.162-0.124,0.313-0.259,0.452-0.411c-0.158-0.174-0.273-0.31-0.397-0.44c-0.631-0.648-1.263-1.3-1.895-1.948
		c-0.159-0.127-0.208-0.349-0.117-0.531c0.092-0.147,0.229-0.261,0.39-0.324c0.203-0.074,0.364,0.069,0.509,0.216
		c0.745,0.756,1.487,1.515,2.245,2.257c0.311,0.312,0.814,0.313,1.125,0.002c0.002-0.002,0.005-0.004,0.007-0.007
		c0.186-0.169,0.184-0.234,0.008-0.411c-0.878-0.89-1.756-1.778-2.633-2.67c-0.246-0.25-0.254-0.554-0.031-0.763
		c0.221-0.211,0.499-0.19,0.745,0.059c0.243,0.243,0.476,0.494,0.72,0.739c0.673,0.675,1.35,1.345,2.02,2.022
		c0.142,0.177,0.392,0.226,0.589,0.115c0.311-0.115,0.468-0.461,0.352-0.771c-0.022-0.061-0.056-0.118-0.099-0.17
		c-0.271-0.398-0.588-0.765-0.946-1.09c-1.505-1.303-3.033-2.578-4.559-3.857c-0.073-0.043-0.162-0.054-0.243-0.029
		c-0.244,0.079-0.476,0.198-0.723,0.265c-0.157,0.038-0.296,0.127-0.398,0.252c-0.639,0.738-1.428,1.084-2.415,0.903
		c-0.974-0.178-1.413-0.828-1.199-1.798c0.182-0.696,0.522-1.342,0.995-1.885c0.098-0.125,0.203-0.244,0.32-0.384H-392.502z
		 M-379.624,1297.224c0.263-0.176,0.531-0.349,0.788-0.536c0.047-0.05,0.066-0.12,0.052-0.187c-0.592-1.641-1.188-3.279-1.792-4.917
		c-0.03-0.076-0.09-0.137-0.165-0.171c-1.371-0.558-2.743-1.111-4.117-1.661c-0.864-0.346-1.701-0.351-2.493,0.204
		c-0.696,0.478-1.315,1.06-1.831,1.729c-0.325,0.393-0.549,0.859-0.651,1.358c-0.042,0.259,0.023,0.366,0.268,0.439
		c0.499,0.178,1.056,0.052,1.429-0.324c0.149-0.146,0.268-0.325,0.415-0.475c0.081-0.093,0.181-0.168,0.293-0.218
		c0.459-0.167,0.926-0.307,1.386-0.472c0.229-0.103,0.496-0.046,0.662,0.14c0.154,0.155,0.317,0.302,0.479,0.447
		C-383.15,1294.129-381.185,1295.436-379.624,1297.224z M-379.994,1290.195c0.879,2.414,1.755,4.819,2.628,7.216h2.052v-7.94
		C-376.27,1289.372-379.115,1289.821-379.994,1290.195L-379.994,1290.195z M-393.318,1289.205c-0.534-0.333-3.116-0.704-3.947-0.702
		v7.928h2.111C-394.429,1294.049-393.701,1291.677-393.318,1289.205L-393.318,1289.205z"/>
</g>
</svg>
