<svg xmlns="http://www.w3.org/2000/svg" width="39.897" height="38.014" viewBox="0 0 39.897 38.014">
  <path id="Path_583" data-name="Path 583" d="M-256.353,2130.536c.651.57,1.218.988,1.691,1.495a2.571,2.571,0,0,1-1.243,4.43c-3.05.726-6.124,1.358-9.206,1.938a2.575,2.575,0,0,1-2.883-3.085c.594-3.043,1.242-6.077,1.968-9.091a2.544,2.544,0,0,1,4.36-1.223c.562.521,1.056,1.116,1.616,1.714.714-.537,1.333-1.028,1.977-1.482a19.021,19.021,0,0,1,29.658,12.378,19,19,0,0,1-16.179,22,19.146,19.146,0,0,1-20.834-13.636,2.684,2.684,0,0,1,1.628-3.5,2.625,2.625,0,0,1,3.355,2,13.806,13.806,0,0,0,13.1,10.057,13.781,13.781,0,0,0,13.742-11.683,13.6,13.6,0,0,0-11.12-15.607C-248.975,2126.428-252.8,2127.563-256.353,2130.536Z" transform="translate(268.043 -2121.772)" fill="#004786" fill-rule="evenodd"/>
</svg>
