<?xml version="1.0" encoding="utf-8"?>
<!-- Generator: Adobe Illustrator 16.0.0, SVG Export Plug-In . SVG Version: 6.00 Build 0)  -->
<!DOCTYPE svg PUBLIC "-//W3C//DTD SVG 1.1//EN" "http://www.w3.org/Graphics/SVG/1.1/DTD/svg11.dtd">
<svg version="1.1" id="Layer_1" xmlns="http://www.w3.org/2000/svg" xmlns:xlink="http://www.w3.org/1999/xlink" x="0px" y="0px"
	 width="24px" height="24px" viewBox="26.703 33.036 24 24" enable-background="new 26.703 33.036 24 24" xml:space="preserve">
<g id="Group_153" transform="translate(807.275 -1247.877)">
	<path id="Path_350" fill="#004786" d="M-777.938,1292.909c0-2.823,0-5.646,0-8.469c-0.051-1.225,0.835-2.291,2.05-2.462
		c0.127-0.02,0.256-0.027,0.384-0.023c3.737-0.002,7.475-0.003,11.212-0.005c0.229-0.007,0.452,0.082,0.612,0.247
		c1.457,1.434,2.914,2.865,4.375,4.295c0.157,0.149,0.245,0.357,0.238,0.573c-0.003,4.81-0.005,9.618-0.004,14.429
		c0.021,1.315-1.031,2.396-2.345,2.417c-0.023,0-0.049,0-0.072,0c-4.681,0.002-9.362,0.002-14.042,0
		c-1.317,0.013-2.396-1.043-2.408-2.36c0-0.015,0-0.029,0-0.045C-777.941,1298.64-777.941,1295.775-777.938,1292.909z
		 M-764.849,1283.239h-0.196c-3.473,0-6.946,0-10.419,0c-0.726,0-1.188,0.479-1.188,1.225c0,5.646,0,11.292,0,16.938
		c0,0.763,0.465,1.223,1.232,1.223c4.609,0,9.22,0,13.829,0c0.78,0,1.237-0.459,1.237-1.239c0-4.495,0-8.99,0-13.486v-0.246h-0.256
		c-0.887,0-1.772,0.005-2.659-0.005c-0.198,0-0.396-0.032-0.586-0.094c-0.615-0.216-1.017-0.807-0.993-1.457
		C-764.851,1285.155-764.849,1284.211-764.849,1283.239L-764.849,1283.239z M-763.482,1284.174l-0.063,0.035
		c0,0.612,0,1.225,0,1.837c0,0.262,0.049,0.31,0.314,0.311c0.585,0.002,1.169,0.002,1.754,0c0.044-0.004,0.088-0.01,0.131-0.02
		l-0.055,0.035L-763.482,1284.174z"/>
	<path id="Path_351" fill="#004786" d="M-768.553,1292.161c1.5,0,3.002,0,4.502,0c0.321-0.011,0.6,0.218,0.648,0.537
		c0.057,0.324-0.145,0.639-0.463,0.723c-0.076,0.019-0.154,0.027-0.232,0.024c-2.98,0.001-5.96,0.001-8.941,0
		c-0.354,0.035-0.67-0.224-0.707-0.578c-0.001-0.019-0.002-0.039-0.002-0.058c-0.006-0.355,0.28-0.648,0.636-0.654
		c0.026,0,0.051,0.001,0.077,0.003C-771.54,1292.16-770.048,1292.16-768.553,1292.161z"/>
	<path id="Path_352" fill="#004786" d="M-768.975,1297.307c1.38,0,2.76,0,4.139,0c0.329-0.012,0.615,0.228,0.66,0.554
		c0.041,0.318-0.157,0.618-0.466,0.704c-0.076,0.021-0.153,0.028-0.232,0.025c-2.724,0.001-5.446,0.001-8.17,0
		c-0.354,0.033-0.668-0.227-0.701-0.581c-0.001-0.021-0.002-0.04-0.002-0.06c-0.003-0.354,0.282-0.645,0.638-0.646
		c0.02,0,0.04,0.001,0.061,0.002C-771.691,1297.306-770.334,1297.306-768.975,1297.307z"/>
	<path id="Path_353" fill="#004786" d="M-769.427,1296.019c-1.222,0-2.444,0-3.666,0c-0.329,0.013-0.611-0.231-0.649-0.559
		c-0.045-0.317,0.153-0.62,0.463-0.702c0.076-0.018,0.154-0.026,0.232-0.023c2.422-0.001,4.846-0.001,7.268,0
		c0.351-0.037,0.665,0.216,0.704,0.566c0.001,0.022,0.003,0.045,0.003,0.067c0.01,0.353-0.269,0.647-0.622,0.655
		c-0.028,0.001-0.06,0-0.088-0.003C-766.997,1296.02-768.211,1296.02-769.427,1296.019z"/>
</g>
</svg>
