<?xml version="1.0" encoding="utf-8"?>
<!-- Generator: Adobe Illustrator 16.0.0, SVG Export Plug-In . SVG Version: 6.00 Build 0)  -->
<!DOCTYPE svg PUBLIC "-//W3C//DTD SVG 1.1//EN" "http://www.w3.org/Graphics/SVG/1.1/DTD/svg11.dtd">
<svg version="1.1" id="Layer_1" xmlns="http://www.w3.org/2000/svg" xmlns:xlink="http://www.w3.org/1999/xlink" x="0px" y="0px"
	 width="24px" height="24px" viewBox="16.902 16.894 24 24" enable-background="new 16.902 16.894 24 24" xml:space="preserve">
<path id="Path_2" fill="#005897" d="M33.092,32.037c1.86,1.77,3.685,3.507,5.509,5.246c0.142,0.134,0.294,0.261,0.424,0.406
	c0.436,0.417,0.449,1.11,0.031,1.546c-0.011,0.009-0.021,0.021-0.031,0.03c-0.41,0.424-1.088,0.436-1.512,0.025
	c-0.021-0.021-0.042-0.042-0.063-0.065c-0.744-0.741-1.457-1.519-2.183-2.278c-1.146-1.205-2.293-2.408-3.471-3.644
	c-2.271,1.659-4.756,2.284-7.495,1.579c-1.969-0.493-3.688-1.689-4.832-3.367c-2.676-3.853-1.722-9.148,2.13-11.823
	c3.126-2.17,7.313-2,10.248,0.419C34.82,22.54,36.382,27.492,33.092,32.037z M26.493,19.936c-3.719-0.025-6.755,2.968-6.783,6.688
	c-0.026,3.719,2.968,6.756,6.686,6.781c3.719,0.027,6.756-2.968,6.783-6.687c0-0.007,0-0.014,0-0.021
	C33.19,22.989,30.202,19.969,26.493,19.936z"/>
</svg>
