<?xml version="1.0" encoding="utf-8"?>
<!-- Generator: Adobe Illustrator 25.3.1, SVG Export Plug-In . SVG Version: 6.00 Build 0)  -->
<svg version="1.1" id="Layer_1" xmlns="http://www.w3.org/2000/svg" xmlns:xlink="http://www.w3.org/1999/xlink" x="0px" y="0px"
	 viewBox="0 0 24 24" style="enable-background:new 0 0 24 24;" xml:space="preserve">
<style type="text/css">
	.st0{fill-rule:evenodd;clip-rule:evenodd;fill:#005897;}
	.st1{fill-rule:evenodd;clip-rule:evenodd;fill:#5D5E5E;}
	.st2{fill-rule:evenodd;clip-rule:evenodd;fill:#005897;stroke:#005897;stroke-width:0.25;stroke-miterlimit:10;}
	.st3{fill:#005897;}
	.st4{fill:#005897;stroke:#005897;stroke-width:0.25;stroke-miterlimit:10;}
	.st5{fill:#FBFBFB;}
	.st6{fill:#F6FAFD;}
	.st7{fill:#010201;}
	.st8{fill:#38ADE1;}
	.st9{fill:#005897;stroke:#FFFFFF;stroke-width:0.1;stroke-miterlimit:10;}
	.st10{fill:#005897;stroke:#005897;stroke-width:0.1;stroke-miterlimit:10;}
	.st11{fill:#005897;stroke:#005897;stroke-width:0.12;stroke-miterlimit:10;}
	.st12{fill:#174884;}
	.st13{fill:#9CBDD4;}
	.st14{fill:#FFFFFF;}
</style>
<g>
	<path class="st3" d="M18.14,9.53c0.87,0.62,1.82,0.99,2.79,1.31c0.62,0.2,1.24,0.4,1.86,0.59c0.65,0.2,0.72,0.45,0.2,0.91
		c-0.96,0.86-1.92,1.72-2.91,2.55c-0.33,0.27-0.45,0.55-0.44,0.96c0.02,1.82-0.02,3.65,0.02,5.47c0.01,0.66-0.21,0.9-0.88,0.89
		c-1.52-0.04-3.04-0.03-4.56,0c-0.59,0.01-0.82-0.2-0.8-0.8c0.03-0.83,0.02-1.67,0.01-2.51c-0.01-0.85-0.8-1.55-1.71-1.54
		c-0.61,0.01-1.32,0.79-1.33,1.49c-0.02,0.89-0.02,1.77,0,2.66c0.01,0.49-0.19,0.69-0.67,0.69c-1.62-0.01-3.24-0.02-4.86,0
		c-0.62,0.01-0.69-0.34-0.69-0.83c0.01-1.87-0.01-3.75,0.01-5.62c0.01-0.55-0.23-0.85-0.64-1.2c-0.84-0.72-1.94-1.19-2.47-2.25
		c-0.02-0.04-0.13-0.05-0.19-0.04c-0.32,0.04-0.39-0.17-0.4-0.42c-0.01-0.27,0.2-0.33,0.4-0.38c1.47-0.36,2.84-1.01,4.24-1.56
		C5.3,9.83,5.45,9.7,5.61,9.6c-1-0.83-1.98-1.65-2.96-2.47C2.5,7,2.3,6.88,2.39,6.63c0.07-0.22,0.25-0.32,0.46-0.34
		c1.53-0.21,2.87-0.9,4.23-1.56C7.35,4.6,7.67,4.52,7.63,4.11C7.61,3.85,7.82,3.72,8.02,3.74c0.2,0.02,0.39,0.19,0.37,0.42
		c-0.04,0.41,0.18,0.41,0.5,0.45c1.94,0.23,3.88,0.09,5.81,0.08c0.28,0,0.8,0,0.73-0.61c-0.03-0.22,0.2-0.34,0.43-0.32
		c0.2,0.02,0.34,0.15,0.3,0.36c-0.08,0.45,0.25,0.54,0.55,0.68c1.35,0.62,2.68,1.27,4.17,1.5c0.21,0.03,0.47,0.07,0.52,0.36
		c0.05,0.28-0.16,0.41-0.33,0.55C20.11,7.98,19.14,8.74,18.14,9.53z M21.11,12.73c-2.5,0.53-5.03,0.84-7.59,0.96
		c-1.42,0.07-2.83,0.06-4.25-0.06c-0.39-0.03-0.48-0.21-0.47-0.5c0.01-0.26,0.27-0.3,0.45-0.28c2.93,0.23,5.84,0.07,8.75-0.33
		c1.1-0.15,2.17-0.4,3.36-0.67c-1.35-0.54-2.57-1.03-3.73-1.67c-0.27-0.15-0.53-0.14-0.81-0.11c-1.51,0.17-3.03,0.23-4.55,0.19
		c-1.53-0.04-3.05,0.08-4.59-0.22C7.08,9.92,6.21,9.76,5.6,10.27c-0.91,0.76-2.03,1.04-3.09,1.56c-0.72,0.17,0.33,0.37,0.6,0.34
		c1.07-0.12,2.07,0.28,3.1,0.39c0.54,0.06,1.18-0.1,1.67,0.34c0.12,0.11,0.36,0.12,0.28,0.36c-0.06,0.17-0.24,0.15-0.39,0.15
		c-0.53-0.01-1.06,0.02-1.59-0.08c-1.15-0.21-2.31-0.37-3.46-0.56c0.43,0.29,0.54,0.81,0.97,1.06c0.76,0.45,1.39,1.04,1.26,2.07
		c-0.04,0.3-0.02,0.61-0.02,0.91c0,1.24,0,1.26,1.23,1.31c0.31,0.01,0.44,0.06,0.44,0.41c0.01,0.34-0.15,0.34-0.4,0.36
		C4.94,18.99,4.94,19,4.94,20.26c0,0.23,0.02,0.46,0,0.68c-0.04,0.41,0.13,0.52,0.52,0.51c1.22-0.02,2.43-0.02,3.65,0
		c0.41,0.01,0.52-0.15,0.51-0.53c-0.02-0.63,0.05-1.27-0.01-1.9c-0.12-1.25,0.96-2.26,2.26-2.26c1.14,0,2.52,1.02,2.34,2.22
		c-0.09,0.57,0.03,1.17-0.02,1.75c-0.04,0.55,0.11,0.77,0.7,0.73c0.78-0.05,1.57-0.01,2.36-0.01c1.63,0,1.63,0,1.63-1.67
		c0-0.94-0.07-0.99-1.06-0.94c-0.07,0-0.16-0.08-0.21-0.05c-0.32,0.2-0.48,0.06-0.52-0.25c-0.04-0.29,0.17-0.37,0.43-0.4
		c0.45-0.06,1.07,0.26,1.31-0.2c0.2-0.38,0.05-0.94,0.05-1.42c0-0.33,0.03-0.66-0.01-0.99c-0.04-0.42,0.12-0.7,0.44-0.97
		c0.65-0.55,1.26-1.15,1.89-1.73c0.05-0.02,0.15-0.01,0.1-0.11C21.28,12.69,21.17,12.72,21.11,12.73z M19.26,6.74
		c-0.98-0.41-1.83-0.75-2.67-1.14c-0.45-0.21-0.88-0.3-1.38-0.25c-1.86,0.17-3.74,0.29-5.6,0.07C8.4,5.26,7.28,5.32,6.21,5.99
		C5.75,6.28,5.2,6.43,4.7,6.65C9.5,7.63,14.31,7.92,19.26,6.74z M19.06,7.82c-0.02-0.07-0.05-0.14-0.07-0.21
		c-1.12,0.16-2.24,0.33-3.36,0.46c-0.33,0.04-0.55,0.04-0.59,0.47c-0.03,0.35-0.5,0.48-0.59,0.21c-0.31-0.97-1.04-0.37-1.56-0.5
		c-0.29-0.07-0.61-0.04-0.63,0.41c-0.01,0.21-0.11,0.39-0.38,0.37c-0.23-0.02-0.33-0.17-0.34-0.34c-0.01-0.37-0.21-0.52-0.53-0.43
		c-0.48,0.15-1.12-0.42-1.45,0.31C9.47,8.75,9.38,8.86,9.17,8.86c-0.27,0-0.34-0.18-0.35-0.4c-0.02-0.3-0.2-0.35-0.46-0.37
		C7.05,7.97,5.75,7.78,4.3,7.49c0.71,0.6,1.29,1.08,1.86,1.57c0.18,0.16,0.39,0.22,0.63,0.24C7.74,9.35,8.7,9.43,9.66,9.46
		c1.31,0.05,2.65-0.06,3.94,0.07c1.03,0.1,1.99-0.17,3-0.14C17.62,9.43,18.24,8.36,19.06,7.82z"/>
	<path class="st3" d="M0.31,1.81C0.37,1.8,0.42,1.78,0.48,1.76C0.46,1.81,0.44,1.87,0.42,1.92C0.38,1.89,0.35,1.85,0.31,1.81z"/>
	<path class="st3" d="M6.75,15c0,0.18,0.01,0.35,0,0.53c-0.02,0.21-0.18,0.33-0.36,0.3c-0.4-0.05-0.43-0.38-0.39-0.69
		c0.05-0.39-0.22-0.91,0.36-1.09c0.2-0.06,0.38,0.12,0.4,0.35C6.77,14.6,6.76,14.8,6.75,15C6.75,15,6.75,15,6.75,15z"/>
	<path class="st3" d="M17.82,14.97c0,0.18,0.02,0.36-0.01,0.53c-0.04,0.22-0.2,0.37-0.43,0.33c-0.43-0.08-0.35-0.45-0.32-0.73
		c0.04-0.36-0.24-0.85,0.3-1.05c0.23-0.08,0.38,0.11,0.43,0.32c0.05,0.19,0.03,0.4,0.04,0.6C17.83,14.97,17.83,14.97,17.82,14.97z"
		/>
	<path class="st3" d="M8.82,15.04c0.04-0.26-0.12-0.71,0.39-0.69c0.4,0.02,0.38,0.4,0.36,0.7c-0.02,0.31,0.1,0.75-0.37,0.76
		C8.69,15.84,8.86,15.38,8.82,15.04z"/>
	<path class="st3" d="M12.31,15.06c-0.08,0.32,0.06,0.74-0.37,0.77c-0.43,0.03-0.42-0.36-0.42-0.65c0-0.29-0.03-0.67,0.4-0.68
		C12.3,14.49,12.26,14.85,12.31,15.06z"/>
	<path class="st3" d="M15.09,15.04c-0.01,0.34,0.06,0.74-0.4,0.78c-0.34,0.03-0.37-0.26-0.38-0.53c-0.01-0.38,0.23-0.66,0.53-0.72
		C15.23,14.49,15.02,14.88,15.09,15.04z"/>
</g>
</svg>
