<svg xmlns="http://www.w3.org/2000/svg" width="30.259" height="30.259" viewBox="0 0 30.259 30.259">
  <g id="single_bed_black_24dp" transform="translate(15.129 15.129)">
    <g id="single_bed_black_24dp-2" data-name="single_bed_black_24dp" transform="translate(-15.129 -15.129)">
      <g id="Group_269" data-name="Group 269" transform="translate(0 0)">
        <rect id="Rectangle_186" data-name="Rectangle 186" width="30.259" height="30.259" fill="none"/>
      </g>
      <g id="Group_270" data-name="Group 270" transform="translate(4.996 6.53)">
        <path id="Path_596" data-name="Path 596" d="M23.982,13.742a2.505,2.505,0,0,0-2.5-2.5V7.5a2.505,2.505,0,0,0-2.5-2.5H9A2.505,2.505,0,0,0,6.5,7.5v3.747a2.505,2.505,0,0,0-2.5,2.5v6.244H5.661l.837,2.5H7.747l.837-2.5H19.411l.824,2.5h1.249l.837-2.5h1.661Zm-5-2.5H15.24V7.5h3.747ZM9,7.5h3.747v3.747H9ZM6.5,13.742H21.484v3.747H6.5Z" transform="translate(-4 -5)"/>
      </g>
    </g>
  </g>
</svg>
