<?xml version="1.0" encoding="utf-8"?>
<!-- Generator: Adobe Illustrator 25.3.1, SVG Export Plug-In . SVG Version: 6.00 Build 0)  -->
<svg version="1.1" id="Layer_1" xmlns="http://www.w3.org/2000/svg" xmlns:xlink="http://www.w3.org/1999/xlink" x="0px" y="0px"
	 viewBox="0 0 24 24" style="enable-background:new 0 0 24 24;" xml:space="preserve">
<style type="text/css">
	.st0{fill-rule:evenodd;clip-rule:evenodd;fill:#005897;}
	.st1{fill-rule:evenodd;clip-rule:evenodd;fill:#5D5E5E;}
	.st2{fill-rule:evenodd;clip-rule:evenodd;fill:#005897;stroke:#005897;stroke-width:0.25;stroke-miterlimit:10;}
	.st3{fill:#005897;}
	.st4{fill:#005897;stroke:#005897;stroke-width:0.25;stroke-miterlimit:10;}
	.st5{fill:#FBFBFB;}
	.st6{fill:#F6FAFD;}
	.st7{fill:#010201;}
	.st8{fill:#38ADE1;}
	.st9{fill:#005897;stroke:#FFFFFF;stroke-width:0.1;stroke-miterlimit:10;}
	.st10{fill:#005897;stroke:#005897;stroke-width:0.1;stroke-miterlimit:10;}
	.st11{fill:#005897;stroke:#005897;stroke-width:0.12;stroke-miterlimit:10;}
	.st12{fill:#174884;}
	.st13{fill:#9CBDD4;}
	.st14{fill:#FFFFFF;}
</style>
<g>
	<path class="st12" d="M10.17,18.44c-0.19,0-0.36,0-0.55,0c0-0.18,0-0.34,0-0.52c0.18,0,0.36,0,0.56,0c0-0.21,0-0.4,0-0.62
		c-0.18-0.01-0.37-0.02-0.56-0.03c0-0.17,0-0.33,0-0.5c0.18-0.01,0.36-0.02,0.56-0.02c0.01-0.07,0.01-0.14,0.01-0.22
		c0-1.35,0-2.7,0-4.05c0-0.15-0.04-0.24-0.18-0.31c-0.48-0.27-0.96-0.55-1.44-0.84c-0.07-0.04-0.16-0.14-0.17-0.21
		C8.4,10.17,8.41,9.22,8.41,8.25c0.24,0,0.47,0,0.71,0c0-0.51,0-0.98,0-1.47C8.98,6.77,8.84,6.76,8.69,6.75c0-0.17,0-0.32,0-0.51
		c0.53,0,1.07,0,1.64,0c0-0.76,0-1.49,0-2.23c0.11-0.01,0.19-0.02,0.3-0.03c0-0.61,0-1.23,0-1.87c0.22,0,0.42,0,0.64,0
		c0-0.54,0-1.06,0-1.59c0.18,0,0.33,0,0.52,0c0,0.52,0,1.04,0,1.58c0.22,0,0.41,0,0.63,0c0,0.64,0,1.25,0,1.87
		c0.11,0.02,0.19,0.03,0.3,0.04c0,0.72,0,1.45,0,2.21c0.56,0,1.1,0,1.66,0c0,0.19,0,0.34,0,0.52c-0.14,0.01-0.28,0.02-0.43,0.03
		c0,0.48,0,0.96,0,1.45c0.23,0,0.45,0,0.7,0c0.01,0.11,0.01,0.19,0.01,0.28c0,0.84,0,1.67,0,2.51c0,0.15-0.05,0.24-0.18,0.31
		c-0.48,0.27-0.96,0.55-1.44,0.84c-0.08,0.05-0.16,0.15-0.16,0.24c-0.01,1.41-0.01,2.82-0.01,4.23c0,0.03,0.01,0.06,0.02,0.11
		c0.15,0.01,0.3,0.02,0.46,0.03c0,0.17,0,0.33,0,0.5c-0.16,0.01-0.3,0.02-0.46,0.02c0,0.2,0,0.4,0,0.6c0.16,0.01,0.3,0.02,0.46,0.03
		c0,0.16,0,0.32,0,0.49c-0.15,0.01-0.3,0.02-0.47,0.03c0,0.66,0,1.31,0,1.99c0.21,0,0.41,0,0.6,0c0.46,0.01,0.74,0.28,0.75,0.75
		c0.01,0.41,0,0.83,0,1.27c3.26,0,0.02,0,3.27,0c0,0.19,0,0.35,0,0.52c-8.3,0-3.14,0-11.45,0c0-0.16,0-0.32,0-0.51
		c3.24,0-0.49,0,2.77,0c0-0.42,0-0.8,0-1.19c0-0.57,0.26-0.83,0.84-0.84c0.16,0,0.33,0,0.51,0C10.17,19.77,10.17,19.12,10.17,18.44z
		 M13.29,11.41c0-0.02-0.01-0.03-0.01-0.05c-1.17,0-2.33,0-3.5,0c0.24,0.19,0.48,0.35,0.74,0.48c0.15,0.08,0.21,0.17,0.2,0.35
		c-0.01,1.39,0,2.78,0,4.17c0,0.12,0,0.24,0,0.37c0.55,0,1.07,0,1.6,0c0-0.1,0.01-0.19,0.01-0.28c0-1.42,0-2.85,0-4.27
		c0-0.16,0.04-0.26,0.19-0.33C12.78,11.72,13.03,11.56,13.29,11.41z M8.95,10.8c1.73,0,3.44,0,5.15,0c0-0.68,0-1.35,0-2
		c-1.73,0-3.44,0-5.15,0C8.95,9.47,8.95,10.12,8.95,10.8z M13.37,8.23c0-0.5,0-0.98,0-1.45c-1.24,0-2.46,0-3.68,0
		c0,0.49,0,0.97,0,1.45C10.92,8.23,12.14,8.23,13.37,8.23z M12.32,20.42c0-0.67,0-1.32,0-1.98c-0.53,0-1.05,0-1.58,0
		c0,0.66,0,1.31,0,1.98C11.26,20.42,11.78,20.42,12.32,20.42z M13.7,21.91c-1.45,0-2.88,0-4.33,0c0,0.18,0,0.35,0,0.54
		c1.45,0,2.88,0,4.33,0C13.7,22.26,13.7,22.1,13.7,21.91z M10.89,4.55c0,0.58,0,1.12,0,1.67c0.45,0,0.87,0,1.29,0
		c0-0.57,0-1.12,0-1.67C11.73,4.55,11.32,4.55,10.89,4.55z M13.69,21.35c0.03-0.33-0.01-0.39-0.3-0.39c-1.24,0-2.48,0-3.72,0
		c-0.3,0-0.35,0.08-0.28,0.39C10.81,21.35,12.24,21.35,13.69,21.35z M12.32,17.3c-0.55,0-1.06,0-1.58,0c0,0.21,0,0.4,0,0.6
		c0.54,0,1.05,0,1.58,0C12.32,17.69,12.32,17.5,12.32,17.3z M11.87,4c0-0.46,0-0.89,0-1.32c-0.24,0-0.47,0-0.71,0
		c0,0.24,0,0.45,0,0.67c0,0.22,0,0.44,0,0.66C11.42,4,11.64,4,11.87,4z"/>
	<path class="st14" d="M13.29,11.41c-0.26,0.15-0.51,0.31-0.77,0.45c-0.15,0.08-0.19,0.17-0.19,0.33c0.01,1.42,0,2.85,0,4.27
		c0,0.09-0.01,0.18-0.01,0.28c-0.53,0-1.05,0-1.6,0c0-0.13,0-0.25,0-0.37c0-1.39,0-2.78,0-4.17c0-0.17-0.05-0.27-0.2-0.35
		c-0.26-0.14-0.51-0.29-0.74-0.48c1.17,0,2.33,0,3.5,0C13.28,11.38,13.29,11.39,13.29,11.41z"/>
	<path class="st13" d="M8.95,10.8c0-0.68,0-1.33,0-2c1.72,0,3.42,0,5.15,0c0,0.66,0,1.32,0,2C12.39,10.8,10.68,10.8,8.95,10.8z
		 M10.29,10.27c0.19,0,0.35,0,0.52,0c0-0.34,0-0.67,0-1.01c-0.18,0-0.35,0-0.52,0C10.29,9.61,10.29,9.93,10.29,10.27z M12.75,10.28
		c0-0.35,0-0.68,0-1.01c-0.18,0-0.34,0-0.5,0c0,0.35,0,0.67,0,1.01C12.43,10.28,12.59,10.28,12.75,10.28z M13.73,10.28
		c0-0.36,0-0.68,0-1.01c-0.18,0-0.34,0-0.51,0c0,0.34,0,0.67,0,1.01C13.4,10.28,13.56,10.28,13.73,10.28z M9.33,9.26
		c0,0.36,0,0.68,0,1.02c0.18,0,0.34,0,0.5,0c0-0.35,0-0.68,0-1.02C9.65,9.26,9.49,9.26,9.33,9.26z M11.28,9.26c0,0.35,0,0.68,0,1.01
		c0.17,0,0.33,0,0.5,0c0-0.35,0-0.67,0-1.01C11.61,9.26,11.46,9.26,11.28,9.26z"/>
	<path class="st13" d="M13.37,8.23c-1.23,0-2.45,0-3.68,0c0-0.48,0-0.96,0-1.45c1.22,0,2.44,0,3.68,0
		C13.37,7.25,13.37,7.73,13.37,8.23z M10.16,7.06c0,0.25,0,0.48,0,0.71c0.18,0,0.34,0,0.5,0c0-0.24,0-0.47,0-0.71
		C10.49,7.06,10.34,7.06,10.16,7.06z M12.39,7.77c0.17,0,0.33,0,0.5,0c0-0.25,0-0.48,0-0.71c-0.18,0-0.33,0-0.5,0
		C12.39,7.3,12.39,7.53,12.39,7.77z M11.78,7.06c-0.17,0-0.32,0-0.49,0c0,0.25,0,0.48,0,0.71c0.18,0,0.33,0,0.49,0
		C11.78,7.52,11.78,7.3,11.78,7.06z"/>
	<path class="st14" d="M12.32,20.42c-0.54,0-1.06,0-1.58,0c0-0.67,0-1.31,0-1.98c0.53,0,1.05,0,1.58,0
		C12.32,19.11,12.32,19.76,12.32,20.42z"/>
	<path class="st13" d="M13.7,21.91c0,0.18,0,0.35,0,0.54c-1.45,0-2.88,0-4.33,0c0-0.19,0-0.35,0-0.54
		C10.81,21.91,12.25,21.91,13.7,21.91z"/>
	<path class="st13" d="M10.89,4.55c0.43,0,0.85,0,1.29,0c0,0.55,0,1.1,0,1.67c-0.42,0-0.84,0-1.29,0
		C10.89,5.67,10.89,5.13,10.89,4.55z"/>
	<path class="st13" d="M13.69,21.35c-1.45,0-2.87,0-4.3,0c-0.07-0.31-0.02-0.39,0.28-0.39c1.24,0,2.48,0,3.72,0
		C13.68,20.97,13.72,21.03,13.69,21.35z"/>
	<path class="st13" d="M12.32,17.3c0,0.2,0,0.39,0,0.6c-0.53,0-1.04,0-1.58,0c0-0.19,0-0.39,0-0.6C11.26,17.3,11.78,17.3,12.32,17.3
		z"/>
	<path class="st13" d="M11.87,4c-0.24,0-0.45,0-0.71,0c0-0.22,0-0.44,0-0.66c0-0.21,0-0.43,0-0.67c0.24,0,0.46,0,0.71,0
		C11.87,3.11,11.87,3.54,11.87,4z"/>
	<path class="st12" d="M10.29,10.27c0-0.34,0-0.66,0-1.01c0.17,0,0.34,0,0.52,0c0,0.33,0,0.66,0,1.01
		C10.64,10.27,10.48,10.27,10.29,10.27z"/>
	<path class="st12" d="M12.75,10.28c-0.16,0-0.32,0-0.5,0c0-0.33,0-0.66,0-1.01c0.16,0,0.32,0,0.5,0
		C12.75,9.59,12.75,9.93,12.75,10.28z"/>
	<path class="st12" d="M13.73,10.28c-0.17,0-0.33,0-0.51,0c0-0.34,0-0.67,0-1.01c0.17,0,0.33,0,0.51,0
		C13.73,9.59,13.73,9.92,13.73,10.28z"/>
	<path class="st12" d="M9.33,9.26c0.17,0,0.32,0,0.5,0c0,0.33,0,0.67,0,1.02c-0.16,0-0.32,0-0.5,0C9.33,9.94,9.33,9.62,9.33,9.26z"
		/>
	<path class="st12" d="M11.28,9.26c0.17,0,0.33,0,0.5,0c0,0.34,0,0.67,0,1.01c-0.16,0-0.32,0-0.5,0
		C11.28,9.94,11.28,9.61,11.28,9.26z"/>
	<path class="st12" d="M10.16,7.06c0.18,0,0.33,0,0.5,0c0,0.24,0,0.46,0,0.71c-0.16,0-0.32,0-0.5,0
		C10.16,7.54,10.16,7.31,10.16,7.06z"/>
	<path class="st12" d="M12.39,7.77c0-0.24,0-0.47,0-0.71c0.17,0,0.32,0,0.5,0c0,0.23,0,0.46,0,0.71
		C12.72,7.77,12.56,7.77,12.39,7.77z"/>
	<path class="st12" d="M11.78,7.06c0,0.24,0,0.47,0,0.71c-0.16,0-0.31,0-0.49,0c0-0.23,0-0.46,0-0.71
		C11.45,7.06,11.6,7.06,11.78,7.06z"/>
</g>
</svg>
