<?xml version="1.0" encoding="utf-8"?>
<!-- Generator: Adobe Illustrator 25.3.1, SVG Export Plug-In . SVG Version: 6.00 Build 0)  -->
<svg version="1.1" id="Layer_1" xmlns="http://www.w3.org/2000/svg" xmlns:xlink="http://www.w3.org/1999/xlink" x="0px" y="0px"
	 viewBox="0 0 24 24" style="enable-background:new 0 0 24 24;" xml:space="preserve">
<style type="text/css">
	.st0{fill-rule:evenodd;clip-rule:evenodd;fill:#005897;}
	.st1{fill-rule:evenodd;clip-rule:evenodd;fill:#5D5E5E;}
	.st2{fill-rule:evenodd;clip-rule:evenodd;fill:#005897;stroke:#005897;stroke-width:0.25;stroke-miterlimit:10;}
	.st3{fill:#005897;}
	.st4{fill:#005897;stroke:#005897;stroke-width:0.25;stroke-miterlimit:10;}
	.st5{fill:#FBFBFB;}
	.st6{fill:#F6FAFD;}
	.st7{fill:#010201;}
	.st8{fill:#38ADE1;}
	.st9{fill:#005897;stroke:#FFFFFF;stroke-width:0.1;stroke-miterlimit:10;}
	.st10{fill:#005897;stroke:#005897;stroke-width:0.1;stroke-miterlimit:10;}
	.st11{fill:#005897;stroke:#005897;stroke-width:0.12;stroke-miterlimit:10;}
	.st12{fill:#174884;}
	.st13{fill:#9CBDD4;}
	.st14{fill:#FFFFFF;}
</style>
<path class="st12" d="M5.79,6.32C5.34,6.21,4.92,6.1,4.49,5.99c-0.16-0.04-0.26-0.11-0.27-0.3c-0.02-0.57,0.02-0.6,0.59-0.53
	c1.09,0.13,2.15,0.39,3.2,0.69c3.4,0.97,6.69,2.22,9.98,3.51c1.79,0.7,3.57,1.44,5.34,2.18c0.17,0.07,0.24,0.16,0.23,0.35
	c-0.01,1.2,0,2.4,0,3.6c0,0.27-0.04,0.31-0.31,0.3c-1.75-0.07-3.49-0.13-5.24-0.2c-2.01-0.08-4.03-0.17-6.04-0.25
	c-1.31-0.05-2.62-0.1-3.93-0.15c-1.74-0.07-3.47-0.14-5.21-0.21c-0.61-0.02-1.21-0.04-1.82-0.06c-0.29-0.01-0.34-0.08-0.27-0.36
	c0.45-1.78,0.99-3.53,1.87-5.16C2.86,8.9,3.16,8.44,3.57,8.06C3.9,7.75,4.27,7.53,4.75,7.57C4.82,7.58,4.88,7.57,4.92,7.5
	C5.2,7.11,5.49,6.73,5.79,6.32z M11.87,11c0.82-0.37,1.67-0.65,2.62-0.76c-0.47-0.41-0.94-0.73-1.43-1.02
	c-0.12-0.07-0.13,0.03-0.16,0.08c-0.36,0.55-0.71,1.1-1.07,1.66c-0.01,0.02-0.03,0.04-0.04,0.06C11.82,11.04,11.85,11.04,11.87,11z
	 M4.24,9.82c0.01-0.05,0.03-0.11-0.01-0.17C4.21,9.72,4.19,9.77,4.18,9.82c-0.58,1.58-1.15,3.16-1.75,4.82c0.53,0,1.02,0,1.5,0
	c0.12,0,0.15-0.03,0.15-0.15C4.13,12.94,4.19,11.38,4.24,9.82z M19.86,12.03c-3.99-2.91-9.47-1.21-11.26,2.79
	c2.3,0.09,4.59,0.18,6.88,0.27c0.13,0.01,0.2-0.04,0.27-0.15c0.65-0.98,1.49-1.75,2.52-2.31C18.77,12.38,19.29,12.18,19.86,12.03z
	 M21.02,10.98c-0.13-0.06-0.2-0.09-0.28-0.12c-1.53-0.61-3.06-1.23-4.6-1.82c-2.93-1.12-5.88-2.21-8.92-3.02
	C6.43,5.8,5.61,5.61,4.77,5.54c-0.05,0-0.13-0.06-0.15,0.03c-0.03,0.11,0.09,0.06,0.14,0.1C4.77,5.68,4.8,5.68,4.82,5.68
	c2.17,0.57,4.3,1.24,6.34,2.16c1.35,0.6,2.65,1.28,3.75,2.29c0.07,0.07,0.15,0.06,0.23,0.06c0.64-0.02,1.27,0.04,1.9,0.17
	c2.17,0.48,3.86,1.66,5.08,3.52c0.28,0.43,0.52,0.89,0.69,1.38c0.06,0.18,0.19,0.13,0.31,0.13c0.17,0,0.08-0.13,0.09-0.2
	c0.01-0.94,0-1.87,0-2.81c0-0.04,0.02-0.09-0.07-0.17c-0.04,0.06-0.06,0.12-0.1,0.17c-0.09,0.1-0.2,0.15-0.31,0.03
	c-0.1-0.11-0.05-0.21,0.04-0.29c0.1-0.09,0.21-0.18,0.31-0.26c-0.43-0.32-0.8-0.39-1.1,0.09c-0.06,0.1-0.18,0.11-0.28,0.02
	c-0.09-0.09-0.08-0.19,0.01-0.27c0.1-0.1,0.21-0.19,0.34-0.3c-0.27-0.1-0.47-0.25-0.68-0.25c-0.17,0-0.28,0.24-0.43,0.37
	c-0.01,0.01-0.02,0.02-0.03,0.03c-0.08,0.08-0.17,0.1-0.26,0.02c-0.1-0.09-0.09-0.19,0-0.28C20.77,11.19,20.88,11.1,21.02,10.98z
	 M4.58,7.93c-0.2,0.04-0.36,0.1-0.5,0.19c-0.35,0.24-0.6,0.56-0.83,0.9c-0.59,0.88-0.98,1.86-1.33,2.85
	c-0.29,0.81-0.53,1.63-0.76,2.46c-0.04,0.14-0.03,0.22,0.15,0.21c0.18-0.01,0.36-0.01,0.54,0.01c0.17,0.02,0.23-0.04,0.29-0.2
	c0.49-1.39,0.98-2.79,1.5-4.17C3.93,9.44,4.09,8.63,4.58,7.93z M6.42,10.39c-0.01,0-0.03,0-0.04-0.01
	c-0.07,0.17-0.15,0.34-0.22,0.51c-0.52,1.2-1.03,2.4-1.55,3.59c-0.05,0.13-0.09,0.2,0.11,0.2c0.52,0.01,1.03,0.03,1.55,0.05
	c0.11,0,0.16-0.01,0.16-0.14C6.42,13.19,6.42,11.79,6.42,10.39z M9.11,10.3c0.63,0.29,1.25,0.56,1.91,0.86
	c-0.19-0.98-0.37-1.92-0.57-2.91C9.99,8.96,9.55,9.63,9.11,10.3z M10.8,8.09C10.99,9.06,11.17,10,11.37,11
	c0.43-0.67,0.84-1.29,1.24-1.92c0.04-0.07,0.03-0.1-0.04-0.14C12.01,8.64,11.43,8.35,10.8,8.09z M8.95,9.88
	c0.44-0.67,0.85-1.3,1.27-1.93c0.08-0.11,0-0.12-0.07-0.15C9.78,7.66,9.41,7.52,9.04,7.38C8.88,7.32,8.71,7.26,8.52,7.19
	C8.66,8.1,8.8,8.97,8.95,9.88z M6.8,10.53C6.8,10.53,6.8,10.53,6.8,10.53c0,0.13,0,0.27,0,0.4c0,0.45,0,0.45,0.46,0.45
	c0.28,0,0.62,0.09,0.84-0.03c0.23-0.12,0.28-0.49,0.42-0.74c0-0.01,0.01-0.01,0.01-0.02c0.06-0.08,0.05-0.13-0.06-0.18
	c-0.51-0.22-1.02-0.45-1.53-0.69C6.83,9.67,6.79,9.69,6.8,9.81C6.8,10.05,6.8,10.29,6.8,10.53z M8.6,10.07
	C8.46,9.18,8.32,8.32,8.18,7.41C7.75,8.03,7.35,8.62,6.95,9.2C6.9,9.28,6.92,9.31,7,9.35C7.52,9.58,8.04,9.82,8.6,10.07z M6.32,6.48
	c0.13,0.81,0.26,1.58,0.4,2.41C7.17,8.23,7.58,7.63,8,7.01C7.43,6.83,6.9,6.66,6.32,6.48z M6.37,9.06c-0.13-0.79-0.26-1.55-0.4-2.37
	C5.57,7.24,5.21,7.74,4.84,8.24C4.78,8.31,4.79,8.35,4.87,8.39C5.37,8.61,5.86,8.83,6.37,9.06z M9.17,12.43
	c0.53-0.37,1.06-0.67,1.64-0.96c-0.61-0.28-1.18-0.54-1.78-0.8C9.08,11.27,9.12,11.83,9.17,12.43z M6.8,14.03
	c0.01,0.01,0.03,0.01,0.04,0.02c0.37-0.76,0.74-1.51,1.11-2.29c-0.35,0-0.66,0.01-0.97,0c-0.15-0.01-0.19,0.05-0.18,0.19
	C6.8,12.64,6.8,13.33,6.8,14.03z M9.55,12.66c-0.92,0.59-1.75,1.28-2.52,2.1c0.34,0.02,0.64,0.02,0.94,0.05
	c0.16,0.02,0.22-0.04,0.29-0.17c0.29-0.6,0.66-1.15,1.09-1.66C9.43,12.88,9.53,12.81,9.55,12.66z M8.7,11.18
	c-0.02,0-0.04-0.01-0.05-0.01c-0.43,0.89-0.87,1.79-1.3,2.68c0.47-0.37,0.91-0.75,1.38-1.1c0.05-0.04,0.08-0.08,0.08-0.15
	C8.77,12.13,8.74,11.66,8.7,11.18z M4.66,8.7C4.65,9.01,4.63,9.3,4.62,9.6c0,0.06-0.02,0.14,0.09,0.14c0.49,0,0.99,0,1.48,0
	c0.12,0,0.1-0.13,0.15-0.19c0.05-0.08-0.03-0.09-0.06-0.11C5.74,9.18,5.21,8.95,4.66,8.7z M16.1,15.1c0.45,0.15,0.75,0,1-0.37
	c0.18-0.26,0.42-0.47,0.64-0.71c-0.11-0.05-0.25-0.12-0.38-0.2c-0.06-0.03-0.11-0.03-0.16,0.02C16.78,14.21,16.41,14.62,16.1,15.1z
	 M4.54,13.71c0.27-0.62,0.55-1.28,0.84-1.96c-0.25,0-0.46,0-0.68,0c-0.11,0-0.17,0.02-0.17,0.14C4.54,12.52,4.54,13.14,4.54,13.71z
	 M6.07,10.09c-0.39,0-0.77,0-1.15,0c-0.32,0-0.31,0-0.32,0.32c0,0.13,0.04,0.15,0.15,0.15c0.24-0.01,0.48,0,0.72,0
	c0.45,0,0.45,0,0.61-0.42C6.08,10.13,6.08,10.13,6.07,10.09z M17.21,15.16c0.05,0.01,0.07,0.01,0.09,0.01
	c0.39,0.05,0.73,0,1.02-0.33c0.22-0.25,0.25-0.22-0.01-0.43c-0.03-0.03-0.08-0.05-0.11-0.08c-0.06-0.07-0.11-0.04-0.17,0.01
	C17.75,14.58,17.47,14.84,17.21,15.16z M5.15,10.94c-0.16,0-0.31,0-0.47,0c-0.18,0-0.11,0.13-0.11,0.21c0,0.08-0.09,0.23,0.1,0.23
	c0.25,0,0.51,0.01,0.76,0c0.22-0.01,0.23-0.23,0.25-0.37c0.02-0.14-0.14-0.05-0.22-0.07C5.37,10.93,5.26,10.94,5.15,10.94z
	 M21.05,14.1c0.1,0.16,0.19,0.31,0.28,0.45c0.03,0.05,0.05,0.08,0.12,0.09c0.22,0.01,0.44,0.02,0.67,0.04
	C21.78,13.99,21.91,14.03,21.05,14.1z M19.57,12.53c0.4,0.43,0.64,0.49,1.16,0.26C20.33,12.29,20.16,12.25,19.57,12.53z
	 M20.36,13.25c0.13,0.15,0.24,0.28,0.35,0.4c0.05,0.06,0.09,0.09,0.17,0.08c0.21-0.02,0.41-0.04,0.65-0.06
	c-0.12-0.15-0.23-0.28-0.33-0.42c-0.07-0.1-0.16-0.12-0.27-0.1C20.75,13.19,20.57,13.22,20.36,13.25z M20.34,13.81
	c-0.34-0.49-0.48-0.52-0.96-0.23c0.21,0.42,0.54,0.46,0.92,0.25C20.31,13.83,20.32,13.83,20.34,13.81z M18.51,12.95
	c0.56,0.4,0.56,0.4,1.06,0.11C19.18,12.63,19.05,12.61,18.51,12.95z M18.61,13.48c-0.44-0.38-0.64-0.37-0.97,0.03
	C17.98,13.88,18.3,13.82,18.61,13.48z M20.94,14.67c-0.23-0.54-0.39-0.6-0.89-0.35c0.27,0.44,0.27,0.44,0.76,0.37
	C20.86,14.68,20.9,14.68,20.94,14.67z M19.37,14.17c-0.26-0.42-0.42-0.46-0.81-0.19c-0.1,0.07-0.09,0.1,0,0.17
	c0.32,0.28,0.32,0.28,0.7,0.09C19.3,14.21,19.33,14.19,19.37,14.17z M19.16,14.7c0.1,0.13,0.2,0.25,0.28,0.37
	c0.05,0.08,0.1,0.06,0.17,0.02c0.12-0.08,0.28-0.09,0.37-0.22c0.01-0.01-0.02-0.04-0.03-0.06c-0.2-0.39-0.26-0.4-0.64-0.2
	C19.26,14.65,19.21,14.67,19.16,14.7z M21.59,15.03c0.09,0.11,0.02,0.31,0.22,0.32c0.2,0.01,0.41,0,0.64,0
	C22.27,14.92,21.89,15.11,21.59,15.03z M21.29,15.31c-0.07-0.12-0.04-0.3-0.25-0.28c-0.29,0.03-0.57,0.1-0.89,0.23
	C20.56,15.32,20.91,15.32,21.29,15.31z M18.47,15.23c0.21,0,0.38,0,0.55,0c0.01,0,0.02-0.01,0.04-0.02
	C18.83,14.87,18.88,14.83,18.47,15.23z"/>
<path class="st12" d="M13.08,18.83c-1.51,0.24-3,0.54-4.48,0.87c-2.1,0.48-4.19,1.02-6.26,1.63c-0.12,0.04-0.27,0.08-0.33-0.08
	c-0.06-0.15,0.04-0.23,0.18-0.27c0.92-0.25,1.84-0.52,2.76-0.77c1.86-0.5,3.73-0.95,5.62-1.32c1.55-0.31,3.1-0.6,4.68-0.7
	c2.67-0.19,5.35-0.24,8.02-0.23c0.13,0,0.28,0,0.28,0.18c0,0.2-0.15,0.19-0.29,0.19c-2.47-0.02-4.95,0.09-7.42,0.18
	c-0.12,0-0.17,0.03-0.17,0.17c0.01,0.31,0,0.61,0,0.92c0,0.14-0.03,0.25-0.18,0.25c-0.15,0-0.18-0.12-0.18-0.25
	c0-0.3-0.01-0.6,0-0.9c0-0.13-0.04-0.15-0.15-0.14c-0.5,0.06-1.01,0.12-1.52,0.18c-0.15,0.02-0.21,0.07-0.21,0.24
	c0.01,0.7,0,1.39,0.01,2.09c0,0.14,0,0.3-0.19,0.29c-0.18,0-0.19-0.15-0.19-0.3C13.08,20.32,13.08,19.58,13.08,18.83z"/>
<path class="st12" d="M12.13,16.43c-2.76-0.11-5.51-0.23-8.27-0.34c-0.94-0.04-1.87-0.07-2.81-0.1c-0.03,0-0.06,0-0.09,0
	c-0.14-0.01-0.27-0.03-0.26-0.21c0.01-0.16,0.14-0.18,0.26-0.17c0.39,0.02,0.78,0.03,1.17,0.05c1.28,0.05,2.56,0.11,3.84,0.16
	c1.77,0.07,3.54,0.14,5.3,0.21c1.26,0.05,2.52,0.1,3.78,0.15c1.69,0.07,3.39,0.14,5.08,0.21c0.89,0.04,1.78,0.07,2.67,0.1
	c0.19,0.01,0.39,0.02,0.58,0.03c0.11,0.01,0.18,0.08,0.17,0.2c-0.01,0.11-0.08,0.16-0.18,0.17c-0.05,0.01-0.1,0-0.16,0
	c-2.39-0.1-4.78-0.2-7.17-0.3C14.75,16.53,13.44,16.48,12.13,16.43z"/>
<path class="st12" d="M6.87,18.03c-1.97-0.32-3.94-0.64-5.91-0.96c-0.14-0.02-0.29-0.05-0.25-0.24c0.03-0.17,0.16-0.16,0.3-0.13
	C2.9,17,4.79,17.31,6.68,17.62c0.29,0.05,0.58,0.09,0.86,0.14c0.12,0.02,0.25,0.03,0.27,0.19c0.02,0.16-0.12,0.19-0.22,0.24
	c-1.42,0.62-2.85,1.23-4.27,1.85c-0.67,0.29-1.34,0.58-2.01,0.87c-0.14,0.06-0.28,0.13-0.36-0.05c-0.07-0.17,0.08-0.23,0.21-0.28
	c1.83-0.79,3.66-1.59,5.48-2.38c0.09-0.04,0.17-0.08,0.25-0.12C6.88,18.06,6.88,18.04,6.87,18.03z"/>
<path class="st13" d="M19.86,12.03c-0.58,0.14-1.1,0.34-1.59,0.61c-1.04,0.56-1.88,1.33-2.52,2.31c-0.07,0.1-0.13,0.15-0.27,0.15
	c-2.29-0.09-4.58-0.18-6.88-0.27C10.4,10.82,15.88,9.12,19.86,12.03z M11.17,12.98c-0.01-0.07-0.04-0.14-0.11-0.17
	c-0.1-0.04-0.17,0.01-0.24,0.07c-0.37,0.33-0.72,0.69-1.03,1.09c-0.08,0.1-0.14,0.21-0.02,0.31c0.13,0.11,0.23,0.02,0.32-0.09
	c0.29-0.37,0.61-0.72,0.97-1.03C11.11,13.12,11.16,13.07,11.17,12.98z M11.53,12.75c0.16,0,0.43-0.22,0.42-0.34
	c-0.01-0.11-0.07-0.16-0.17-0.17c-0.15-0.01-0.45,0.22-0.44,0.33C11.35,12.68,11.41,12.75,11.53,12.75z"/>
<path class="st13" d="M21.02,10.98c-0.14,0.12-0.26,0.21-0.36,0.32c-0.09,0.09-0.1,0.19,0,0.28c0.09,0.08,0.18,0.06,0.26-0.02
	c0.01-0.01,0.02-0.02,0.03-0.03c0.14-0.13,0.25-0.37,0.43-0.37c0.2,0,0.41,0.14,0.68,0.25c-0.13,0.12-0.24,0.21-0.34,0.3
	c-0.09,0.08-0.11,0.18-0.01,0.27c0.09,0.09,0.21,0.08,0.28-0.02c0.3-0.47,0.67-0.41,1.1-0.09c-0.1,0.08-0.21,0.17-0.31,0.26
	c-0.09,0.08-0.15,0.18-0.04,0.29c0.11,0.11,0.22,0.07,0.31-0.03c0.04-0.05,0.07-0.11,0.1-0.17c0.09,0.08,0.07,0.13,0.07,0.17
	c0,0.94,0,1.87,0,2.81c0,0.07,0.08,0.2-0.09,0.2c-0.12,0-0.25,0.04-0.31-0.13c-0.17-0.49-0.41-0.95-0.69-1.38
	c-1.21-1.86-2.91-3.04-5.08-3.52c-0.62-0.14-1.26-0.19-1.9-0.17c-0.08,0-0.16,0.01-0.23-0.06c-1.1-1.02-2.4-1.69-3.75-2.29
	C9.12,6.93,6.99,6.25,4.82,5.68c-0.02-0.01-0.05,0-0.06-0.02c-0.04-0.04-0.16,0.01-0.14-0.1c0.02-0.09,0.1-0.03,0.15-0.03
	C5.61,5.61,6.43,5.8,7.24,6.02c3.04,0.81,5.98,1.89,8.92,3.02c1.54,0.59,3.06,1.21,4.6,1.82C20.82,10.89,20.89,10.92,21.02,10.98z"
	/>
<path class="st13" d="M4.58,7.93c-0.49,0.7-0.66,1.51-0.94,2.27c-0.52,1.38-1.01,2.77-1.5,4.17c-0.05,0.15-0.12,0.21-0.29,0.2
	c-0.18-0.02-0.36-0.02-0.54-0.01c-0.18,0.01-0.19-0.07-0.15-0.21c0.23-0.83,0.46-1.65,0.76-2.46c0.36-0.99,0.75-1.97,1.33-2.85
	c0.23-0.35,0.49-0.67,0.83-0.9C4.23,8.03,4.39,7.97,4.58,7.93z"/>
<path class="st13" d="M6.42,10.39c0,1.4,0,2.8,0,4.2c0,0.13-0.05,0.14-0.16,0.14c-0.52-0.02-1.03-0.04-1.55-0.05
	c-0.19,0-0.16-0.07-0.11-0.2c0.52-1.2,1.03-2.4,1.55-3.59c0.07-0.17,0.15-0.34,0.22-0.51C6.4,10.39,6.41,10.39,6.42,10.39z"/>
<path class="st13" d="M4.24,9.82c-0.05,1.56-0.11,3.12-0.16,4.67c0,0.12-0.04,0.15-0.15,0.15c-0.49-0.01-0.97,0-1.5,0
	c0.6-1.65,1.18-3.24,1.75-4.82C4.2,9.82,4.22,9.82,4.24,9.82z"/>
<path class="st13" d="M9.11,10.3c0.44-0.67,0.88-1.34,1.34-2.05c0.19,0.98,0.38,1.92,0.57,2.91C10.37,10.87,9.74,10.59,9.11,10.3z"
	/>
<path class="st13" d="M10.8,8.09c0.63,0.27,1.2,0.55,1.77,0.85c0.07,0.04,0.08,0.07,0.04,0.14C12.2,9.7,11.8,10.33,11.37,11
	C11.17,10,10.99,9.06,10.8,8.09z"/>
<path class="st13" d="M8.95,9.88C8.8,8.97,8.66,8.1,8.52,7.19c0.19,0.07,0.36,0.13,0.52,0.19c0.37,0.14,0.74,0.28,1.11,0.42
	c0.06,0.02,0.14,0.04,0.07,0.15C9.79,8.58,9.38,9.21,8.95,9.88z"/>
<path class="st13" d="M6.8,10.53c0-0.24,0-0.48,0-0.72c0-0.12,0.03-0.14,0.14-0.09c0.51,0.23,1.02,0.46,1.53,0.69
	c0.1,0.05,0.12,0.09,0.06,0.18c0,0.01-0.01,0.01-0.01,0.02c-0.14,0.25-0.18,0.62-0.42,0.74c-0.22,0.12-0.56,0.03-0.84,0.03
	c-0.46,0-0.46,0-0.46-0.45C6.8,10.8,6.8,10.66,6.8,10.53C6.8,10.53,6.8,10.53,6.8,10.53z"/>
<path class="st13" d="M8.6,10.07C8.04,9.82,7.52,9.58,7,9.35C6.92,9.31,6.9,9.28,6.95,9.2c0.4-0.58,0.8-1.17,1.23-1.8
	C8.32,8.32,8.46,9.18,8.6,10.07z"/>
<path class="st13" d="M6.32,6.48C6.9,6.66,7.43,6.83,8,7.01C7.58,7.63,7.17,8.23,6.72,8.89C6.58,8.06,6.45,7.29,6.32,6.48z"/>
<path class="st13" d="M11.83,10.97c0.36-0.55,0.71-1.11,1.07-1.66c0.03-0.05,0.04-0.15,0.16-0.08c0.49,0.29,0.95,0.61,1.43,1.02
	c-0.95,0.11-1.8,0.39-2.62,0.76C11.86,10.99,11.85,10.98,11.83,10.97z"/>
<path class="st13" d="M6.37,9.06c-0.51-0.23-1.01-0.46-1.5-0.68C4.79,8.35,4.78,8.31,4.84,8.24c0.37-0.5,0.74-1,1.14-1.55
	C6.11,7.51,6.24,8.27,6.37,9.06z"/>
<path class="st13" d="M9.17,12.43c-0.05-0.6-0.09-1.16-0.13-1.76c0.59,0.27,1.17,0.53,1.78,0.8C10.23,11.77,9.7,12.06,9.17,12.43z"
	/>
<path class="st13" d="M6.8,14.03c0-0.7,0-1.39,0-2.09c0-0.14,0.03-0.2,0.18-0.19c0.31,0.01,0.63,0,0.97,0
	c-0.38,0.77-0.75,1.53-1.11,2.29C6.83,14.04,6.81,14.03,6.8,14.03z"/>
<path class="st13" d="M9.55,12.66c-0.02,0.14-0.12,0.22-0.2,0.31c-0.43,0.51-0.8,1.06-1.09,1.66c-0.06,0.13-0.13,0.19-0.29,0.17
	c-0.3-0.03-0.61-0.03-0.94-0.05C7.8,13.95,8.63,13.25,9.55,12.66z"/>
<path class="st13" d="M8.7,11.18c0.03,0.47,0.07,0.95,0.1,1.42c0.01,0.07-0.02,0.11-0.08,0.15c-0.47,0.35-0.91,0.72-1.38,1.1
	c0.43-0.89,0.87-1.79,1.3-2.68C8.67,11.18,8.69,11.18,8.7,11.18z"/>
<path class="st13" d="M4.66,8.7c0.54,0.24,1.08,0.48,1.61,0.73c0.04,0.02,0.12,0.03,0.06,0.11C6.29,9.6,6.31,9.73,6.19,9.73
	c-0.49,0-0.99,0-1.48,0c-0.11,0-0.09-0.07-0.09-0.14C4.63,9.3,4.65,9.01,4.66,8.7z"/>
<path class="st13" d="M16.1,15.1c0.31-0.48,0.68-0.89,1.1-1.26c0.05-0.05,0.1-0.05,0.16-0.02c0.14,0.08,0.28,0.14,0.38,0.2
	c-0.22,0.24-0.46,0.45-0.64,0.71C16.85,15.1,16.55,15.24,16.1,15.1z"/>
<path class="st13" d="M4.54,13.71c0-0.58,0-1.2,0-1.82c0-0.13,0.06-0.15,0.17-0.14c0.22,0.01,0.43,0,0.68,0
	C5.09,12.44,4.81,13.1,4.54,13.71z"/>
<path class="st13" d="M6.07,10.09c0,0.03,0.01,0.04,0,0.05c-0.16,0.42-0.16,0.42-0.61,0.42c-0.24,0-0.48,0-0.72,0
	c-0.11,0-0.16-0.02-0.15-0.15c0.01-0.32,0-0.32,0.32-0.32C5.3,10.09,5.69,10.09,6.07,10.09z"/>
<path class="st13" d="M17.21,15.16c0.25-0.33,0.53-0.58,0.83-0.82c0.06-0.05,0.11-0.07,0.17-0.01c0.03,0.03,0.07,0.05,0.11,0.08
	c0.26,0.21,0.23,0.18,0.01,0.43c-0.29,0.33-0.63,0.38-1.02,0.33C17.29,15.18,17.26,15.17,17.21,15.16z"/>
<path class="st13" d="M5.15,10.94c0.1,0,0.21-0.01,0.31,0c0.08,0.01,0.24-0.07,0.22,0.07c-0.02,0.13-0.03,0.35-0.25,0.37
	c-0.25,0.02-0.51,0.01-0.76,0c-0.19,0-0.1-0.15-0.1-0.23c0-0.07-0.07-0.21,0.11-0.21C4.84,10.94,5,10.94,5.15,10.94z"/>
<path class="st13" d="M21.05,14.1c0.86-0.08,0.73-0.11,1.06,0.57c-0.23-0.01-0.45-0.03-0.67-0.04c-0.07,0-0.09-0.04-0.12-0.09
	C21.24,14.41,21.15,14.27,21.05,14.1z"/>
<path class="st13" d="M19.57,12.53c0.59-0.27,0.76-0.23,1.16,0.26C20.21,13.01,19.97,12.96,19.57,12.53z"/>
<path class="st13" d="M20.36,13.25c0.21-0.03,0.39-0.06,0.57-0.09c0.11-0.02,0.2,0,0.27,0.1c0.09,0.14,0.21,0.27,0.33,0.42
	c-0.24,0.02-0.45,0.04-0.65,0.06c-0.08,0.01-0.12-0.03-0.17-0.08C20.6,13.53,20.49,13.41,20.36,13.25z"/>
<path class="st13" d="M20.34,13.81c-0.02,0.01-0.03,0.02-0.03,0.02c-0.39,0.2-0.71,0.16-0.92-0.25
	C19.86,13.3,19.99,13.33,20.34,13.81z"/>
<path class="st13" d="M18.51,12.95c0.54-0.34,0.67-0.32,1.06,0.11C19.08,13.35,19.08,13.35,18.51,12.95z"/>
<path class="st13" d="M18.61,13.48c-0.31,0.33-0.64,0.39-0.97,0.03C17.97,13.11,18.17,13.11,18.61,13.48z"/>
<path class="st13" d="M20.94,14.67c-0.05,0-0.09,0.01-0.13,0.01c-0.49,0.08-0.49,0.08-0.76-0.37
	C20.56,14.08,20.71,14.14,20.94,14.67z"/>
<path class="st13" d="M19.37,14.17c-0.04,0.02-0.08,0.04-0.12,0.06c-0.38,0.19-0.38,0.19-0.7-0.09c-0.08-0.07-0.1-0.1,0-0.17
	C18.96,13.71,19.11,13.74,19.37,14.17z"/>
<path class="st13" d="M19.16,14.7c0.06-0.03,0.1-0.06,0.15-0.08c0.38-0.21,0.43-0.19,0.64,0.2c0.01,0.02,0.04,0.05,0.03,0.06
	c-0.09,0.13-0.25,0.14-0.37,0.22c-0.06,0.04-0.11,0.06-0.17-0.02C19.35,14.96,19.26,14.84,19.16,14.7z"/>
<path class="st13" d="M21.59,15.03c0.29,0.08,0.68-0.12,0.86,0.33c-0.23,0-0.44,0.01-0.64,0C21.62,15.34,21.68,15.14,21.59,15.03z"
	/>
<path class="st13" d="M21.29,15.31c-0.38,0.01-0.73,0-1.14-0.05c0.31-0.13,0.59-0.2,0.89-0.23C21.25,15.02,21.22,15.19,21.29,15.31z
	"/>
<path class="st13" d="M18.47,15.23c0.41-0.4,0.37-0.36,0.59-0.02c-0.01,0.01-0.02,0.02-0.04,0.02
	C18.85,15.23,18.67,15.23,18.47,15.23z"/>
<path class="st12" d="M4.24,9.82c-0.02,0-0.04,0-0.06,0c0.02-0.05,0.03-0.11,0.06-0.17C4.27,9.72,4.25,9.77,4.24,9.82z"/>
<path class="st12" d="M11.87,11c-0.02,0.04-0.05,0.04-0.08,0.02c0.01-0.02,0.03-0.04,0.04-0.06C11.85,10.98,11.86,10.99,11.87,11z"
	/>
<path class="st12" d="M11.17,12.98c-0.01,0.09-0.06,0.14-0.12,0.19c-0.36,0.31-0.68,0.65-0.97,1.03c-0.09,0.11-0.19,0.2-0.32,0.09
	c-0.12-0.1-0.06-0.21,0.02-0.31c0.31-0.4,0.65-0.76,1.03-1.09c0.07-0.06,0.14-0.11,0.24-0.07C11.13,12.84,11.16,12.91,11.17,12.98z"
	/>
<path class="st12" d="M11.53,12.75c-0.12,0-0.18-0.07-0.19-0.18c-0.01-0.11,0.29-0.33,0.44-0.33c0.11,0,0.17,0.06,0.17,0.17
	C11.96,12.53,11.69,12.75,11.53,12.75z"/>
</svg>
