<?xml version="1.0" encoding="utf-8"?>
<!-- Generator: Adobe Illustrator 16.0.0, SVG Export Plug-In . SVG Version: 6.00 Build 0)  -->
<!DOCTYPE svg PUBLIC "-//W3C//DTD SVG 1.1//EN" "http://www.w3.org/Graphics/SVG/1.1/DTD/svg11.dtd">
<svg version="1.1" id="Group_219" xmlns="http://www.w3.org/2000/svg" xmlns:xlink="http://www.w3.org/1999/xlink" x="0px" y="0px"
	 width="24px" height="24px" viewBox="37.477 49.636 24 24" enable-background="new 37.477 49.636 24 24" xml:space="preserve">
<g id="Group_204" transform="translate(29.961 45.137)">
	<rect id="Rectangle_121" x="16.336" y="13.32" fill="#9BBDD4" width="7.173" height="9.544"/>
</g>
<g id="Group_205" transform="translate(2.241 92.769)">
	<rect id="Rectangle_122" x="38.672" y="-25.058" fill="#9BBDD4" width="18.442" height="5.432"/>
</g>
<g id="Group_206" transform="translate(0 0)">
	<path id="Path_539" fill="#004686" d="M59.701,73.636H40.477v-6.44h5.643v-9.253h0.768v-2.833h0.858v-2.812h0.46
		c0.112-0.771,0.673-1.401,1.426-1.602v-1.008h0.925v1.006c0.749,0.205,1.306,0.833,1.421,1.602l0.44,0.024v2.776h0.813v2.83h0.723
		v9.252h5.747V73.636z M41.129,72.985h17.92v-5.153h-5.747v-9.252h-0.724v-2.83h-0.813v-2.812l-0.363-0.019l-0.031-0.274
		c-0.09-0.799-0.471-1.234-1.201-1.371l-0.077-0.014l-0.073,0.014c-0.75,0.147-1.124,0.576-1.21,1.387l-0.031,0.291h-0.381v2.813
		h-0.858v2.832h-0.767v9.253h-5.643L41.129,72.985z"/>
</g>
<g id="Group_209" transform="translate(11.668 96.207)">
	<g id="Group_207" transform="translate(1.509 1.509)">
		<path id="Path_540" fill="#FFFFFF" d="M31.955-25.554c0-0.808,0.016-1.589-0.01-2.37c-0.019-0.233-0.093-0.459-0.216-0.657
			c-0.265-0.449-0.844-0.598-1.293-0.333c-0.109,0.064-0.204,0.15-0.279,0.252c-0.193,0.246-0.298,0.551-0.297,0.864
			c0,0.675,0,1.35,0,2.024c0,0.073,0.007,0.146,0.01,0.219L31.955-25.554z"/>
	</g>
	<g id="Group_208" transform="translate(0 0)">
		<path id="Path_541" fill="#004686" d="M33.757-23.751h-2.657l-0.014-0.279c0-0.021-0.002-0.043-0.003-0.064
			c-0.003-0.054-0.007-0.11-0.007-0.168c0-0.351,0-0.7,0-1.05c0-0.325,0-0.65,0-0.976c-0.001-0.378,0.125-0.745,0.357-1.043
			c0.236-0.313,0.606-0.499,1-0.498c0.437-0.002,0.841,0.229,1.059,0.608c0.147,0.242,0.235,0.515,0.256,0.797
			c0.02,0.569,0.016,1.127,0.013,1.714c-0.001,0.221-0.002,0.441-0.002,0.664L33.757-23.751z M31.663-24.338h1.508
			c0-0.125,0.001-0.25,0.002-0.374c0.003-0.583,0.006-1.134-0.012-1.692c-0.017-0.184-0.078-0.362-0.176-0.52
			c-0.114-0.197-0.325-0.319-0.553-0.318c-0.21,0.001-0.407,0.1-0.533,0.268c-0.155,0.195-0.238,0.438-0.237,0.687
			c0,0.326,0,0.65,0,0.977C31.662-24.987,31.663-24.661,31.663-24.338L31.663-24.338z"/>
	</g>
</g>
<g id="Group_212" transform="translate(74.411 96.241)">
	<g id="Group_210" transform="translate(1.509 1.51)">
		<path id="Path_542" fill="#FFFFFF" d="M-18.634-25.584c0.013-0.021,0.022-0.043,0.027-0.066c0.001-0.779,0.023-1.561-0.005-2.339
			c0.009-0.488-0.313-0.922-0.783-1.054c-0.829-0.181-1.268,0.52-1.287,1.08c-0.024,0.756-0.005,1.514-0.005,2.271
			c0.003,0.035,0.012,0.072,0.021,0.107H-18.634z"/>
	</g>
	<g id="Group_211" transform="translate(0 0)">
		<path id="Path_543" fill="#004686" d="M-16.935-23.777l-0.19-0.004h-2.271l-0.049-0.236c-0.001-0.007-0.003-0.014-0.004-0.021
			c-0.014-0.046-0.02-0.094-0.021-0.143c0-0.216-0.001-0.431-0.003-0.646c-0.005-0.535-0.01-1.088,0.008-1.635
			c0.024-0.685,0.525-1.393,1.322-1.393c0.107,0,0.215,0.013,0.32,0.035c0.601,0.161,1.017,0.708,1.014,1.33
			c0.021,0.563,0.014,1.134,0.009,1.686c-0.001,0.222-0.005,0.443-0.005,0.665c-0.001,0.063-0.018,0.126-0.049,0.18l-0.004,0.007
			L-16.935-23.777z M-18.885-24.368h1.495c0-0.146,0.002-0.295,0.003-0.442c0.005-0.545,0.012-1.108-0.009-1.658
			c0.013-0.354-0.215-0.673-0.553-0.778c-0.063-0.015-0.13-0.022-0.197-0.022c-0.486,0-0.723,0.483-0.734,0.825
			c-0.018,0.534-0.013,1.082-0.008,1.61C-18.886-24.678-18.886-24.523-18.885-24.368L-18.885-24.368z"/>
	</g>
</g>
<g id="Group_213" transform="translate(45.617 17.029)">
	<path id="Path_544" fill="#004686" d="M5.405,38.466H3.723V37.3c0-0.044,0-0.088,0-0.132c0-0.101-0.002-0.205,0.002-0.311
		c-0.006-0.463,0.348-0.851,0.809-0.889c0.457-0.019,0.843,0.334,0.861,0.792c0.002,0.009,0.002,0.018,0.002,0.027
		c0.018,0.325,0.015,0.653,0.009,0.971c-0.001,0.138-0.002,0.275-0.002,0.414V38.466z M4.31,37.879h0.509
		c0-0.042,0.002-0.085,0.002-0.128c0.004-0.322,0.008-0.626-0.008-0.931c0.008-0.137-0.096-0.256-0.232-0.265
		c-0.004-0.001-0.008-0.001-0.012-0.001H4.557c-0.151,0.031-0.257,0.169-0.246,0.324c-0.004,0.093-0.003,0.187-0.002,0.285
		c0,0.045,0,0.091,0,0.136L4.31,37.879z"/>
</g>
<g id="Group_217" transform="translate(45.631 57.133)">
	<g id="Group_214" transform="translate(0.458 44.506)">
		<path id="Path_545" fill="#004686" d="M4.841-29.863h-1.5v-2.343h1.5V-29.863z M3.927-30.45h0.328v-1.169H3.927V-30.45z"/>
	</g>
	<g id="Group_215" transform="translate(0 0)">
		<path id="Path_546" fill="#004686" d="M5.217,5.996H3.71V3.655h1.507V5.996z M4.297,5.41h0.335V4.241H4.297V5.41z"/>
	</g>
	<g id="Group_216" transform="translate(0.03 22.281)">
		<path id="Path_547" fill="#004686" d="M5.186-11.955h-1.5v-2.342h1.5V-11.955z M4.274-12.542H4.6v-1.17H4.274V-12.542z"/>
	</g>
</g>
<g id="Group_218" transform="translate(34.906 42.113)">
	<rect id="Rectangle_123" x="12.352" y="15.756" fill="#004686" width="5.764" height="0.652"/>
</g>
</svg>
