<?xml version="1.0" encoding="utf-8"?>
<!-- Generator: Adobe Illustrator 25.3.1, SVG Export Plug-In . SVG Version: 6.00 Build 0)  -->
<svg version="1.1" id="Layer_1" xmlns="http://www.w3.org/2000/svg" xmlns:xlink="http://www.w3.org/1999/xlink" x="0px" y="0px"
	 viewBox="0 0 24 24" style="enable-background:new 0 0 24 24;" xml:space="preserve">
<style type="text/css">
	.st0{fill-rule:evenodd;clip-rule:evenodd;fill:#005897;}
	.st1{fill-rule:evenodd;clip-rule:evenodd;fill:#5D5E5E;}
	.st2{fill-rule:evenodd;clip-rule:evenodd;fill:#005897;stroke:#005897;stroke-width:0.25;stroke-miterlimit:10;}
	.st3{fill:#005897;}
	.st4{fill:#005897;stroke:#005897;stroke-width:0.25;stroke-miterlimit:10;}
	.st5{fill:#FBFBFB;}
	.st6{fill:#F6FAFD;}
	.st7{fill:#010201;}
	.st8{fill:#38ADE1;}
	.st9{fill:#005897;stroke:#FFFFFF;stroke-width:0.1;stroke-miterlimit:10;}
	.st10{fill:#005897;stroke:#005897;stroke-width:0.1;stroke-miterlimit:10;}
	.st11{fill:#005897;stroke:#005897;stroke-width:0.12;stroke-miterlimit:10;}
	.st12{fill:#174884;}
	.st13{fill:#9CBDD4;}
	.st14{fill:#FFFFFF;}
</style>
<g>
	<g id="Group_206_1_" transform="translate(0 0)">
		<path id="Path_539_1_" class="st12" d="M21.31,23.49H2.87v-6.18h5.41V8.43h0.74V5.71h0.82v-2.7h0.44
			c0.11-0.74,0.65-1.34,1.37-1.54V0.51h0.89v0.97c0.72,0.2,1.25,0.8,1.36,1.54l0.42,0.02V5.7h0.78v2.72h0.69v8.88h5.51V23.49z
			 M3.49,22.86h17.2v-4.94h-5.51V9.04h-0.69V6.33H13.7v-2.7l-0.35-0.02l-0.03-0.26c-0.09-0.77-0.45-1.18-1.15-1.32L12.1,2.02
			l-0.07,0.01c-0.72,0.14-1.08,0.55-1.16,1.33l-0.03,0.28h-0.37v2.7H9.64v2.72H8.91v8.88H3.49L3.49,22.86z"/>
	</g>
	<g id="Group_209_1_" transform="translate(11.668 96.207)">
		<g id="Group_208_1_" transform="translate(0 0)">
			<path id="Path_541_1_" class="st12" d="M-4.05-73.85H-6.6l-0.01-0.27c0-0.02,0-0.04,0-0.06c0-0.05-0.01-0.1-0.01-0.16
				c0-0.34,0-0.67,0-1.01c0-0.31,0-0.62,0-0.94c0-0.36,0.12-0.71,0.34-1c0.23-0.3,0.58-0.48,0.96-0.48c0.42,0,0.81,0.22,1.02,0.58
				c0.14,0.23,0.23,0.49,0.25,0.76c0.02,0.55,0.02,1.08,0.01,1.65c0,0.21,0,0.42,0,0.64L-4.05-73.85z M-6.06-74.41h1.45
				c0-0.12,0-0.24,0-0.36c0-0.56,0.01-1.09-0.01-1.62c-0.02-0.18-0.07-0.35-0.17-0.5C-4.9-77.08-5.1-77.2-5.32-77.2
				c-0.2,0-0.39,0.1-0.51,0.26c-0.15,0.19-0.23,0.42-0.23,0.66c0,0.31,0,0.62,0,0.94C-6.06-75.04-6.06-74.72-6.06-74.41L-6.06-74.41
				z"/>
		</g>
	</g>
	<g id="Group_212_1_" transform="translate(74.411 96.241)">
		<g id="Group_211_1_" transform="translate(0 0)">
			<path id="Path_543_1_" class="st12" d="M-55.23-73.88l-0.18,0h-2.18l-0.05-0.23c0-0.01,0-0.01-0.01-0.02
				c-0.01-0.04-0.02-0.09-0.02-0.14c0-0.21,0-0.41,0-0.62c0-0.51-0.01-1.04,0.01-1.57c0.02-0.66,0.5-1.34,1.27-1.34
				c0.1,0,0.21,0.01,0.31,0.03c0.58,0.15,0.98,0.68,0.97,1.28c0.02,0.54,0.01,1.09,0.01,1.62c0,0.21,0,0.43,0,0.64
				c0,0.06-0.02,0.12-0.05,0.17l0,0.01L-55.23-73.88z M-57.1-74.44h1.43c0-0.14,0-0.28,0-0.43c0-0.52,0.01-1.06-0.01-1.59
				c0.01-0.34-0.2-0.65-0.53-0.75c-0.06-0.01-0.12-0.02-0.19-0.02c-0.47,0-0.69,0.46-0.71,0.79c-0.02,0.51-0.01,1.04-0.01,1.55
				C-57.1-74.74-57.1-74.59-57.1-74.44L-57.1-74.44z"/>
		</g>
	</g>
	<g id="Group_213_1_" transform="translate(45.617 17.029)">
		<path id="Path_544_1_" class="st12" d="M-32.63-10.95h-1.61v-1.12c0-0.04,0-0.08,0-0.13c0-0.1,0-0.2,0-0.3
			c-0.01-0.44,0.33-0.82,0.78-0.85c0.44-0.02,0.81,0.32,0.83,0.76c0,0.01,0,0.02,0,0.03c0.02,0.31,0.01,0.63,0.01,0.93
			c0,0.13,0,0.26,0,0.4L-32.63-10.95z M-33.68-11.51h0.49c0-0.04,0-0.08,0-0.12c0-0.31,0.01-0.6-0.01-0.89
			c0.01-0.13-0.09-0.25-0.22-0.25c0,0-0.01,0-0.01,0h-0.01c-0.15,0.03-0.25,0.16-0.24,0.31c0,0.09,0,0.18,0,0.27
			c0,0.04,0,0.09,0,0.13L-33.68-11.51z"/>
	</g>
	<g id="Group_217_1_" transform="translate(45.631 57.133)">
		<g id="Group_214_1_" transform="translate(0.458 44.506)">
			<path id="Path_545_1_" class="st12" d="M-33.19-79.93h-1.44v-2.25h1.44V-79.93z M-34.07-80.5h0.31v-1.12h-0.31V-80.5z"/>
		</g>
		<g id="Group_215_1_" transform="translate(0 0)">
			<path id="Path_546_1_" class="st12" d="M-32.81-43.73h-1.45v-2.25h1.45V-43.73z M-33.69-44.29h0.32v-1.12h-0.32V-44.29z"/>
		</g>
		<g id="Group_216_1_" transform="translate(0.03 22.281)">
			<path id="Path_547_1_" class="st12" d="M-32.84-61.85h-1.44v-2.25h1.44L-32.84-61.85z M-33.72-62.42h0.31v-1.12h-0.31V-62.42z"/>
		</g>
	</g>
	<g id="Group_218_1_" transform="translate(34.906 42.113)">
		<rect id="Rectangle_123_1_" x="-25.53" y="-33.75" class="st12" width="5.53" height="0.63"/>
	</g>
</g>
</svg>
