<?xml version="1.0" encoding="utf-8"?>
<!-- Generator: Adobe Illustrator 16.0.0, SVG Export Plug-In . SVG Version: 6.00 Build 0)  -->
<!DOCTYPE svg PUBLIC "-//W3C//DTD SVG 1.1//EN" "http://www.w3.org/Graphics/SVG/1.1/DTD/svg11.dtd">
<svg version="1.1" id="Group_200" xmlns="http://www.w3.org/2000/svg" xmlns:xlink="http://www.w3.org/1999/xlink" x="0px" y="0px"
	 width="24px" height="24px" viewBox="26.076 55.17 24 24" enable-background="new 26.076 55.17 24 24" xml:space="preserve">
<g>
	<path id="Path_455" fill="#004686" d="M31.916,71.98c-0.154,0-0.285,0.007-0.415,0c-0.206,0.003-0.376-0.159-0.381-0.365
		c0-0.005,0-0.01,0-0.015c-0.007-0.541-0.007-1.083,0-1.624c-0.008-0.207,0.153-0.381,0.36-0.389c0.013-0.001,0.025-0.001,0.039,0
		c0.123-0.006,0.246-0.001,0.383-0.001v-2.399c-0.141,0-0.272,0.006-0.402-0.001c-0.206,0.004-0.375-0.16-0.379-0.365
		c0-0.005,0-0.011,0-0.016c-0.007-0.541-0.007-1.082,0-1.624c-0.007-0.207,0.154-0.38,0.361-0.388c0.013,0,0.025,0,0.038,0.001
		c0.123-0.005,0.247-0.001,0.383-0.001v-0.801c-0.134,0-0.256,0.004-0.379-0.001c-0.215,0.009-0.396-0.157-0.405-0.372
		c0-0.012,0-0.024,0-0.037c-0.001-0.212,0.169-0.384,0.381-0.385c0.007,0,0.014,0,0.021,0c0.383-0.006,0.766-0.009,1.148,0.001
		c0.148,0.015,0.29-0.06,0.362-0.19c1.346-1.97,2.698-3.936,4.056-5.898c0.128-0.149,0.27-0.287,0.422-0.411
		c0-0.295-0.002-0.669,0-1.043c0.002-0.279,0.149-0.445,0.39-0.449c0.251-0.004,0.403,0.165,0.405,0.459
		c0.002,0.366,0,0.732,0,1.035c0.154,0.126,0.299,0.265,0.433,0.414c1.478,1.959,2.95,3.921,4.417,5.888
		c0.081,0.136,0.232,0.212,0.39,0.197c0.24-0.016,0.48-0.008,0.724-0.003c0.22-0.016,0.411,0.148,0.427,0.368
		c0.016,0.219-0.147,0.411-0.368,0.427c-0.021,0.002-0.042,0.002-0.063,0c-0.115,0.003-0.229,0-0.355,0v0.801
		c0.104,0,0.208-0.001,0.313,0c0.333,0.003,0.472,0.137,0.474,0.465c0.003,0.482,0.003,0.965,0,1.447
		c-0.001,0.346-0.135,0.479-0.483,0.482c-0.092,0-0.183,0-0.295,0v2.398c0.121,0,0.252-0.005,0.381,0.002
		c0.208-0.011,0.385,0.148,0.396,0.356c0,0.012,0,0.022,0,0.035c0.007,0.531,0.007,1.064,0,1.597
		c0.013,0.21-0.147,0.392-0.357,0.404c-0.018,0.002-0.035,0.002-0.053,0c-0.116,0.005-0.232,0-0.387,0v0.296
		c0,2.114,0,4.227,0,6.341c0,0.436-0.114,0.554-0.538,0.554c-3.637,0-7.273,0-10.909,0c-0.416,0-0.534-0.118-0.534-0.531
		c0-2.114,0-4.229,0-6.341L31.916,71.98z M43.09,72H32.734v6.362H43.09V72z M42.28,63.182c-0.086-0.119-0.146-0.205-0.21-0.29
		c-1.278-1.704-2.555-3.406-3.833-5.109c-0.204-0.272-0.454-0.268-0.647,0.014c-1.182,1.72-2.365,3.44-3.546,5.16
		c-0.045,0.066-0.085,0.134-0.143,0.225H42.28z M43.092,67.205H32.733v2.368h0.781c0-0.144-0.002-0.275,0-0.406
		c0.011-0.661,0.556-1.188,1.217-1.177c0.645,0.012,1.165,0.532,1.176,1.177c0.002,0.138,0,0.274,0,0.405h0.798
		c0-0.384-0.026-0.763,0.221-1.083c0.22-0.311,0.576-0.497,0.956-0.502c0.294-0.009,0.581,0.094,0.803,0.286
		c0.409,0.339,0.45,0.806,0.413,1.299h0.715c0.105-0.375,0.151-0.744,0.309-1.056c0.188-0.338,0.548-0.541,0.933-0.527
		c0.303-0.016,0.599,0.087,0.827,0.285c0.409,0.34,0.448,0.807,0.414,1.298h0.795V67.205z M43.89,65.61H31.929v0.765H43.89V65.61z
		 M31.926,71.167H43.88v-0.771H31.926V71.167z M35.921,64.774h0.777c0.013-0.266,0.025-0.512,0.036-0.762h-0.849
		C35.898,64.274,35.908,64.52,35.921,64.774z M39.932,64.009h-0.854c0.015,0.268,0.028,0.521,0.041,0.766h0.773
		C39.906,64.51,39.919,64.263,39.932,64.009L39.932,64.009z M32.733,64.005v0.769h0.769l0.038-0.769H32.733z M42.314,64.778h0.77
		v-0.771h-0.812C42.287,64.267,42.3,64.513,42.314,64.778L42.314,64.778z M34.317,64.78h0.788c-0.002-0.265,0.086-0.553-0.19-0.708
		c-0.131-0.06-0.281-0.059-0.412,0.002C34.228,64.232,34.322,64.519,34.317,64.78L34.317,64.78z M37.514,64.78h0.787
		c0-0.265,0.086-0.551-0.188-0.708c-0.131-0.06-0.282-0.06-0.412,0C37.424,64.23,37.517,64.517,37.514,64.78L37.514,64.78z
		 M41.498,64.784c-0.003-0.276,0.083-0.565-0.197-0.717c-0.133-0.057-0.283-0.052-0.412,0.013c-0.268,0.163-0.18,0.444-0.175,0.705
		H41.498z M35.109,69.578c-0.007-0.285,0.084-0.586-0.225-0.73c-0.127-0.048-0.27-0.038-0.39,0.026
		c-0.262,0.168-0.18,0.445-0.169,0.704H35.109z M38.302,69.574c-0.001-0.266,0.086-0.553-0.189-0.709
		c-0.131-0.06-0.282-0.06-0.412,0.002c-0.276,0.157-0.183,0.443-0.187,0.707H38.302z M41.498,69.574
		c-0.004-0.271,0.091-0.565-0.207-0.719c-0.134-0.054-0.283-0.045-0.41,0.022c-0.261,0.169-0.17,0.446-0.167,0.696H41.498z"/>
	<path id="Path_456" fill="#9BBDD4" d="M43.09,72v6.362H32.734V72H43.09z M34.713,76.775c0.266,0,0.532,0.006,0.798-0.002
		c0.207,0.012,0.384-0.147,0.395-0.356c0-0.011,0-0.022,0-0.035c0.008-0.307,0.015-0.615-0.002-0.922
		c-0.066-0.659-0.654-1.14-1.313-1.072c-0.577,0.057-1.03,0.52-1.075,1.099c-0.011,0.291-0.007,0.583-0.001,0.874
		c-0.018,0.211,0.139,0.397,0.351,0.415c0.024,0.003,0.049,0.003,0.073,0C34.197,76.78,34.454,76.775,34.713,76.775L34.713,76.775z
		 M37.909,76.775c0.258,0,0.517,0.005,0.774,0c0.212,0.019,0.399-0.136,0.42-0.347c0.002-0.025,0.002-0.05,0-0.073
		c0.005-0.273,0.005-0.549,0-0.822c-0.025-0.662-0.58-1.178-1.24-1.153c-0.629,0.023-1.132,0.529-1.153,1.157
		c-0.004,0.268-0.004,0.533,0,0.799c0.004,0.296,0.148,0.437,0.451,0.439C37.41,76.778,37.66,76.775,37.909,76.775L37.909,76.775z
		 M41.094,76.775c0.258,0,0.516,0.003,0.773,0c0.215,0.025,0.407-0.129,0.433-0.342c0.003-0.03,0.003-0.061,0-0.09
		c0.004-0.267,0.004-0.532,0-0.798c-0.021-0.662-0.573-1.181-1.233-1.162c-0.636,0.02-1.145,0.532-1.161,1.168
		c-0.003,0.25-0.001,0.5,0,0.749c0.004,0.343,0.14,0.475,0.49,0.476C40.628,76.776,40.86,76.775,41.094,76.775L41.094,76.775z
		 M34.71,72.784c-0.22,0-0.397,0.178-0.396,0.399c0,0.219,0.179,0.397,0.399,0.396c0.22,0,0.397-0.18,0.396-0.399
		c0-0.001,0-0.005,0-0.006c0-0.215-0.173-0.39-0.388-0.39C34.717,72.784,34.714,72.784,34.71,72.784L34.71,72.784z M37.51,73.163
		c-0.011,0.219,0.159,0.405,0.378,0.416c0.219,0.01,0.406-0.159,0.417-0.378c0.01-0.22-0.158-0.406-0.378-0.417
		c-0.002,0-0.004,0-0.007,0c-0.216-0.01-0.4,0.157-0.41,0.374C37.51,73.159,37.51,73.161,37.51,73.163L37.51,73.163z M41.106,72.784
		c-0.22-0.003-0.399,0.173-0.402,0.393c-0.002,0.22,0.174,0.401,0.394,0.402c0.221,0.004,0.4-0.173,0.402-0.393
		c0.001-0.003,0.001-0.005,0-0.007c0.004-0.216-0.168-0.393-0.382-0.396C41.113,72.784,41.109,72.784,41.106,72.784L41.106,72.784z"
		/>
	<path id="Path_457" fill="#9BBDD4" d="M42.28,63.183h-8.379c0.057-0.09,0.098-0.159,0.143-0.225c1.182-1.72,2.364-3.44,3.546-5.16
		c0.194-0.281,0.444-0.286,0.648-0.014c1.277,1.703,2.555,3.406,3.832,5.109C42.134,62.979,42.194,63.064,42.28,63.183z
		 M37.906,61.596c0.25,0,0.5,0.002,0.75,0c0.215,0.032,0.416-0.118,0.447-0.334c0.005-0.035,0.005-0.072,0-0.106
		c0.005-0.258,0.004-0.517,0-0.774c-0.011-0.661-0.556-1.188-1.217-1.176c-0.645,0.011-1.165,0.531-1.176,1.176
		c-0.002,0.266-0.004,0.532,0,0.798c-0.018,0.211,0.138,0.398,0.35,0.417c0.024,0.001,0.049,0.001,0.073-0.001
		C37.391,61.6,37.649,61.596,37.906,61.596L37.906,61.596z"/>
	<path id="Path_462" fill="#FFFFFF" d="M39.932,64.009c-0.014,0.254-0.026,0.5-0.04,0.766h-0.773
		c-0.013-0.247-0.026-0.499-0.041-0.766H39.932z"/>
	<path id="Path_465" fill="#FFFFFF" d="M37.513,64.78c0.003-0.263-0.089-0.55,0.187-0.707c0.13-0.061,0.281-0.061,0.412,0
		c0.273,0.157,0.188,0.442,0.188,0.707L37.513,64.78z"/>
	<path id="Path_466" fill="#FFFFFF" d="M41.498,64.784h-0.786c-0.003-0.26-0.092-0.542,0.177-0.705
		c0.128-0.064,0.278-0.069,0.41-0.012C41.58,64.219,41.495,64.508,41.498,64.784z"/>
	<path id="Path_469" fill="#FFFFFF" d="M41.497,69.576h-0.785c-0.001-0.25-0.094-0.528,0.168-0.696
		c0.127-0.068,0.276-0.076,0.41-0.023C41.587,69.009,41.493,69.305,41.497,69.576z"/>
	<path id="Path_470" fill="#004686" d="M34.713,76.775c-0.258,0-0.516,0.005-0.774,0c-0.211,0.022-0.4-0.132-0.422-0.342
		c-0.002-0.024-0.003-0.05-0.001-0.073c-0.005-0.291-0.009-0.583,0.001-0.875c0.051-0.659,0.628-1.152,1.288-1.102
		c0.579,0.045,1.042,0.498,1.1,1.076c0.017,0.305,0.01,0.615,0.002,0.922c0.009,0.207-0.152,0.382-0.36,0.392
		c-0.012,0-0.023,0-0.035,0C35.245,76.781,34.978,76.775,34.713,76.775z M35.109,75.968c-0.008-0.285,0.083-0.586-0.226-0.73
		c-0.128-0.048-0.27-0.038-0.39,0.027c-0.262,0.169-0.18,0.447-0.168,0.703H35.109z"/>
	<path id="Path_471" fill="#004686" d="M37.909,76.775c-0.25,0-0.5,0.003-0.749,0c-0.302-0.003-0.446-0.142-0.451-0.438
		c-0.003-0.266-0.004-0.533,0-0.799c0.021-0.662,0.574-1.181,1.235-1.158c0.629,0.021,1.135,0.523,1.158,1.152
		c0.005,0.274,0.005,0.549,0,0.823c0.02,0.212-0.136,0.399-0.348,0.419c-0.024,0.003-0.049,0.003-0.073,0
		C38.426,76.78,38.167,76.775,37.909,76.775z M38.301,75.965c-0.002-0.266,0.086-0.553-0.189-0.708
		c-0.13-0.061-0.281-0.06-0.411,0.001c-0.276,0.158-0.183,0.444-0.187,0.707H38.301z"/>
	<path id="Path_472" fill="#004686" d="M41.094,76.775c-0.233,0-0.466,0.001-0.699,0c-0.351-0.002-0.486-0.134-0.489-0.476
		c-0.001-0.25-0.003-0.5,0-0.748c0.017-0.662,0.565-1.185,1.227-1.169c0.635,0.016,1.147,0.526,1.167,1.161
		c0.004,0.268,0.004,0.533,0,0.799c0.024,0.215-0.129,0.407-0.343,0.433c-0.03,0.003-0.06,0.003-0.089,0
		C41.609,76.78,41.351,76.775,41.094,76.775z M40.709,75.966h0.788c-0.005-0.263,0.089-0.549-0.187-0.706
		c-0.13-0.063-0.28-0.063-0.411-0.005C40.621,75.412,40.712,75.7,40.709,75.966z"/>
	<path id="Path_473" fill="#004686" d="M34.71,72.784c0.22-0.002,0.399,0.177,0.399,0.396c0.001,0.22-0.176,0.399-0.396,0.399
		c-0.219,0.002-0.398-0.177-0.399-0.396c0-0.002,0-0.005,0-0.007c-0.001-0.216,0.172-0.392,0.388-0.393
		C34.704,72.784,34.707,72.784,34.71,72.784z"/>
	<path id="Path_474" fill="#004686" d="M37.509,73.163c0.011-0.22,0.198-0.391,0.417-0.379c0.22,0.011,0.389,0.198,0.378,0.418
		s-0.198,0.389-0.418,0.377c-0.002,0-0.003,0-0.005,0c-0.215-0.01-0.382-0.192-0.373-0.407
		C37.509,73.168,37.509,73.166,37.509,73.163z"/>
	<path id="Path_475" fill="#004686" d="M41.106,72.784c0.221,0.001,0.397,0.183,0.395,0.402c-0.002,0.22-0.183,0.396-0.402,0.395
		c-0.22-0.003-0.396-0.183-0.394-0.402c0-0.004,0-0.005,0-0.008c0.002-0.215,0.178-0.389,0.394-0.387
		C41.1,72.784,41.104,72.784,41.106,72.784z"/>
	<path id="Path_476" fill="#004686" d="M37.906,61.596c-0.258,0-0.516,0.004-0.774-0.001c-0.211,0.021-0.399-0.133-0.421-0.343
		c-0.002-0.025-0.003-0.049-0.001-0.073c-0.005-0.266-0.003-0.533,0-0.798c0.012-0.661,0.557-1.188,1.218-1.176
		c0.645,0.011,1.165,0.531,1.176,1.176c0.003,0.258,0.004,0.516,0,0.773c0.028,0.217-0.124,0.415-0.341,0.442
		c-0.035,0.005-0.072,0.004-0.107-0.001C38.406,61.6,38.156,61.596,37.906,61.596z M38.305,60.789
		c-0.009-0.285,0.083-0.589-0.228-0.729c-0.135-0.047-0.285-0.031-0.408,0.042c-0.24,0.169-0.161,0.438-0.148,0.687L38.305,60.789z"
		/>
</g>
</svg>
