<?xml version="1.0" encoding="utf-8"?>
<!-- Generator: Adobe Illustrator 16.0.0, SVG Export Plug-In . SVG Version: 6.00 Build 0)  -->
<!DOCTYPE svg PUBLIC "-//W3C//DTD SVG 1.1//EN" "http://www.w3.org/Graphics/SVG/1.1/DTD/svg11.dtd">
<svg version="1.1" id="Layer_1" xmlns="http://www.w3.org/2000/svg" xmlns:xlink="http://www.w3.org/1999/xlink" x="0px" y="0px"
	 width="24px" height="24px" viewBox="0 0 24 24" enable-background="new 0 0 24 24" xml:space="preserve">
<g>
	<path fill-rule="evenodd" clip-rule="evenodd" fill="#FFFFFF" d="M10.733,1c0.511,0,1.022,0,1.534,0
		c0.282,0.038,0.567,0.07,0.848,0.121c4.581,0.823,7.725,3.385,9.257,7.8c0.345,0.992,0.426,2.076,0.628,3.118
		c0,0.409,0,0.817,0,1.227c-0.039,0.268-0.07,0.535-0.118,0.8c-0.84,4.731-3.506,7.911-8.088,9.41
		c-0.844,0.277-1.752,0.355-2.63,0.524c-0.477,0-0.954,0-1.432,0c-0.283-0.04-0.567-0.069-0.848-0.12
		c-4.693-0.845-7.851-3.495-9.358-8.034C0.252,15.019,0.171,14.128,0,13.266c0-0.578,0-1.159,0-1.737
		c0.03-0.096,0.076-0.188,0.086-0.286C0.599,6.605,3.771,2.8,8.253,1.501C9.06,1.267,9.905,1.163,10.733,1z M6.225,14.302
		c0.453,1.228,1.361,1.811,2.598,2.057c-1.228,0.948-2.592,1.217-4.037,1.249c2.484,1.446,5.083,1.688,7.675,0.516
		c3.19-1.44,4.682-4.091,4.891-7.53c0.013-0.218,0.155-0.458,0.301-0.635c0.337-0.408,0.713-0.783,1.073-1.173
		c-0.025-0.024-0.05-0.051-0.076-0.074c-0.451,0.122-0.901,0.244-1.323,0.359c0.343-0.471,0.686-0.94,1.029-1.411
		c-0.431,0.055-0.745,0.184-1.055,0.321c-0.461,0.205-0.834,0.205-1.294-0.143c-0.932-0.709-2.003-0.739-3.026-0.188
		c-1.021,0.548-1.557,1.438-1.535,2.625c0.003,0.178,0,0.354,0,0.563c-2.414-0.132-4.321-1.181-5.904-3.012
		c-0.666,1.501-0.411,2.756,0.82,3.911c-0.458-0.126-0.792-0.217-1.175-0.322C5.231,12.866,6,13.729,7.225,14.302
		C6.908,14.302,6.592,14.302,6.225,14.302z"/>
	<path fill-rule="evenodd" clip-rule="evenodd" fill="#005797" d="M6.225,14.302c0.367,0,0.683,0,1,0
		C6,13.729,5.231,12.866,5.188,11.414c0.383,0.105,0.717,0.196,1.175,0.322c-1.231-1.155-1.486-2.41-0.82-3.911
		c1.583,1.831,3.49,2.88,5.904,3.012c0-0.208,0.002-0.385,0-0.563c-0.021-1.188,0.514-2.077,1.535-2.625
		c1.023-0.551,2.094-0.521,3.026,0.188c0.459,0.348,0.833,0.348,1.294,0.143c0.31-0.138,0.624-0.267,1.055-0.321
		C18.013,8.13,17.67,8.6,17.327,9.07c0.421-0.115,0.872-0.237,1.323-0.359c0.025,0.023,0.051,0.05,0.076,0.074
		c-0.36,0.39-0.736,0.765-1.073,1.173c-0.146,0.177-0.288,0.417-0.301,0.635c-0.209,3.439-1.701,6.09-4.891,7.53
		c-2.592,1.173-5.191,0.931-7.675-0.516c1.445-0.032,2.81-0.301,4.037-1.249C7.586,16.112,6.678,15.529,6.225,14.302z"/>
</g>
</svg>
