<?xml version="1.0" encoding="utf-8"?>
<!-- Generator: Adobe Illustrator 16.0.0, SVG Export Plug-In . SVG Version: 6.00 Build 0)  -->
<!DOCTYPE svg PUBLIC "-//W3C//DTD SVG 1.1//EN" "http://www.w3.org/Graphics/SVG/1.1/DTD/svg11.dtd">
<svg version="1.1" id="Group_201" xmlns="http://www.w3.org/2000/svg" xmlns:xlink="http://www.w3.org/1999/xlink" x="0px" y="0px"
	 width="24px" height="24px" viewBox="56.951 57.989 24 24" enable-background="new 56.951 57.989 24 24" xml:space="preserve">
<path id="Path_481" fill="#004686" d="M64.229,67.381c-0.326,0-0.635,0.004-0.943-0.001c-0.314-0.005-0.437-0.131-0.439-0.447
	c-0.003-0.403-0.003-0.807,0-1.208c0.004-0.303,0.126-0.429,0.427-0.434c0.316-0.006,0.633-0.001,0.974-0.001
	c0-0.447-0.001-0.864,0-1.281c0.001-0.333,0.12-0.457,0.451-0.46c0.301-0.003,0.603,0,0.941,0v-5.56h0.709v0.279
	c0,1.024-0.001,2.047-0.001,3.069c0,0.13,0.003,0.225,0.161,0.289c3.051,1.254,5.254,3.412,6.681,6.368
	c0.81,1.733,1.294,3.601,1.425,5.509c0.217,2.563-0.059,5.085-0.58,7.589c-0.013,0.063-0.019,0.127-0.033,0.214h6.596v0.683H56.951
	v-0.672h7.278V67.381z M66.355,81.283c0.026,0.01,0.054,0.017,0.082,0.021c2.221,0.002,4.443,0.003,6.665,0.007
	c0.145,0,0.18-0.066,0.205-0.188c0.403-1.816,0.625-3.666,0.667-5.524c0.026-1.939-0.17-3.847-0.771-5.697
	c-1.111-3.406-3.232-5.935-6.513-7.445c-0.103-0.047-0.208-0.088-0.334-0.141c0,0.979-0.002,1.917,0.004,2.855
	c0.011,0.059,0.048,0.11,0.101,0.138c0.156,0.075,0.25,0.238,0.235,0.41c0,0.411,0.011,0.822-0.006,1.232
	c-0.005,0.121-0.062,0.308-0.146,0.343c-0.213,0.09-0.189,0.24-0.189,0.405c0.001,4.426,0.001,8.853,0,13.279L66.355,81.283z
	 M64.965,67.396v13.896h0.641V67.396H64.965z M65.968,66.015h-2.4v0.64h2.4V66.015z M65.605,65.273v-1.001h-0.646v1.001H65.605z"/>
<path id="Path_482" fill="#9BBDD4" d="M66.356,81.283v-0.307c0-4.426,0-8.853,0-13.279c0-0.165-0.025-0.314,0.188-0.403
	c0.084-0.037,0.141-0.224,0.146-0.345c0.017-0.41,0.007-0.821,0.007-1.232c0.015-0.172-0.079-0.335-0.235-0.41
	c-0.053-0.028-0.09-0.079-0.101-0.138c-0.006-0.938-0.005-1.875-0.005-2.855c0.127,0.053,0.232,0.094,0.334,0.141
	c3.281,1.51,5.402,4.039,6.513,7.445c0.603,1.85,0.797,3.757,0.771,5.697c-0.042,1.858-0.266,3.708-0.667,5.524
	c-0.024,0.122-0.06,0.188-0.205,0.188c-2.222-0.006-4.443-0.008-6.665-0.007C66.41,81.3,66.383,81.293,66.356,81.283z M67.372,72.26
	c0,2.506,0,5.013,0,7.52c0,0.351,0.11,0.482,0.428,0.483c1.425,0.003,2.85,0,4.275,0.002c0.211,0.022,0.397-0.128,0.42-0.339
	c0.002-0.01,0.002-0.021,0.002-0.03c0.066-0.447,0.145-0.892,0.209-1.339c0.331-2.105,0.327-4.251-0.013-6.355
	c-0.364-2.104-1.124-4.04-2.459-5.727c-0.627-0.799-1.367-1.503-2.198-2.089c-0.141-0.099-0.28-0.19-0.46-0.096
	c-0.158,0.091-0.239,0.272-0.205,0.45c0.002,0.058,0,0.118,0,0.176L67.372,72.26z"/>
<path id="Path_486" fill="#004686" d="M67.372,72.26v-7.344c0-0.058,0.002-0.118,0-0.176c-0.035-0.178,0.048-0.359,0.205-0.45
	c0.18-0.094,0.318-0.003,0.46,0.096c0.83,0.586,1.57,1.289,2.197,2.088c1.335,1.688,2.095,3.624,2.459,5.728
	c0.34,2.104,0.344,4.249,0.013,6.354c-0.064,0.447-0.143,0.892-0.209,1.339c-0.004,0.211-0.18,0.376-0.39,0.371
	c-0.01,0-0.021-0.001-0.032-0.002c-1.425-0.001-2.85,0.002-4.275-0.002c-0.318,0-0.428-0.133-0.428-0.483
	C67.372,77.272,67.371,74.765,67.372,72.26z M72.216,74.166h-4.117v2.309h4.117V74.166z M68.095,71.092v2.326h4.089
	c-0.147-0.797-0.288-1.563-0.427-2.326H68.095z M68.091,77.218v2.32h3.77c0.104-0.779,0.205-1.545,0.307-2.32H68.091z
	 M68.091,70.362h3.466c-0.288-0.641-0.569-1.234-0.82-1.842c-0.159-0.388-0.39-0.576-0.831-0.51
	c-0.283,0.023-0.569,0.026-0.854,0.007h-0.96L68.091,70.362z M69.972,67.296c-0.532-0.742-1.162-1.408-1.874-1.98v1.98"/>
</svg>
