<?xml version="1.0" encoding="utf-8"?>
<!-- Generator: Adobe Illustrator 16.0.0, SVG Export Plug-In . SVG Version: 6.00 Build 0)  -->
<!DOCTYPE svg PUBLIC "-//W3C//DTD SVG 1.1//EN" "http://www.w3.org/Graphics/SVG/1.1/DTD/svg11.dtd">
<svg version="1.1" id="Layer_1" xmlns="http://www.w3.org/2000/svg" xmlns:xlink="http://www.w3.org/1999/xlink" x="0px" y="0px"
	 width="24px" height="24px" viewBox="54.62 42.723 24 24" enable-background="new 54.62 42.723 24 24" xml:space="preserve">
<path id="Path_370" fill="#005897" d="M60.72,48.362c-0.938-0.378-2.071-0.862-3.227-1.286c-0.35-0.129-0.819-0.234-1.124-0.099
	c-0.294,0.129-0.616,0.586-0.607,0.889c0.008,0.226,0.531,0.634,0.812,0.622c2.174-0.092,3.944,1.699,3.693,3.819
	c-0.145,1.231-1.09,1.872-2.282,1.55c-1.583-0.428-2.728-2.046-2.654-3.707c0.015-0.329,0.028-0.738-0.143-0.979
	c-0.619-0.875-0.828-1.749-0.142-2.646c0.569-0.745,1.906-0.861,2.968-0.387c0.805,0.36,1.617,0.789,2.468,0.93
	c0.584,0.098,1.316-0.108,1.854-0.408c2.535-1.416,5.208-1.6,7.646-0.196c1.66,0.959,2.906,0.592,4.371-0.042
	c0.631-0.272,1.344-0.53,2.012-0.517c1.582,0.031,2.289,1.539,1.506,2.93c-0.24,0.438-0.371,0.931-0.377,1.431
	c0.004,1.595-1.139,3.181-2.68,3.593c-1.188,0.318-2.133-0.331-2.273-1.562c-0.246-2.119,1.52-3.9,3.703-3.802
	c0.271,0.013,0.791-0.342,0.793-0.53c0.002-0.333-0.229-0.841-0.5-0.96c-0.338-0.148-0.846-0.063-1.227,0.074
	c-1.156,0.417-2.289,0.905-3.523,1.405c0.041,1.571-1.107,2.714-2.092,3.907c-0.654,0.792-0.967,1.512-0.439,2.492
	c0.207,0.414,0.314,0.873,0.316,1.336c0.055,2.623-0.432,5.158-1.25,7.645c-0.367,1.115-1.227,0.951-2.081,0.992
	c-0.832,0.041-1.496-0.102-1.745-1.004c-0.877-3.182-1.963-6.344-0.718-9.694c0.111-0.299-0.007-0.779-0.187-1.071
	c-0.369-0.604-0.909-1.103-1.271-1.71C61.755,50.428,61.278,49.425,60.72,48.362z M64.103,57.261
	c0.377,1.82,0.783,3.758,1.179,5.699c0.125,0.604,0.42,0.879,1.093,0.887c0.714,0.006,1.042-0.273,1.175-0.93
	c0.07-0.344,0.225-0.674,0.287-1.02c0.467-2.535,1.246-5.045,0.156-7.64c-0.195-0.462,0.076-1.26,0.373-1.759
	c0.578-0.972,1.371-1.811,1.986-2.763c0.598-0.927,0.424-1.521-0.471-2.183c-1.646-1.218-5.209-1.238-6.902-0.04
	c-0.945,0.669-1.117,1.282-0.5,2.258c0.51,0.811,1.082,1.583,1.708,2.307c0.763,0.88,0.903,1.767,0.466,2.85
	C64.381,55.603,64.307,56.357,64.103,57.261L64.103,57.261z M76.44,50.461c0.002-0.777-0.436-1.108-1.168-0.889
	c-0.953,0.281-1.77,1.452-1.707,2.452c0.043,0.744,0.414,1.004,1.133,0.773C75.604,52.506,76.438,51.396,76.44,50.461L76.44,50.461z
	 M59.245,51.963c0.023-0.973-0.754-2.083-1.664-2.38c-0.777-0.252-1.241,0.11-1.207,0.938c0.038,0.917,0.823,1.964,1.694,2.259
	c0.768,0.261,1.158-0.01,1.177-0.818V51.963z"/>
</svg>
