<?xml version="1.0" encoding="utf-8"?>
<!-- Generator: Adobe Illustrator 25.3.1, SVG Export Plug-In . SVG Version: 6.00 Build 0)  -->
<svg version="1.1" id="Layer_1" xmlns="http://www.w3.org/2000/svg" xmlns:xlink="http://www.w3.org/1999/xlink" x="0px" y="0px"
	 viewBox="0 0 24 24" style="enable-background:new 0 0 24 24;" xml:space="preserve">
<style type="text/css">
	.st0{fill-rule:evenodd;clip-rule:evenodd;fill:#005897;}
	.st1{fill-rule:evenodd;clip-rule:evenodd;fill:#5D5E5E;}
	.st2{fill:#005897;}
</style>
<path class="st0" d="M15.88,15.94c-0.07,0.28-0.13,0.51-0.17,0.74c-0.01,0.05,0,0.12,0.03,0.15c0.53,0.59,0.53,1.21,0.15,1.82
	c0.13,0.3,0.25,0.57,0.39,0.87c0.38-0.11,0.8-0.23,1.23-0.35c0.78-0.22,1.35,0.21,1.35,1.02c0,0.16,0,0.33,0,0.49
	c0,0.53-0.24,0.86-0.76,1.02c-0.57,0.18-1.15,0.34-1.72,0.51c-0.06,0.02-0.11,0.04-0.16,0.05c-0.03,0.22-0.02,0.44-0.08,0.64
	c-0.12,0.43-0.45,0.69-0.88,0.69c-2.1,0.01-4.2,0.01-6.3,0c-0.53,0-0.93-0.44-0.95-0.96c0-0.11,0-0.22,0-0.35
	c-0.62-0.18-1.24-0.36-1.85-0.54c-0.65-0.19-0.88-0.49-0.88-1.17c0-0.15,0-0.29,0-0.44c0-0.74,0.59-1.18,1.31-0.98
	c0.46,0.13,0.92,0.26,1.33,0.38c0.15-0.32,0.3-0.62,0.47-0.97c-0.35-0.57-0.3-1.18,0.15-1.69c-0.06-0.29-0.1-0.54-0.17-0.78
	c-0.02-0.07-0.1-0.15-0.16-0.17c-0.51-0.16-1.02-0.31-1.52-0.45c-0.49-0.14-0.73-0.44-0.75-0.94c-0.01-0.21-0.01-0.43,0.01-0.64
	c0.05-0.57,0.58-0.95,1.14-0.8c0.42,0.11,0.84,0.24,1.25,0.36c0.08-0.21,0.15-0.41,0.23-0.63c-0.3-0.36-0.5-0.79-0.34-1.28
	c0.07-0.24,0.24-0.44,0.35-0.67c0.04-0.08,0.05-0.19,0.06-0.28c0-0.05-0.04-0.1-0.04-0.15c0.08-0.42-0.23-0.45-0.51-0.53
	C7.7,9.8,7.31,9.67,6.93,9.56C6.55,9.45,6.32,9.2,6.29,8.81C6.26,8.53,6.26,8.24,6.3,7.97c0.08-0.48,0.53-0.78,1.01-0.68
	c0.41,0.09,0.81,0.22,1.22,0.33C8.65,7.37,8.7,7.18,8.48,6.93C7.97,6.35,8.1,5.46,8.71,4.99C8.76,4.94,8.81,4.9,8.88,4.86
	C8.87,4.81,8.84,4.77,8.85,4.73C8.92,4.35,8.66,4.28,8.37,4.2C8.01,4.11,7.65,4,7.29,3.89C6.9,3.78,6.68,3.52,6.64,3.12
	c-0.02-0.21-0.02-0.43,0-0.64c0.06-0.58,0.55-0.92,1.12-0.77C8.11,1.8,8.45,1.91,8.79,2c0.24-0.7,0.44-0.83,1.18-0.83
	c1.47,0,2.95,0,4.42,0c0.75,0,0.93,0.12,1.19,0.82c0.32-0.09,0.63-0.18,0.95-0.27c0.64-0.17,1.13,0.2,1.15,0.86
	c0.03,0.86-0.03,1.19-1.04,1.43c-0.36,0.09-0.7,0.21-1.06,0.31c-0.02,0.15-0.06,0.3-0.06,0.45c0,0.07,0.04,0.16,0.09,0.21
	c0.71,0.65,0.73,1.52,0.02,2.17c-0.18,0.17,0.02,0.29-0.03,0.47c0.37-0.11,0.7-0.2,1.04-0.3c0.68-0.19,1.21,0.19,1.22,0.9
	c0,0.13,0,0.26,0,0.39c-0.01,0.54-0.24,0.84-0.76,0.99c-0.46,0.13-0.92,0.27-1.38,0.4c-0.03,0.01-0.06,0.02-0.09,0.03
	c-0.03,0.19-0.07,0.38-0.09,0.56c0,0.05,0.03,0.12,0.07,0.16c0.65,0.62,0.69,1.35,0.12,2.06c-0.03,0.04-0.06,0.12-0.05,0.17
	c0.04,0.15,0.1,0.29,0.15,0.45c0.38-0.11,0.75-0.22,1.13-0.32c0.66-0.18,1.2,0.2,1.22,0.88c0.02,0.83,0.11,1.31-1.12,1.6
	C16.67,15.68,16.26,15.83,15.88,15.94z M12.11,19.22c-1,0-2.01,0-3.01,0c-0.31,0-0.43,0.13-0.36,0.43c0.04,0.18,0.1,0.37,0.2,0.52
	c0.36,0.57,0.33,1.13,0,1.7c-0.08,0.14-0.15,0.29-0.19,0.45c-0.1,0.42,0.01,0.55,0.44,0.55c1.76,0,3.52,0,5.27,0
	c0.22,0,0.45,0,0.67,0c0.22,0,0.36-0.12,0.32-0.33c-0.04-0.23-0.1-0.47-0.21-0.67c-0.31-0.57-0.35-1.11,0-1.68
	c0.1-0.17,0.18-0.37,0.21-0.57c0.05-0.31-0.05-0.4-0.37-0.4C14.1,19.22,13.1,19.22,12.11,19.22z M12.12,13.23c-0.9,0-1.8,0-2.7,0
	c-0.24,0-0.35,0.1-0.3,0.32c0.04,0.18,0.1,0.36,0.19,0.52c0.2,0.35,0.3,0.72,0.16,1.11c-0.07,0.21-0.19,0.4-0.29,0.6
	c-0.21,0.45-0.08,0.66,0.4,0.66c1.01,0,2.02,0,3.03,0c0.72,0,1.44,0,2.16,0c0.26,0,0.35-0.1,0.3-0.35c-0.03-0.17-0.1-0.34-0.19-0.5
	c-0.3-0.52-0.32-1.03,0.01-1.55c0.08-0.12,0.13-0.26,0.16-0.4c0.08-0.31,0-0.41-0.33-0.41C13.87,13.23,12.99,13.23,12.12,13.23z
	 M12.09,10.44c0.84,0,1.68,0,2.52,0c0.23,0,0.32-0.09,0.27-0.31c-0.03-0.15-0.09-0.29-0.17-0.43c-0.29-0.5-0.32-1,0-1.5
	c0.06-0.09,0.1-0.2,0.13-0.3c0.09-0.34,0.03-0.41-0.32-0.41c-1.6,0-3.21,0-4.81,0c-0.43,0-0.52,0.14-0.35,0.55
	C9.4,8.08,9.43,8.14,9.46,8.19C9.8,8.69,9.77,9.2,9.47,9.71c-0.07,0.12-0.13,0.26-0.15,0.4c-0.05,0.25,0.03,0.33,0.28,0.33
	C10.43,10.44,11.26,10.44,12.09,10.44z M12.17,4.68c0.8,0,1.59-0.01,2.39,0c0.21,0,0.29-0.09,0.25-0.28
	c-0.04-0.15-0.1-0.31-0.17-0.45c-0.25-0.46-0.27-0.91,0.01-1.36c0.05-0.07,0.09-0.15,0.12-0.23c0.14-0.35,0.06-0.47-0.32-0.47
	c-1.5,0-3,0-4.5,0c-0.41,0-0.49,0.12-0.33,0.5c0.03,0.06,0.06,0.12,0.1,0.18C10.02,3.04,10,3.5,9.73,3.98
	C9.66,4.1,9.6,4.22,9.57,4.35C9.5,4.59,9.58,4.68,9.83,4.68C10.61,4.68,11.39,4.68,12.17,4.68z M12.17,17.17c-0.84,0-1.68,0-2.52,0
	c-0.45,0-0.73,0.24-0.75,0.63c-0.02,0.4,0.27,0.69,0.72,0.69c1.69,0.01,3.38,0.01,5.06,0c0.46,0,0.74-0.29,0.73-0.69
	c-0.01-0.39-0.3-0.63-0.75-0.63C13.84,17.16,13.01,17.17,12.17,17.17z M12.15,12.49C12.15,12.49,12.15,12.5,12.15,12.49
	c0.84,0,1.68,0,2.52,0c0.46,0,0.75-0.26,0.75-0.66c0-0.39-0.28-0.66-0.73-0.66c-1.69-0.01-3.37-0.01-5.06,0
	c-0.16,0-0.34,0.06-0.48,0.15c-0.22,0.14-0.3,0.45-0.22,0.71c0.08,0.26,0.32,0.45,0.62,0.45C10.42,12.5,11.28,12.49,12.15,12.49z
	 M12.12,6.74C12.12,6.74,12.12,6.74,12.12,6.74c0.85,0,1.7,0,2.54,0c0.46,0,0.75-0.26,0.75-0.66c0-0.39-0.28-0.65-0.73-0.65
	c-1.69,0-3.37,0-5.06,0c-0.11,0-0.22,0.02-0.32,0.06C9.01,5.6,8.86,5.89,8.92,6.21c0.05,0.31,0.3,0.52,0.64,0.52
	C10.41,6.74,11.27,6.74,12.12,6.74z M8.27,21.59c0.06-0.13,0.13-0.24,0.17-0.36c0.1-0.28-0.07-0.8-0.31-0.87
	c-0.59-0.18-1.18-0.35-1.77-0.51C6.14,19.79,6.01,19.9,6,20.13c-0.01,0.18,0,0.36,0,0.54c0,0.19,0.09,0.3,0.27,0.35
	C6.92,21.21,7.58,21.4,8.27,21.59z M18.14,20.44c0-0.05,0-0.1,0-0.15c0-0.43-0.1-0.51-0.51-0.39c-0.44,0.13-0.89,0.26-1.33,0.39
	c-0.49,0.14-0.7,0.62-0.49,1.08c0.07,0.16,0.15,0.21,0.33,0.16c0.5-0.16,1.02-0.3,1.52-0.45C18.14,20.94,18.14,20.94,18.14,20.44z
	 M8.8,14.88c0-0.29-0.16-0.59-0.34-0.64c-0.51-0.15-1.01-0.29-1.52-0.44c-0.19-0.06-0.27,0.03-0.28,0.22c0,0.16-0.02,0.33,0.01,0.49
	c0.02,0.09,0.1,0.22,0.19,0.25c0.54,0.18,1.09,0.33,1.64,0.48c0.06,0.02,0.17-0.03,0.2-0.08C8.75,15.06,8.78,14.94,8.8,14.88z
	 M15.57,15.27c0.45-0.13,0.88-0.25,1.31-0.38c0.7-0.21,0.59-0.04,0.6-0.83c0-0.24-0.08-0.31-0.32-0.24
	c-0.46,0.13-0.92,0.26-1.38,0.4c-0.09,0.03-0.18,0.11-0.24,0.19C15.34,14.69,15.36,14.97,15.57,15.27z M8.8,9.35
	c0.32-0.42,0.19-0.84-0.29-0.98C8.22,8.29,7.94,8.21,7.65,8.13c-0.67-0.2-0.69-0.18-0.63,0.52c0.01,0.08,0.1,0.21,0.17,0.23
	C7.72,9.05,8.26,9.2,8.8,9.35z M15.38,9.34c0.4-0.12,0.81-0.23,1.22-0.35c0.56-0.16,0.55-0.16,0.53-0.75
	c-0.01-0.22-0.1-0.27-0.29-0.21c-0.38,0.11-0.75,0.22-1.13,0.33C15.22,8.5,15.08,8.9,15.38,9.34z M7.37,2.81
	c0.03,0.13-0.09,0.33,0.16,0.4C8,3.34,8.47,3.48,8.94,3.61C8.99,3.63,9.06,3.62,9.1,3.59c0.2-0.19,0.09-0.7-0.18-0.78
	C8.48,2.67,8.03,2.55,7.59,2.42C7.45,2.37,7.37,2.43,7.37,2.58C7.37,2.64,7.37,2.71,7.37,2.81z M15.32,3.64
	c0.4-0.12,0.78-0.23,1.16-0.34c0.56-0.16,0.47-0.04,0.48-0.65c0-0.21-0.06-0.28-0.28-0.21c-0.35,0.11-0.7,0.21-1.05,0.31
	C15.18,2.87,15.05,3.22,15.32,3.64z"/>
</svg>
