<svg id="Layer_1" data-name="Layer 1" xmlns="http://www.w3.org/2000/svg" viewBox="0 0 25 25"><defs><style>.cls-1{fill:#fff;}.cls-2{fill:#005897;}</style></defs><circle class="cls-1" cx="12.5" cy="12.5" r="12"/><path class="cls-2" d="M12.5,1A11.5,11.5,0,1,1,1,12.5,11.51,11.51,0,0,1,12.5,1m0-1A12.5,12.5,0,1,0,25,12.5,12.5,12.5,0,0,0,12.5,0Z"/><path class="cls-2" d="M6.07,19.07a1,1,0,0,1-.57-1c0-2.67,0-5.34,0-8a.79.79,0,0,1,.91-.91H9.36a.45.45,0,0,0,.46-.26c.85-1.61,1.7-3.22,2.59-4.81.14-.25.44-.41.66-.62h.49l4.86,2.64a1,1,0,0,1,.42,1.5c-.51,1-1,1.93-1.56,2.92a.94.94,0,0,1,.58,1.1c0,.37,0,.74,0,1.11v.75c.31,0,.63,0,.62.37V16c0,.23-.1.34-.33.34l-.29,0c0,.58,0,1.15,0,1.71a.92.92,0,0,1-.57,1Zm11.16-5.56c0-.7,0-1.34,0-2,0-.3-.08-.4-.39-.4-3.47,0-6.93,0-10.4,0-.26,0-.37.08-.37.36q0,3.31,0,6.65c0,.25.09.34.35.34h10.5c.23,0,.34-.08.33-.32,0-.52,0-1,0-1.56,0-.22-.09-.27-.29-.27H16a.84.84,0,0,1-.84-.85c0-.33,0-.67,0-1a.89.89,0,0,1,1-1Zm-1.56-8.2-2.83,5.23h3.57a.33.33,0,0,0,.24-.14c.58-1.06,1.15-2.12,1.72-3.19a.33.33,0,0,0-.14-.5ZM9.61,10.54a5.34,5.34,0,0,1,.57,0,.6.6,0,0,0,.69-.4c.75-1.45,1.54-2.87,2.31-4.3L14,4.39c-.65-.46-.8-.43-1.15.22L10.28,9.26Zm1.74-.08c.53.2.8.11,1-.33.42-.79.84-1.56,1.26-2.34L15.15,5l-.65-.34Zm6.52,3.64H16.13a.31.31,0,0,0-.35.34c0,.32,0,.65,0,1,0,.11.15.31.24.31.61,0,1.21,0,1.84,0ZM6.12,10.51H8.33c.65,0,.73-.06.95-.76H6.7c-.64,0-.65,0-.61.67A.62.62,0,0,0,6.12,10.51Z"/><path class="cls-2" d="M17.64,7.6a1.15,1.15,0,0,1-.94,1.15,1,1,0,0,1-1-.87,1.21,1.21,0,0,1,1-1.15A.93.93,0,0,1,17.64,7.6Zm-.49,0a4.06,4.06,0,0,0-.41-.31,2.33,2.33,0,0,0-.42.57s.29.29.31.27A5.29,5.29,0,0,0,17.15,7.62Z"/></svg>