<?xml version="1.0" encoding="utf-8"?>
<!-- Generator: Adobe Illustrator 25.3.1, SVG Export Plug-In . SVG Version: 6.00 Build 0)  -->
<svg version="1.1" id="Layer_1" xmlns="http://www.w3.org/2000/svg" xmlns:xlink="http://www.w3.org/1999/xlink" x="0px" y="0px"
	 viewBox="0 0 24 24" style="enable-background:new 0 0 24 24;" xml:space="preserve">
<style type="text/css">
	.st0{fill-rule:evenodd;clip-rule:evenodd;fill:#005897;}
	.st1{fill-rule:evenodd;clip-rule:evenodd;fill:#5D5E5E;}
	.st2{fill:#005897;}
</style>
<g>
	<path class="st2" d="M11.53,13.02c-0.04-0.01-0.12-0.01-0.19-0.03c-0.86-0.19-1.57-0.74-2.4-1.02c-0.34-0.12-0.45-0.53-0.51-0.9
		c-0.19-1.23,0.8-2.49,2.01-2.49c0.35,0,0.47-0.23,0.64-0.42c1.63-1.83,3.25-3.65,4.86-5.5c0.34-0.39,0.59-0.42,0.98-0.07
		c1.39,1.28,1.31,0.84,0.14,2.24c-1.16,1.39-2.36,2.75-3.54,4.12c-0.48,0.56-0.54,1.19-0.39,1.88C13.4,12.1,12.73,13.01,11.53,13.02
		z M11.58,12.3c0.68,0,1.06-0.48,0.87-1.17c-0.31-1.11-0.05-2.03,0.74-2.88c1.27-1.37,2.46-2.81,3.7-4.21
		c0.23-0.25,0.16-0.37-0.06-0.55c-0.2-0.16-0.32-0.34-0.59-0.03c-1.8,2.05-3.62,4.07-5.43,6.1c-0.24,0.27-0.42,0.58-0.53,0.94
		C10,11.43,10.63,12.31,11.58,12.3z M9.6,11.55c-0.13-0.79,0-1.44,0.4-2.17C9.02,10.08,8.86,10.93,9.6,11.55z"/>
	<path class="st2" d="M5.97,23.21c0.18-0.97,0.12-1.91,0.11-2.85c-0.02-2.14-0.31-4.26-0.68-6.37c-0.13-0.75-0.51-1.46-0.56-2.25
		C4.77,10.7,5.05,9.82,5.66,8.96c1.49-2.09,2.9-4.24,4.34-6.36c0.5-0.73,0.99-1.47,1.49-2.21c0.15-0.22,0.3-0.46,0.6-0.29
		c0.32,0.19,0.14,0.43,0,0.64C10.2,3.57,8.37,6.44,6.39,9.2c-0.81,1.14-1.01,2.21-0.65,3.5c0.14,0.48,0.31,0.78,0.87,0.67
		c0.23-0.04,0.45,0.03,0.46,0.32c0.02,0.32-0.21,0.38-0.46,0.41c-0.02,0-0.04,0-0.05,0c-0.34-0.06-0.4,0.11-0.34,0.4
		c0.32,1.75,0.5,3.52,0.61,5.29c0.07,1.12,0.07,2.25-0.08,3.37c-0.04,0.27-0.15,0.47-0.43,0.45C6.09,23.58,5.96,23.41,5.97,23.21z"
		/>
	<path class="st2" d="M12.83,23.81c-0.31-0.02-0.42-0.3-0.2-0.66c0.52-0.86,0.89-1.77,1.12-2.74c0.36-1.47,0.35-2.94,0.04-4.42
		c-0.04-0.19-0.16-0.36-0.25-0.54c-0.54-1.04-0.41-2.18,0.4-3.01c2.29-2.33,4.61-4.63,6.91-6.95c0.18-0.19,0.39-0.33,0.61-0.12
		c0.27,0.26,0.06,0.48-0.14,0.69c-2.21,2.21-4.42,4.41-6.62,6.62c-0.89,0.89-0.99,1.52-0.41,2.62c0.27,0.51,0.31,1.08,0.36,1.63
		c0.23,2.32-0.2,4.5-1.39,6.52C13.17,23.61,13.07,23.8,12.83,23.81z"/>
	<path class="st2" d="M7.7,18.33c0-0.85-0.02-1.7,0-2.56c0.04-1.62,1.69-2.7,3.21-2.1c0.95,0.38,1.31,1.35,0.75,2.21
		c-0.41,0.63-0.59,1.29-0.58,2.04c0.02,1.03-0.06,2.06-0.06,3.1c0,0.48-0.2,0.64-0.65,0.62c-0.69-0.02-1.38-0.02-2.07,0
		c-0.44,0.01-0.62-0.15-0.61-0.6C7.72,20.15,7.7,19.24,7.7,18.33C7.7,18.33,7.7,18.33,7.7,18.33z M8.38,18.2
		C8.38,18.2,8.38,18.2,8.38,18.2c0,0.4-0.02,0.8,0,1.2c0.02,0.5-0.23,1.19,0.1,1.45c0.31,0.25,0.97,0.05,1.48,0.08
		c0.31,0.02,0.4-0.08,0.4-0.39c0-0.87,0.07-1.74,0.05-2.61c-0.02-0.87,0.13-1.67,0.65-2.41c0.34-0.48,0.15-0.94-0.4-1.18
		c-1.02-0.44-2.23,0.35-2.27,1.51C8.36,16.64,8.38,17.42,8.38,18.2z"/>
</g>
</svg>
