<svg id="Layer_1" data-name="Layer 1" xmlns="http://www.w3.org/2000/svg" viewBox="0 0 25 25"><defs><style>.cls-1{fill:#fff;}.cls-2,.cls-3{fill:#005897;}.cls-3{stroke:#005897;stroke-miterlimit:10;stroke-width:0.4px;}</style></defs><circle class="cls-1" cx="12.5" cy="12.5" r="12"/><path class="cls-2" d="M12.5,1A11.5,11.5,0,1,1,1,12.5,11.51,11.51,0,0,1,12.5,1m0-1A12.5,12.5,0,1,0,25,12.5,12.5,12.5,0,0,0,12.5,0Z"/><path class="cls-1" d="M3.14,6.52A1.68,1.68,0,0,1,5,5.37c4.9,0,9.79,0,14.69,0a3,3,0,0,1,.8.07,1.46,1.46,0,0,1,1,1.56c0,3.07,0,6.14,0,9.21a1.49,1.49,0,0,1-1.67,1.66h-7v1.9l.46,0H16c.33,0,.61.1.62.49s-.26.46-.58.46H8.57c-.34,0-.59-.11-.59-.46s.26-.49.58-.49h3.22V17.89h-.47c-2.11,0-4.22,0-6.33,0a1.68,1.68,0,0,1-1.84-1.19Zm9.16-.19H4.85c-.64,0-.76.13-.76.78v9c0,.66.14.8.81.8H19.71c.63,0,.79-.15.79-.78V7.09c0-.62-.14-.75-.75-.75Z"/><path class="cls-2" d="M4.93,5.37A1.66,1.66,0,0,0,3.14,6.52V16.71A1.66,1.66,0,0,0,4.93,17.9H5c.89,0,1.78,0,2.68,0h4.12v1.92H8.56c-.32,0-.58.15-.58.49s.25.46.58.46H16c.32,0,.58-.08.58-.46s-.29-.49-.62-.49H13.24l-.46,0v-1.9h7a1.49,1.49,0,0,0,1.67-1.66c0-3.07,0-6.14,0-9.21a1.46,1.46,0,0,0-1-1.56,3,3,0,0,0-.8-.07H12.49L5,5.37Zm7.37,1h7.45c.61,0,.75.13.75.75v9.07c0,.63-.16.78-.79.78H4.9c-.67,0-.81-.14-.81-.8v-9c0-.65.12-.77.76-.77H12.3Z"/><path class="cls-3" d="M11.32,11.93a1.68,1.68,0,0,1-1.69-1.3,7.32,7.32,0,0,1-.5-2.49A1,1,0,0,1,10.2,7a1.46,1.46,0,0,0,.36-.09.38.38,0,0,1,.49.12.36.36,0,0,1,0,.5.37.37,0,0,1-.5,0c-.37-.26-1,0-.93.4a12.57,12.57,0,0,0,.15,1.39,8.92,8.92,0,0,0,.33,1.15,1.29,1.29,0,0,0,1.35,1,2.75,2.75,0,0,0,.94-.14.93.93,0,0,0,.49-.43,5.5,5.5,0,0,0,.68-3,.56.56,0,0,0-.87-.4.39.39,0,0,1-.55,0,.35.35,0,0,1,0-.5A.39.39,0,0,1,12.61,7,.68.68,0,0,0,12.9,7,1,1,0,0,1,14,8.15,7.07,7.07,0,0,1,13.33,11a1.61,1.61,0,0,1-1.4.94H11.8s0,0-.05,0v.53c0,.71,0,1.43,0,2.14a1.25,1.25,0,0,0,.78,1.2,1.21,1.21,0,0,0,1.35-.25,1.25,1.25,0,0,0,.4-1c0-.66,0-1.31,0-2a1.48,1.48,0,0,1,1.07-1.4,1,1,0,0,0,.73-.51.94.94,0,0,1,1.17-.29,1,1,0,0,1,.64,1.09,1,1,0,0,1-2,.33c-.14-.28-.21-.31-.51-.2a1.21,1.21,0,0,0-.71,1.13c0,.62,0,1.25,0,1.88a1.7,1.7,0,0,1-3.38.28,2.88,2.88,0,0,1,0-.42Zm5.55.07a.6.6,0,0,0,.61-.58.63.63,0,0,0-.62-.61.59.59,0,0,0-.57.59A.57.57,0,0,0,16.87,12Z"/></svg>