<svg id="Layer_1" data-name="Layer 1" xmlns="http://www.w3.org/2000/svg" viewBox="0 0 25 25"><defs><style>.cls-1{fill:#fff;}.cls-2,.cls-3{fill:#005897;}.cls-3{stroke:#005897;stroke-miterlimit:10;stroke-width:0.18px;}</style></defs><circle class="cls-1" cx="12.5" cy="12.5" r="12"/><path class="cls-2" d="M12.5,1A11.5,11.5,0,1,1,1,12.5,11.51,11.51,0,0,1,12.5,1m0-1A12.5,12.5,0,1,0,25,12.5,12.5,12.5,0,0,0,12.5,0Z"/><path class="cls-3" d="M3.51,17.44a1.77,1.77,0,0,1,.42-.15c.4,0,.79,0,1.22,0V8.44c0-.7.32-1,1-1,.49,0,1,0,1.48,0,.13,0,.24.16.37.24-.13.09-.25.25-.39.26A12,12,0,0,1,6.16,8c-.33,0-.47.12-.47.46,0,2.81,0,5.62,0,8.43,0,.38.17.48.55.41a5.19,5.19,0,0,1,3.48-5.52,8.66,8.66,0,0,1-.85-1.14A3,3,0,0,1,8.58,9.4c0-1.07,0-2.15,0-3.22a1.43,1.43,0,0,1,1.49-1.49c.74,0,1.48,0,2.22,0a1.41,1.41,0,0,1,1.48,1.49c0,.91,0,1.82,0,2.73a2.92,2.92,0,0,1-1.26,2.78,5.11,5.11,0,0,1,3.57,5.59c.84,0,1.64,0,2.44,0,.27,0,.31-.21.31-.44,0-1.44,0-2.88,0-4.31a.82.82,0,0,1,0-.35,1.67,1.67,0,0,1,.26-.35c.09.12.24.23.26.36,0,.31,0,.62,0,.93v4.17c.39,0,.79,0,1.18,0a2.06,2.06,0,0,1,.46.15v.47a3.47,3.47,0,0,1-.18.33,1.15,1.15,0,0,1-1,.68h-15a1.1,1.1,0,0,1-1-.5c-.11-.16-.19-.34-.29-.5Zm6.23-4a1.1,1.1,0,0,1,.82.87,18.9,18.9,0,0,1,0,2.13c0,.08-.18.22-.29.23a1.3,1.3,0,0,1-.45-.14c0-.12.08-.24.13-.36s.1-.12.1-.19a14.42,14.42,0,0,0,0-1.47A.64.64,0,0,0,9.34,14a.66.66,0,0,0-.63.66c0,.34,0,.67,0,1s-.06.49.2.66a.39.39,0,0,1,0,.3,1,1,0,0,1-.5.08.39.39,0,0,1-.2-.31c0-.61,0-1.22,0-1.83a.93.93,0,0,1,.56-.91c.62-.2.53-.72.74-1.18a4.49,4.49,0,0,0-2.64,4.8h8.67c.27-1.81-.73-3.94-2.14-4.53,0,.2.08.37.11.54a1.07,1.07,0,0,0,.51.87,1,1,0,0,1,.08,1.44,1,1,0,0,1-1.49-.05,1,1,0,0,1,.2-1.46.42.42,0,0,0,.22-.53c-.33-1.41-.26-1.37-1.65-1.44s-1.19,0-1.54,1.11C9.78,13.29,9.77,13.38,9.74,13.48ZM9.11,8c0,.56,0,1.08,0,1.59a2.1,2.1,0,0,0,1.93,2,2,2,0,0,0,2.1-1.65,14.73,14.73,0,0,0,.1-1.9Zm-5,9.86a.73.73,0,0,0,.77.54H19.63a.7.7,0,0,0,.77-.54ZM13.23,7.41c0-.47,0-.88,0-1.29a.88.88,0,0,0-.89-.89c-.78,0-1.56,0-2.33,0A.84.84,0,0,0,9.13,6c0,.47,0,1,0,1.44Zm.07,7a.45.45,0,0,0-.41.48.47.47,0,0,0,.93,0C13.82,14.6,13.64,14.43,13.3,14.41Z"/><path class="cls-3" d="M21,10.67a1.08,1.08,0,0,1-1.09.57c-1.84,0-3.68,0-5.52,0a1.43,1.43,0,0,1-.46-.17,1.51,1.51,0,0,1,.27-.42A2.4,2.4,0,0,0,15,8.73c0-.66,0-1.32,0-2s.3-1,1-1c1.31,0,2.62,0,3.93,0A1.07,1.07,0,0,1,21,6.4Zm-6.1.05c1.81,0,3.53,0,5.24,0,.11,0,.3-.22.3-.35,0-1.21,0-2.43,0-3.65,0-.25-.11-.38-.37-.38H15.93c-.28,0-.4.13-.39.4s0,.73,0,1.09A4.5,4.5,0,0,1,14.91,10.72Z"/><path class="cls-3" d="M18,8a8.47,8.47,0,0,1-1,0c-.11,0-.21-.15-.32-.24.1-.09.2-.25.31-.26q1,0,2.1,0c.1,0,.2.18.3.27-.11.08-.22.23-.34.24C18.68,8,18.33,8,18,8Z"/><path class="cls-3" d="M17.72,9.59a4.93,4.93,0,0,1-.77,0c-.11,0-.2-.14-.3-.22.1-.1.19-.27.3-.27a13.19,13.19,0,0,1,1.54,0c.12,0,.22.16.33.25-.11.09-.21.23-.33.24A4.93,4.93,0,0,1,17.72,9.59Z"/><path class="cls-3" d="M11.14,6.54a4.34,4.34,0,0,1-.51,0c-.07,0-.13-.1-.19-.15s.13-.17.2-.17a8.51,8.51,0,0,1,1,0c.07,0,.14.11.21.16s-.14.15-.21.16A2.9,2.9,0,0,1,11.14,6.54Z"/><path class="cls-3" d="M11,6.31a4.34,4.34,0,0,1,0-.51c0-.07.09-.13.15-.19s.17.13.17.2a8.51,8.51,0,0,1,0,1c0,.07-.11.14-.16.21S11,6.89,11,6.82A2.9,2.9,0,0,1,11,6.31Z"/></svg>