<?xml version="1.0" encoding="utf-8"?>
<!-- Generator: Adobe Illustrator 25.3.1, SVG Export Plug-In . SVG Version: 6.00 Build 0)  -->
<svg version="1.1" id="Layer_1" xmlns="http://www.w3.org/2000/svg" xmlns:xlink="http://www.w3.org/1999/xlink" x="0px" y="0px"
	 viewBox="0 0 24 24" style="enable-background:new 0 0 24 24;" xml:space="preserve">
<style type="text/css">
	.st0{fill-rule:evenodd;clip-rule:evenodd;fill:#005897;}
	.st1{fill-rule:evenodd;clip-rule:evenodd;fill:#5D5E5E;}
	.st2{fill:#005897;}
</style>
<g>
	<path class="st2" d="M12.04,23.41c-1.07-0.34-2.06-0.8-2.94-1.51c-2.05-1.65-3.57-3.67-4.3-6.22c-0.08-0.28-0.19-0.33-0.45-0.33
		c-1.31-0.02-2.25-0.91-2.37-2.19c-0.12-1.33,0.61-2.35,1.91-2.57c0.45-0.08,0.25-0.32,0.22-0.5C3.86,8.43,3.9,6.81,4.49,5.25
		c0.6-1.59,1.66-2.77,3.15-3.64c0.85-0.5,1.76-0.74,2.66-0.9c2.97-0.54,5.73,0.03,7.95,2.22c1.67,1.64,2.2,3.73,2.02,6.03
		c-0.04,0.46-0.1,0.91-0.16,1.37c-0.02,0.19,0.02,0.27,0.23,0.35c1.18,0.44,1.78,1.34,1.71,2.48c-0.07,1.1-0.82,1.92-2.07,2.18
		c-0.3,0.06-0.29,0.25-0.34,0.42c-0.9,2.98-2.76,5.22-5.35,6.89c-0.63,0.41-1.35,0.58-2.05,0.78
		C12.17,23.41,12.11,23.41,12.04,23.41z M12.09,1.43c-0.86-0.03-1.7,0.11-2.52,0.34C7.61,2.32,6.13,3.54,5.37,5.38
		C4.75,6.86,4.72,8.49,5.04,10.1c0.18,0.88-0.09,1.25-0.98,1.36c-0.47,0.06-0.82,0.29-1.02,0.73c-0.53,1.14,0.19,2.24,1.46,2.23
		c0.46-0.01,1,0.35,1.1,0.75c0.68,2.63,2.23,4.65,4.38,6.25c0.49,0.37,1.02,0.66,1.6,0.87c0.21,0.07,0.39,0.18,0.37-0.2
		c-0.03-0.37,0.28,0.01,0.39-0.15c0.07-0.1,0.2-0.06,0.18,0.09c-0.06,0.47,0.22,0.3,0.42,0.22c0.25-0.1,0.51-0.2,0.73-0.35
		c2.52-1.56,4.31-3.7,5.12-6.59c0.16-0.57,0.48-0.88,1.07-0.9c0.19-0.01,0.36-0.08,0.52-0.18c0.57-0.34,0.83-0.85,0.73-1.51
		c-0.1-0.62-0.47-1.03-1.09-1.22c-0.7-0.21-0.92-0.51-0.84-1.23c0.04-0.39,0.11-0.77,0.15-1.16c0.2-2.07-0.19-3.98-1.68-5.51
		C16.15,2.06,14.22,1.46,12.09,1.43z"/>
	<path class="st2" d="M11.97,19.01c-0.84-0.05-1.71-0.29-2.24-1.19c-0.1-0.17-0.2-0.36-0.05-0.57c0.1-0.14,0.22-0.2,0.39-0.19
		c0.2,0,0.32,0.11,0.39,0.27c0.43,1.04,2.73,1.01,3.27,0.24c0.08-0.11,0.17-0.21,0.26-0.3c0.19-0.18,0.39-0.15,0.59-0.02
		c0.22,0.14,0.13,0.32,0.05,0.48c-0.47,0.94-1.33,1.18-2.27,1.28C12.27,19.02,12.19,19.01,11.97,19.01z"/>
	<path class="st2" d="M15.32,13.43c-0.69-0.01-1.23-0.32-1.69-0.82c-0.17-0.18-0.26-0.38-0.04-0.57c0.2-0.18,0.4-0.14,0.58,0.05
		c0.26,0.28,0.56,0.51,0.94,0.57c0.38,0.07,0.74-0.02,1.05-0.28c0.15-0.13,0.3-0.29,0.51-0.32c0.15-0.02,0.32-0.1,0.43,0.13
		c0.1,0.19,0.06,0.31-0.07,0.45C16.56,13.12,16.01,13.44,15.32,13.43z"/>
	<path class="st2" d="M8.79,13.43c-0.71,0-1.53-0.46-1.75-0.95C6.96,12.3,6.87,12.13,7.06,12c0.18-0.12,0.39-0.1,0.55,0.09
		c0.24,0.28,0.53,0.48,0.88,0.56c0.55,0.13,0.99-0.1,1.37-0.49c0.19-0.2,0.42-0.35,0.66-0.14c0.27,0.23,0,0.42-0.12,0.6
		C10.09,13.11,9.43,13.43,8.79,13.43z"/>
	<path class="st2" d="M8.48,7C8.3,7.13,8.2,7.2,8.11,7.27C7.99,7.36,7.88,7.32,7.8,7.23C7.7,7.13,7.72,7.01,7.82,6.91
		c0.05-0.05,0.09-0.1,0.14-0.15c0.78-0.88,1.09-0.85,1.78,0.13c0.09,0.13,0.12,0.25,0.02,0.37c-0.09,0.11-0.23,0.06-0.33,0
		C9.29,7.18,9.16,7.07,8.95,6.93c0,0.51,0,0.94,0,1.37c0,0.18,0.02,0.42-0.25,0.4C8.45,8.69,8.48,8.48,8.48,8.31
		C8.48,7.91,8.48,7.5,8.48,7z"/>
	<path class="st2" d="M15.61,8.57c-0.1,0.03-0.18,0.28-0.31,0.03c-0.02-0.04-0.04-0.07-0.06-0.11c0-0.47,0-0.94,0-1.4
		c-0.09-0.01-0.12-0.02-0.15-0.01c-0.18,0.07-0.32,0.4-0.55,0.16c-0.22-0.24,0.08-0.37,0.2-0.53c0.06-0.08,0.14-0.15,0.21-0.22
		c0.49-0.53,0.8-0.5,1.2,0.11c0.09,0.14,0.11,0.33,0.03,0.43c-0.11,0.15-0.29-0.04-0.53,0.02c0,0.46,0,0.96,0,1.46
		C15.64,8.51,15.62,8.54,15.61,8.57z"/>
	<path class="st2" d="M8.07,9.53c0.32-0.05,0.24,0.23,0.26,0.34c0.06,0.28-0.23,0.23-0.38,0.28c-0.31,0.11-0.3-0.2-0.31-0.33
		C7.62,9.52,7.96,9.67,8.07,9.53z"/>
	<path class="st2" d="M15.1,10.03c-0.29,0.06-0.25-0.23-0.26-0.36c-0.02-0.32,0.3-0.18,0.45-0.24c0.24-0.09,0.2,0.12,0.22,0.27
		C15.56,10.03,15.31,9.99,15.1,10.03z"/>
	<path class="st2" d="M16.39,9.52c0.16,0.09,0.45,0.04,0.39,0.35c-0.02,0.12,0.04,0.36-0.21,0.29c-0.16-0.05-0.46,0.01-0.41-0.29
		C16.17,9.75,16.12,9.49,16.39,9.52z"/>
	<path class="st2" d="M10.43,9.78c0.21,0.09,0.45,0.14,0.5,0.33c0.03,0.12-0.11,0.39-0.26,0.37c-0.17-0.02-0.43-0.09-0.46-0.3
		C10.18,10.05,10.28,9.86,10.43,9.78z"/>
	<path class="st2" d="M13.88,10.51c-0.22-0.05-0.31-0.24-0.32-0.37c-0.01-0.23,0.25-0.28,0.42-0.33c0.26-0.08,0.26,0.2,0.28,0.32
		C14.32,10.42,13.96,10.33,13.88,10.51z"/>
	<path class="st2" d="M6.37,10.46c0.28-0.05,0.36-0.51,0.69-0.23c0.16,0.14,0.19,0.29-0.03,0.47C6.65,11.02,6.59,10.64,6.37,10.46z"
		/>
	<path class="st2" d="M11.6,11.4c-0.12-0.17-0.29-0.32-0.33-0.5c-0.02-0.1,0.18-0.34,0.29-0.34c0.22-0.01,0.41,0.19,0.45,0.39
		C12.05,11.11,11.81,11.18,11.6,11.4z"/>
	<path class="st2" d="M13.75,15.55c-0.2-0.08-0.34-0.24-0.39-0.42c-0.05-0.22,0.23-0.34,0.34-0.34c0.2,0,0.31,0.25,0.36,0.41
		C14.12,15.37,13.87,15.43,13.75,15.55z"/>
	<path class="st2" d="M7.83,17.51c-0.1,0.2-0.32,0.24-0.49,0.27c-0.22,0.04-0.26-0.22-0.26-0.35c0-0.26,0.27-0.27,0.44-0.29
		C7.75,17.1,7.71,17.38,7.83,17.51z"/>
	<path class="st2" d="M17.01,17.82c-0.13-0.16-0.45-0.07-0.45-0.33c0-0.11,0.04-0.39,0.25-0.36c0.16,0.03,0.44,0.03,0.44,0.3
		C17.26,17.58,17.21,17.75,17.01,17.82z"/>
	<path class="st2" d="M18.1,10.47c-0.22,0.16-0.25,0.56-0.64,0.24c-0.24-0.19-0.19-0.33-0.03-0.47C17.76,9.95,17.84,10.4,18.1,10.47
		z"/>
	<path class="st2" d="M11.02,15.12c-0.13,0.15-0.19,0.4-0.4,0.41c-0.15,0.01-0.35-0.16-0.33-0.32c0.03-0.18,0.16-0.41,0.38-0.4
		C10.79,14.81,10.96,14.93,11.02,15.12z"/>
	<path class="st2" d="M8.71,16.48c0.16,0.1,0.3,0.26,0.29,0.4c-0.03,0.24-0.3,0.33-0.48,0.35c-0.18,0.02-0.21-0.27-0.21-0.39
		C8.29,16.62,8.58,16.62,8.71,16.48z"/>
	<path class="st2" d="M15.85,17.27c-0.19-0.16-0.5-0.14-0.49-0.4c0-0.1,0.09-0.38,0.3-0.32c0.16,0.05,0.43,0.09,0.42,0.33
		C16.08,17.01,15.93,17.13,15.85,17.27z"/>
	<path class="st2" d="M6.26,11.37c-0.05,0.18-0.17,0.36-0.33,0.4c-0.17,0.04-0.4-0.13-0.4-0.28c0-0.14,0.15-0.37,0.34-0.39
		C6.01,11.09,6.2,11.17,6.26,11.37z"/>
	<path class="st2" d="M12.53,20.86c0.02,0.19-0.01,0.32-0.25,0.32c-0.21,0-0.36-0.02-0.33-0.29c0.02-0.18,0-0.33,0.26-0.32
		C12.41,20.58,12.57,20.6,12.53,20.86z"/>
	<path class="st2" d="M12.91,10.5c0.11,0.13,0.3,0.26,0.3,0.38c0,0.2-0.22,0.35-0.4,0.37c-0.14,0.02-0.36-0.15-0.35-0.28
		C12.47,10.74,12.73,10.65,12.91,10.5z"/>
	<path class="st2" d="M13.38,14.13c-0.08,0.18-0.26,0.28-0.4,0.27c-0.23-0.02-0.28-0.29-0.3-0.46c-0.03-0.21,0.23-0.25,0.36-0.25
		C13.29,13.7,13.24,14,13.38,14.13z"/>
	<path class="st2" d="M10.11,16.1c-0.13,0.19-0.32,0.33-0.53,0.35c-0.15,0.02-0.16-0.23-0.28-0.32c0.17-0.11,0.25-0.37,0.46-0.37
		C9.92,15.75,10.02,15.95,10.11,16.1z"/>
	<path class="st2" d="M18.57,11.04c0.19,0.1,0.34,0.28,0.38,0.45c0.04,0.15-0.21,0.29-0.35,0.28c-0.21-0.01-0.36-0.22-0.38-0.39
		C18.2,11.25,18.41,11.12,18.57,11.04z"/>
	<path class="st2" d="M12.53,19.61c0.04,0.23-0.05,0.3-0.28,0.3c-0.26,0.01-0.3-0.11-0.31-0.34c-0.02-0.42,0.3-0.12,0.45-0.2
		C12.61,19.26,12.48,19.53,12.53,19.61z"/>
	<path class="st2" d="M9.67,9.52c-0.02,0.34-0.08,0.56-0.5,0.51C8.87,10,8.94,9.78,8.98,9.67C9.13,9.33,9.43,9.54,9.67,9.52z"/>
	<path class="st2" d="M14.74,16.5c-0.21-0.11-0.42-0.22-0.46-0.41c-0.03-0.15,0.15-0.34,0.31-0.34c0.18,0,0.35,0.18,0.4,0.34
		C15.04,16.26,14.83,16.36,14.74,16.5z"/>
	<path class="st2" d="M11.77,12.57c0.15-0.01,0.31-0.02,0.27,0.19c-0.03,0.15,0.02,0.38-0.22,0.36c-0.13-0.01-0.39,0.04-0.37-0.23
		C11.46,12.71,11.51,12.51,11.77,12.57z"/>
	<path class="st2" d="M12.25,12.61c0.43-0.19,0.54,0.09,0.61,0.32c0.04,0.14-0.17,0.17-0.3,0.18
		C12.15,13.12,12.45,12.73,12.25,12.61z"/>
	<path class="st2" d="M11.76,13.86c-0.23,0.17-0.12,0.58-0.52,0.52c-0.09-0.02-0.31-0.12-0.23-0.28
		C11.15,13.84,11.37,13.72,11.76,13.86z"/>
	<path class="st2" d="M15.25,8.5c0.02,0.04,0.04,0.07,0.06,0.11C15.26,8.58,15.21,8.56,15.25,8.5z"/>
	<path class="st2" d="M15.61,8.57c0.01-0.03,0.03-0.06,0.06-0.07C15.7,8.56,15.67,8.58,15.61,8.57z"/>
</g>
</svg>
