<svg id="Layer_1" data-name="Layer 1" xmlns="http://www.w3.org/2000/svg" viewBox="0 0 25 25"><defs><style>.cls-1{fill:#fff;}.cls-2{fill:#005897;}</style></defs><circle class="cls-1" cx="12.5" cy="12.5" r="12"/><path class="cls-2" d="M12.5,1A11.5,11.5,0,1,1,1,12.5,11.51,11.51,0,0,1,12.5,1m0-1A12.5,12.5,0,1,0,25,12.5,12.5,12.5,0,0,0,12.5,0Z"/><path class="cls-2" d="M12.92,18.67c0,.57,0,1.08,0,1.58s-.21.55-.59.4C10.7,20,9.08,19.34,7.45,18.7c-.33-.13-.32-.38-.32-.65v-11c0-.38,0-.76,0-1.14s.07-.54.55-.54H16.1c.49,0,.56.06.56.53v4.21a.72.72,0,0,1-.08.39c-.06.08-.26.16-.32.12a.63.63,0,0,1-.24-.37c0-.85,0-1.7,0-2.54V6.07H9.33l.4.19c.91.36,1.82.73,2.74,1.08a.63.63,0,0,1,.46.68c0,3.15,0,6.31,0,9.47V18H16c0-.12,0-.26,0-.39V14.06a.74.74,0,0,1,0-.3,3.37,3.37,0,0,1,.3-.36c.11.12.32.25.32.37,0,1.51,0,3,0,4.51,0,.33-.21.4-.48.39H12.92Zm-.7,1.2c0-.12,0-.16,0-.21q0-5.71,0-11.41A.35.35,0,0,0,12,7.87l-2.53-1L7.83,6.23a1,1,0,0,0,0,.19c0,3.81,0,7.63,0,11.44a.52.52,0,0,0,.28.36c.89.37,1.79.72,2.69,1.08Z"/><path class="cls-2" d="M19.6,12.34h-5c-.1,0-.23,0-.3,0S14,12.13,14,12a.42.42,0,0,1,.29-.3,10.61,10.61,0,0,1,1.13,0h4.14a1,1,0,0,0-.15-.22L18,10.06l-.16-.16c-.15-.17-.2-.38,0-.49a.51.51,0,0,1,.48,0c.79.75,1.55,1.53,2.31,2.3a.37.37,0,0,1,0,.57c-.76.77-1.52,1.54-2.31,2.29a.51.51,0,0,1-.48,0c-.21-.14-.14-.35,0-.52l1.45-1.44Z"/></svg>