<?xml version="1.0" encoding="utf-8"?>
<!-- Generator: Adobe Illustrator 25.3.1, SVG Export Plug-In . SVG Version: 6.00 Build 0)  -->
<svg version="1.1" id="Layer_1" xmlns="http://www.w3.org/2000/svg" xmlns:xlink="http://www.w3.org/1999/xlink" x="0px" y="0px"
	 viewBox="0 0 24 24" style="enable-background:new 0 0 24 24;" xml:space="preserve">
<style type="text/css">
	.st0{fill-rule:evenodd;clip-rule:evenodd;fill:#005897;}
	.st1{fill-rule:evenodd;clip-rule:evenodd;fill:#5D5E5E;}
	.st2{fill:#005897;}
</style>
<g>
	<path class="st0" d="M14.91,1.02c0.35,0.13,0.71,0.22,1.03,0.39c0.57,0.3,0.99,0.77,1.28,1.34c0.06,0.12,0.14,0.2,0.27,0.24
		c1.07,0.34,1.8,1.34,1.79,2.45c0,0.23,0.07,0.35,0.27,0.46c1.18,0.7,1.75,2.3,1.29,3.61c-0.05,0.13-0.03,0.21,0.08,0.31
		c0.92,0.9,1.15,1.97,0.78,3.18c-0.07,0.22-0.17,0.44-0.28,0.64c-0.07,0.14-0.07,0.23,0.01,0.37c0.61,1.06,0.63,2.13-0.05,3.15
		c-0.26,0.39-0.37,0.74-0.38,1.2c-0.03,1.52-1.37,2.84-2.88,2.89c-0.17,0.01-0.21,0.12-0.28,0.22c-0.82,1.12-1.92,1.64-3.31,1.46
		c-1-0.13-1.77-0.69-2.34-1.51c-0.05-0.08-0.1-0.16-0.15-0.23c-0.01-0.01-0.02-0.01-0.01-0.01c-0.27,0.31-0.51,0.64-0.8,0.92
		c-1.18,1.14-3.18,1.18-4.4,0.09c-0.26-0.24-0.47-0.53-0.71-0.79c-0.05-0.06-0.14-0.12-0.22-0.12c-1.32-0.07-2.52-1.07-2.8-2.38
		C3.01,18.54,3.03,18.17,3,17.81C3,17.73,2.97,17.64,2.92,17.59C2,16.54,1.86,15.21,2.59,14c0.1-0.16,0.03-0.26-0.03-0.39
		c-0.6-1.16-0.6-2.3,0.16-3.39c0-0.01,0.01-0.01,0.01-0.02c0.16-0.17,0.4-0.33,0.45-0.53C3.22,9.47,3.06,9.23,3.03,9
		C2.87,7.86,3.26,6.93,4.1,6.16C4.18,6.09,4.26,6,4.35,5.96c0.31-0.12,0.36-0.33,0.36-0.65c-0.01-1.01,0.76-2,1.76-2.33
		c0.1-0.03,0.22-0.11,0.27-0.2c0.49-0.93,1.23-1.54,2.28-1.73c0.02,0,0.04-0.02,0.05-0.03c0.24,0,0.49,0,0.73,0
		C9.85,1.04,9.9,1.06,9.94,1.07c0.6,0.12,1.12,0.41,1.55,0.85c0.18,0.19,0.33,0.4,0.51,0.61c0.03-0.05,0.07-0.09,0.1-0.13
		c0.4-0.6,0.94-1.02,1.63-1.24c0.15-0.05,0.3-0.09,0.45-0.13C14.43,1.02,14.67,1.02,14.91,1.02z M3.29,14.49
		c-0.04,0.09-0.1,0.18-0.14,0.28c-0.34,0.84-0.14,1.73,0.53,2.35c0.19,0.18,0.27,0.36,0.21,0.63c-0.04,0.23-0.04,0.47-0.02,0.7
		c0.13,1.17,1.29,2.13,2.31,1.94c0.19-0.04,0.35,0.05,0.45,0.22c0.05,0.09,0.1,0.19,0.16,0.28c0.53,0.83,1.3,1.27,2.28,1.23
		c1.58-0.06,2.77-1.68,2.42-3.22c-0.27-1.19-1.21-1.96-2.46-2.04c-0.3-0.02-0.48-0.18-0.48-0.44c0-0.26,0.2-0.43,0.51-0.42
		c0.78,0.02,1.47,0.28,2.07,0.76c0.13,0.11,0.26,0.23,0.42,0.37c0-0.11,0-0.18,0-0.25c0-0.84,0-1.69,0-2.53c0-1.74,0-3.49,0-5.23
		c0-0.41-0.14-0.73-0.53-0.89c-0.12-0.05-0.25-0.06-0.37-0.08c-0.23-0.04-0.39-0.22-0.38-0.45c0.01-0.22,0.18-0.4,0.42-0.4
		c0.11,0,0.22,0,0.32,0.03c0.18,0.04,0.36,0.11,0.54,0.16c0-0.02,0.01-0.04,0.01-0.05c0-1.06,0.01-2.12,0-3.17
		c-0.01-0.96-0.43-1.68-1.27-2.15C9.43,1.62,8.17,2,7.71,2.89c0.08,0.02,0.17,0.04,0.25,0.06C8.39,3.07,8.77,3.3,9.09,3.61
		c0.13,0.13,0.18,0.31,0.09,0.45C9.12,4.18,8.96,4.33,8.84,4.33c-0.16,0-0.33-0.1-0.47-0.2C7.77,3.65,7,3.59,6.36,4
		C5.83,4.34,5.58,4.83,5.57,5.46c0.07,0,0.11-0.01,0.15-0.01c1.75-0.17,3.24,1.33,3.27,3.03C9,8.8,8.83,8.99,8.57,9
		C8.32,9,8.15,8.82,8.13,8.52C8.1,7.96,7.91,7.46,7.53,7.04c-0.47-0.52-1.05-0.8-1.77-0.73C4.4,6.46,3.37,8.17,4.08,9.51
		C4.27,9.87,4.2,10,3.89,10.28c-0.25,0.22-0.5,0.47-0.65,0.75c-0.74,1.4,0.26,3.13,1.84,3.24c0.3,0.02,0.48,0.18,0.48,0.44
		c0,0.26-0.2,0.45-0.51,0.41c-0.34-0.04-0.67-0.11-0.99-0.22C3.79,14.81,3.55,14.63,3.29,14.49z M12.42,17.1
		c0.26-0.2,0.48-0.4,0.73-0.57c0.56-0.37,1.17-0.55,1.84-0.54c0.25,0,0.43,0.18,0.43,0.41c0.01,0.23-0.16,0.41-0.41,0.44
		c-0.04,0-0.09,0-0.13,0.01c-1.79,0.12-2.91,1.84-2.29,3.53c0.58,1.56,2.28,2.19,3.7,1.37c0.43-0.25,0.75-0.61,0.98-1.05
		c0.16-0.3,0.28-0.35,0.61-0.31c0.1,0.01,0.2,0.02,0.3,0c1.1-0.13,2.06-1.23,1.93-2.32c-0.06-0.51,0.05-0.84,0.39-1.21
		c0.6-0.65,0.64-1.74,0.15-2.39c-0.1,0.07-0.2,0.14-0.3,0.2c-0.46,0.28-0.95,0.46-1.5,0.45c-0.25,0-0.43-0.17-0.44-0.4
		c-0.01-0.24,0.16-0.42,0.42-0.45c0.16-0.02,0.32-0.02,0.47-0.07c0.9-0.26,1.45-0.88,1.63-1.78c0.18-0.89-0.13-1.63-0.87-2.18
		c-0.3-0.22-0.35-0.38-0.2-0.69c0.44-0.89,0.29-1.72-0.3-2.48C18.95,6.27,17.88,6.07,17,6.6c-0.72,0.44-1.08,1.1-1.14,1.93
		C15.84,8.82,15.67,9,15.42,9C15.16,8.99,15,8.8,15,8.5c0-1.35,0.98-2.63,2.3-2.96c0.36-0.09,0.74-0.09,1.12-0.12
		c-0.01-0.75-0.47-1.39-1.21-1.6c-0.6-0.18-1.14-0.05-1.62,0.35c-0.29,0.24-0.53,0.25-0.71,0.04c-0.18-0.21-0.12-0.46,0.15-0.7
		c0.36-0.32,0.79-0.51,1.26-0.6c-0.37-0.74-1.37-1.17-2.18-0.95c-0.97,0.26-1.67,1.2-1.68,2.26c-0.01,1.04,0,2.09,0,3.13
		c0,0.05,0,0.1,0,0.11c0.28-0.06,0.56-0.13,0.84-0.16c0.25-0.02,0.43,0.17,0.44,0.4c0.01,0.23-0.15,0.42-0.4,0.45
		c-0.64,0.09-0.89,0.38-0.89,1.03c0,2.57,0,5.13,0,7.7C12.42,16.94,12.42,17.01,12.42,17.1z"/>
	<path class="st0" d="M8.05,11.54c-0.58-0.12-1.1-0.36-1.53-0.77C5.92,10.2,5.59,9.5,5.56,8.66C5.55,8.35,5.72,8.15,5.98,8.14
		C6.23,8.14,6.4,8.31,6.42,8.61c0.06,1.19,0.88,1.86,1.7,2.04c0.63,0.14,1.2,0,1.72-0.38c0.1-0.08,0.21-0.16,0.32-0.2
		c0.2-0.07,0.39,0.03,0.49,0.21c0.09,0.17,0.06,0.38-0.1,0.52c-0.36,0.32-0.78,0.56-1.26,0.66c-0.25,0.05-0.36,0.14-0.44,0.39
		c-0.25,0.81-1.09,1.41-1.95,1.42c-0.28,0-0.47-0.16-0.49-0.4c-0.01-0.25,0.16-0.43,0.44-0.45c0.54-0.04,0.94-0.29,1.17-0.8
		C8.04,11.61,8.04,11.58,8.05,11.54z"/>
	<path class="st0" d="M9.04,20.74c-0.07,0.14-0.11,0.3-0.21,0.42c-0.11,0.13-0.28,0.14-0.44,0.07c-0.17-0.08-0.25-0.22-0.26-0.41
		c-0.02-0.5-0.17-0.95-0.47-1.35c-0.42-0.56-0.97-0.87-1.67-0.91c-0.26-0.01-0.44-0.2-0.43-0.44c0.01-0.24,0.19-0.42,0.45-0.41
		c0.18,0,0.37,0.02,0.55,0.05C7.9,18.04,8.97,19.35,9.04,20.74z"/>
	<path class="st0" d="M9.28,14.26c0.1,0.02,0.22,0.02,0.31,0.06c0.18,0.07,0.28,0.26,0.25,0.45c-0.03,0.19-0.19,0.33-0.4,0.36
		c-0.33,0.05-0.67,0.08-0.99,0.18c-0.66,0.2-1.17,0.62-1.55,1.19c-0.04,0.07-0.09,0.13-0.14,0.19c-0.16,0.19-0.4,0.23-0.59,0.1
		C6,16.66,5.94,16.41,6.08,16.2c0.17-0.26,0.35-0.53,0.57-0.75C7.37,14.72,8.25,14.33,9.28,14.26z"/>
	<path class="st0" d="M15.92,11.54c0.23,0.57,0.64,0.85,1.22,0.89c0.19,0.01,0.33,0.1,0.4,0.28c0.07,0.16,0.04,0.33-0.09,0.43
		c-0.1,0.08-0.25,0.14-0.38,0.14c-0.89-0.01-1.73-0.65-1.97-1.51c-0.05-0.17-0.12-0.24-0.29-0.27c-0.47-0.08-0.88-0.29-1.25-0.58
		c-0.29-0.23-0.36-0.47-0.19-0.69c0.16-0.21,0.42-0.22,0.7-0.01c0.35,0.27,0.73,0.42,1.17,0.47c0.74,0.09,1.61-0.34,2-1
		c0.2-0.34,0.31-0.7,0.33-1.09c0.02-0.29,0.18-0.46,0.43-0.46c0.26,0,0.42,0.19,0.42,0.49c0.01,1.3-0.97,2.54-2.27,2.85
		C16.09,11.5,16.02,11.52,15.92,11.54z"/>
	<path class="st0" d="M15,20.7c0.03-1.56,1.41-2.98,2.91-2.99c0.31,0,0.51,0.16,0.52,0.42c0.01,0.25-0.17,0.42-0.47,0.44
		c-1.12,0.08-2.01,1-2.09,2.17c0,0.06,0,0.11-0.01,0.17c-0.04,0.22-0.23,0.37-0.44,0.36c-0.21-0.01-0.38-0.17-0.4-0.38
		C15,20.83,15,20.76,15,20.7z"/>
	<path class="st0" d="M14.88,14.28c1.22,0.09,2.29,0.72,3.02,1.9c0.14,0.22,0.09,0.47-0.1,0.61c-0.2,0.14-0.44,0.08-0.62-0.13
		c-0.26-0.31-0.51-0.64-0.81-0.9c-0.48-0.41-1.07-0.6-1.7-0.61c-0.33-0.01-0.54-0.23-0.53-0.46C14.16,14.41,14.36,14.27,14.88,14.28
		z"/>
</g>
</svg>
