<?xml version="1.0" encoding="utf-8"?>
<!-- Generator: Adobe Illustrator 25.3.1, SVG Export Plug-In . SVG Version: 6.00 Build 0)  -->
<svg version="1.1" id="Layer_1" xmlns="http://www.w3.org/2000/svg" xmlns:xlink="http://www.w3.org/1999/xlink" x="0px" y="0px"
	 viewBox="0 0 24 24" style="enable-background:new 0 0 24 24;" xml:space="preserve">
<style type="text/css">
	.st0{fill-rule:evenodd;clip-rule:evenodd;fill:#005897;}
	.st1{fill-rule:evenodd;clip-rule:evenodd;fill:#5D5E5E;}
	.st2{fill:#005897;}
</style>
<g>
	<path class="st2" d="M11.71,11.52c0,1.82,0.01,3.49-0.01,5.15c0,0.27,0.16,0.34,0.35,0.39c1.69,0.45,2.55,2.82,1.64,4.53
		c-0.83,1.57-3.04,2.29-4.48,1.17c-0.2-0.16-0.3-0.09-0.49,0.02c-1.56,0.94-3.43,0.49-4.36-1.03c-0.91-1.49-0.47-3.61,0.98-4.5
		c0.34-0.21,0.46-0.42,0.45-0.81c-0.02-2.91-0.01-5.81,0-8.72c0-0.34-0.06-0.55-0.4-0.76C3.9,6.05,3.46,3.93,4.38,2.41
		c0.85-1.4,2.92-2.09,4.36-1.01c0.19,0.14,0.3,0.13,0.5,0c1.04-0.73,2.13-0.68,3.2-0.1c0.32,0.17,0.54,0.16,0.87,0.04
		c2.44-0.92,4.68-0.53,6.53,1.32c1.83,1.82,2.29,4.06,1.34,6.46c-0.97,2.43-2.88,3.68-5.48,3.8C14.26,12.98,12.98,12.5,11.71,11.52z
		 M12.06,1.99c-0.99-0.59-1.93-0.52-2.63,0.23c-0.33,0.36-0.58,0.42-0.88,0c-0.25-0.34-0.61-0.5-1-0.58
		C6.39,1.39,5.16,2.13,4.76,3.3c-0.4,1.2,0.09,2.65,1.16,3.11c0.51,0.22,0.63,0.5,0.62,1c-0.02,3.11-0.02,6.21,0,9.32
		c0,0.53-0.13,0.82-0.65,1.06c-0.99,0.45-1.28,1.38-1.25,2.4c0.03,1.03,0.57,1.8,1.5,2.18c0.9,0.37,1.79,0.35,2.48-0.5
		c0.24-0.3,0.49-0.32,0.72,0c0.26,0.36,0.62,0.56,1.04,0.65c1.26,0.29,2.59-0.58,2.91-1.9c0.31-1.3-0.43-2.62-1.7-2.92
		c-0.48-0.11-0.63-0.33-0.62-0.81c0.02-1.8,0-3.6,0.02-5.4c0-0.46-0.09-0.83-0.36-1.23c-1.04-1.5-1.29-3.16-0.84-4.93
		C10.13,3.96,10.95,2.88,12.06,1.99z M11.48,3.62c-1.37,1.66-1.57,3.89-0.56,5.78c0.97,1.82,3.04,2.99,5.01,2.79
		c2.17-0.22,3.76-1.32,4.56-3.36c0.8-2.01,0.44-3.91-1.02-5.49c-1.48-1.61-3.33-2.08-5.46-1.5c-0.44,0.12-0.56,0.16-0.22,0.58
		c0.45,0.55,0.32,1.24-0.22,1.7C12.94,4.67,12.2,4.5,11.48,3.62z M12.85,3.67c0.23-0.09,0.49-0.24,0.45-0.59
		c-0.03-0.3-0.24-0.47-0.56-0.46c-0.32,0.01-0.52,0.21-0.52,0.5C12.21,3.45,12.43,3.65,12.85,3.67z"/>
	<path class="st2" d="M7.69,16.09c0-0.34,0-0.69,0-1.03c0-0.24,0.03-0.46,0.33-0.48c0.3-0.02,0.38,0.19,0.39,0.43
		c0.01,0.73,0.01,1.47,0,2.2c0,0.25-0.13,0.43-0.41,0.4c-0.24-0.02-0.31-0.2-0.31-0.42C7.69,16.83,7.69,16.46,7.69,16.09z"/>
	<path class="st2" d="M8.43,11.18c-0.05,0.32,0.1,0.76-0.39,0.77c-0.45,0.01-0.36-0.4-0.34-0.67c0.02-0.3-0.19-0.8,0.35-0.81
		C8.52,10.46,8.36,10.93,8.43,11.18z"/>
	<path class="st2" d="M8.42,13.3c-0.01,0.26-0.04,0.55-0.35,0.55c-0.44,0-0.37-0.36-0.38-0.65c-0.01-0.26,0.04-0.53,0.37-0.51
		C8.42,12.71,8.4,13.03,8.42,13.3z"/>
	<path class="st2" d="M15.84,8.67c-0.33-0.21-0.39,0.06-0.51,0.32c-0.46,0.98-1.47,1.36-2.38,0.93c-0.86-0.4-1.26-1.43-0.89-2.3
		c0.38-0.9,1.39-1.32,2.33-0.92c0.34,0.14,0.47,0.09,0.7-0.18c0.46-0.54,1.1-0.61,1.65-0.25c0.53,0.35,0.71,0.86,0.55,1.47
		C17.15,8.35,16.56,8.71,15.84,8.67z M13.65,7.31c-0.54,0.02-0.97,0.48-0.97,1.01c0.01,0.56,0.5,1.03,1.06,1.01
		c0.54-0.02,0.95-0.46,0.95-1.02C14.69,7.73,14.23,7.29,13.65,7.31z M16.59,7.41c0-0.39-0.23-0.57-0.56-0.56
		c-0.3,0-0.5,0.2-0.5,0.53c0,0.31,0.17,0.52,0.48,0.54C16.36,7.94,16.56,7.74,16.59,7.41z"/>
	<path class="st2" d="M19.25,7.67c-0.03,0.27-0.03,0.57-0.39,0.59c-0.35,0.02-0.36-0.24-0.34-0.51c0.02-0.29,0-0.64,0.41-0.63
		C19.21,7.12,19.28,7.39,19.25,7.67z"/>
	<path class="st2" d="M18.31,5.35c0.36,0.13,0.55,0.42,0.58,0.76c0.02,0.2-0.16,0.39-0.39,0.33c-0.34-0.09-0.48-0.41-0.55-0.71
		C17.9,5.5,18.11,5.4,18.31,5.35z"/>
	<path class="st2" d="M18.64,9.21c-0.14,0.31-0.32,0.6-0.69,0.66c-0.2,0.03-0.35-0.11-0.33-0.3c0.03-0.38,0.29-0.62,0.62-0.72
		C18.46,8.79,18.58,8.99,18.64,9.21z"/>
	<path class="st2" d="M16.4,10.6c-0.29,0.02-0.52-0.08-0.51-0.34c0.03-0.45,0.42-0.38,0.72-0.41c0.25-0.02,0.47,0.07,0.42,0.35
		C16.98,10.59,16.64,10.57,16.4,10.6z"/>
	<path class="st2" d="M15.04,5.18c-0.3,0.02-0.51-0.1-0.47-0.36c0.05-0.35,0.37-0.4,0.66-0.45c0.25-0.04,0.47,0.04,0.46,0.31
		C15.68,5.1,15.27,5.07,15.04,5.18z"/>
	<path class="st2" d="M17.53,4.81c-0.01,0.26-0.14,0.4-0.37,0.36c-0.3-0.05-0.67-0.06-0.73-0.47c-0.04-0.25,0.15-0.37,0.37-0.34
		C17.1,4.4,17.44,4.41,17.53,4.81z"/>
</g>
</svg>
