<svg id="Layer_1" data-name="Layer 1" xmlns="http://www.w3.org/2000/svg" viewBox="0 0 25 25"><defs><style>.cls-1{fill:#fff;}.cls-2{fill:#005897;}</style></defs><circle class="cls-1" cx="12.5" cy="12.5" r="12"/><path class="cls-2" d="M12.5,1A11.5,11.5,0,1,1,1,12.5,11.51,11.51,0,0,1,12.5,1m0-1A12.5,12.5,0,1,0,25,12.5,12.5,12.5,0,0,0,12.5,0Z"/><path class="cls-2" d="M18.33,10.64v.77c0,2.23,0,4.45,0,6.67,0,.55-.15.76-.73.75q-5.1,0-10.21,0c-.57,0-.73-.2-.72-.75,0-2.22,0-4.45,0-6.67v-.77c-.61,0-1.14,0-1.66,0a3.35,3.35,0,0,1-.75-.21,2.44,2.44,0,0,1,.46-.62c2.19-1.6,4.4-3.18,6.61-4.75,1.36-1,.92-1,2.31,0Q17,7.42,20.28,9.8a2.9,2.9,0,0,1,.45.62,4.11,4.11,0,0,1-.74.21C19.48,10.66,19,10.64,18.33,10.64ZM5.78,9.85l0,.14h.57c1,0,1,0,1,1v7.2H17.67v-.72c0-2.23,0-4.45,0-6.68,0-.58.19-.83.78-.76.26,0,.52,0,.77,0C17.5,8.6,15.76,7.35,14,6.11c-.5-.36-1-1-1.53-1s-1,.61-1.53,1Z"/><path class="cls-2" d="M11.36,14l-.42,0c-.44,0-1.19,0-1.25-.15a4.84,4.84,0,0,1-.11-1.75c0-.12.28-.3.44-.31a11.72,11.72,0,0,1,1.34,0V10.49c0-.85.66-.59,1.07-.57s1.17-.38,1.22.55c0,.41,0,.81,0,1.29H15c.35,0,.51.15.49.5,0,0,0,0,0,.06-.06.54.07,1.26-.22,1.56s-1,.12-1.59.15v.91c0,.11,0,.21,0,.32,0,.71-.5.64-.88.56s-1.29.47-1.41-.54A10.48,10.48,0,0,1,11.36,14ZM12,10.59c0,.48,0,.88,0,1.29s-.15.54-.53.53H10.23v.92l.41,0c1.32,0,1.33,0,1.37,1.36,0,.41.15.51.53.51s.49-.15.46-.5,0-.51,0-.77c0-.45.15-.62.59-.6s.8,0,1.19,0v-.95H13.53c-.38,0-.55-.14-.53-.53s0-.83,0-1.29Z"/></svg>