<?xml version="1.0" encoding="utf-8"?>
<!-- Generator: Adobe Illustrator 25.3.1, SVG Export Plug-In . SVG Version: 6.00 Build 0)  -->
<svg version="1.1" id="Layer_1" xmlns="http://www.w3.org/2000/svg" xmlns:xlink="http://www.w3.org/1999/xlink" x="0px" y="0px"
	 viewBox="0 0 24 24" style="enable-background:new 0 0 24 24;" xml:space="preserve">
<style type="text/css">
	.st0{fill-rule:evenodd;clip-rule:evenodd;fill:#005897;}
	.st1{fill-rule:evenodd;clip-rule:evenodd;fill:#5D5E5E;}
	.st2{fill:#005897;}
</style>
<g>
	<path class="st0" d="M0.37,8.75C0.44,8.28,0.5,7.81,0.6,7.35c0.44-1.88,1.34-3.51,2.82-4.76C5.49,0.86,8.63,1.96,9.2,4.46
		c0.16,0.69,0.1,1.37-0.18,2.02c-0.04,0.1-0.07,0.18,0.04,0.27c0.73,0.61,1.11,1.42,1.24,2.35c0.13,0.9,0.28,1.79,0.37,2.69
		c0.09,0.93,0.15,1.86,0.16,2.79c0.02,2.35,0.01,4.71,0.01,7.06c0,0.09,0,0.18,0,0.27c-0.27,0-0.51,0-0.79,0c0-0.1,0-0.19,0-0.29
		c0-2.57,0.03-5.13-0.02-7.7c-0.02-1.18-0.2-2.36-0.33-3.54C9.66,9.95,9.57,9.51,9.5,9.07C9.4,8.38,9.08,7.8,8.56,7.33
		c-1.42,1.11-1.43,2.88-0.43,3.93c0.5,0.53,0.92,1.09,1.07,1.81c0.06,0.28,0.09,0.57,0.09,0.85c0.01,2.59,0,5.18,0,7.77
		c0,0.07-0.01,0.13-0.01,0.22c-0.26,0-0.5,0-0.76,0c0-1.96,0-3.91,0-5.9c-0.07,0.05-0.11,0.08-0.14,0.11
		c-1.4,1.47-3.69,1.53-5.16,0.14c-1.51-1.44-2.41-3.2-2.75-5.25c-0.04-0.24-0.07-0.48-0.1-0.72C0.37,9.78,0.37,9.27,0.37,8.75z
		 M7.06,7.83c0.3-0.35,0.59-0.68,0.86-1.01c0.53-0.66,0.72-1.41,0.51-2.24c-0.49-1.95-2.98-2.73-4.51-1.4
		C2.95,4.02,2.25,5.06,1.77,6.24C1.4,7.15,1.21,8.1,1.16,9.08c-0.05,1.12,0.09,2.2,0.45,3.26c0.42,1.21,1.09,2.27,1.98,3.19
		c0.78,0.8,1.72,1.1,2.81,0.85c1.9-0.43,2.72-2.66,1.54-4.16c-0.28-0.35-0.59-0.69-0.89-1.04C6.39,11.47,5.98,12,5.77,12.71
		c-0.26-0.07-0.5-0.13-0.75-0.19c0.27-0.98,0.86-1.65,1.76-2.07C6.6,9.82,6.6,9.2,6.78,8.57c-0.9-0.43-1.5-1.09-1.76-2.07
		C5.29,6.43,5.53,6.36,5.78,6.3C5.99,7.01,6.41,7.53,7.06,7.83z"/>
	<path class="st0" d="M23.63,10.3c-0.06,0.39-0.11,0.78-0.19,1.16c-0.4,1.9-1.29,3.53-2.71,4.85c-1.48,1.37-3.72,1.27-5.11-0.18
		c-0.03-0.03-0.04-0.08-0.06-0.12c-0.02,0.01-0.04,0.03-0.06,0.04c0,1.95,0,3.9,0,5.86c-0.26,0-0.51,0-0.78,0
		c0-0.07-0.01-0.15-0.01-0.23c0-2.57,0-5.13,0-7.7c0-1,0.33-1.84,1.03-2.55c1.09-1.11,1.1-2.6,0.05-3.74
		c-0.1-0.11-0.2-0.22-0.32-0.35c-0.31,0.23-0.51,0.53-0.69,0.86c-0.25,0.45-0.3,0.95-0.37,1.44c-0.14,0.99-0.29,1.98-0.39,2.97
		c-0.06,0.64-0.07,1.28-0.07,1.93c-0.01,2.37,0,4.74,0,7.11c0,0.09,0,0.18,0,0.28c-0.27,0-0.51,0-0.78,0c0-0.08-0.01-0.15-0.01-0.22
		c0.01-2.7-0.02-5.41,0.04-8.11c0.03-1.23,0.23-2.45,0.38-3.67c0.06-0.51,0.15-1.02,0.28-1.51c0.17-0.64,0.54-1.18,1.04-1.62
		c0.09-0.08,0.15-0.14,0.09-0.28c-0.83-1.96,0.31-4.17,2.49-4.65c1.47-0.32,2.67,0.18,3.67,1.26c1.28,1.39,2.08,3.01,2.39,4.88
		c0.04,0.25,0.07,0.5,0.1,0.76C23.63,9.27,23.63,9.78,23.63,10.3z M16.94,11.21c-0.29,0.33-0.56,0.64-0.82,0.95
		c-0.63,0.77-0.8,1.63-0.46,2.57c0.66,1.81,3.04,2.35,4.52,1.03c0.69-0.62,1.25-1.36,1.68-2.18c0.59-1.13,0.92-2.32,0.98-3.6
		c0.05-1.17-0.1-2.3-0.5-3.41c-0.42-1.17-1.09-2.18-1.96-3.08c-0.75-0.76-1.63-1.07-2.68-0.88c-1.92,0.34-2.86,2.54-1.73,4.1
		c0.29,0.39,0.63,0.75,0.95,1.13c0.66-0.29,1.07-0.82,1.29-1.53c0.26,0.06,0.5,0.12,0.77,0.18c-0.26,0.98-0.86,1.65-1.73,2.06
		c0.04,0.33,0.1,0.64,0.1,0.94c0,0.31-0.06,0.63-0.1,0.96c0.88,0.41,1.47,1.08,1.73,2.06c-0.28,0.07-0.52,0.14-0.77,0.2
		C18.01,12.01,17.59,11.5,16.94,11.21z"/>
</g>
</svg>
