<?xml version="1.0" encoding="utf-8"?>
<!-- Generator: Adobe Illustrator 25.3.1, SVG Export Plug-In . SVG Version: 6.00 Build 0)  -->
<svg version="1.1" id="Layer_1" xmlns="http://www.w3.org/2000/svg" xmlns:xlink="http://www.w3.org/1999/xlink" x="0px" y="0px"
	 viewBox="0 0 24 24" style="enable-background:new 0 0 24 24;" xml:space="preserve">
<style type="text/css">
	.st0{fill-rule:evenodd;clip-rule:evenodd;fill:#005897;}
	.st1{fill-rule:evenodd;clip-rule:evenodd;fill:#5D5E5E;}
	.st2{fill:#005897;}
</style>
<path class="st0" d="M11.98,18c-1.41,1.79-2.73,3.4-3.97,5.06c-0.69,0.92-1.26,1.01-2.07,0.11c-1.06-1.17-2.2-2.27-3.35-3.35
	c-0.73-0.68-0.72-1.12,0.13-1.74c1.71-1.24,3.32-2.63,5.01-3.91c0.82-0.62,0.75-1.14,0.22-1.95c-1.03-1.56-2-3.17-2.82-4.84
	C3.92,4.92,4.49,3.15,6.8,1.65c3.06-1.99,7.63-1.92,10.62,0.16c2.03,1.42,2.59,3.06,1.53,5.28c-1.02,2.13-2.26,4.14-3.55,6.47
	c1.81,1.42,3.7,2.96,5.64,4.43c1.13,0.86,1.19,0.96,0.18,1.97c-1.08,1.09-2.21,2.14-3.25,3.27c-0.78,0.85-1.31,0.73-1.97-0.13
	C14.73,21.41,13.39,19.78,11.98,18z M9.35,12.56c0.49-0.56,0.7-0.87,0.97-1.11c0.84-0.77,0.91-1.48,0.15-2.43
	C9.7,8.06,9.18,6.9,8.52,5.84C8.13,5.21,8.28,4.81,8.85,4.38c1.81-1.38,4.48-1.38,6.27,0c0.57,0.44,0.72,0.89,0.3,1.48
	c-1.97,2.76-3.77,5.67-5.97,8.24c-1.62,1.89-3.76,3.34-5.59,4.92c1.03,1.04,2.08,2.12,3.18,3.23c0.31-0.37,0.65-0.73,0.95-1.13
	c2.47-3.34,4.98-6.65,7.36-10.05c1.02-1.45,1.81-3.08,2.61-4.67c0.59-1.17,0.31-2.25-0.66-3.16C14.65,0.79,9.13,0.83,6.6,3.34
	C5.88,4.06,5.39,4.92,5.88,5.92C6.95,8.09,8.12,10.23,9.35,12.56z M14.58,14.44c-0.51,0.71-1.02,1.36-1.45,2.05
	c-0.13,0.22-0.16,0.67-0.02,0.86c1.25,1.68,2.55,3.33,3.8,4.92c1.19-1.13,2.27-2.14,3.36-3.18C18.39,17.55,16.57,16.06,14.58,14.44z
	 M14.29,5.43c-1.57-1.18-3.11-1.16-4.6,0.01c0.73,1.2,1.46,2.4,2.3,3.78C12.84,7.82,13.54,6.66,14.29,5.43z"/>
</svg>
