<?xml version="1.0" encoding="utf-8"?>
<!-- Generator: Adobe Illustrator 25.3.1, SVG Export Plug-In . SVG Version: 6.00 Build 0)  -->
<svg version="1.1" id="Layer_1" xmlns="http://www.w3.org/2000/svg" xmlns:xlink="http://www.w3.org/1999/xlink" x="0px" y="0px"
	 viewBox="0 0 24 24" style="enable-background:new 0 0 24 24;" xml:space="preserve">
<style type="text/css">
	.st0{fill-rule:evenodd;clip-rule:evenodd;fill:#005897;}
	.st1{fill-rule:evenodd;clip-rule:evenodd;fill:#5D5E5E;}
	.st2{fill:#005897;}
</style>
<path class="st0" d="M9.35,1.29C9.9,1,10.44,0.53,11.01,0.47c0.44-0.05,0.94,0.42,1.46,0.68c0.49,0.07,1.11,0.08,1.7,0.25
	c0.72,0.21,0.84,0.69,0.58,1.42c-0.39,1.07-0.1,1.29,1,1.69c0.55,0.2,1.18,0.81,1.3,1.35c0.13,0.57-0.29,1.27-0.54,2.17
	c2.15,1.4,3.29,3.9,3.71,6.67c0.28,1.88,0.25,3.83,0.11,5.74c-0.09,1.25-1.02,2.18-2.28,2.42c-4.4,0.82-8.58,0.43-11.97-2.87
	c-2.2-2.13-2.85-4.79-2.38-7.82c0.19-1.24,0.06-2.55-0.07-3.81c-0.15-1.5,0.3-2.28,1.75-2.67c0.94-0.25,1.71-1.32,1.29-2.14
	C6.08,2.32,6.98,1.87,7.58,1.28c0.67-0.67,1.14,0.15,1.7,0.33c0.04,0.01,0.07,0.01,0.11,0.02C9.38,1.51,9.36,1.4,9.35,1.29z
	 M6.6,9.08c-0.42,0.52-0.77,0.86-1,1.26c-1.71,2.95-1.09,6.74,1.53,9.13c2.88,2.62,6.4,2.92,10.03,2.46c1.6-0.2,2.23-1.1,2.34-2.74
	c0.16-2.42-0.15-4.81-1.19-6.99c-0.57-1.18-1.58-2.16-2.48-3.16c-0.14-0.16-0.88-0.06-1.08,0.16c-1.01,1.11-1.47,2.36-0.66,3.84
	c0.13,0.24-0.04,0.65-0.07,0.97c-0.3-0.17-0.73-0.25-0.89-0.51c-0.87-1.4-0.75-2.87,0.14-4.17c0.65-0.96,1.58-1.73,2.34-2.61
	c0.19-0.21,0.23-0.54,0.34-0.82c-0.3-0.09-0.64-0.33-0.88-0.25c-0.64,0.22-1.28,0.49-1.83,0.88C11.17,8,9.48,9.79,8.66,12.29
	c-0.08,0.25-0.44,0.4-0.67,0.6c-0.13-0.2-0.43-0.46-0.38-0.59C8.05,11.02,6.9,10.32,6.6,9.08z M8.13,9.85
	c1.89-1.8,3.7-3.53,5.4-5.15c0-0.79,0-1.57,0-2.38c-0.58,0.31-1.25,0.91-1.56,0.76c-0.46-0.22-0.68-0.97-1.06-1.6
	c-0.17,0.35-0.33,0.6-0.41,0.88C10.24,3.3,9.73,3.38,9.01,2.81C8.89,2.72,8.76,2.62,8.62,2.58C8.39,2.52,8.07,2.41,7.94,2.52
	C7.81,2.63,7.85,2.96,7.83,3.2C7.8,3.65,7.87,4.14,7.74,4.56C7.17,6.43,7.36,8.21,8.13,9.85z M5,8.99c1.46-1.17,1.46-1.17,1.1-2.22
	C4.61,6.95,4.45,7.26,5,8.99z"/>
</svg>
