<svg id="Layer_1" data-name="Layer 1" xmlns="http://www.w3.org/2000/svg" viewBox="0 0 25 25"><defs><style>.cls-1{fill:#fff;}.cls-2,.cls-3{fill:#005897;}.cls-3{stroke:#005897;stroke-miterlimit:10;stroke-width:0.3px;}</style></defs><circle class="cls-1" cx="12.5" cy="12.5" r="12"/><path class="cls-2" d="M12.5,1A11.5,11.5,0,1,1,1,12.5,11.51,11.51,0,0,1,12.5,1m0-1A12.5,12.5,0,1,0,25,12.5,12.5,12.5,0,0,0,12.5,0Z"/><path class="cls-3" d="M11.14,11.69,4.89,7.78c.57-.88,1-1,1.85-.81,2.18.58,4.37,1.15,6.54,1.76a.81.81,0,0,0,.94-.28A14.36,14.36,0,0,1,16,6.62a4.73,4.73,0,0,1,1.74-1,.83.83,0,0,1,1.08,1.06,4.45,4.45,0,0,1-.91,1.7A16.61,16.61,0,0,1,16,10.25a.77.77,0,0,0-.25.89c.6,2.18,1.18,4.36,1.76,6.54.24.9.1,1.26-.8,1.87L12.74,13.3c-.71.67-1.35,1.37-2.08,1.93a1.83,1.83,0,0,0-.81,2.33,5.54,5.54,0,0,1,.23,1.29,1.07,1.07,0,0,1-.07.57c-.44.76-.66.75-1.13,0-.36-.59-.74-1.17-1.12-1.78a7,7,0,0,1-.88.47,1.81,1.81,0,0,1-.62,0,2.13,2.13,0,0,1,0-.57,8.17,8.17,0,0,1,.49-.89c-.62-.39-1.24-.75-1.82-1.16a1.73,1.73,0,0,1-.49-.59c.26-.3.51-.69,1-.59.77.14,1.53.28,2.31.38a.78.78,0,0,0,.62-.16C9.33,13.65,10.2,12.7,11.14,11.69Zm5.61,7.16a.77.77,0,0,0,.33-1C16.44,15.6,15.83,13.3,15.2,11a.77.77,0,0,1,.25-.89A27,27,0,0,0,17.5,8.17a4.55,4.55,0,0,0,.84-1.36.53.53,0,0,0-.71-.71,4.6,4.6,0,0,0-1.36.83,25.68,25.68,0,0,0-1.9,2,.84.84,0,0,1-1,.27C11.1,8.58,8.82,8,6.55,7.36a.72.72,0,0,0-1,.32c.18.12.35.24.54.35,1.73,1.08,3.46,2.18,5.2,3.24.42.25.42.45.1.78-.94,1-1.86,2-2.82,3A.85.85,0,0,1,8,15.2c-.76-.09-1.5-.26-2.25-.37a2.61,2.61,0,0,0-.62.06A10.23,10.23,0,0,0,7,16.23c.4.23.54.44.17.82a4.71,4.71,0,0,0-.38.57,1,1,0,0,0,.5-.2c.63-.44.63-.45,1.06.22S9,18.8,9.41,19.38l.16,0a3.2,3.2,0,0,0,0-.61c-.12-.77-.28-1.54-.39-2.31a.68.68,0,0,1,.12-.53c1-1,2.1-2,3.15-3,.25-.23.43-.23.62.09.36.62.75,1.22,1.14,1.83Q15.49,16.84,16.75,18.85Z"/></svg>