<?xml version="1.0" encoding="utf-8"?>
<!-- Generator: Adobe Illustrator 25.3.1, SVG Export Plug-In . SVG Version: 6.00 Build 0)  -->
<svg version="1.1" id="Layer_1" xmlns="http://www.w3.org/2000/svg" xmlns:xlink="http://www.w3.org/1999/xlink" x="0px" y="0px"
	 viewBox="0 0 24 24" style="enable-background:new 0 0 24 24;" xml:space="preserve">
<style type="text/css">
	.st0{fill-rule:evenodd;clip-rule:evenodd;fill:#005897;}
	.st1{fill-rule:evenodd;clip-rule:evenodd;fill:#5D5E5E;}
	.st2{fill:#005897;}
</style>
<g>
	<path class="st2" d="M12.04,11.08c0.25-0.53,0.66-0.84,1.17-1.05c0.59-0.25,1.19-0.45,1.82-0.57c0.53-0.1,1.06-0.13,1.6-0.09
		c0.85,0.06,1.65,0.29,2.41,0.68c0.78,0.4,1.46,0.94,2.02,1.62c0.56,0.67,0.97,1.42,1.22,2.26c0.23,0.76,0.31,1.53,0.25,2.32
		c-0.02,0.27-0.07,0.54-0.12,0.82c-0.14,0.78-0.44,1.49-0.86,2.16c-0.34,0.55-0.76,1.03-1.25,1.44c-0.8,0.68-1.7,1.14-2.73,1.37
		c-0.52,0.12-1.05,0.18-1.58,0.16c-1.04-0.02-2.02-0.28-2.93-0.77c-0.72-0.39-1.35-0.9-1.88-1.53c-0.68-0.82-1.13-1.74-1.36-2.78
		c-0.11-0.53-0.16-1.07-0.13-1.62c0.03-0.42,0.13-0.84,0.23-1.25c0.18-0.73,0.51-1.39,0.96-1.98c0.1-0.13,0.1-0.13-0.02-0.25
		c-0.21-0.21-0.42-0.42-0.63-0.63c-0.04-0.04-0.08-0.06-0.14-0.06c-0.47-0.02-0.94-0.04-1.4-0.06c-0.09,0-0.15-0.05-0.21-0.11
		c-0.92-0.92-1.85-1.85-2.77-2.77C4.61,7.28,3.5,6.17,2.39,5.07c-0.19-0.19-0.19-0.35,0-0.54c0.24-0.24,0.48-0.48,0.72-0.72
		c0.05-0.05,0.05-0.08,0-0.13C2.97,3.54,2.83,3.41,2.7,3.27c-0.04-0.05-0.07-0.05-0.12,0C2.42,3.43,2.26,3.59,2.1,3.75
		C2,3.85,1.89,3.88,1.76,3.83C1.63,3.79,1.55,3.7,1.54,3.56C1.53,3.46,1.56,3.37,1.63,3.3c0.49-0.49,0.99-0.99,1.48-1.48
		c0.14-0.14,0.34-0.14,0.47,0c0.13,0.13,0.12,0.32-0.02,0.47C3.42,2.43,3.28,2.57,3.14,2.71c-0.03,0.03-0.04,0.05,0,0.09
		c0.15,0.14,0.29,0.28,0.43,0.42c0.05,0.05,0.07,0.05,0.13,0c0.24-0.25,0.48-0.49,0.73-0.73c0.17-0.17,0.34-0.17,0.51,0
		c2.04,2.04,4.07,4.08,6.11,6.11c0.08,0.08,0.11,0.16,0.11,0.27c0.01,0.44,0.04,0.88,0.05,1.33c0,0.03,0.01,0.05,0.03,0.08
		C11.51,10.54,11.77,10.81,12.04,11.08z M16.11,10c-0.23,0.01-0.5,0.03-0.76,0.07c-0.73,0.11-1.42,0.34-2.09,0.65
		c-0.34,0.16-0.58,0.43-0.69,0.79c-0.02,0.06-0.01,0.09,0.04,0.13c0.13,0.11,0.21,0.24,0.22,0.42c0.01,0.37,0.03,0.75,0.04,1.12
		c0.01,0.17-0.07,0.28-0.2,0.34c-0.14,0.06-0.26,0.03-0.38-0.09c-0.25-0.25-0.51-0.51-0.76-0.77c-0.05-0.05-0.07-0.04-0.11,0.01
		c-0.36,0.47-0.64,1-0.8,1.57c-0.17,0.63-0.32,1.26-0.26,1.93c0.04,0.4,0.09,0.8,0.21,1.19c0.41,1.4,1.23,2.49,2.45,3.29
		c0.79,0.51,1.66,0.8,2.59,0.89c0.38,0.04,0.77,0.03,1.15-0.01c0.37-0.04,0.74-0.11,1.09-0.22c1.11-0.35,2.03-0.98,2.77-1.88
		c0.6-0.73,0.99-1.57,1.18-2.49c0.17-0.8,0.16-1.6-0.02-2.39c-0.31-1.36-1.01-2.47-2.11-3.33C18.63,10.41,17.45,10.02,16.11,10z
		 M12.18,12.41c-0.01-0.07-0.02-0.12-0.01-0.16c0.01-0.1-0.03-0.16-0.1-0.23c-0.27-0.26-0.52-0.53-0.79-0.79
		c-0.19-0.19-0.37-0.4-0.59-0.56c-0.07-0.05-0.11-0.13-0.11-0.21c-0.02-0.46-0.04-0.92-0.06-1.38c0-0.05-0.02-0.09-0.05-0.12
		C9.9,8.39,9.34,7.82,8.78,7.26C7.8,6.28,6.83,5.3,5.85,4.33C5.48,3.96,5.1,3.59,4.73,3.21c-0.05-0.05-0.08-0.05-0.13,0
		C4.47,3.36,4.33,3.49,4.19,3.63C3.82,4,3.45,4.37,3.08,4.74c-0.04,0.04-0.04,0.06,0,0.1C3.24,5,3.41,5.16,3.56,5.32
		c0.04,0.05,0.07,0.04,0.11,0c0.19-0.2,0.39-0.39,0.58-0.58c0.08-0.08,0.17-0.11,0.28-0.09c0.13,0.02,0.22,0.1,0.26,0.22
		C4.83,5,4.79,5.11,4.7,5.2C4.51,5.4,4.32,5.59,4.12,5.78c-0.05,0.04-0.04,0.06,0,0.1C4.34,6.1,4.57,6.32,4.78,6.54
		c0.04,0.04,0.05,0.04,0.09,0c0.09-0.09,0.18-0.18,0.27-0.27c0.14-0.14,0.34-0.15,0.47-0.02c0.13,0.13,0.13,0.33-0.01,0.48
		C5.52,6.82,5.43,6.91,5.34,7c-0.04,0.04-0.04,0.06,0,0.09C5.56,7.31,5.78,7.53,6,7.75C6.04,7.8,6.06,7.78,6.1,7.75
		c0.19-0.19,0.38-0.39,0.57-0.57C6.8,7.05,6.98,7.04,7.11,7.14c0.16,0.13,0.17,0.34,0.02,0.49C6.93,7.84,6.72,8.05,6.5,8.26
		c0.25,0.24,0.48,0.48,0.72,0.71c0.03,0.03,0.05,0.04,0.09,0c0.1-0.11,0.21-0.22,0.32-0.31C7.76,8.55,7.95,8.57,8.07,8.7
		c0.11,0.13,0.11,0.31-0.02,0.44c-0.1,0.1-0.19,0.2-0.29,0.29C7.73,9.46,7.72,9.48,7.76,9.51C8,9.75,8.24,9.99,8.48,10.23
		c0.21-0.21,0.42-0.42,0.63-0.62c0.14-0.14,0.34-0.14,0.47,0c0.13,0.13,0.12,0.32-0.02,0.47c-0.11,0.11-0.23,0.23-0.35,0.34
		c-0.07,0.07-0.14,0.14-0.22,0.22c0.47,0.02,0.93,0.04,1.38,0.06c0.1,0,0.18,0.05,0.24,0.13c0.03,0.05,0.07,0.09,0.11,0.13
		c0.17,0.17,0.34,0.34,0.5,0.5C11.55,11.77,11.86,12.09,12.18,12.41z"/>
	<path class="st2" d="M16.07,19.69c0-0.02-0.01-0.08,0.01-0.13c0.02-0.04-0.02-0.06-0.04-0.08c-0.19-0.17-0.51-0.18-0.71-0.02
		c-0.26,0.2-0.54,0.3-0.87,0.3c-0.52-0.01-1.06-0.46-1.14-0.97c-0.04-0.26-0.15-0.45-0.39-0.58c-0.29-0.16-0.56-0.34-0.84-0.51
		c-0.16-0.1-0.22-0.28-0.13-0.44c0.09-0.16,0.29-0.21,0.45-0.12c0.33,0.2,0.67,0.39,1,0.61c0.32,0.21,0.48,0.51,0.54,0.88
		c0.07,0.44,0.57,0.63,0.92,0.37c0.24-0.18,0.5-0.29,0.81-0.29c0.28,0,0.53,0.09,0.75,0.26c0.05,0.04,0.09,0.04,0.15,0.02
		c0.39-0.15,0.75-0.07,1.1,0.12c0.35,0.2,0.62,0.47,0.72,0.88c0.11,0.46-0.15,0.91-0.67,1c-0.65,0.11-1.34-0.3-1.59-0.91
		C16.09,19.95,16.06,19.84,16.07,19.69z M16.97,19.55c-0.23,0-0.31,0.1-0.23,0.29c0.12,0.29,0.54,0.53,0.84,0.49
		c0.16-0.02,0.22-0.12,0.15-0.28C17.63,19.79,17.28,19.56,16.97,19.55z"/>
	<path class="st2" d="M12.48,15.51c0.13,0,0.26,0.01,0.38,0c0.44-0.02,0.8,0.14,1.09,0.48c0.18,0.21,0.43,0.26,0.67,0.16
		c0.15-0.07,0.26-0.18,0.32-0.34c0.17-0.45,0.49-0.71,0.96-0.8c0.12-0.02,0.25-0.02,0.37,0c0.04,0,0.07,0,0.09-0.04
		c0.32-0.41,0.76-0.52,1.25-0.49c0.27,0.02,0.51,0.11,0.73,0.27c0.48,0.36,0.47,1.01-0.01,1.36c-0.35,0.25-0.74,0.32-1.16,0.24
		c-0.28-0.05-0.52-0.16-0.72-0.37c-0.07-0.08-0.13-0.17-0.17-0.27c-0.02-0.04-0.04-0.05-0.08-0.06c-0.27-0.05-0.53,0.1-0.64,0.37
		c-0.08,0.21-0.2,0.39-0.37,0.53c-0.41,0.36-1.08,0.39-1.52,0.06c-0.09-0.07-0.17-0.14-0.24-0.23c-0.13-0.15-0.29-0.22-0.48-0.22
		c-0.36,0-0.72,0-1.08,0c-0.17,0-0.29-0.12-0.32-0.29c-0.02-0.13,0.08-0.28,0.22-0.33c0.05-0.02,0.09-0.02,0.14-0.02
		C12.09,15.51,12.29,15.51,12.48,15.51z M17.5,15.73c0.15,0.01,0.31-0.04,0.46-0.16c0.11-0.09,0.11-0.18,0.01-0.28
		c-0.11-0.1-0.24-0.15-0.39-0.16c-0.23-0.03-0.46,0-0.64,0.16c-0.12,0.1-0.11,0.19,0,0.28C17.1,15.7,17.28,15.73,17.5,15.73z"/>
	<path class="st2" d="M16.97,12.57c-0.14,0.01-0.28-0.01-0.42-0.08c-0.04-0.02-0.07-0.02-0.11,0.01c-0.26,0.21-0.56,0.3-0.89,0.27
		c-0.24-0.02-0.46-0.12-0.65-0.26c-0.3-0.23-0.63-0.18-0.86,0.11c-0.12,0.15-0.32,0.18-0.46,0.07c-0.14-0.11-0.17-0.31-0.05-0.47
		c0.41-0.56,1.2-0.68,1.75-0.25c0.26,0.21,0.57,0.17,0.76,0.02c0.04-0.03,0.05-0.06,0.04-0.12c-0.03-0.36,0.09-0.65,0.36-0.9
		c0.14-0.13,0.28-0.27,0.46-0.35c0.3-0.13,0.6-0.2,0.93-0.11c0.47,0.13,0.73,0.62,0.53,1.11c-0.21,0.51-0.61,0.79-1.13,0.91
		c-0.04,0.01-0.08,0.02-0.12,0.02C17.05,12.58,17.01,12.57,16.97,12.57z M16.96,11.94c0.31-0.03,0.56-0.16,0.73-0.42
		c0.06-0.09,0.12-0.19,0.05-0.29c-0.07-0.09-0.18-0.09-0.29-0.08c-0.01,0-0.01,0-0.02,0c-0.16,0.02-0.31,0.08-0.44,0.18
		c-0.13,0.1-0.25,0.22-0.27,0.4c-0.01,0.1,0.02,0.15,0.12,0.18C16.88,11.93,16.92,11.93,16.96,11.94z"/>
</g>
</svg>
