<svg id="Layer_1" data-name="Layer 1" xmlns="http://www.w3.org/2000/svg" viewBox="0 0 25 25"><defs><style>.cls-1{fill:#fff;}.cls-2{fill:#005897;}</style></defs><circle class="cls-1" cx="12.5" cy="12.5" r="12"/><path class="cls-2" d="M12.5,1A11.5,11.5,0,1,1,1,12.5,11.51,11.51,0,0,1,12.5,1m0-1A12.5,12.5,0,1,0,25,12.5,12.5,12.5,0,0,0,12.5,0Z"/><path class="cls-2" d="M7.1,12.54V5.73a1.54,1.54,0,0,1,.34-1.05,1.44,1.44,0,0,1,1.18-.52h8.89a1.43,1.43,0,0,1,1.24.63,1.48,1.48,0,0,1,.26.86V19.31a1.54,1.54,0,0,1-.34,1,1.48,1.48,0,0,1-1.06.52c-.11,0-.23,0-.34,0H8.67a1.56,1.56,0,0,1-1-.34,1.42,1.42,0,0,1-.52-1.09V12.54Zm.63,0v6.82a1.13,1.13,0,0,0,.11.48.8.8,0,0,0,.79.42H17.4a.92.92,0,0,0,1-1c0-.39,0-.77,0-1.16V5.89a2.81,2.81,0,0,0,0-.29.79.79,0,0,0-.56-.77,1.21,1.21,0,0,0-.38-.06H8.58a.83.83,0,0,0-.85,1Z"/><path class="cls-2" d="M13.06,7.62a3.26,3.26,0,1,1-3.25,3.3A3.27,3.27,0,0,1,13.06,7.62Zm-1,3.07H14a.75.75,0,0,0,0-.15c0-.22,0-.44-.06-.66a3.7,3.7,0,0,0-.35-1.23c-.21-.41-.14-.36-.63-.38a.45.45,0,0,0-.45.3,4,4,0,0,0-.37,1.21C12.13,10.08,12.11,10.38,12.08,10.69ZM14,11H12.33c-.25,0-.25,0-.24.26h0a5,5,0,0,0,.41,1.83.51.51,0,0,0,.47.34.55.55,0,0,0,.6-.3A5.37,5.37,0,0,0,14,11Zm1.59-.35a2.43,2.43,0,0,0-1.7-2.25,8.31,8.31,0,0,1,.44,2.25ZM12.23,8.44l-.14,0a2.41,2.41,0,0,0-1.2,1,2.07,2.07,0,0,0-.4,1.14c0,.11,0,.13.13.13h1c.09,0,.12,0,.13-.13A5.59,5.59,0,0,1,12,9,5.92,5.92,0,0,1,12.23,8.44Zm-1.74,2.61a1.36,1.36,0,0,0,0,.29,2.71,2.71,0,0,0,1.31,1.83.71.71,0,0,0,.41.12.49.49,0,0,1,0-.11c-.07-.22-.17-.44-.22-.67-.08-.44-.13-.9-.19-1.35,0-.05,0-.11-.07-.11Zm3.39,2.24,0,0,.22-.07a2.68,2.68,0,0,0,1.16-1.05,2,2,0,0,0,.33-1c0-.09,0-.12-.11-.11H14.34A5.67,5.67,0,0,1,13.88,13.29Z"/><path class="cls-2" d="M14.73,18.22V17.9c.12,0,.15-.09.19-.19l.58-1.6a.12.12,0,0,1,.13-.1c.33,0,.32,0,.43.3.17.48.34,1,.52,1.42a1.27,1.27,0,0,0,.13.19h0v.31a3,3,0,0,1-.3,0c-.11,0-.16-.1-.19-.19s-.07-.19-.1-.29a.11.11,0,0,0-.12-.09,5.81,5.81,0,0,1-.59,0,.1.1,0,0,0-.12.09c0,.1-.07.2-.11.31a.23.23,0,0,1-.26.17Zm1.3-.9-.29-.88-.28.88Z"/><path class="cls-2" d="M10.83,17.72c.16-.48.33-.95.49-1.43.08-.25.12-.28.39-.28h.14v.34c-.12,0-.15.07-.18.16-.19.54-.39,1.08-.59,1.61,0,.08-.06.1-.14.1-.31,0-.31,0-.42-.29L10,16.48a.14.14,0,0,0-.17-.13,2.43,2.43,0,0,1,0-.27s0-.06.07-.07a1.21,1.21,0,0,1,.19,0,.23.23,0,0,1,.24.18c.16.49.33,1,.49,1.46Z"/><path class="cls-2" d="M14.49,16.61h-.18c-.09,0-.18,0-.16-.12h0a.31.31,0,0,0-.3-.15.31.31,0,0,0-.32.19.24.24,0,0,0,.14.27l.48.23a.71.71,0,0,1,.4.43.63.63,0,0,1-.26.68,1,1,0,0,1-1.2-.22l.21-.26a.82.82,0,0,0,.54.25c.17,0,.29-.07.32-.19a.27.27,0,0,0-.18-.32l-.54-.28a.59.59,0,0,1-.28-.73.61.61,0,0,1,.3-.31.91.91,0,0,1,.72,0C14.46,16.13,14.54,16.29,14.49,16.61Z"/><path class="cls-2" d="M12.84,16v.33h-.22v.14c0,.41,0,.82,0,1.23,0,.11,0,.18.15.16a.09.09,0,0,1,.07,0v.31H12a2.44,2.44,0,0,1,0-.27s0,0,.06-.05h.14V16.36H12V16Z"/></svg>