<svg id="Layer_1" data-name="Layer 1" xmlns="http://www.w3.org/2000/svg" viewBox="0 0 25 25"><defs><style>.cls-1{fill:#fff;}.cls-2{fill:#005897;}</style></defs><circle class="cls-1" cx="12.5" cy="12.5" r="12"/><path class="cls-2" d="M12.5,1A11.5,11.5,0,1,1,1,12.5,11.51,11.51,0,0,1,12.5,1m0-1A12.5,12.5,0,1,0,25,12.5,12.5,12.5,0,0,0,12.5,0Z"/><path class="cls-2" d="M18.86,15.17l-1.15,1.39A1.23,1.23,0,0,1,18,18.08a1.2,1.2,0,0,1-1.35.63,1.32,1.32,0,0,1-1.45,1c-.08,0-.18.11-.24.19-.49.76-.74.87-1.69.69-.86,1.1-1.36,1.13-2.44.15a.6.6,0,0,0-.71-.18,1,1,0,0,1-1.21-.52.87.87,0,0,0-.49-.36c-.59-.1-.64-.8-1-1s-.87-.42-1-1A.78.78,0,0,0,6,17.39a1.17,1.17,0,0,1-.62-1.09,6.66,6.66,0,0,0-.21-1.12A2.93,2.93,0,0,1,2,14.36,1.48,1.48,0,0,1,2,13.18C2.82,11.42,3.73,9.7,4.64,8a1.09,1.09,0,0,1,1.49-.49,9,9,0,0,1,1.37.74A1.08,1.08,0,0,1,8,8.91a.81.81,0,0,0,.62.8,1.63,1.63,0,0,0,1.84-.11,3.37,3.37,0,0,1,3.28-.73c.85.17,1.71.29,2.57.4.36,0,.61-.06.69-.55.15-.86,2.32-1.67,3-1.16a1.44,1.44,0,0,1,.48.63c.62,1.8,1.22,3.61,1.82,5.42a1.12,1.12,0,0,1-.75,1.57c-.27.1-.55.18-.82.27C19.77,15.78,19.73,15.78,18.86,15.17ZM7.72,10.06c-.65,1.24-1.26,2.51-2,3.73-.36.62-.38,1.08.26,1.48.8-.5,1.12-.46,1.87.25.91-.4,1.41-.16,1.68.8a.48.48,0,0,0,.15.27c.9.66.91.69.67,1.71.48.21.87.62.7,1.11-.24.7.2,1,.6,1.23.17.11.48,0,.73,0,0-.26.05-.57-.08-.76s-.52-.46-.74-.73-.06-.36-.09-.55a1.16,1.16,0,0,1,.51.09c.47.37.91.78,1.35,1.18.27.23.55.32.82,0s.21-.59-.07-.85-.89-.75-1.29-1.17c-.13-.13-.14-.37-.2-.57.22,0,.48,0,.63.11.61.48,1.15,1,1.77,1.5.16.12.51,0,.77,0a6.83,6.83,0,0,0-.06-.78c0-.09-.16-.15-.24-.23C15,17.42,14.44,17,14,16.48c-.13-.12-.14-.37-.21-.57a2.59,2.59,0,0,1,.64.11,1.74,1.74,0,0,1,.44.38l1.7,1.49a.51.51,0,0,0,.81,0,.52.52,0,0,0-.09-.81l-.21-.2-4.88-4.3a4.08,4.08,0,0,0-.61-.36,3.69,3.69,0,0,0-.3.71A2.31,2.31,0,0,1,10,14.76c-.63.29-1.32,0-1.27-.58.1-1.2-.48-2.52.5-3.52Zm11,4.46L17.16,10a14.88,14.88,0,0,1-2.7-.33A3.83,3.83,0,0,0,9.89,11c-.17.21-.46.42-.48.64-.05.84,0,1.68,0,2.74.37-.28.68-.42.82-.66a3.74,3.74,0,0,0,.38-1.14c.11-.49.3-1,.81-1a1.66,1.66,0,0,1,1.06.39c1.42,1.21,2.82,2.46,4.21,3.71.29.26.49.3.77,0S18.22,14.94,18.67,14.52Zm3-.55c0-.1-.08-.25-.12-.4-.47-1.4-1-2.81-1.41-4.22-.51-1.58-.37-1.52-2-.94-.66.24-.73.35-.5,1,.55,1.68,1.12,3.36,1.68,5a.83.83,0,0,0,.13.32c.54.5,1,0,1.49-.15C21.36,14.58,21.74,14.5,21.72,14Zm-17.5,1a3.24,3.24,0,0,0,.43-.51c.71-1.36,1.43-2.73,2.12-4.1.8-1.6,1-1.19-.7-2.15-.44-.24-.72-.16-.94.26-.85,1.64-1.71,3.28-2.53,4.93-.09.18-.1.56,0,.63C3.09,14.34,3.62,14.6,4.22,14.94Zm4.72,1.41c-.08-.1-.15-.27-.24-.29a.59.59,0,0,0-.46.1,11.06,11.06,0,0,0-1.06,1.21c-.08.12,0,.37,0,.55.19,0,.45,0,.55-.08.39-.38.72-.8,1.07-1.21A1.82,1.82,0,0,0,8.94,16.35Zm1,1.38,0-.24c-.2-.06-.51-.23-.59-.16a7.54,7.54,0,0,0-1.05,1.21c-.17.25.19.64.4.47A14,14,0,0,0,9.92,17.73Zm-3.08-2.3a7.64,7.64,0,0,0-.7,1c0,.06.21.27.32.42.26-.29.54-.56.76-.86C7.25,15.91,7,15.69,6.84,15.43ZM10,18.74a7.84,7.84,0,0,0-.54.9c0,.05.23.22.36.33a5.53,5.53,0,0,0,.58-.7C10.47,19.22,10.25,19,10,18.74Z"/></svg>