<svg id="Layer_1" data-name="Layer 1" xmlns="http://www.w3.org/2000/svg" viewBox="0 0 25 25"><defs><style>.cls-1{fill:#fff;}.cls-2,.cls-3,.cls-4{fill:#005897;}.cls-3,.cls-4{stroke:#005897;stroke-miterlimit:10;}.cls-3{stroke-width:0.3px;}.cls-4{stroke-width:0.18px;}</style></defs><circle class="cls-1" cx="12.5" cy="12.5" r="12"/><path class="cls-2" d="M12.5,1A11.5,11.5,0,1,1,1,12.5,11.51,11.51,0,0,1,12.5,1m0-1A12.5,12.5,0,1,0,25,12.5,12.5,12.5,0,0,0,12.5,0Z"/><path class="cls-3" d="M7.41,12.16,4.63,10.42c.25-.4.43-.47.82-.37l2.92.79a.37.37,0,0,0,.42-.13,6.54,6.54,0,0,1,.77-.81,2.22,2.22,0,0,1,.78-.43.37.37,0,0,1,.48.47,1.82,1.82,0,0,1-.41.76,7.33,7.33,0,0,1-.85.82.32.32,0,0,0-.11.39c.27,1,.52,1.95.78,2.92.11.4,0,.56-.36.83L8.13,12.88a12.3,12.3,0,0,1-.93.86.81.81,0,0,0-.36,1,2.2,2.2,0,0,1,.1.57.45.45,0,0,1,0,.26c-.19.34-.29.33-.5,0s-.33-.53-.5-.8a3.1,3.1,0,0,1-.4.21,1.18,1.18,0,0,1-.27,0,1.1,1.1,0,0,1,0-.26,2.73,2.73,0,0,1,.22-.4c-.28-.17-.55-.33-.81-.51a.72.72,0,0,1-.22-.27c.12-.13.23-.3.45-.26s.69.13,1,.17a.38.38,0,0,0,.28-.07C6.61,13,7,12.61,7.41,12.16Zm2.51,3.19a.34.34,0,0,0,.14-.43c-.28-1-.55-2-.83-3.06a.34.34,0,0,1,.1-.4,10.85,10.85,0,0,0,.92-.87,2,2,0,0,0,.37-.61.23.23,0,0,0-.31-.31A1.82,1.82,0,0,0,9.7,10a12.05,12.05,0,0,0-.85.9.37.37,0,0,1-.44.12c-1-.29-2-.55-3-.83a.33.33,0,0,0-.43.14l.24.16L7.5,12c.19.12.19.2,0,.35-.42.44-.83.89-1.26,1.32a.35.35,0,0,1-.3.08c-.33,0-.66-.11-1-.16-.09,0-.18,0-.28,0a4.5,4.5,0,0,0,.84.6c.18.11.23.2.07.37a2.2,2.2,0,0,0-.17.25.37.37,0,0,0,.22-.09c.29-.19.29-.19.48.1l.49.78.07,0a1.23,1.23,0,0,0,0-.27c-.06-.35-.13-.69-.18-1A.32.32,0,0,1,6.61,14c.46-.45.93-.88,1.4-1.33.11-.1.19-.1.28,0s.33.55.5.82Z"/><path class="cls-4" d="M10.92,17.53h-7a.83.83,0,0,1-1-1V8.74a.84.84,0,0,1,1-1c4.72,0,6.36,0,11.08,0,2.1,0,4.2,0,6.3,0a.82.82,0,0,1,.84.82v8.13a.8.8,0,0,1-.85.81Zm6.55-9.24-.36,0L4,8.29c-.5,0-.51,0-.52.51,0,2.59,0,5.17,0,7.76,0,.36.12.45.46.45,5.43,0,7.78,0,13.2,0l.32,0Zm.62,0V17c1,0,2,0,3,0,.33,0,.41-.13.41-.43,0-1,0-2.08,0-3.11,0-1.61,0-3.22,0-4.83,0-.19,0-.35-.26-.35Z"/><path class="cls-4" d="M14.06,12.82c-.61,0-1.22,0-1.83,0-.13,0-.35-.12-.37-.23s.17-.3.35-.3H16c.18,0,.38.07.32.29a.46.46,0,0,1-.34.24c-.63,0-1.26,0-1.89,0Z"/><path class="cls-4" d="M14.07,14.21h1.86c.18,0,.4,0,.36.24a.5.5,0,0,1-.37.27c-.9,0-1.8,0-2.71,0a8,8,0,0,1-1,0,.53.53,0,0,1-.37-.29c0-.23.18-.24.35-.24Z"/><path class="cls-4" d="M14.07,10.41c.64,0,1.29,0,1.93,0,.1,0,.2.14.31.22-.1.08-.2.23-.3.23-1.3,0-2.61,0-3.91,0-.09,0-.17-.18-.26-.28.1-.08.19-.23.29-.24.65,0,1.29,0,1.94,0Z"/></svg>