<svg id="Layer_1" data-name="Layer 1" xmlns="http://www.w3.org/2000/svg" viewBox="0 0 25 25"><defs><style>.cls-1{fill:#fff;}.cls-2{fill:#005897;}</style></defs><circle class="cls-1" cx="12.5" cy="12.5" r="12"/><path class="cls-2" d="M12.5,1A11.5,11.5,0,1,1,1,12.5,11.51,11.51,0,0,1,12.5,1m0-1A12.5,12.5,0,1,0,25,12.5,12.5,12.5,0,0,0,12.5,0Z"/><path class="cls-2" d="M12.76,4.13a8.52,8.52,0,0,1,1.15.35A3.71,3.71,0,0,1,16.25,8a11.56,11.56,0,0,1-.15,2.35,3.33,3.33,0,0,1-1.48,2.12.58.58,0,0,0-.32.58c0,.61,0,.61.59.79l.35.11a2.83,2.83,0,0,1,1.7-1.07,2.73,2.73,0,0,1,2.62,4.43,4,4,0,0,1-.78.64.38.38,0,0,0-.19.38,2.47,2.47,0,0,1-.11,1.05c-.09.21-.4.34-.62.5h-11c-.6-.25-.83-.53-.81-1.07A5.22,5.22,0,0,1,9,14.15a13.76,13.76,0,0,1,1.41-.54,5.42,5.42,0,0,1,0-.57.61.61,0,0,0-.32-.62,3.74,3.74,0,0,1-1.44-2,6.47,6.47,0,0,1-.19-2.59,3.75,3.75,0,0,1,2.1-3.27A11,11,0,0,1,12,4.13Zm2.73,4.46c0-.18,0-.45,0-.72a3.14,3.14,0,0,0-6-1.21,5.17,5.17,0,0,0-.26,3.15,2.91,2.91,0,0,0,2.3,2.48,3,3,0,0,0,3.2-1A3.46,3.46,0,0,0,15.49,8.59Zm-.64,6a.93.93,0,0,0-1.08,0c-.38.28-.81.49-1.21.75a.33.33,0,0,1-.4,0c-.46-.29-.93-.54-1.37-.83a.66.66,0,0,0-.59-.08,4.53,4.53,0,0,0-3.35,4c-.06.49,0,.57.5.57h9.88c.67,0,.69,0,.62-.68a.34.34,0,0,0,0-.12C15.42,18.07,14.48,16.93,14.85,14.62Zm2.62,2.88a2,2,0,1,0,0-3.94,2,2,0,1,0,0,3.94Zm-6.3-4.42c.1.29-.23.69.23,1,1,.63,1,.64,2,0,.36-.27.07-.66.15-.93Z"/><path class="cls-2" d="M17.22,15.73l.65-1.09c.14-.24.33-.38.59-.21s.2.39.06.61c-.27.46-.54.92-.82,1.37s-.4.39-.73.12c-.16-.12-.31-.25-.46-.38s-.29-.37-.11-.6.39-.16.58,0Z"/></svg>