<?xml version="1.0" encoding="utf-8"?>
<!-- Generator: Adobe Illustrator 16.0.0, SVG Export Plug-In . SVG Version: 6.00 Build 0)  -->
<!DOCTYPE svg PUBLIC "-//W3C//DTD SVG 1.1//EN" "http://www.w3.org/Graphics/SVG/1.1/DTD/svg11.dtd">
<svg version="1.1" id="Layer_1" xmlns="http://www.w3.org/2000/svg" xmlns:xlink="http://www.w3.org/1999/xlink" x="0px" y="0px"
	 width="24px" height="24px" viewBox="0 0 24 24" enable-background="new 0 0 24 24" xml:space="preserve">
<g>
	<path fill-rule="evenodd" clip-rule="evenodd" fill="#FFFFFF" d="M11.947,24.057c-2.602,0-5.203,0.002-7.804-0.001
		c-1.555-0.002-2.464-0.911-2.466-2.466c-0.003-2.585-0.003-5.169,0-7.753c0.002-1.485,0.96-2.448,2.457-2.449
		c5.253-0.006,10.506-0.006,15.76,0c1.469,0.001,2.432,0.959,2.436,2.414c0.007,2.617,0.007,5.236,0,7.854
		c-0.003,1.484-0.928,2.396-2.426,2.398C17.251,24.06,14.6,24.057,11.947,24.057z M13.305,15.24c0-0.794-0.013-1.525,0.006-2.254
		c0.009-0.357-0.121-0.506-0.475-0.466c-0.118,0.013-0.241,0.017-0.356-0.001c-0.502-0.079-0.624,0.142-0.62,0.624
		c0.022,2.634,0.01,5.269,0.01,7.903c0,0.74,0.001,0.715,0.74,0.751c0.441,0.021,0.841-0.222,1.33-0.009
		c0.745,0.323,1.488-0.18,1.508-0.992c0.04-1.631,0.041-3.265-0.006-4.895c-0.024-0.846-0.788-1.262-1.573-0.939
		C13.7,15.032,13.541,15.124,13.305,15.24z M7.281,14.893c0,0.737-0.002,1.448,0,2.159c0.005,1.291-0.01,2.584,0.025,3.875
		c0.021,0.762,0.588,1.121,1.299,0.868c0.3-0.107,0.583-0.261,0.874-0.395c0.176,0.429,0.661,0.529,1.468,0.301
		c0-2.267,0-4.535,0-6.813c-0.468,0-0.9,0-1.393,0c0,0.215,0,0.397,0,0.579c0,1.377,0,2.754,0,4.132
		c0,0.597-0.122,0.728-0.808,0.823c-0.01-0.185-0.029-0.364-0.029-0.545c-0.003-1.275-0.002-2.551-0.002-3.826
		C8.716,14.76,8.716,14.76,7.281,14.893z M17.804,18.509c0.059-0.024,0.088-0.049,0.119-0.049c0.578,0.001,1.156-0.007,1.733,0.013
		c0.303,0.01,0.431-0.082,0.416-0.402c-0.023-0.492,0.014-0.987-0.015-1.479c-0.054-0.934-0.774-1.686-1.622-1.732
		c-0.932-0.052-1.763,0.515-1.815,1.411c-0.08,1.353-0.096,2.719-0.002,4.068c0.074,1.058,1.162,1.665,2.182,1.363
		c1.009-0.299,1.421-1.095,1.212-2.34c-0.014-0.011-0.027-0.029-0.041-0.029c-0.319,0-0.665-0.067-0.946,0.036
		c-0.119,0.046-0.052,0.481-0.163,0.688c-0.111,0.205-0.344,0.483-0.517,0.479c-0.185-0.006-0.488-0.286-0.516-0.479
		C17.755,19.547,17.804,19.019,17.804,18.509z M4.963,13.862c0,0.835,0,1.629,0,2.422c0,1.682-0.007,3.362,0.01,5.044
		c0.002,0.156,0.134,0.431,0.236,0.444c0.374,0.055,0.761,0.021,1.192,0.021c0-2.691,0-5.298,0-7.968c0.431,0,0.81,0,1.216,0
		c0-0.367,0.031-0.677-0.016-0.974c-0.019-0.124-0.205-0.313-0.318-0.315c-1.086-0.023-2.174-0.021-3.26-0.003
		c-0.103,0.002-0.28,0.149-0.29,0.243c-0.035,0.345-0.014,0.695-0.014,1.085C4.171,13.862,4.539,13.862,4.963,13.862z"/>
	<path fill-rule="evenodd" clip-rule="evenodd" fill="#FFFFFF" d="M14.338,3.343c0.407,0,0.741,0,1.128,0c0,0.953,0,1.883,0,2.813
		c0,0.748-0.006,1.497,0.003,2.245c0.006,0.51,0.182,0.595,0.638,0.36c0.347-0.181,0.514-0.404,0.505-0.836
		c-0.032-1.51-0.013-3.022-0.013-4.57c0.375,0,0.721,0,1.102,0c0,2.273,0,4.544,0,6.854c-0.36,0-0.723,0-1.107,0
		c-0.015-0.227-0.028-0.442-0.046-0.714c-0.271,0.201-0.492,0.402-0.747,0.548c-0.805,0.455-1.447,0.111-1.457-0.808
		C14.324,7.284,14.338,5.331,14.338,3.343z"/>
	<path fill-rule="evenodd" clip-rule="evenodd" fill="#FFFFFF" d="M7.854,1.034c0.415,0,0.77,0,1.193,0
		C8.859,1.706,8.685,2.351,8.5,2.992C8.18,4.098,7.83,5.195,7.543,6.309C7.428,6.76,7.421,7.244,7.41,7.716
		c-0.02,0.826-0.006,1.655-0.006,2.506c-0.388,0-0.721,0-1.098,0C6.159,8.68,6.455,7.114,5.965,5.59
		C5.491,4.114,5.138,2.601,4.708,1.02c0.349,0,0.631,0.016,0.911-0.004c0.292-0.02,0.409,0.091,0.472,0.386
		C6.318,2.459,6.58,3.508,6.938,4.582C7.241,3.407,7.544,2.233,7.854,1.034z"/>
	<path fill-rule="evenodd" clip-rule="evenodd" fill="#FFFFFF" d="M13.128,6.819c0,0.613,0.017,1.226-0.003,1.836
		c-0.033,0.955-0.721,1.585-1.698,1.586c-0.932,0-1.653-0.631-1.677-1.556c-0.034-1.308-0.033-2.618,0-3.926
		c0.022-0.868,0.747-1.441,1.715-1.439c0.894,0.002,1.617,0.618,1.656,1.46c0.031,0.679,0.006,1.359,0.006,2.039
		C13.127,6.819,13.128,6.819,13.128,6.819z M12.01,6.782c0-0.593-0.007-1.187,0.002-1.78c0.006-0.4-0.232-0.545-0.575-0.549
		c-0.351-0.004-0.574,0.15-0.571,0.55c0.007,1.17,0.007,2.339,0,3.509c-0.002,0.378,0.181,0.584,0.542,0.587
		c0.368,0.002,0.609-0.172,0.604-0.587C12.005,7.935,12.01,7.359,12.01,6.782z"/>
	<path fill-rule="evenodd" clip-rule="evenodd" fill="#005797" d="M13.305,15.24c0.235-0.116,0.395-0.208,0.563-0.277
		c0.786-0.322,1.549,0.094,1.573,0.939c0.047,1.63,0.045,3.264,0.006,4.895c-0.02,0.813-0.763,1.315-1.508,0.992
		c-0.489-0.213-0.889,0.03-1.33,0.009c-0.739-0.036-0.74-0.011-0.74-0.751c0-2.635,0.012-5.27-0.01-7.903
		c-0.004-0.482,0.118-0.703,0.62-0.624c0.116,0.018,0.239,0.014,0.356,0.001c0.354-0.04,0.484,0.108,0.475,0.466
		C13.292,13.715,13.305,14.446,13.305,15.24z M13.319,18.35c0,0.576,0.011,1.152-0.005,1.729c-0.008,0.304,0.079,0.492,0.411,0.502
		c0.361,0.011,0.407-0.236,0.409-0.508c0.005-0.61,0.002-1.221,0.002-1.83c0-0.525,0.006-1.051-0.005-1.576
		c-0.006-0.272-0.084-0.506-0.431-0.507c-0.366-0.002-0.389,0.231-0.384,0.514C13.326,17.231,13.319,17.791,13.319,18.35z"/>
	<path fill-rule="evenodd" clip-rule="evenodd" fill="#005797" d="M7.281,14.893c1.435-0.133,1.435-0.133,1.435,1.158
		c0,1.275-0.001,2.551,0.002,3.826c0,0.181,0.019,0.36,0.029,0.545c0.686-0.096,0.808-0.227,0.808-0.823
		c0.001-1.378,0-2.755,0-4.132c0-0.182,0-0.364,0-0.579c0.493,0,0.925,0,1.393,0c0,2.278,0,4.547,0,6.813
		C10.141,21.93,9.655,21.829,9.48,21.4c-0.292,0.134-0.574,0.287-0.874,0.395c-0.711,0.253-1.278-0.106-1.299-0.868
		c-0.036-1.291-0.021-2.584-0.025-3.875C7.279,16.341,7.281,15.63,7.281,14.893z"/>
	<path fill-rule="evenodd" clip-rule="evenodd" fill="#005797" d="M17.804,18.509c0,0.51-0.048,1.038,0.024,1.549
		c0.028,0.192,0.331,0.473,0.516,0.479c0.172,0.005,0.406-0.273,0.517-0.479c0.111-0.207,0.044-0.643,0.163-0.688
		c0.281-0.104,0.626-0.036,0.946-0.036c0.014,0,0.027,0.019,0.041,0.029c0.209,1.245-0.203,2.041-1.212,2.34
		c-1.02,0.302-2.108-0.306-2.182-1.363c-0.094-1.35-0.078-2.716,0.002-4.068c0.053-0.896,0.884-1.463,1.815-1.411
		c0.848,0.047,1.568,0.799,1.622,1.732c0.029,0.491-0.008,0.986,0.015,1.479c0.015,0.32-0.113,0.412-0.416,0.402
		c-0.577-0.02-1.155-0.012-1.733-0.013C17.892,18.46,17.862,18.484,17.804,18.509z M18.889,17.121
		c-0.125-0.407-0.2-0.732-0.339-1.028c-0.028-0.061-0.42-0.05-0.441,0.004c-0.12,0.319-0.18,0.66-0.268,1.024
		C18.223,17.121,18.47,17.121,18.889,17.121z"/>
	<path fill-rule="evenodd" clip-rule="evenodd" fill="#005797" d="M4.963,13.862c-0.424,0-0.792,0-1.242,0
		c0-0.39-0.021-0.74,0.014-1.085c0.01-0.094,0.187-0.241,0.29-0.243c1.086-0.018,2.174-0.021,3.26,0.003
		c0.113,0.003,0.299,0.191,0.318,0.315c0.047,0.297,0.016,0.606,0.016,0.974c-0.407,0-0.786,0-1.216,0c0,2.67,0,5.276,0,7.968
		c-0.432,0-0.819,0.033-1.192-0.021c-0.102-0.014-0.234-0.288-0.236-0.444c-0.017-1.682-0.01-3.362-0.01-5.044
		C4.963,15.491,4.963,14.697,4.963,13.862z"/>
	<path fill-rule="evenodd" clip-rule="evenodd" fill="#FFFFFF" d="M13.319,18.35c0-0.559,0.006-1.118-0.003-1.677
		c-0.005-0.282,0.018-0.516,0.384-0.514c0.347,0.001,0.425,0.234,0.431,0.507c0.011,0.525,0.005,1.051,0.005,1.576
		c0,0.609,0.003,1.22-0.002,1.83c-0.002,0.271-0.048,0.519-0.409,0.508c-0.332-0.01-0.419-0.198-0.411-0.502
		C13.331,19.502,13.319,18.926,13.319,18.35z"/>
	<path fill-rule="evenodd" clip-rule="evenodd" fill="#FFFFFF" d="M18.889,17.121c-0.419,0-0.667,0-1.048,0
		c0.087-0.364,0.147-0.705,0.268-1.024c0.021-0.054,0.414-0.064,0.441-0.004C18.689,16.389,18.764,16.714,18.889,17.121z"/>
</g>
</svg>
